<?xml version="1.0" encoding="UTF-8"?>
<svg width="64px" height="64px" viewBox="0 0 64 64" version="1.1" xmlns="http://www.w3.org/2000/svg">
  <!-- Generator: Sketch 52.2 (67145) - http://www.bohemiancoding.com/sketch -->
  <title>icon_bed</title>
  <desc>Created with Sketch.</desc>
  <g id="bed" stroke="none" stroke-width="1" fill="none" fill-rule="evenodd">
    <g id="Group-5"
       transform="translate(32.000000, 32.000000) scale(-1, 1) translate(-32.000000, -32.000000) translate(3.000000, 12.000000)"
       fill="#000000">X
      <path
        d="M51.1692585,37.9474427 C50.974883,37.933545 50.778709,37.9448325 50.5833651,37.9450441 C49.8392045,37.9451852 49.6619839,37.9451852 49.6197193,37.5063139 C49.6168832,37.4771076 49.6146697,37.4459259 49.6129404,37.4126279 C49.6118336,37.3920988 49.6110036,37.3708642 49.6102427,37.3487831 C49.6087209,37.3046208 49.6078216,37.2571429 49.6072682,37.2061376 C49.6064382,37.1296649 49.6064382,37.0453616 49.6064382,36.9523104 C49.6064382,36.2381658 49.6064382,36.2381658 50.3232064,36.2381658 C50.6218944,36.2381658 50.9218967,36.255097 51.2192012,36.2335097 C51.5015644,36.2130511 51.5845026,36.3381305 51.5740575,36.6026102 C51.5616064,36.9185185 51.5545508,37.2365432 51.5759252,37.5515344 C51.5975762,37.871746 51.4560488,37.9679718 51.1692585,37.9474427 M47.4063291,15.7552734 C46.7908299,15.7523104 46.7897231,15.8033862 46.7897231,15.3056085 C46.7893772,13.0016226 46.7898614,10.6975661 46.7893081,8.39358025 C46.7891005,7.36952381 46.4380487,7.00973545 45.4409925,7.0096649 C40.8075239,7.00952381 36.1740553,7.00959436 31.5405867,7.00959436 C31.4598621,7.00959436 31.3791375,7.00832451 31.2985512,7.01029982 C30.625016,7.02680776 30.2285177,7.42342152 30.2267883,8.11428571 C30.2211853,10.394709 30.2241598,12.6752734 30.2238831,14.9556966 C30.2238139,15.0967901 30.2135763,15.2387302 30.2255432,15.3786949 C30.2533507,15.7034215 30.1216457,15.8051499 29.7061249,15.7520282 C29.1922404,15.6862081 28.6725454,15.6760494 28.1585226,15.7401764 C27.6352306,15.8054321 27.4918355,15.7667019 27.4939107,15.372134 C27.5064309,13.0212346 27.4775859,10.6698413 27.5118956,8.31929453 C27.5257993,7.36881834 26.9474458,6.99767196 26.232822,7.00042328 C21.5532843,7.0182716 16.8737466,7.00931217 12.1941398,7.00987654 C11.2919194,7.01001764 10.9419052,7.36832451 10.9416977,8.2896649 C10.9411443,10.6289242 10.9350571,12.9681834 10.9484766,15.3073721 C10.9506901,15.6979894 10.8534332,15.8147443 10.3503397,15.7528042 C9.81030792,15.6862787 9.26418892,15.6711111 8.72457217,15.7413757 C8.49000732,15.7718519 8.33340018,15.7516755 8.05726249,15.7386243 L8.05726249,15.300388 C8.05726249,11.0567901 8.05719332,6.81326279 8.05740084,2.56973545 C8.05740084,2.09763668 8.05830008,2.09657848 8.53662977,2.09657848 C22.3217937,2.09643739 36.1070269,2.09643739 49.8921909,2.09657848 C50.3685837,2.09664903 50.3696905,2.09777778 50.3697596,2.57925926 C50.3700363,6.81107584 50.3701055,11.0428924 50.3696905,15.274709 C50.3696213,15.8016931 50.3677536,15.732769 49.7007898,15.7453263 C48.9362232,15.7597178 48.1710341,15.7589418 47.4063291,15.7552734 M44.7414483,15.353157 C44.743731,15.682328 44.6399719,15.7654321 44.3271726,15.7646561 C40.4190496,15.754709 36.5109267,15.7537919 32.6028729,15.7657143 C32.2608827,15.7667725 32.1780829,15.6554497 32.1803656,15.3243034 C32.1935084,13.3844092 32.1937851,11.4443739 32.1802273,9.50447972 C32.1778754,9.16373898 32.2828105,9.06553792 32.613733,9.06786596 C34.0748693,9.07837743 35.5360749,9.07703704 36.9972804,9.07569665 C37.484395,9.07520282 37.9714405,9.07470899 38.4585551,9.07470899 C39.432646,9.07470899 40.4068061,9.07640212 41.3809661,9.07640212 C42.3551262,9.07640212 43.3292863,9.07477954 44.3033772,9.06828924 C44.6261373,9.06603175 44.7445611,9.14878307 44.7419325,9.49798942 C44.7272679,11.4496649 44.7280288,13.401552 44.7414483,15.353157 M25.4477111,15.4062081 C25.4485411,15.6461376 25.4130555,15.764515 25.1322832,15.7638801 C21.1548492,15.7550617 17.1774151,15.7578131 13.199981,15.7568959 C13.1321917,15.7568254 13.0644716,15.7458907 12.95255,15.7361552 C12.9458403,15.5904056 12.9359486,15.4752028 12.9358794,15.3600705 C12.9349801,13.3965432 12.9412749,11.4329453 12.9288929,9.46948854 C12.9269561,9.16416226 13.0054672,9.06744268 13.3144619,9.06828924 C17.2342059,9.07830688 21.1540191,9.07738977 25.0737631,9.06962963 C25.354812,9.06906526 25.4514464,9.14723104 25.4497862,9.44507937 C25.4383727,11.4320988 25.440863,13.4191887 25.4477111,15.4062081 M7.58156138,37.9425044 C7.12149331,37.9410935 6.66142523,37.9405291 6.20142634,37.943351 C6.0082268,37.9444797 5.89969473,37.8740741 5.9035684,37.6562963 C5.91048568,37.2693474 5.91110823,36.8819753 5.90246164,36.495097 C5.89782706,36.2879718 5.99736667,36.2318166 6.17839181,36.2371076 C6.23877963,36.2388713 6.29916746,36.2398589 6.35948611,36.2403527 C6.54058041,36.2418342 6.72181306,36.2388007 6.90304571,36.2388007 C7.07556259,36.2388713 7.24828699,36.2435979 7.42066552,36.2413404 C7.47814809,36.2406349 7.53563066,36.2391534 7.59297488,36.2364727 C7.80471272,36.2265961 7.87796668,36.321552 7.87305541,36.5292416 C7.8642013,36.9044797 7.86205694,37.2802116 7.8736088,37.6552381 C7.88052607,37.8777425 7.77240904,37.9430688 7.58156138,37.9425044 M57.4429517,18.8802116 C57.0124204,17.6005644 56.1503202,16.7154145 54.8857729,16.3081481 C54.1893415,16.0838095 53.4590846,15.9519577 52.7346382,15.8431746 C52.4275111,15.797037 52.3610361,15.7036332 52.3627654,15.4136155 C52.3734872,13.5456085 52.36823,11.6776014 52.36823,9.80959436 C52.36823,7.06045855 52.3538421,4.31111111 52.377845,1.5621164 C52.3842089,0.832028219 52.2159808,0.272592593 51.4977599,0 L6.88132546,0 C6.85420974,0.0214462081 6.83020679,0.0507936508 6.79956325,0.0632804233 C6.17915271,0.315978836 6.00359222,0.576790123 6.00352305,1.25932981 C6.00310801,5.96218695 6.00331553,10.6650441 6.00317719,15.3679718 C6.00317719,15.8522046 6.00200125,15.8466314 5.5334941,15.9061728 C4.98585331,15.9758025 4.43323208,16.0248325 3.89389201,16.1377778 C2.03521978,16.5269136 0.925204389,17.7278307 0.397485352,19.5485714 C0.0871071484,20.6194004 -0.00599939546,21.7209171 0.000295326308,22.8244797 C0.0148907801,25.3513228 0.0835793373,27.8778131 0.110280025,30.4046561 C0.126328107,31.9211287 0.106198832,33.4379541 0.099696592,34.9545679 C0.0994890737,35.0141799 0.100595838,35.0712522 0.103086058,35.1262081 C0.103916131,35.1444797 0.105783795,35.1610582 0.106959732,35.178836 C0.109242434,35.2144621 0.11138679,35.2503704 0.114983773,35.2838801 C0.117128129,35.3038448 0.120448422,35.3221164 0.123007814,35.3414462 C0.126950662,35.3706526 0.130616819,35.4004233 0.135666431,35.4280071 C0.139263414,35.447478 0.144036335,35.4653263 0.148186701,35.4840917 C0.153789695,35.5093474 0.159046826,35.535097 0.165687411,35.5588713 C0.170737023,35.5772134 0.177031745,35.5940741 0.182773085,35.6116402 C0.190036225,35.6336508 0.196953502,35.6561552 0.205185061,35.6768959 C0.211963992,35.6938272 0.219780515,35.7092063 0.227182001,35.725291 C0.236105288,35.7446208 0.244821056,35.7643739 0.254781935,35.7825044 C0.26315184,35.7977425 0.272628509,35.8117108 0.281690141,35.8261023 C0.29241192,35.8430335 0.30292618,35.8602469 0.314685551,35.8760494 C0.324784775,35.8895944 0.33592159,35.90194 0.346781714,35.914709 C0.359371158,35.9294533 0.371822256,35.9441975 0.385449291,35.9578836 C0.397277834,35.9697354 0.410143969,35.9805291 0.422802585,35.9915344 C0.437259693,36.0041623 0.451716801,36.0167901 0.467211501,36.0283598 C0.480976882,36.0385185 0.495641508,36.0478307 0.510167789,36.0572134 C0.526561735,36.0677249 0.543094026,36.0783069 0.560594736,36.0879718 C0.576227781,36.0964374 0.5926909,36.1041975 0.609154018,36.1118871 C0.627623147,36.1205644 0.646230621,36.1292416 0.665875687,36.1369312 C0.683376397,36.1439153 0.701776353,36.1500529 0.720314654,36.156261 C0.740858966,36.1631746 0.761679969,36.169806 0.783400217,36.1757319 C0.80297611,36.1810935 0.823243731,36.1858907 0.843788043,36.1905467 C0.866545883,36.1956966 0.889649587,36.2004938 0.913583364,36.2047972 C0.935303613,36.2086772 0.957577244,36.2119929 0.980196738,36.2151675 C1.00516811,36.2186243 1.03069286,36.2217284 1.05684016,36.2244092 C1.0806356,36.2267372 1.10491524,36.2288536 1.12974826,36.2305467 C1.1570715,36.232381 1.18508647,36.233933 1.213724,36.2349912 C1.23959461,36.2359788 1.26588026,36.2366843 1.29278847,36.237037 C1.33726656,36.2376014 1.38188299,36.2380247 1.42926634,36.2368959 C1.99599882,36.2231393 2.5632155,36.2207407 3.12994798,36.2351323 C3.25252212,36.2381658 3.35552037,36.2381658 3.44233219,36.2382363 L3.44267806,36.2382363 L3.44295475,36.2382363 C3.46751108,36.2382363 3.49013058,36.2383069 3.51212752,36.2383774 C3.51683126,36.2383774 3.52188088,36.238448 3.52651545,36.238448 C3.54830487,36.2385891 3.56864167,36.2388007 3.58807921,36.239224 C3.59195289,36.2392945 3.59582656,36.2393651 3.59970024,36.2395062 C3.61899944,36.2399295 3.63726105,36.2405644 3.65420838,36.2414109 C3.65614522,36.2414815 3.65787453,36.2416226 3.6597422,36.2417637 C3.67551359,36.2426808 3.69017822,36.2438095 3.7039436,36.245291 C3.70615713,36.2455026 3.70843983,36.2456437 3.71058418,36.2459259 C3.72462625,36.247478 3.73742322,36.2495238 3.74952845,36.2518519 C3.7519495,36.2523457 3.75437054,36.2528395 3.75672242,36.2533333 C3.76848179,36.255873 3.77948026,36.2587654 3.78937196,36.2622222 C3.79075542,36.262716 3.79193136,36.2632804 3.79324564,36.2637743 C3.80258396,36.2673016 3.81116139,36.2711817 3.81904708,36.2757672 C3.8200155,36.2763316 3.82112226,36.2767549 3.82202151,36.2773192 C3.82997638,36.2821869 3.837032,36.2877601 3.84353424,36.2938272 C3.84484852,36.2950265 3.84616281,36.2963668 3.84740792,36.2975661 C3.85356429,36.3039153 3.85909811,36.3108995 3.86400938,36.3185891 C3.86477028,36.3198589 3.86546201,36.3211993 3.86622291,36.3224691 C3.87078831,36.3302293 3.8748695,36.3386949 3.87839731,36.3480071 C3.87874318,36.3489242 3.87915822,36.3497002 3.87943491,36.3505467 C3.88303189,36.3604233 3.88600632,36.371358 3.88856571,36.3830688 C3.88911909,36.3853968 3.88967248,36.3877249 3.89008751,36.3900529 C3.89250856,36.4019048 3.89451457,36.4145326 3.89617472,36.4282892 C3.89645141,36.4306878 3.89665893,36.4332981 3.89693562,36.4357672 C3.89838824,36.449806 3.89970253,36.4645503 3.90060177,36.4807055 C3.90067095,36.4816226 3.90074012,36.4823986 3.90080929,36.4833157 C3.90170854,36.5001764 3.90233109,36.5185185 3.9028153,36.5378483 C3.90288447,36.5415168 3.90295365,36.5451852 3.90309199,36.5489947 C3.90343786,36.5679718 3.90371455,36.5880776 3.90385289,36.6095238 C3.90385289,36.6144621 3.90392207,36.6198942 3.90392207,36.6249735 C3.90399124,36.6467019 3.90406041,36.6688536 3.90406041,36.6930511 C3.90475214,37.3044797 3.93262876,37.9175309 3.89645141,38.5267019 C3.85826804,39.1689594 4.01072482,39.6838801 4.59862416,40 L9.16402676,40 C9.23728072,39.9621164 9.3043783,39.9211993 9.3655962,39.8773192 C9.42674493,39.8335097 9.48208314,39.7868078 9.53188753,39.737284 C9.60659412,39.6629277 9.66891878,39.5822928 9.71989911,39.4954497 C9.75386294,39.4376014 9.78284633,39.3770018 9.80712597,39.3137213 C9.83140561,39.2505115 9.85105068,39.1845503 9.86626869,39.1160494 C9.8967047,38.9790476 9.90977836,38.8316755 9.90811821,38.6746384 C9.90770317,38.6353439 9.90638889,38.595485 9.90417536,38.5549206 C9.89082502,38.3104762 9.88785059,38.0653263 9.88854232,37.8200353 C9.88944156,37.4929806 9.89691222,37.1655026 9.89497538,36.8383774 C9.89449117,36.7566138 9.89338441,36.6749206 9.89151675,36.5932275 L9.89151675,36.593157 C9.8852912,36.3279718 9.98074961,36.2303351 10.2317084,36.2597531 C10.3112571,36.2690653 10.392881,36.2610229 10.4735364,36.2610229 L47.0132203,36.2610229 C47.1054276,36.2610229 47.1983266,36.2690653 47.2896347,36.2599647 C47.5165214,36.2373898 47.5879768,36.3365079 47.5838265,36.563739 C47.5823738,36.6469136 47.5815438,36.7301587 47.5812671,36.8134039 C47.580022,37.1463845 47.5868009,37.4795767 47.5873543,37.8124868 C47.5877693,38.0621517 47.5847257,38.3116049 47.5722054,38.5606349 C47.5701994,38.6009877 47.5689543,38.6407055 47.5686084,38.6799295 C47.5679859,38.7583069 47.570822,38.8342857 47.5774626,38.907866 C47.5842415,38.9815168 47.5948249,39.0526279 47.6097662,39.1212698 C47.6918743,39.4983422 47.9043039,39.7978131 48.3158127,40 L52.8812153,40 C53.4639958,39.6801411 53.6132015,39.167478 53.5727354,38.5261376 C53.5336528,37.9060317 53.5759174,37.2810582 53.5594542,36.6587654 C53.5512919,36.3487125 53.633815,36.2215873 53.9661901,36.2305467 C54.8180527,36.2534744 55.6726823,36.2031041 56.5228847,36.2488889 C57.2441492,36.2877601 57.7563735,36.0688536 58,35.3439153 L58,21.7989418 C57.9482588,21.3823633 57.9189987,20.9614109 57.8391733,20.5505467 C57.7300879,19.9887125 57.6245302,19.4198942 57.4429517,18.8802116"
        id="Fill-1"></path>
    </g>
  </g>
</svg>
