<?xml version="1.0" encoding="UTF-8"?>
<svg width="64px" height="64px" viewBox="0 0 64 64" version="1.1" xmlns="http://www.w3.org/2000/svg" xmlns:xlink="http://www.w3.org/1999/xlink">
    <!-- Generator: Sketch 52.2 (67145) - http://www.bohemiancoding.com/sketch -->
    <title>icon_restaurant</title>
    <desc>Created with Sketch.</desc>
    <g id="restaurant" stroke="none" stroke-width="1" fill="none" fill-rule="evenodd">
        <g id="Group-3" transform="translate(2.000000, 2.000000)" fill="#078DB2">
            <path d="M60,43.5 C59.7485,44.3085714 59.1195714,44.4038571 58.3922857,44.4030714 C49.585,44.3942143 40.7777143,44.3972143 31.9704286,44.3970714 C31.8395,44.3970714 31.7084286,44.4018571 31.5777143,44.3965714 C31.2721429,44.3840714 31.1012143,44.53 31.0857143,44.8319286 C31.0679286,45.1760714 31.0615714,45.5212143 31.0630714,45.8658571 C31.0762857,48.8525 31.0976429,51.8391429 31.1047857,54.8257857 C31.1072857,55.8485714 31.0696429,56.8714286 31.0631429,57.8942857 C31.0585714,58.6183571 31.1622143,58.7184286 31.8912857,58.7145714 C33.438,58.7062857 34.9845714,58.6852857 36.5313571,58.6795714 C36.9828571,58.6778571 37.4350714,58.7011429 37.8860714,58.729 C38.4831429,58.7658571 38.8888571,59.1704286 38.9000714,59.7200714 C38.9115714,60.2803571 38.5332143,60.6950714 37.9406429,60.7641429 C37.7992857,60.7807143 37.6556429,60.7839286 37.5130714,60.7839286 C32.2644286,60.7848571 27.0157857,60.7849286 21.7671429,60.7839286 C21.6245714,60.7839286 21.4809286,60.7799286 21.3396429,60.7625 C20.7893571,60.6945714 20.3852857,60.2526429 20.3909286,59.7330714 C20.3963571,59.2251429 20.7887857,58.7921429 21.3345,58.7422143 C21.8194286,58.6978571 22.3084286,58.6786429 22.7955,58.68 C24.4969286,58.685 26.1982857,58.7056429 27.8996429,58.7164286 C28.9455714,58.7231429 29.0128571,58.6531429 29.0126429,57.6112857 L29.0107143,45.3286429 C29.0107143,45.2810714 29.0110714,45.2334286 29.0105,45.1858571 C29.0034286,44.5078571 28.893,44.3959286 28.2248571,44.3959286 C19.4056429,44.3963571 10.5865,44.397 1.76728571,44.3975 C1.56492857,44.3975 1.36235714,44.4029286 1.16035714,44.3935714 C0.590642857,44.3669286 0.259928571,44.0921429 0.116071429,43.5427857 C0.0867857143,43.4308571 0.0391428571,43.3236429 0,43.2142857 L0,29.2857143 C0.0255,29.2461429 0.0620714286,29.2098571 0.0748571429,29.1665714 C0.334285714,28.2852143 0.569928571,28.1055 1.48371429,28.1022143 C2.10271429,28.1 2.72171429,28.1053571 3.3405,28.0954286 C3.47728571,28.0932857 3.61321429,28.0410714 3.7495,28.0118571 C3.76992857,27.9628571 3.79021429,27.9139286 3.8105,27.8649286 C3.70221429,27.7915714 3.573,27.7366429 3.48914286,27.6417143 C3.08828571,27.1875714 2.66042857,26.75 2.31414286,26.2560714 C1.37914286,24.9227143 0.9185,23.4308571 0.9545,21.7950714 C0.966928571,21.2302143 1.22014286,20.9192857 1.7785,20.7965714 C1.93914286,20.7612143 2.10771429,20.7480714 2.27271429,20.748 C6.68871429,20.7455 11.1047143,20.7459286 15.5207143,20.7467143 C15.6395,20.7467143 15.7598571,20.7446429 15.8768571,20.7617143 C16.6490714,20.8744286 16.9055,21.1637143 16.9003571,21.9482143 C16.8852857,24.2172857 15.9828571,26.0930714 14.3601429,27.6480714 C14.264,27.7402143 14.1956429,27.8613571 14.1142857,27.9690714 C14.25,28.0132143 14.3855,28.0948571 14.5215,28.0958571 C15.8545714,28.1054286 17.1877143,28.1028571 18.5208571,28.1010714 C18.9675714,28.1005 19.0835,28.0007143 19.0840714,27.5639286 C19.0876429,24.8500714 19.0840714,22.1362143 19.0830714,19.4222857 C19.083,19.1405714 18.9797857,18.9241429 18.7320714,18.7653571 C17.9756429,18.2803571 17.4715714,17.5815 17.1012143,16.7785 C16.2530714,14.9392857 15.9681429,12.9870714 15.9558571,10.9826429 C15.9508571,10.1609286 16.2973571,9.80828571 17.1308571,9.80535714 C19.1305,9.7985 21.1302143,9.79821429 23.1298571,9.80571429 C23.9483571,9.80878571 24.2615714,10.1470714 24.2778571,10.9632857 C24.3092143,12.5469286 24.0938571,14.0960714 23.6049286,15.6004286 C23.2377143,16.7302143 22.7876429,17.8472143 21.7720714,18.5486429 C21.2461429,18.9118571 21.1104286,19.3342857 21.141,19.8985 C21.1512143,20.0883571 21.1425,20.2792857 21.1425,20.4697143 C21.1425714,21.6709286 21.1434286,22.8720714 21.1423571,24.0732857 C21.1415,25.1683571 21.1344286,26.2634286 21.1378571,27.3584286 C21.1399286,28.0160714 21.2335,28.1027857 21.8779286,28.1020714 C22.5563571,28.1012143 23.2348571,28.0988571 23.9132857,28.1016429 C24.857,28.1054286 24.8715714,28.0932143 24.8714286,27.1556429 C24.8705,22.323 24.8775714,17.4904286 24.8632857,12.6578571 C24.8587143,11.0895714 25.3509286,9.74257143 26.4795,8.64235714 C26.7268571,8.40128571 26.8148571,8.114 26.8137857,7.77328571 C26.8074286,5.72592857 26.8103571,3.67864286 26.8108571,1.63128571 C26.8111429,0.386 27.0952857,0.104 28.3345714,0.0815714286 C28.7472143,0.0740714286 29.1592143,0.0282857143 29.5714286,0 L29.6428571,0 C30.1384286,0.0293571429 30.6335714,0.0675 31.1295714,0.0862142857 C32.0457857,0.120785714 32.4001429,0.4695 32.4017857,1.38185714 C32.4056429,3.42928571 32.4135,5.47678571 32.3947857,7.524 C32.3898571,8.05007143 32.5851429,8.43864286 32.9059286,8.84171429 C33.3158571,9.35678571 33.6835714,9.92114286 33.9762143,10.5105 C34.4576429,11.4797857 34.3815,12.5573571 34.383,13.5962143 C34.3892857,18.095 34.3565,22.5938571 34.3412857,27.0927143 C34.3405714,27.2932857 34.3648571,27.4951429 34.3922857,27.6943571 C34.4290714,27.9602143 34.6077857,28.0949286 34.8605714,28.0969286 C35.8603571,28.1047143 36.8602857,28.1024286 37.8600714,28.0975 C38.1141429,28.0962143 38.2578571,27.9645 38.2553571,27.6969286 C38.252,27.3408571 38.2496429,26.9847857 38.2495714,26.6286429 C38.2490714,24.2360714 38.2437143,21.8434286 38.2554286,19.4507857 C38.257,19.114 38.1466429,18.8970714 37.8642143,18.7169286 C37.3015,18.3582143 36.8671429,17.8632857 36.5545,17.2791429 C35.4525,15.2197857 35.1187143,12.9913571 35.1661429,10.6897857 C35.1772143,10.1510714 35.5868571,9.81342857 36.1845714,9.81107143 C38.2675714,9.80292857 40.3507143,9.80214286 42.4337857,9.81042857 C43.1010714,9.81307143 43.4815714,10.1862143 43.4846429,10.8547857 C43.4932143,12.7245714 43.2455714,14.5541429 42.5467857,16.3032143 C42.1705,17.2450714 41.6800714,18.1132857 40.8090714,18.6883571 C40.5080714,18.8871429 40.3547143,19.1215 40.3657143,19.4757857 C40.3705714,19.6301429 40.3566429,19.785 40.3573571,19.9396429 C40.3687857,22.4865 40.3813571,25.0333571 40.3934286,27.5802143 C40.3957143,28.0622857 40.4319286,28.1006429 40.9306429,28.1010714 C42.3352857,28.1023571 43.7398571,28.1016429 45.1445,28.0994286 C45.2667857,28.0992143 45.3890714,28.0821429 45.6162143,28.0649286 C45.4512857,27.8905714 45.3501429,27.7984286 45.2661429,27.6926429 C44.7206429,27.0055714 44.1093571,26.3583571 43.652,25.6165 C42.9397143,24.4608571 42.6577143,23.1566429 42.6707143,21.7976429 C42.6762143,21.2278571 42.9372857,20.9188571 43.4949286,20.7992857 C43.6787143,20.7598571 43.8715,20.7486429 44.0602143,20.7485 C48.4526429,20.7457857 52.845,20.7464286 57.2375,20.7466429 C57.3565,20.7466429 57.4762857,20.7409286 57.5943571,20.7525 C58.3169286,20.8230714 58.7097143,21.2407143 58.6725,21.9564286 C58.6472857,22.4413571 58.587,22.9287143 58.4925,23.4050714 C58.1549286,25.1071429 57.3007857,26.5217857 56.0454286,27.7060714 C55.9507143,27.7954286 55.8803571,27.9106429 55.7480714,28.0777857 C55.9667143,28.0888571 56.0934286,28.1005 56.2202143,28.1008571 C56.9344286,28.1026429 57.6492143,28.1195 58.3627143,28.0967857 C59.0712857,28.0741429 59.6887857,28.1887143 60,28.9285714 L60,43.5 Z M29.5723571,21.961 C30.7615714,21.961 31.9509286,21.9628571 33.1401429,21.9602143 C33.6965714,21.959 33.8098571,21.8427857 33.81,21.2909286 C33.8103571,19.8162143 33.8096429,18.3415714 33.8093571,16.8668571 C33.8092143,16.2715 33.7219286,16.1803571 33.1352857,16.1800714 C30.9945714,16.179 28.8538571,16.18 26.7131429,16.1788571 C26.4523571,16.1787143 26.1900714,16.1498571 25.9310714,16.1691429 C25.3791429,16.2103571 25.3269286,16.2777857 25.3270714,16.8182857 C25.3275,18.3167857 25.3275,19.8152143 25.3271429,21.3137143 C25.327,21.8610714 25.4197143,21.9592857 25.9687857,21.9605 C27.1699286,21.9631429 28.3711429,21.9612857 29.5723571,21.961 Z M30.0714286,28.9696429 L30.0714286,28.9707857 C20.7037143,28.9707857 11.3359286,28.9707143 1.96821429,28.9708571 C1.24971429,28.9708571 1.1175,29.1018571 1.11778571,29.8264286 C1.11842857,31.4333571 1.12392857,33.0402857 1.12378571,34.6471429 C1.12357143,37.3492143 1.11892857,40.0512143 1.1195,42.7532143 C1.11964286,43.4056429 1.24907143,43.5310714 1.88492857,43.531 C3.30142857,43.5308571 4.71785714,43.5294286 6.13428571,43.5307857 C7.04707143,43.5316429 7.08914286,43.4895 7.0885,42.5564286 C7.08707143,40.5924286 7.08621429,38.6284286 7.08664286,36.6644286 C7.08671429,36.4622143 7.08185714,36.2582143 7.10557143,36.0581429 C7.17935714,35.4376429 7.56271429,35.0369286 8.08871429,35.0124286 C8.64264286,34.9865 9.05414286,35.311 9.17292857,35.8910714 C9.22035714,36.1228571 9.24735714,36.3629286 9.24814286,36.5993571 C9.25385714,38.4205 9.252,40.2417143 9.24921429,42.0628571 C9.24878571,42.3359286 9.20792857,42.6106429 9.22657143,42.8817857 C9.26435714,43.4320714 9.38357143,43.5305 9.93914286,43.5307857 C11.6055714,43.5315 13.272,43.5305 14.9384286,43.5307143 C15.6502857,43.5308571 15.7406429,43.4422857 15.7405714,42.7326429 C15.7404286,40.6377143 15.7335,38.5427857 15.7462857,36.4478571 C15.7479286,36.1700714 15.8100714,35.8779286 15.9116429,35.6187857 C16.0613571,35.2369286 16.3631429,35.0189286 16.7949286,35.0094286 C17.2394286,34.9996429 17.5673571,35.2000714 17.7254286,35.5987143 C17.8320714,35.8677143 17.8911429,36.1734286 17.8929286,36.4632143 C17.9059286,38.5342143 17.8982143,40.6053571 17.8982857,42.6765714 C17.8982857,43.4206429 18.0095714,43.5317857 18.7336429,43.5315714 C20.3762857,43.5310714 22.0188571,43.5319286 23.6615,43.5315 C24.2624286,43.5312857 24.3881429,43.4057857 24.3884286,42.7955 C24.3892857,40.772 24.3855714,38.7484286 24.3914286,36.7249286 C24.3922143,36.453 24.4197857,36.178 24.4668571,35.91 C24.5597143,35.3819286 24.9454286,35.033 25.4281429,35.0103571 C25.9522143,34.9858571 26.3135,35.2422143 26.4635714,35.8002143 C26.5364286,36.0715714 26.562,36.3627857 26.5631429,36.6451429 C26.571,38.621 26.5665,40.5969286 26.5675714,42.5728571 C26.5676429,42.7392857 26.5757857,42.9057857 26.5860714,43.0718571 C26.6062143,43.3934286 26.7867857,43.5313571 27.1018571,43.531 C28.9110714,43.5287143 30.7203571,43.5277857 32.5295714,43.5320714 C32.8700714,43.5329286 33.0319286,43.356 33.0705,43.0417857 C33.0878571,42.9007857 33.0855,42.7567857 33.0855,42.6141429 C33.0855,40.6382143 33.0775,38.6622857 33.0900714,36.6864286 C33.0922143,36.3477857 33.1456429,35.9998571 33.2375,35.6736429 C33.3597857,35.239 33.6797857,35.0242143 34.1052143,35.0089286 C34.5740714,34.9920714 34.9065,35.1664286 35.0494286,35.6116429 C35.1673571,35.979 35.2369286,36.3774286 35.2414286,36.7630714 C35.2611429,38.4530714 35.2498571,40.1434286 35.2485,41.8336429 C35.2482143,42.2252143 35.2171429,42.6187143 35.2467857,43.0077857 C35.2772857,43.407 35.4288571,43.5282143 35.8245,43.5291429 C37.5861429,43.5332857 39.3477857,43.5341429 41.1094286,43.5293571 C41.5305,43.5281429 41.7132143,43.3415 41.739,42.9193571 C41.7484286,42.7650714 41.7432857,42.6099286 41.7432143,42.4552143 C41.7427143,40.4435714 41.7321429,38.4319286 41.7515,36.4205 C41.7545,36.1125 41.8355,35.7734286 41.9828571,35.5049286 C42.3676429,34.8037857 43.3106429,34.8119286 43.6845714,35.5207857 C43.8271429,35.7909286 43.8891429,36.1328571 43.8915714,36.4429286 C43.9086429,38.5734286 43.8982143,40.7041429 43.9013571,42.8347857 C43.9022143,43.397 44.0415714,43.53 44.5979286,43.5304286 C46.2881429,43.5315 47.9785,43.5320714 49.6687143,43.5312143 C50.2178571,43.5309286 50.3812143,43.3937143 50.4307857,42.8712143 C50.437,42.8052857 50.4397857,42.7385 50.4397143,42.6722857 C50.4380714,40.6552857 50.4350714,38.6383571 50.4350714,36.6214286 C50.4350714,36.4074286 50.436,36.1915714 50.4621429,35.9797857 C50.5275,35.4512857 50.8949286,35.0694286 51.3674286,35.0178571 C51.9069286,34.959 52.2955714,35.2069286 52.4712857,35.7630714 C52.5488571,36.0085 52.6,36.2735 52.6012143,36.5299286 C52.6112857,38.6486429 52.6056429,40.7674286 52.6076429,42.8862143 C52.6081429,43.3818571 52.7532143,43.5288571 53.2421429,43.5306429 C53.8610714,43.5328571 54.4800714,43.5240714 55.099,43.5244286 C56.1822143,43.525 57.2653571,43.5315 58.3485,43.5302857 C58.7950714,43.5297857 58.9300714,43.4202857 58.9958571,43.0009286 C59.0107857,42.9057143 59.0175714,42.809 59.0175714,42.7125714 C59.0187143,38.4625714 59.0196429,34.2125714 59.0172143,29.9625714 C59.0170714,29.7856429 58.9840714,29.6088571 58.9679286,29.4317857 C58.9417143,29.143 58.7505,29.0211429 58.4944286,28.9827143 C58.3543571,28.9616429 58.2094286,28.97 58.0667143,28.97 C48.7349286,28.9695714 39.4032143,28.9696429 30.0714286,28.9696429 Z" id="Shape"></path>
        </g>
    </g>
</svg>