<?xml version="1.0" encoding="UTF-8"?>
<svg width="64px" height="64px" viewBox="0 0 64 64" version="1.1" xmlns="http://www.w3.org/2000/svg" xmlns:xlink="http://www.w3.org/1999/xlink">
    <!-- Generator: Sketch 52.2 (67145) - http://www.bohemiancoding.com/sketch -->
    <title>icon_telescope</title>
    <desc>Created with Sketch.</desc>
    <g id="telescope" stroke="none" stroke-width="1" fill="none" fill-rule="evenodd">
        <g id="Telescope" transform="translate(2.310680, 14.000000)" fill="#000000">
            <path d="M16.1499769,16.4425487 C26.9458394,13.1545648 37.6917814,9.88176651 48.4626011,6.60141646 C48.3628429,6.28514419 48.2788709,6.01869732 48.1840717,5.71810323 C37.3978793,9.0031321 26.643259,12.2785571 15.874175,15.5584967 C15.9743464,15.8795299 16.0548472,16.1376862 16.1499769,16.4425487 Z M6.55575772,22.4616541 C7.5378835,22.4607511 8.36561973,21.6319421 8.34983365,20.6651488 C8.33379962,19.6845652 7.50250945,18.8839112 6.52178871,18.9044324 C5.55247363,18.9247073 4.75316887,19.7410395 4.76449187,20.6989677 C4.77589752,21.6605897 5.59074041,22.4623928 6.55575772,22.4616541 Z M51.5370854,1.6778953 C52.6042576,7.97756612 53.6677107,14.255977 54.7401725,20.5869221 C44.8918056,21.2102731 35.0722835,21.8318183 25.1938321,22.4570573 C25.2883007,22.6186821 25.3425188,22.7205492 25.405002,22.8172449 C27.9544957,26.7591154 30.5070475,30.6990158 33.0510037,34.644416 C33.2886214,35.0129762 33.4794594,35.4048484 34.0959432,35.2172028 L34.0959432,37 L31.5146293,37 L31.5146293,35.294855 C31.6491003,35.2574243 31.7529909,35.2284484 31.8908505,35.1901149 C29.3251575,31.224604 26.7828543,27.2952104 24.2023669,23.30688 C21.75602,27.3165524 19.356618,31.2490653 16.9385372,35.2123598 C17.122598,35.2418282 17.236076,35.259969 17.3889778,35.2845123 L17.3889778,37 L14.807664,37 C14.7929523,36.4801577 14.768488,35.9601513 14.7755959,35.4405553 C14.7765051,35.3750517 14.9490775,35.2503651 15.0319751,35.2583273 C15.341994,35.2877136 15.4943173,35.1452967 15.6471365,34.8937892 C18.0591838,30.9234353 20.4821409,26.9595662 22.9019574,22.993809 C22.9676638,22.886196 23.0271716,22.7748071 23.1303183,22.5937283 C22.464906,22.6313231 21.8749528,22.6610378 21.2854955,22.6987146 C19.2238,22.8304605 17.1624351,22.9655719 15.1007396,23.0982208 C12.9557333,23.2362051 10.8107269,23.3736969 8.66555531,23.5097113 C7.06851614,23.6110038 5.47106372,23.7060578 3.8744378,23.81285 C3.6285551,23.8292669 3.52334209,23.7742702 3.48019898,23.5050324 C3.19844632,21.7498157 2.90222998,19.9967332 2.59006226,18.2466879 C2.5338605,17.9314827 2.58659097,17.7998189 2.91462743,17.6918775 C14.5554999,13.862463 26.1924052,10.0213105 37.8298064,6.18155333 C42.2790023,4.71346884 46.7278676,3.2445635 51.1771461,1.77688943 C51.2769869,1.74397347 51.380051,1.7207435 51.5370854,1.6778953 Z M59.9590929,20.0389165 C60.0431475,20.556953 60.0431475,20.5572813 59.5064207,20.6470819 C58.389824,20.8339888 57.2724834,21.0175301 56.1567131,21.2094441 C55.9250461,21.2492551 55.8180148,21.2052578 55.7740452,20.9425868 C55.2883959,18.0346549 54.7853075,15.1295139 54.2933768,12.222485 C53.7342519,8.91849459 53.181491,5.61343705 52.6264986,2.30870786 C52.5367411,1.77384408 52.4497937,1.2384878 52.3569781,0.675879411 C53.4486973,0.493733507 54.5042987,0.317908123 55.5597347,0.141426062 C55.7595815,0.107935513 55.9655445,0.0923394238 56.1572916,0.0325817771 C56.4697073,-0.0646885681 56.5875657,0.059751806 56.6366596,0.353532874 C56.9449428,2.19871438 57.2638051,4.0422542 57.5750637,5.88694321 C57.9198781,7.93019505 58.258659,9.97451399 58.603308,12.0178479 C59.0266395,14.5282437 59.4535249,17.0380648 59.8786747,19.5482143 C59.9062797,19.7116449 59.9325623,19.8752397 59.9590929,20.0389165 Z M0.248878709,18.244882 C0.670639868,18.1782292 1.09289692,18.114942 1.57978601,18.040327 C1.91410384,20.0193065 2.24023935,21.9496098 2.57513573,23.9317907 C2.07072492,24.0198675 1.59565474,24.1101607 1.11719592,24.1758284 C1.06504399,24.1829698 0.950160981,24.0554923 0.936523789,23.9779223 C0.621876575,22.185357 0.318635012,20.3908218 0.00869882864,18.5974357 C-0.0269231701,18.3910748 0.0456432218,18.2769771 0.248878709,18.244882 Z M6.56088199,19.8719071 C6.99181726,19.873795 7.39407311,20.2782262 7.37812172,20.6934926 C7.3607653,21.1470926 7.00090873,21.4755134 6.53211992,21.4657453 C6.08729951,21.4564697 5.73446815,21.1089232 5.7365344,20.6819187 C5.73851799,20.251877 6.12721929,19.869937 6.56088199,19.8719071 Z" id="Shape" fill="#2F4C90"></path>
        </g>
    </g>
</svg>
