<?xml version="1.0" encoding="UTF-8"?>
<svg width="64px" height="64px" viewBox="0 0 64 64" version="1.1" xmlns="http://www.w3.org/2000/svg" xmlns:xlink="http://www.w3.org/1999/xlink">
    <!-- Generator: Sketch 52.2 (67145) - http://www.bohemiancoding.com/sketch -->
    <title>sltx-icon-confetti</title>
    <desc>Created with Sketch.</desc>
    <g id="confetti" stroke="none" stroke-width="1" fill="none" fill-rule="evenodd">
        <path d="M44.8672493,42.3929767 C45.0520536,41.5253754 44.9398927,40.664295 44.7311597,39.8165636 C44.2600685,37.9032221 43.3514798,36.180371 42.3188828,34.5125264 C42.2029806,34.3253351 42.0824798,34.3007854 41.8769425,34.3689875 C40.3340486,34.8813088 39.002304,35.7727694 37.6535677,36.6333127 C37.5470187,36.7013614 37.4629176,36.8096102 37.3824018,36.9100338 C37.1573786,37.1908208 36.9326672,37.2518115 36.6870668,37.088019 C36.4312559,36.9173987 36.3629773,36.6243368 36.5825444,36.3509913 C36.7936158,36.0882329 37.0341498,35.8164985 37.3224632,35.6513252 C38.4736904,34.9913988 39.6463521,34.3674531 40.8167534,33.7402853 C41.0431017,33.6189945 41.2946257,33.5431973 41.5951763,33.4219832 C40.260158,31.4988219 38.7807882,29.7588627 37.1318131,28.1121922 C37.0159109,28.2509747 36.9352393,28.3360547 36.8675842,28.4302642 C36.1112973,29.4820649 35.3550104,30.5340191 34.6037119,31.5893489 C34.4414333,31.8172774 34.2595909,31.9460866 33.9749408,31.8001693 C33.6969939,31.6577044 33.6043968,31.4001628 33.7447733,31.1227513 C33.829576,30.955123 33.9213156,30.7881851 34.0321514,30.6365908 C34.7416721,29.6660342 35.4451912,28.690721 36.1787965,27.7378862 C36.3878413,27.466382 36.3602493,27.3157083 36.1139474,27.1059618 C35.4832277,26.5689374 34.882906,25.9972365 34.2487567,25.4644315 C33.606891,24.9253357 32.9389922,24.4163132 32.2484897,23.8669372 C32.1677401,23.971657 32.1231564,24.0119338 32.100241,24.0618004 C31.2360022,25.9486741 30.1292028,27.7358915 29.6761945,29.7923116 C29.6075262,30.1040927 29.3408811,30.224693 29.0446954,30.1029419 C28.7510038,29.9822648 28.6685395,29.7399134 28.7564599,29.4650336 C29.0098546,28.6733061 29.230435,27.8654679 29.5614615,27.105118 C30.0770585,25.9211325 30.6717683,24.7705959 31.2360022,23.6073242 C31.3319507,23.4095458 31.368974,23.2596393 31.1342078,23.1049762 C29.4762692,22.0123616 27.7605743,21.0265381 25.8711431,20.3719053 C24.6750204,19.9575526 23.4559823,19.6576628 22.1639109,19.8328862 C20.9865726,19.9926126 20.1535892,20.7073922 19.8634051,21.8439661 C19.6393952,22.7210804 19.7379939,23.5911368 19.9365942,24.454442 C20.3355096,26.1887241 21.110425,27.7698775 22.0229889,29.2886594 C24.1178015,32.7750989 26.8102857,35.7705446 29.8820436,38.442318 C32.3399955,40.5802123 34.9871166,42.4492109 38.0313604,43.7106046 C39.3444765,44.2547638 40.6960967,44.65431 42.1488098,44.5941633 C43.5818811,44.5347837 44.580105,43.7413684 44.8672493,42.3929767 Z M27.3441995,46.3435588 C27.452775,46.1874381 27.3544881,46.037148 27.1671116,45.9212274 C26.8177683,45.7051902 26.4579806,45.4833991 26.1691995,45.1986227 C25.251959,44.2938132 24.3609856,43.3631498 23.4683753,42.4344043 C22.7447468,41.6815728 22.1067003,40.8665231 21.6465212,39.9261933 C20.6892177,37.9701968 20.3065146,35.8871556 20.2136058,33.7369097 C20.1954449,33.3173401 20.1601365,32.8953924 20.0830502,32.4835713 C20.064032,32.3818435 19.8519474,32.2553359 19.725367,32.2518069 C19.6241182,32.2489684 19.517959,32.4153692 19.447576,32.477127 C19.4872493,32.698151 19.5217003,32.8353991 19.5352625,32.9747185 C19.6546721,34.1973698 19.7010486,35.4316054 19.9027667,36.6408311 C20.2307534,38.607031 20.8955345,40.4846987 22.230241,42.0103085 C23.4792095,43.4379496 24.8725295,44.7438397 26.2176804,46.0884722 C26.4027965,46.2735922 26.663362,46.4089991 26.9144964,46.4962272 C27.0310221,46.5367342 27.2712443,46.448432 27.3441995,46.3435588 Z M19.0506091,50.6989039 C19.3543554,50.4226431 19.024498,50.2207987 18.8498264,50.0346813 C16.8549375,47.9099824 15.791163,45.3720816 15.4264648,42.530455 C15.3415842,41.8692245 15.3227998,41.199555 15.2809441,40.5333378 C15.2665245,40.3031077 15.2173421,40.1125408 14.9415776,40.0769437 C14.6665146,40.1136915 14.5873239,40.3015734 14.6082907,40.5333378 C14.6934831,41.4775035 14.7302725,42.4307986 14.8924731,43.3626128 C15.3593554,46.0440526 16.4635826,48.439642 18.356833,50.4521795 C18.5401564,50.6470426 18.7389905,50.9822993 19.0506091,50.6989039 Z M11.9791746,54.2441092 C12.1605494,54.0971946 12.1351398,53.919593 12.0020121,53.7472848 C11.9588313,53.6914343 11.9175212,53.6342028 11.8738728,53.5788126 C10.9415113,52.3947504 10.6283338,51.0282533 10.682037,49.5625601 C10.682037,49.375829 10.716566,49.180122 10.6699557,49.0053589 C10.6385444,48.8872902 10.4985577,48.7243417 10.3969192,48.7169 C10.2871746,48.7089214 10.1418877,48.8404157 10.0576307,48.9462095 C10.0018231,49.0162528 10.0131249,49.148591 10.0166323,49.2522367 C10.0363521,49.8357521 10.0216207,50.4241775 10.0957451,51.0013253 C10.2466439,52.1763349 10.7376887,53.2186993 11.4944433,54.1396963 C11.6296755,54.3042559 11.7864201,54.4002299 11.9791746,54.2441092 Z M42.6994035,34.6332035 C43.6490685,36.1983229 44.4848579,37.8143829 44.9374765,39.5954629 C45.1904035,40.591183 45.3372493,41.5940378 45.0751249,42.6167625 C44.8193139,43.6146307 44.2141597,44.2852208 43.2273935,44.641268 C42.1450685,45.0318382 41.0627434,45.4254004 39.9973322,45.8579353 C34.0432194,48.2749289 28.0944847,50.7046577 22.1434897,53.1291697 C16.4896158,55.432621 10.8341829,57.7325433 5.18272521,60.0419019 C4.64787612,60.2605476 4.11396235,60.4331626 3.52774842,60.4027824 C3.1356141,60.3824521 2.98027247,60.2776557 3.0019408,59.896445 C3.02563566,59.4823992 3.06647811,59.0411952 3.23039353,58.6673495 C4.7262874,55.2565537 6.25141012,51.8581862 7.76671194,48.4555993 C10.8019922,41.639915 13.8359474,34.823617 16.8714615,28.0080095 C17.7031978,26.140622 18.5400005,24.2753827 19.3708794,22.4076883 C19.4661265,22.1936457 19.5600486,21.975 19.617571,21.749373 C19.9702658,20.365998 21.0539159,19.6176928 22.5295444,19.5408216 C24.1665163,19.4555882 25.6996672,19.9184265 27.140299,20.6098072 C28.4959723,21.2604506 29.7835229,22.0488025 31.1003803,22.7775447 C31.2124632,22.8395327 31.3201813,22.909039 31.4766141,23.0031717 C31.8893255,22.0719713 32.0964997,21.1531992 32.2373438,20.2121789 C32.6088231,17.729745 31.8535494,15.4871309 30.759299,13.3102639 C30.5165826,12.8274022 30.3026274,12.3304244 30.0790071,11.8383566 C29.9472824,11.5484401 30.0165743,11.3008718 30.2910917,11.1404549 C30.5094118,11.01295 30.7582078,11.0131801 30.8716158,11.2704148 C31.7268131,13.2109911 32.8579308,15.0568208 33.1608977,17.194485 C33.4534201,19.2591906 33.2409458,21.2872251 32.4408546,23.2333251 C32.3281481,23.5075144 32.3657169,23.6527412 32.6043023,23.8470673 C33.8243537,24.8413297 35.0230486,25.860909 36.2288363,26.8720493 C36.3276688,26.9549813 36.4234615,27.0412888 36.5379607,27.1410219 C36.6082658,27.0777297 36.6843388,27.0356116 36.7215179,26.9717057 C37.4663471,25.6909791 38.3195179,24.4558229 38.9111879,23.1095026 C39.3610784,22.0857038 39.5064433,20.9255775 39.7296738,19.8149342 C39.8324035,19.3037637 39.808163,18.7658953 39.8202443,18.2396881 C39.8268695,17.9526869 39.9259358,17.7443214 40.2258629,17.7158591 C40.5211912,17.6878571 40.7657783,17.832777 40.7853421,18.1348916 C40.8138695,18.5757887 40.8282891,19.02804 40.7617252,19.4625695 C40.5155013,21.0696535 40.3489358,22.705967 39.5309955,24.1630678 C38.8978595,25.2909726 38.22809,26.4000048 37.5393803,27.4958416 C37.3474831,27.8011784 37.343508,27.9703411 37.6039955,28.2321789 C39.099032,29.7352336 40.4596937,31.3506799 41.6717949,33.0843483 C41.8076506,33.278521 41.9347766,33.3339112 42.171959,33.266553 C43.5192144,32.8834244 44.9125345,32.8013364 46.3000088,32.7009128 C47.332294,32.6262664 48.3679308,32.5905159 49.4027103,32.5562998 C49.7829972,32.5437181 49.9484715,32.7215499 49.9427816,33.0545818 C49.938027,33.3349852 49.8056788,33.4834341 49.5088695,33.5002353 C47.9523355,33.5884608 46.3947103,33.6652553 44.8405146,33.7842446 C44.1670818,33.8357222 43.50043,33.9759623 42.8319856,34.0835973 C42.7200585,34.101626 42.6146008,34.1592411 42.4591813,34.2156286 C42.552168,34.3776566 42.6228629,34.5070795 42.6994035,34.6332035 Z M55.319803,18.0528167 C55.6711324,17.8967925 56.0030746,18.0894592 55.9999785,18.5908764 C55.910635,18.6736153 55.7798632,18.8692867 55.5980064,18.9475553 C55.2079024,19.1155249 54.7686301,19.1771577 54.3899521,19.3635952 C53.1008105,19.9982448 51.8262647,20.6627214 50.5514977,21.3260255 C47.9613463,22.6735932 45.7697024,24.5109989 43.8760914,26.713145 C43.5902953,27.0455665 43.4101339,27.0784716 43.1724005,26.8666041 C42.9400484,26.6595003 42.9401958,26.3818228 43.1872174,26.0974763 C44.9292687,24.0923941 46.8685098,22.3183067 49.2137037,21.0201332 C50.4137229,20.3558764 51.6009893,19.6677287 52.8157516,19.0314668 C53.3083942,18.773503 53.8596408,18.6268594 54.3830228,18.4262046 C54.6969046,18.3058703 55.0128505,18.1891271 55.319803,18.0528167 Z M41.0077658,13 C38.7866424,12.999831 37.0002546,11.2218066 37,9.01091743 C36.9996605,6.81405709 38.8210173,4.99132643 41.0077658,5.00003105 C43.2226083,5.00882018 44.9986412,6.79335193 44.9999992,9.011509 C45.0013572,11.2414976 43.2410264,13.000169 41.0077658,13 Z M22.9980662,12.9999995 C20.7882054,12.9989008 18.9998307,11.2127627 19,9.00694347 C19.0000847,6.82208291 20.8388277,4.98346354 23.0070394,5.00011219 C25.2135142,5.01709888 27.0184808,6.83256226 26.9998572,9.0164087 C26.9808103,11.249356 25.2211329,13.0010981 22.9980662,12.9999995 Z M52.0285497,38.0000519 C54.2295266,38.0113708 56.0182657,39.8280422 55.9998592,42.0335237 C55.9812831,44.2724548 54.1880484,46.0236629 51.9384681,45.9997582 C49.7225624,45.9762758 47.9764891,44.1603646 48.0002394,41.9040329 C48.0226326,39.77432 49.8649796,37.9889021 52.0285497,38.0000519 Z M60.6198294,28.9495712 C60.7266863,29.0115416 60.8285555,29.0815845 61,29.1906852 C60.4743383,29.3969815 60.0147858,29.5794682 59.5535426,29.7577963 C58.9550085,29.9892071 58.3461607,30.198765 57.7608146,30.4578994 C57.5735614,30.5408256 57.3840256,30.7251877 57.3032066,30.9075929 C56.8822883,31.8568008 56.4963691,32.8204414 56.0974309,33.7787818 C56.07469,33.8334136 56.0452705,33.8854362 55.9886295,34 C55.5820829,33.0220084 55.1762125,32.1101458 54.8274058,31.178469 C54.6638233,30.7416588 54.4125743,30.4859492 53.9549662,30.3306969 C53.091826,30.0378049 52.2499894,29.6866934 51.4002063,29.3572715 C51.28498,29.3125876 51.1754178,29.2541233 51,29.1726648 C51.4031651,28.9367694 51.7511265,28.7314515 52.1007786,28.5288244 C52.7978848,28.1248749 53.4900033,27.7122006 54.1966624,27.324396 C54.4623676,27.1785209 54.6207931,26.9878802 54.7135321,26.7121932 C55.1035092,25.5531011 55.5049836,24.3976783 55.9030764,23.2411955 C55.9221821,23.1855852 55.9488118,23.1323395 56.0051146,23 C56.2580544,23.7298652 56.4851254,24.3854473 56.71245,25.0409479 C56.9088335,25.6070806 57.0840822,26.1812858 57.3126749,26.7349429 C57.4000879,26.9465394 57.5731387,27.1671053 57.7701984,27.2872953 C58.7083245,27.8593804 59.6684307,28.3978711 60.6198294,28.9495712 Z M38.1007805,51.2018741 C38.2408991,51.8971526 38.6725014,52.3044185 39.305614,52.628199 C40.2037427,53.0875721 41.0579839,53.6263662 42,54.1710133 C41.8243656,54.2501903 41.7069941,54.3101828 41.5842952,54.3573313 C40.6379665,54.7208629 39.6849573,55.0690305 38.7485223,55.4546731 C38.5619794,55.531574 38.3757748,55.7233385 38.2954413,55.9054295 C37.8576659,56.8976625 37.4531233,57.9033898 36.9975054,59 C36.8753985,58.7155642 36.7850867,58.5102241 36.6988339,58.3033396 C36.3677753,57.5090491 36.0291061,56.7174413 35.7128458,55.9177044 C35.6123866,55.6635899 35.4567087,55.5171043 35.192792,55.4204498 C34.2406285,55.0716318 33.2962446,54.7030602 32.350085,54.3393661 C32.2569827,54.3035982 32.1711527,54.2501903 32,54.1633719 C32.8873893,53.6500218 33.679816,53.1320381 34.5275459,52.718838 C35.2951115,52.3447387 35.7449792,51.8280556 35.961034,51.0171006 C36.2251199,50.025843 36.6202762,49.0668578 36.991417,48 C37.2587162,48.7594981 37.4964188,49.4323404 37.7322611,50.1059143 C37.8596954,50.4700961 38.0253516,50.8276935 38.1007805,51.2018741 Z M48.0879683,8.26098787 C48.0661467,8.25252884 48.0515706,8.22690772 48,8.17631618 C48.1043345,8.1073425 48.2006564,8.03576605 48.3044794,7.97614611 C49.2195371,7.45030316 50.1267528,6.9109583 51.0566424,6.40984176 C51.4265865,6.21048506 51.6223842,5.94605886 51.7472616,5.56833038 C52.1301624,4.40993049 52.5460512,3.26153505 52.9873418,2 C53.4117547,3.22102928 53.8156246,4.33290447 54.1801134,5.45632949 C54.3267272,5.90823721 54.5592635,6.23098196 55.007629,6.4663709 C55.9200443,6.94544513 56.8019435,7.47763236 57.6953501,7.98948536 C57.782807,8.03958888 57.8630184,8.10107956 58,8.19323425 C57.8521928,8.263916 57.7474321,8.32329193 57.6355965,8.36599379 C56.6810723,8.73070837 55.7187913,9.07826087 54.774837,9.46648181 C54.5758854,9.54822538 54.3771896,9.74872079 54.2904999,9.9405945 C53.8886758,10.8300133 53.5268295,11.7359435 53.1492989,12.6354481 C53.1073605,12.7354111 53.0568981,12.832202 52.9776243,13 C52.6411797,12.2002958 52.271747,11.4836365 52.0401483,10.7285049 C51.7788007,9.87617569 51.2813366,9.36806418 50.3743767,9.12153209 C49.5902485,8.90834812 48.8480586,8.55428867 48.0879683,8.26098787 Z M9.13857361,21.1063917 C8.24080976,20.8449175 7.35939353,20.5477845 6.47213281,20.2635265 C6.33211926,20.2187004 6.19540911,20.167538 6,20.0994562 C6.13095036,20.0225441 6.204557,19.9716513 6.28680332,19.9321505 C7.27257327,19.4587465 8.26562765,18.9946448 9.24089446,18.5079616 C9.41953244,18.4188487 9.5880061,18.2563962 9.65746231,18.0988646 C10.101982,17.0905809 10.5174488,16.0742083 10.9678977,15 C11.0316788,15.1129752 11.0762324,15.1769451 11.1049466,15.2451616 C11.5025411,16.1912954 11.8864984,17.1412041 12.3043368,18.0815408 C12.3784516,18.2482399 12.5565814,18.4196576 12.7454684,18.5142979 C13.6976961,18.9911396 14.6696595,19.4429057 15.6338303,19.9046481 C15.739031,19.9550016 15.8386414,20.0129048 16,20.0988496 C15.060393,20.3988136 14.2030324,20.7128659 13.3117906,20.9439393 C12.6471286,21.1162333 12.2653735,21.4137706 12.047857,21.942314 C11.7602067,22.6414662 11.3755717,23.3153405 11.0326105,24 L10.9340166,23.98908 C10.5318482,23.1874008 10.1243436,22.3874068 9.73081484,21.5830987 C9.6164662,21.3494637 9.45493817,21.198538 9.13857361,21.1063917 Z" id="Shape" fill="#42A976"></path>
    </g>
</svg>