<?xml version="1.0" standalone="no"?>
<!DOCTYPE svg PUBLIC "-//W3C//DTD SVG 1.1//EN" "http://www.w3.org/Graphics/SVG/1.1/DTD/svg11.dtd" >
<svg xmlns="http://www.w3.org/2000/svg" xmlns:xlink="http://www.w3.org/1999/xlink" version="1.1">
<metadata>
Created by FontForge 20170731 at Tue Mar  7 18:28:36 2017
 By Aleksey,,,
Copyright (c) 2016 by Daniel Hernandez &#38; Paula Nazal. All rights reserved.
</metadata>
<defs>
<font id="TrendaW00-Regular" horiz-adv-x="0" >
  <font-face 
    font-family="TrendaW00-Regular"
    font-weight="400"
    font-stretch="normal"
    units-per-em="1000"
    panose-1="1 0 0 0 0 0 0 0 0 0"
    ascent="800"
    descent="-200"
    x-height="460"
    cap-height="703"
    bbox="-713 -267 1351 928"
    underline-thickness="50"
    underline-position="-175"
    unicode-range="U+0020-FB02"
  />
<missing-glyph horiz-adv-x="642" 
 />
    <glyph glyph-name="uniFB01" unicode="fi" horiz-adv-x="590" 
d="M108 0v402h-88v58h88v79q0 83 45.5 132.5t120.5 49.5q66 0 111 -36l-31 -55q-33 25 -74 25q-46 0 -74 -28.5t-28 -85.5v-81h149v-58h-149v-402h-70zM476 556q-23 0 -39 15.5t-16 38.5t16 38t39 16q24 0 40 -15.5t16 -38.5t-16 -38.5t-40 -15.5zM441 0l1 460h71v-460h-72z
" />
    <glyph glyph-name="uniFB02" unicode="fl" horiz-adv-x="586" 
d="M108 0v402h-88v58h88v79q0 83 45.5 132.5t120.5 49.5q66 0 111 -36l-31 -55q-33 25 -74 25q-46 0 -74 -28.5t-28 -85.5v-81h149v-58h-149v-402h-70zM437 0v714h71v-714h-71z" />
    <glyph glyph-name=".notdef" horiz-adv-x="642" 
 />
    <glyph glyph-name=".null" 
 />
    <glyph glyph-name="nonmarkingreturn" horiz-adv-x="333" 
 />
    <glyph glyph-name="space" unicode=" " horiz-adv-x="251" 
 />
    <glyph glyph-name="exclam" unicode="!" horiz-adv-x="254" 
d="M99 209l-14 521h84l-14 -521h-56zM128 -9q-23 0 -39 16t-16 39q0 22 16 38.5t39 16.5q22 0 38 -16.5t16 -38.5q0 -23 -16 -39t-38 -16z" />
    <glyph glyph-name="quotedbl" unicode="&#x22;" horiz-adv-x="335" 
d="M69 518l-11 199h74l-10 -199h-53zM214 518l-11 199h73l-9 -199h-53z" />
    <glyph glyph-name="numbersign" unicode="#" horiz-adv-x="660" 
d="M622 465h-105l-64 -224h109v-59h-126l-52 -182h-64l52 182h-188l-52 -182h-62l52 182h-82v59h99l65 224h-105v59h122l51 179h61l-51 -179h189l51 179h63l-51 -179h88v-59zM389 241l65 224h-189l-64 -224h188z" />
    <glyph glyph-name="dollar" unicode="$" horiz-adv-x="504" 
d="M456 218q0 -66 -44.5 -109t-120.5 -52v-85h-75v84q-48 4 -93 20t-76 40l36 59q34 -27 76.5 -42.5t87.5 -15.5q63 0 100.5 24.5t37.5 68.5q0 29 -14 51t-43.5 39t-109.5 40q-80 22 -118.5 61t-38.5 101q0 66 45 109.5t120 52.5v80h74v-80q33 -3 71.5 -15.5t70.5 -37.5
l-36 -54q-28 20 -64.5 32.5t-74.5 12.5q-27 0 -58.5 -8.5t-53 -32.5t-21.5 -56q0 -23 13 -43t42.5 -35t73.5 -27q91 -25 129 -52t51 -61.5t13 -68.5z" />
    <glyph glyph-name="percent" unicode="%" horiz-adv-x="791" 
d="M195 -30l-56 28l456 762l57 -30zM198 405q-71 0 -117 46t-46 120q0 71 46 116t117 45t117 -45t46 -116q0 -74 -46 -120t-117 -46zM198 459q21 0 46 10t43 38t18 64q0 47 -30.5 77.5t-76.5 30.5q-45 0 -75.5 -30.5t-30.5 -77.5q0 -50 30 -81t76 -31zM593 -12
q-71 0 -116.5 45.5t-45.5 119.5q0 72 45.5 116.5t116.5 44.5q72 0 118 -44.5t46 -116.5q0 -73 -46 -119t-118 -46zM593 41q21 0 46.5 10.5t43 38t17.5 63.5q0 22 -10 47.5t-36.5 43t-60.5 17.5q-45 0 -75.5 -30.5t-30.5 -77.5q0 -36 17.5 -63.5t42.5 -38t46 -10.5z" />
    <glyph glyph-name="ampersand" unicode="&#x26;" horiz-adv-x="665" 
d="M638 298q-30 -99 -106 -178l88 -88q-1 -2 -21 -23.5t-24 -26.5l-91 91q-41 -39 -95.5 -60.5t-116.5 -21.5q-98 0 -159.5 52t-61.5 138q0 64 36.5 112.5t96.5 79.5q-43 48 -64 88.5t-21 84.5q0 47 24.5 86.5t69 59.5t92.5 20q75 0 123 -42t48 -113q0 -56 -38.5 -105
t-124.5 -94l194 -194q32 35 57.5 79t32.5 73zM286 655q-50 0 -84 -31t-34 -78q0 -25 14 -56.5t67 -87.5q143 69 143 155q0 21 -10 44t-36.5 38.5t-59.5 15.5zM276 54q46 0 88 17t74 47l-211 212q-47 -25 -75 -62t-28 -85q0 -59 42 -94t110 -35z" />
    <glyph glyph-name="quotesingle" unicode="'" horiz-adv-x="191" 
d="M69 518l-11 199h74l-10 -199h-53z" />
    <glyph glyph-name="parenleft" unicode="(" horiz-adv-x="341" 
d="M299 -131q-128 83 -191 203t-63 266q0 147 62.5 266t191.5 202l32 -51q-50 -38 -77 -63.5t-51 -57.5q-90 -124 -90 -296q0 -46 9 -101t31 -104.5t49 -86t53 -61.5t51 -44t27 -21z" />
    <glyph glyph-name="parenright" unicode=")" horiz-adv-x="340" 
d="M42 -131l-35 51q2 1 3 2t34 26.5t67.5 63.5t60.5 86t41 108t15 132t-14 127.5t-33 95t-41.5 70t-43.5 51.5t-36.5 34t-31 25t-18.5 14l32 51q129 -84 191.5 -202.5t62.5 -265.5q0 -146 -62.5 -265.5t-191.5 -203.5z" />
    <glyph glyph-name="asterisk" unicode="*" horiz-adv-x="420" 
d="M362 607l-119 -57l119 -58l-26 -46l-108 72l7 -128h-52l8 127l-107 -71l-26 46l118 57l-118 58l26 46l107 -71l-8 131h52l-6 -132l107 72z" />
    <glyph glyph-name="plus" unicode="+" horiz-adv-x="556" 
d="M484 324v-59h-175v-190h-61v190h-176v59h176v183h61v-183h175z" />
    <glyph glyph-name="comma" unicode="," horiz-adv-x="222" 
d="M87 -110l-25 26q16 13 32.5 37t16.5 42l-11 -2q-18 0 -31 14t-13 35q0 23 15 38t39 15q26 0 41 -17t16 -44q0 -43 -22.5 -82.5t-57.5 -61.5z" />
    <glyph glyph-name="hyphen" unicode="-" horiz-adv-x="371" 
d="M68 223v63h235v-63h-235z" />
    <glyph glyph-name="period" unicode="." horiz-adv-x="233" 
d="M117 -9q-23 0 -39 16t-16 39q0 22 16 38.5t39 16.5t38.5 -16.5t15.5 -38.5q0 -23 -15.5 -39t-38.5 -16z" />
    <glyph glyph-name="slash" unicode="/" horiz-adv-x="378" 
d="M39 -134l239 949h61l-238 -949h-62z" />
    <glyph glyph-name="zero" unicode="0" horiz-adv-x="679" 
d="M341 -9q-63 0 -115.5 23.5t-90 69t-58 114t-20.5 153.5q0 86 20.5 154.5t58 114.5t90 69t115.5 23q62 0 114.5 -23.5t89.5 -70t57 -115t20 -153.5t-20 -153t-57 -113.5t-89 -69t-115 -23.5zM341 58q46 0 84 18.5t65.5 55.5t42.5 92.5t15 126.5q0 142 -56 218t-151 76
q-46 0 -85 -18.5t-67 -55t-43 -93t-15 -128.5q0 -71 15 -126.5t43 -92t67 -55t85 -18.5z" />
    <glyph glyph-name="one" unicode="1" horiz-adv-x="386" 
d="M236 703h46v-703h-71v621l-175 -63l-21 57z" />
    <glyph glyph-name="two" unicode="2" horiz-adv-x="544" 
d="M50 0v42q77 51 131 97t100 97q124 139 123 251q-1 72 -47.5 116t-123.5 44q-86 0 -165 -43l-29 58q87 50 194 50q113 0 178 -61.5t65 -163.5q0 -67 -33.5 -138t-107.5 -151q-72 -79 -144 -134h306v-64h-447z" />
    <glyph glyph-name="three" unicode="3" horiz-adv-x="543" 
d="M283 426q58 0 108.5 -24t77 -74t26.5 -112q0 -49 -17.5 -90.5t-51 -71.5t-82.5 -46.5t-110 -16.5q-35 0 -86.5 8.5t-114.5 43.5l32 63q71 -51 169 -51q87 0 138 43.5t51 112.5q0 75 -45 115.5t-127 40.5q-23 0 -52 -6t-50 -16l-17 40l236 254h-328v64h425v-47l-215 -232z
" />
    <glyph glyph-name="four" unicode="4" horiz-adv-x="572" 
d="M543 234v-63h-82v-171h-71v171h-367v47l206 488l60 -24l-186 -448h287v276h71v-276h82z" />
    <glyph glyph-name="five" unicode="5" horiz-adv-x="544" 
d="M266 436q112 0 175 -57.5t63 -161.5t-69 -165t-189 -61q-48 0 -103.5 13t-94.5 34l27 61q41 -22 86.5 -34.5t84.5 -12.5q86 0 135.5 44t49.5 118q0 77 -48.5 118.5t-136.5 41.5q-32 0 -65 -6.5t-54 -16.5l-38 23v329h372v-63h-302v-220q56 16 107 16z" />
    <glyph glyph-name="six" unicode="6" horiz-adv-x="576" 
d="M309 454q50 0 93 -17t73 -48.5t46.5 -74.5t16.5 -92t-17.5 -92t-50 -74t-77 -48t-96.5 -17q-54 0 -99.5 19t-77.5 53.5t-49.5 83.5t-17.5 106q0 86 34 167.5t108 155t194 136.5l36 -58q-70 -37 -124.5 -77t-96.5 -90t-65 -112q29 37 73.5 58t96.5 21zM297 56
q76 0 122.5 46t46.5 120q0 44 -21.5 84.5t-62.5 62.5t-87 22q-43 0 -84.5 -21.5t-64 -59.5t-22.5 -76q0 -27 8.5 -57t32 -60t59.5 -45.5t73 -15.5z" />
    <glyph glyph-name="seven" unicode="7" horiz-adv-x="507" 
d="M117 0l286 636h-383v67h471v-39l-297 -664h-77z" />
    <glyph glyph-name="eight" unicode="8" horiz-adv-x="595" 
d="M297 -9q-56 0 -102 15.5t-77.5 43.5t-47.5 66.5t-16 82.5q0 54 22.5 93.5t54.5 60t61 29.5q-50 19 -80 58.5t-30 91.5q0 30 10.5 61t36.5 57.5t68 44t100 17.5q95 0 154.5 -49.5t59.5 -130.5q0 -52 -29 -91.5t-79 -58.5q29 -9 61 -29.5t54.5 -60t22.5 -93.5
q0 -44 -16.5 -82.5t-48 -66.5t-77.5 -43.5t-102 -15.5zM297 410q29 0 60 10t50.5 30t26.5 41t7 41q0 36 -23.5 64.5t-57.5 39.5t-63 11t-63 -11t-57.5 -39.5t-23.5 -64.5q0 -56 41.5 -89t102.5 -33zM297 56q78 0 126 40.5t48 102.5q0 35 -13 63.5t-36.5 48.5t-55.5 30
t-69 10q-27 0 -56 -7t-55 -24t-44 -47t-18 -74q0 -45 24.5 -77.5t62.5 -49t86 -16.5z" />
    <glyph glyph-name="nine" unicode="9" horiz-adv-x="576" 
d="M280 712q54 0 99.5 -18t77.5 -52t49.5 -81.5t17.5 -103.5q0 -88 -34 -170.5t-108.5 -157t-194.5 -138.5l-35 58q114 61 183.5 128.5t101.5 152.5q-29 -38 -73 -59.5t-96 -21.5q-50 0 -93 17t-73 48.5t-46.5 74.5t-16.5 92t17.5 92t50 74t77 48t96.5 17zM282 312
q35 0 66.5 13t55 36t36.5 54t13 65q0 24 -8.5 51.5t-32.5 56.5t-60 44t-72 15q-28 0 -57 -8t-54 -28t-41.5 -53t-16.5 -78q0 -44 21.5 -84.5t62.5 -62t87 -21.5z" />
    <glyph glyph-name="colon" unicode=":" horiz-adv-x="242" 
d="M121 350q-23 0 -39 16.5t-16 38.5q0 23 16 39t39 16t39 -16t16 -39q0 -22 -16 -38.5t-39 -16.5zM121 -13q-23 0 -39 16.5t-16 38.5q0 23 16 39t39 16t39 -16t16 -39q0 -22 -16 -38.5t-39 -16.5z" />
    <glyph glyph-name="semicolon" unicode=";" horiz-adv-x="264" 
d="M132 343q-23 0 -39 16t-16 38q0 23 16 39t39 16t38.5 -16t15.5 -39q0 -22 -15.5 -38t-38.5 -16zM108 -114l-24 27q16 13 32.5 37t16.5 41l-11 -2q-19 0 -31.5 14.5t-12.5 35.5q-1 22 14.5 37t39.5 15q26 0 41 -17t15 -44q0 -43 -22.5 -82.5t-57.5 -61.5z" />
    <glyph glyph-name="less" unicode="&#x3c;" horiz-adv-x="429" 
d="M368 536v-71l-259 -173l259 -173v-71l-327 211v66z" />
    <glyph glyph-name="equal" unicode="=" horiz-adv-x="596" 
d="M72 373v59h452v-59h-452zM72 145v60h452v-60h-452z" />
    <glyph glyph-name="greater" unicode="&#x3e;" horiz-adv-x="429" 
d="M62 533l326 -211v-66l-326 -211v71l258 173l-258 173v71z" />
    <glyph glyph-name="question" unicode="?" horiz-adv-x="436" 
d="M140 200v34q0 30 8 58t26 53.5t52.5 56t47.5 43t22.5 27.5t16 32.5t6.5 41.5q0 60 -35 90.5t-94 31.5q-68 1 -127 -33l-24 55q77 41 164 41q49 0 94.5 -20t69.5 -61.5t24 -92.5q0 -45 -18.5 -84.5t-69.5 -86.5t-64.5 -63t-21.5 -31t-12.5 -32.5t-4.5 -36.5v-23h-60z
M170 -9q-22 0 -37 15t-15 37t15 37t37 15t37 -15t15 -37t-15 -37t-37 -15z" />
    <glyph glyph-name="at" unicode="@" horiz-adv-x="945" 
d="M476 660q115 0 209.5 -45t149 -134t54.5 -206q0 -50 -11 -92.5t-32 -73.5t-50.5 -48t-64.5 -17q-44 -1 -76 23.5t-41 64.5q-24 -43 -67.5 -68t-96.5 -25q-42 0 -79.5 16.5t-65 45.5t-43 69t-15.5 84q0 45 15.5 85t43 69.5t65.5 46t80 16.5q46 0 88 -20.5t67 -55.5v66h56
v-273q0 -40 16 -61.5t46 -21.5q29 0 51.5 18.5t35.5 56.5t13 90q0 73 -25 134t-71 104.5t-112 67t-145 22.5q-78 0 -144 -25t-113 -70t-72 -109t-24 -139q0 -55 14.5 -106t41 -92t64.5 -71.5t85.5 -49t86.5 -22.5t53 -4q54 0 108.5 12.5t97.5 35.5l21 -58q-94 -51 -221 -51
q-91 0 -168.5 29t-133.5 83t-86 129.5t-30 164.5q0 42 10 95t38 105t70 92.5t97 67t110.5 36t99.5 9.5zM461 102q39 0 73 18.5t52 55t19 79.5q-1 68 -41 110.5t-102 42.5q-64 0 -106 -44t-42 -110q0 -24 7.5 -50t25 -48.5t46.5 -38t68 -15.5z" />
    <glyph glyph-name="A" unicode="A" horiz-adv-x="671" 
d="M586 0l-66 159h-370l-66 -159h-76l297 703h61l296 -703h-76zM335 605l-159 -382h318z" />
    <glyph glyph-name="B" unicode="B" horiz-adv-x="659" 
d="M477 360q41 -14 71.5 -42.5t41.5 -60.5t11 -57q0 -94 -64.5 -147t-182.5 -53h-253v703h228q64 0 112 -13.5t79 -38.5t45.5 -59.5t14.5 -76.5q0 -50 -29 -92t-74 -63zM506 507q0 62 -44.5 97t-134.5 35h-155v-250h187q68 0 107.5 32t39.5 86zM351 64q82 0 129.5 37.5
t47.5 102.5q0 37 -21 64t-58 42t-90 15h-187v-261h179z" />
    <glyph glyph-name="C" unicode="C" horiz-adv-x="678" 
d="M420 -9q-80 0 -149 26.5t-118 75.5t-75.5 115t-26.5 142q0 77 27 144t76.5 115.5t118 75.5t147.5 27q67 0 125 -16.5t103 -47.5l-35 -57q-32 27 -82.5 41.5t-101.5 14.5q-67 0 -124 -21t-97.5 -60.5t-62.5 -94.5t-22 -119t21.5 -119t62 -94.5t97.5 -61t125 -21.5
q108 0 186 52l33 -56q-42 -29 -101.5 -45t-126.5 -16z" />
    <glyph glyph-name="D" unicode="D" horiz-adv-x="758" 
d="M339 703q80 0 148.5 -25t117 -71.5t75 -112t26.5 -142.5t-26.5 -142.5t-75 -112.5t-117 -72t-148.5 -25h-238v703h238zM342 64q64 0 118.5 20.5t93 58.5t59 91.5t20.5 116.5t-20.5 116.5t-59 92t-93 59t-118.5 20.5h-170v-575h170z" />
    <glyph glyph-name="E" unicode="E" horiz-adv-x="607" 
d="M555 639h-383v-250h335v-64h-335v-261h383v-64h-454v703h454v-64z" />
    <glyph glyph-name="F" unicode="F" horiz-adv-x="575" 
d="M543 639h-371v-295h331v-65h-331v-279h-71v703h442v-64z" />
    <glyph glyph-name="G" unicode="G" horiz-adv-x="740" 
d="M613 320h72v-258q-65 -38 -129 -54.5t-136 -16.5q-76 0 -144.5 27t-119 75.5t-78.5 115t-28 141.5t28 142t79 116.5t119.5 76.5t145.5 27q67 0 125 -16.5t103 -47.5l-33 -57q-15 13 -45 27t-69 21.5t-74 7.5q-62 0 -118 -22t-98.5 -62t-66.5 -95t-24 -118
q0 -62 23.5 -117t65.5 -94.5t97 -61t115 -21.5q106 0 190 41v223z" />
    <glyph glyph-name="H" unicode="H" horiz-adv-x="798" 
d="M626 703h71v-703h-71v324h-454v-324h-71v703h71v-315h454v315z" />
    <glyph glyph-name="I" unicode="I" horiz-adv-x="274" 
d="M101 0v703h71v-703h-71z" />
    <glyph glyph-name="J" unicode="J" horiz-adv-x="463" 
d="M158 -9q-36 0 -74 9t-67 27l28 59q19 -12 49 -19.5t58 -7.5q76 0 110.5 42t34.5 131v471h72v-473q0 -239 -211 -239z" />
    <glyph glyph-name="K" unicode="K" horiz-adv-x="620" 
d="M628 0h-102l-354 325v-325h-71v703h71v-321l328 321h96l-356 -345z" />
    <glyph glyph-name="L" unicode="L" horiz-adv-x="567" 
d="M172 64h383v-64h-454v703h71v-639z" />
    <glyph glyph-name="M" unicode="M" horiz-adv-x="887" 
d="M799 0h-71l-18 555l-245 -441h-49l-237 441l-20 -555h-71l29 703h49l274 -501l284 501h48z" />
    <glyph glyph-name="N" unicode="N" horiz-adv-x="789" 
d="M617 703h71v-710h-44l-472 577v-570h-71v710h45l471 -579v572z" />
    <glyph glyph-name="O" unicode="O" horiz-adv-x="829" 
d="M415 -9q-77 0 -144.5 27t-117 76t-76.5 115.5t-27 141.5q0 74 27 140.5t76.5 116t117 77t144.5 27.5t144 -27.5t116 -76.5t76 -116t27 -141q0 -75 -27 -141.5t-76 -115.5t-116 -76t-144 -27zM415 56q60 0 114 22t93.5 61.5t61.5 94.5t22 117q0 61 -22 115.5t-62 95
t-93.5 63t-113.5 22.5q-61 0 -115 -22.5t-94 -63.5t-62 -95.5t-22 -114.5q0 -62 22 -116.5t62 -94.5t94 -62t115 -22z" />
    <glyph glyph-name="P" unicode="P" horiz-adv-x="635" 
d="M330 703q58 0 108 -15.5t86.5 -45.5t56.5 -74.5t20 -99.5q0 -27 -6.5 -60t-25 -63.5t-50.5 -56.5t-82.5 -41t-108.5 -15h-156v-232h-71v703h229zM328 296q89 0 143 45.5t54 126.5q0 50 -22 87t-66 60.5t-109 23.5h-156v-343h156z" />
    <glyph glyph-name="Q" unicode="Q" horiz-adv-x="828" 
d="M778 351q0 -99 -44.5 -180t-122.5 -128l134 -123l-49 -53l-154 144q-60 -20 -127 -20q-77 0 -144.5 27t-117 76t-76.5 115.5t-27 141.5q0 74 27 140.5t76.5 116t117 77t144.5 27.5t144 -27.5t116 -76.5t76 -116t27 -141zM122 351q0 -62 22 -116.5t62 -94t94.5 -61.5
t114.5 -22t113.5 22t93 61.5t61.5 94t22 116.5q0 60 -22 114.5t-61.5 95t-93 63t-113.5 22.5q-29 0 -66 -7.5t-75 -28t-72.5 -56t-57 -89.5t-22.5 -114z" />
    <glyph glyph-name="R" unicode="R" horiz-adv-x="669" 
d="M615 0h-89l-160 234q-24 -3 -49 -3h-145v-231h-71v703h225q59 0 108.5 -14.5t85.5 -44t55.5 -75t19.5 -103.5q0 -38 -13 -80t-49.5 -78.5t-89.5 -56.5zM172 295h145q93 0 149 46.5t56 124.5q0 53 -22.5 91t-66.5 60t-109 22h-152v-344z" />
    <glyph glyph-name="S" unicode="S" horiz-adv-x="563" 
d="M283 -9q-72 0 -136.5 18.5t-111.5 52.5l38 61q40 -30 94.5 -48.5t112.5 -18.5q74 0 119.5 34.5t45.5 94.5q0 59 -40 93.5t-131 54.5q-80 18 -125 45t-66 63.5t-21 86.5q0 29 11 60t42 62t77 46.5t93 15.5q137 0 214 -64l-36 -55q-38 29 -78 42t-98 13q-32 0 -69 -10.5
t-61 -39t-24 -68.5q0 -46 33 -76t125 -52q117 -27 171 -76.5t54 -133.5q0 -35 -12 -70.5t-41 -64.5t-74.5 -47.5t-105.5 -18.5z" />
    <glyph glyph-name="T" unicode="T" horiz-adv-x="581" 
d="M569 703v-64h-240v-639h-72v639h-245v64h557z" />
    <glyph glyph-name="U" unicode="U" horiz-adv-x="760" 
d="M383 -9q-48 0 -91.5 11t-78.5 32.5t-65 58.5t-44 89t-14 103v418h74v-423q0 -36 10 -74t39 -74.5t75.5 -54.5t96.5 -18q36 0 74 10.5t69 36.5t51.5 69.5t20.5 104.5v423h70v-418q0 -69 -20.5 -124.5t-58 -93t-91 -57t-117.5 -19.5z" />
    <glyph glyph-name="V" unicode="V" horiz-adv-x="666" 
d="M573 703h78l-293 -703h-51l-293 703h80l240 -596l53 130z" />
    <glyph glyph-name="W" unicode="W" horiz-adv-x="927" 
d="M850 703h71l-205 -703h-53l-200 590l-200 -590h-51l-206 703h75l161 -590l109 339l87 251h52l89 -251l110 -342l94 351z" />
    <glyph glyph-name="X" unicode="X" horiz-adv-x="643" 
d="M634 0h-85l-230 310l-226 -310h-80l262 355l-256 348h86l216 -298l213 298h80l-247 -342z" />
    <glyph glyph-name="Y" unicode="Y" horiz-adv-x="643" 
d="M623 703l-267 -426v-277h-71v279l-264 424h86l216 -356l218 356h82z" />
    <glyph glyph-name="Z" unicode="Z" horiz-adv-x="604" 
d="M124 64h447v-64h-545v44l449 595h-435v64h530v-48z" />
    <glyph glyph-name="bracketleft" unicode="[" horiz-adv-x="319" 
d="M296 732h-139v-776h139v-61h-205v898h205v-61z" />
    <glyph glyph-name="backslash" unicode="\" horiz-adv-x="377" 
d="M277 -165l-238 937h61l239 -937h-62z" />
    <glyph glyph-name="bracketright" unicode="]" horiz-adv-x="319" 
d="M22 793h205v-898h-205v61h140v776h-140v61z" />
    <glyph glyph-name="asciicircum" unicode="^" horiz-adv-x="467" 
d="M420 394h-68l-117 211l-119 -211h-69l164 279h44z" />
    <glyph glyph-name="underscore" unicode="_" horiz-adv-x="597" 
d="M50 -32v58h497v-58h-497z" />
    <glyph glyph-name="grave" unicode="`" horiz-adv-x="224" 
d="M190 531l-180 95l34 57l170 -110z" />
    <glyph glyph-name="a" unicode="a" horiz-adv-x="590" 
d="M452 460h62v-460h-62l-2 83q-27 -41 -74 -66.5t-108 -25.5q-46 0 -87 18t-71.5 50.5t-47.5 76.5t-17 94t17 94t47 76.5t71 50.5t86 18q31 0 67 -9t67.5 -31t49.5 -51zM280 56q73 0 119.5 49t46.5 125q0 75 -46.5 124.5t-119.5 49.5q-24 0 -51.5 -8.5t-52.5 -30t-42.5 -56
t-17.5 -79.5q0 -27 8.5 -56.5t29 -55.5t53 -44t73.5 -18z" />
    <glyph glyph-name="b" unicode="b" horiz-adv-x="590" 
d="M324 469q45 0 86 -18t71 -50.5t47 -76.5t17 -94t-17 -94t-47.5 -76.5t-71.5 -50.5t-87 -18q-60 0 -106.5 25.5t-74.5 67.5l-3 -84h-62v714h69v-334q27 39 66 60t70 25t43 4zM310 56q24 0 51.5 8.5t52.5 30t42.5 56t17.5 79.5q0 27 -8.5 56.5t-29 55.5t-53 44t-73.5 18
q-73 0 -119.5 -49.5t-46.5 -124.5q0 -76 46.5 -125t119.5 -49z" />
    <glyph glyph-name="c" unicode="c" horiz-adv-x="479" 
d="M291 -9q-40 0 -83 12t-83.5 45t-60.5 82.5t-20 98.5t19 93.5t52.5 77.5t79 51t96.5 18q93 0 157 -49l-34 -51q-51 35 -116 35q-80 0 -131 -49.5t-51 -125.5q0 -27 8.5 -56.5t30 -55t56 -43.5t81.5 -18q39 0 68 9t54 25l31 -55q-32 -20 -67.5 -32t-86.5 -12z" />
    <glyph glyph-name="d" unicode="d" horiz-adv-x="590" 
d="M445 714h69v-714h-62l-3 84q-28 -42 -74.5 -67.5t-106.5 -25.5q-46 0 -87 18t-71.5 50.5t-47.5 76.5t-17 94t17 94t47 76.5t71 50.5t86 18t83 -15t61 -36t35 -38v334zM280 56q73 0 119.5 49t46.5 125q0 75 -46.5 124.5t-119.5 49.5q-24 0 -51.5 -8.5t-52.5 -30t-42.5 -56
t-17.5 -79.5q0 -27 8.5 -56.5t29 -55.5t53 -44t73.5 -18z" />
    <glyph glyph-name="e" unicode="e" horiz-adv-x="532" 
d="M491 239l-1 -31h-376q8 -69 58 -112.5t124 -43.5q34 0 67.5 10.5t70.5 40.5l33 -52q-74 -60 -178 -60q-52 0 -97 18t-78 50t-51 76.5t-18 94.5q0 24 5.5 54t20.5 61t42.5 59.5t70.5 46.5t93 18q94 0 154 -64t60 -166zM279 408q-64 0 -108 -39t-55 -103h307
q-4 66 -45.5 104t-98.5 38z" />
    <glyph glyph-name="f" unicode="f" horiz-adv-x="358" 
d="M108 0v402h-88v58h88v79q0 83 45.5 132.5t120.5 49.5q66 0 111 -36l-31 -55q-33 25 -74 25q-46 0 -74 -28.5t-28 -85.5v-81h149v-58h-149v-402h-70z" />
    <glyph glyph-name="g" unicode="g" horiz-adv-x="589" 
d="M451 459h62v-434q0 -48 -16 -90t-47 -73.5t-76.5 -48.5t-102.5 -17q-120 0 -203 57l32 54q78 -49 167 -49q81 0 128 45t47 114v59q-28 -38 -73 -61.5t-101 -23.5q-46 0 -87 18t-71.5 50.5t-47.5 76.5t-17 94t17 94t47 76.5t71 50.5t86 18q30 0 66 -9t67.5 -31.5
t49.5 -51.5zM280 56q73 0 119.5 49t46.5 125q0 75 -46.5 124.5t-119.5 49.5q-24 0 -51.5 -8.5t-52.5 -30t-42.5 -56t-17.5 -79.5q0 -27 8.5 -56.5t29 -55.5t53 -44t73.5 -18z" />
    <glyph glyph-name="h" unicode="h" horiz-adv-x="577" 
d="M307 469q90 0 145.5 -59t55.5 -155v-255h-71v246q0 71 -39.5 115t-102.5 43q-43 0 -76 -19.5t-52 -53.5t-20 -71v-260h-71v714h69v-331q21 37 64 61.5t98 24.5z" />
    <glyph glyph-name="i" unicode="i" horiz-adv-x="226" 
d="M112 556q-23 0 -39 15.5t-16 38.5t16 38t39 16q24 0 40 -15.5t16 -38.5t-16 -38.5t-40 -15.5zM77 0l1 460h71v-460h-72z" />
    <glyph glyph-name="j" unicode="j" horiz-adv-x="232" 
d="M119 556q-24 0 -40 15.5t-16 38.5t16 38t40 16q23 0 39.5 -15.5t16.5 -38.5t-16.5 -38.5t-39.5 -15.5zM15 -204q-37 0 -61 11l17 60q16 -6 37 -6q34 0 55 21.5t21 63.5v514h71v-513q0 -72 -37.5 -111.5t-102.5 -39.5z" />
    <glyph glyph-name="k" unicode="k" horiz-adv-x="489" 
d="M489 0h-102l-240 216v-216h-71v714h71v-452l230 198h97l-251 -216z" />
    <glyph glyph-name="l" unicode="l" horiz-adv-x="228" 
d="M79 0v714h71v-714h-71z" />
    <glyph glyph-name="m" unicode="m" horiz-adv-x="895" 
d="M632 469q88 0 141 -58.5t53 -154.5v-256h-71v247q0 72 -34.5 114.5t-95.5 42.5q-23 0 -46.5 -8t-46 -29t-34 -53.5t-11.5 -61.5v-252h-71v247q0 44 -15.5 82t-46.5 56.5t-69 18.5q-58 0 -95 -40t-42 -91l-1 -273h-71v460h58l3 -86q20 40 63.5 67.5t95.5 27.5
q60 0 104.5 -28.5t66.5 -78.5q14 32 42.5 58.5t61.5 37.5t61 11z" />
    <glyph glyph-name="n" unicode="n" horiz-adv-x="577" 
d="M307 469q90 0 145.5 -59t55.5 -155v-255h-71v246q0 72 -39 115.5t-103 42.5q-32 0 -64.5 -13.5t-55.5 -47t-27 -70.5l-1 -273h-71v460h58l3 -86q15 30 44 53t63 32.5t63 9.5z" />
    <glyph glyph-name="o" unicode="o" horiz-adv-x="568" 
d="M284 -9q-48 0 -92 18t-77.5 50.5t-52 76.5t-18.5 93q0 37 12.5 77.5t46.5 80.5t83.5 60.5t97.5 20.5t92 -18t77 -50.5t52 -76.5t19 -94q0 -49 -19 -93t-52 -76.5t-77 -50.5t-92 -18zM284 56q42 0 82.5 22.5t63 64.5t22.5 86q0 45 -22.5 87t-63 64.5t-82.5 22.5
t-82.5 -22.5t-63 -64.5t-22.5 -87q0 -44 22.5 -86t63 -64.5t82.5 -22.5z" />
    <glyph glyph-name="p" unicode="p" horiz-adv-x="590" 
d="M322 469q46 0 87 -18t71.5 -50.5t47.5 -76.5t17 -94t-17 -94t-47 -76.5t-71 -50.5t-87 -18q-29 0 -63.5 9t-65 31.5t-49.5 50.5v-277h-69v655h62l2 -83q27 41 74 66.5t108 25.5zM310 56q24 0 51.5 8.5t52.5 30t42.5 56t17.5 79.5q0 27 -8.5 56.5t-29 55.5t-53 44
t-73.5 18q-73 0 -119.5 -49t-46.5 -125q0 -75 46.5 -124.5t119.5 -49.5z" />
    <glyph glyph-name="q" unicode="q" horiz-adv-x="590" 
d="M452 460h62v-655h-69v272q-19 -27 -49.5 -48t-65.5 -29.5t-64 -8.5q-45 0 -86 18t-71 50.5t-47 76.5t-17 94t17 94t47.5 76.5t71.5 50.5t87 18q61 0 108 -25t74 -66zM280 56q73 0 119.5 49.5t46.5 124.5q0 76 -46.5 125t-119.5 49q-24 0 -51.5 -8.5t-52.5 -30t-42.5 -56
t-17.5 -79.5q0 -27 8.5 -56.5t29 -55.5t53 -44t73.5 -18z" />
    <glyph glyph-name="r" unicode="r" horiz-adv-x="351" 
d="M301 469q21 0 36 -3l-6 -71q-18 6 -42 6q-43 0 -74.5 -19.5t-49 -53.5t-18.5 -71v-257h-71v460h62l4 -96q10 32 36.5 58t60 36.5t62.5 10.5z" />
    <glyph glyph-name="s" unicode="s" horiz-adv-x="444" 
d="M226 -9q-102 0 -189 55l35 57q66 -50 154 -50q48 0 76 18t28 51q0 30 -23.5 48t-86.5 34q-92 24 -127 56.5t-35 78.5q0 58 46 93.5t122 35.5q96 0 164 -48l-32 -55q-37 22 -67.5 31.5t-70.5 9.5t-66 -16t-26 -46q0 -27 25.5 -42.5t91.5 -32.5q87 -23 121 -55t34 -90
q0 -59 -48.5 -96t-125.5 -37z" />
    <glyph glyph-name="t" unicode="t" horiz-adv-x="404" 
d="M270 -9q-71 0 -116 42.5t-45 116.5v252h-94v58h95v158h69v-158h193v-58h-193v-252q0 -96 103 -96q9 0 20 1.5t23 5.5t22 9.5t18 11.5t9 7l27 -55q-55 -43 -131 -43z" />
    <glyph glyph-name="u" unicode="u" horiz-adv-x="569" 
d="M422 460h71v-460h-62l-2 79q-21 -38 -64 -63t-97 -25q-89 0 -144 59t-55 155v255h71v-242q0 -72 37 -115.5t99 -43.5q43 0 75.5 20t51 54t19.5 71v256z" />
    <glyph glyph-name="v" unicode="v" horiz-adv-x="507" 
d="M415 460h76l-206 -465h-61l-207 465h78l162 -373z" />
    <glyph glyph-name="w" unicode="w" horiz-adv-x="771" 
d="M677 460h76l-173 -460h-58l-136 371l-135 -371h-60l-173 460h77l129 -370l128 379h70l132 -381z" />
    <glyph glyph-name="x" unicode="x" horiz-adv-x="489" 
d="M465 0h-88l-136 182l-134 -182h-85l175 232l-171 228h86l132 -179l131 179h84l-171 -227z" />
    <glyph glyph-name="y" unicode="y" horiz-adv-x="504" 
d="M492 460l-192 -447l-88 -208h-73l80 192l-201 463h80l159 -380l159 380h76z" />
    <glyph glyph-name="z" unicode="z" horiz-adv-x="465" 
d="M426 460v-52l-302 -350h302v-58h-392v52l302 350h-293v58h383z" />
    <glyph glyph-name="braceleft" unicode="{" horiz-adv-x="317" 
d="M290 -129q-56 0 -92.5 20.5t-55.5 57.5t-19 92v177q0 22 -8 44t-27 34t-41 12h-25v55h25q22 0 41 12.5t27 34.5t8 44v175q0 55 21 95.5t60.5 58t85.5 17.5v-58q-97 0 -97 -117v-173q0 -41 -17.5 -71t-59.5 -46q77 -25 77 -116v-173q0 -118 97 -118v-57z" />
    <glyph glyph-name="bar" unicode="|" horiz-adv-x="245" 
d="M91 -91v805h63v-805h-63z" />
    <glyph glyph-name="braceright" unicode="}" horiz-adv-x="317" 
d="M27 -129v57q97 0 97 118v173q0 91 77 116q-42 16 -59.5 46t-17.5 71v173q0 117 -97 117v58q46 0 85.5 -17.5t60.5 -58t21 -95.5v-175q0 -22 8 -44t27 -34.5t41 -12.5h25v-55h-25q-22 0 -41 -12t-27 -34t-8 -44v-177q0 -55 -19 -92t-55.5 -57.5t-92.5 -20.5z" />
    <glyph glyph-name="asciitilde" unicode="~" horiz-adv-x="545" 
d="M358 233q-25 0 -44 5.5t-61 24.5t-71 19q-40 0 -70 -30l-43 35q1 1 10 12t25.5 22t36.5 17.5t43 6.5q42 0 87 -21.5t61.5 -25t27.5 -3.5q22 0 43.5 10t32.5 25l43 -34q-17 -27 -50 -45t-71 -18z" />
    <glyph glyph-name="uni00A0" unicode="&#xa0;" horiz-adv-x="251" 
 />
    <glyph glyph-name="exclamdown" unicode="&#xa1;" horiz-adv-x="255" 
d="M128 435q-23 0 -39 16t-16 39q0 22 16 38t39 16q22 0 38.5 -16t16.5 -38q0 -23 -16.5 -39t-38.5 -16zM85 -195l14 522h57l13 -522h-84z" />
    <glyph glyph-name="cent" unicode="&#xa2;" horiz-adv-x="541" 
d="M459 195l29 -55q-31 -19 -64.5 -32t-77.5 -16v-119h-67v120q-49 6 -91.5 28.5t-74 57.5t-48.5 80.5t-17 95.5t17 95t48 80t73.5 57.5t92.5 29.5v124h67v-122q78 -6 145 -52l-29 -55q-60 43 -134 43q-43 0 -81.5 -15t-67 -42t-44 -64t-15.5 -79q0 -41 13.5 -73.5t35.5 -58
t61.5 -46t91.5 -20.5q75 0 137 38z" />
    <glyph glyph-name="sterling" unicode="&#xa3;" horiz-adv-x="581" 
d="M220 276l1 -213h309v-63h-483v63h102v213h-102v58h102v157q0 51 16 92.5t46 70t71 43.5t89 15t91.5 -13t71.5 -37l-39 -53q-45 37 -118 37q-42 0 -79.5 -16t-57.5 -53.5t-20 -88.5v-154h194v-58h-194z" />
    <glyph glyph-name="currency" unicode="&#xa4;" horiz-adv-x="627" 
d="M532 355q0 -80 -41 -137l56 -55l-42 -41l-55 55q-57 -41 -136 -41t-137 41l-57 -56l-41 40l57 57q-41 58 -41 137q0 78 41 135l-57 57l41 40l57 -57q56 42 137 42q79 0 136 -41l57 57l41 -41l-57 -57q41 -57 41 -135zM314 196q70 0 113 43.5t43 115.5q0 71 -43 114
t-113 43q-71 0 -114.5 -43t-43.5 -114q0 -72 43.5 -115.5t114.5 -43.5z" />
    <glyph glyph-name="yen" unicode="&#xa5;" horiz-adv-x="669" 
d="M638 703l-230 -366h158v-58h-194v-115h193v-58h-193v-106h-73v106h-204v58h204v115h-204v58h168l-229 366h85l220 -355l218 355h81z" />
    <glyph glyph-name="brokenbar" unicode="&#xa6;" horiz-adv-x="249" 
d="M93 359v355h63v-355h-63zM93 -91v354h63v-354h-63z" />
    <glyph glyph-name="section" unicode="&#xa7;" horiz-adv-x="505" 
d="M446 320q0 -56 -43 -99q40 -40 40 -103q0 -45 -22.5 -77.5t-66.5 -52t-110 -19.5q-101 0 -193 59l25 52q82 -51 164 -51q60 0 98 22.5t38 63.5q0 28 -13 47.5t-33 31.5t-37 18.5t-74 24.5q-78 23 -114 57.5t-36 92.5q0 24 9.5 52t35.5 52q-42 36 -42 98q0 71 53.5 113.5
t139.5 42.5q53 0 97.5 -15.5t70.5 -36.5l-27 -51q-36 27 -70.5 35.5t-68.5 8.5q-26 0 -56 -8t-50 -30.5t-20 -53.5t20.5 -51t47.5 -31t56 -20q58 -18 95 -37t61.5 -52.5t24.5 -82.5zM138 392q0 -31 23.5 -54.5t101.5 -47.5q57 -18 83 -30q32 24 32 58q0 14 -4 27t-12 24
t-20 20t-24.5 15t-26 11t-25.5 9t-26 8.5t-19 5.5q-24 7 -49 18q-16 -11 -25 -28t-9 -36z" />
    <glyph glyph-name="dieresis" unicode="&#xa8;" horiz-adv-x="339" 
d="M67 565q-21 0 -36 14.5t-15 34.5q0 21 15 35.5t36 14.5q20 0 34 -14.5t15 -35.5q1 -20 -14 -34.5t-35 -14.5zM275 563q-20 0 -35 14.5t-15 35.5t15 35.5t35 14.5q21 0 35 -14.5t15 -35.5t-14 -35.5t-36 -14.5z" />
    <glyph glyph-name="copyright" unicode="&#xa9;" horiz-adv-x="825" 
d="M413 -9q-74 0 -140.5 27.5t-116 77t-77.5 116t-28 139.5q0 54 16 106.5t45 96t69.5 76.5t90 53.5t88.5 24.5t53 4q74 0 140.5 -27.5t116 -77t77 -116t27.5 -140.5q0 -73 -27.5 -139.5t-77 -116t-116 -77t-140.5 -27.5zM413 47q46 0 96.5 15.5t102 58.5t78 106t26.5 124
q0 62 -23.5 118.5t-65 98.5t-97.5 65.5t-117 23.5t-117 -23.5t-97.5 -66t-65 -98.5t-23.5 -118q0 -61 23.5 -117t65 -98t97.5 -65.5t117 -23.5zM430 164q-39 0 -69.5 11.5t-55 31t-44.5 56.5t-20 89q0 31 9.5 63.5t36 63.5t65.5 46t78 15q58 0 111 -31l-15 -45
q-48 26 -96 26q-27 0 -59.5 -12.5t-54.5 -45.5t-22 -80t22 -80t55 -45.5t60 -12.5t53.5 8t42.5 19l15 -47q-48 -30 -112 -30z" />
    <glyph glyph-name="ordfeminine" unicode="&#xaa;" horiz-adv-x="439" 
d="M196 552q-61 0 -100.5 42.5t-39.5 106.5q0 66 40 109.5t101 43.5q28 0 57 -11.5t49 -42.5l2 49h50v-292h-48l-1 58q-16 -28 -44 -45.5t-66 -17.5zM208 601q21 0 44 10.5t37 36t14 55.5t-14.5 55.5t-37.5 36t-43 10.5q-21 0 -44 -10.5t-37.5 -36.5t-14.5 -55
q0 -43 25.5 -72.5t70.5 -29.5z" />
    <glyph glyph-name="guillemotleft" unicode="&#xab;" horiz-adv-x="452" 
d="M154 70l-109 181l109 169h72l-112 -169l112 -181h-72zM326 70l-109 181l109 169h71l-112 -169l112 -181h-71z" />
    <glyph glyph-name="logicalnot" unicode="&#xac;" horiz-adv-x="573" 
d="M79 350h420v-216h-59v158h-361v58z" />
    <glyph glyph-name="registered" unicode="&#xae;" horiz-adv-x="487" 
d="M244 810q30 0 64 -10.5t68.5 -39t52 -70t17.5 -81.5q0 -41 -15.5 -79t-43.5 -66t-65 -43.5t-78 -15.5t-78.5 15.5t-65.5 43.5t-43.5 66t-15.5 79q0 40 15.5 77t43.5 65t65.5 43.5t78.5 15.5zM244 448q65 0 111.5 47.5t46.5 113.5q0 32 -12.5 61t-34 51t-50.5 34.5
t-61 12.5q-24 0 -50.5 -8.5t-53.5 -31t-41 -55t-14 -64.5q0 -24 8.5 -51t28 -51.5t51 -41.5t71.5 -17zM329 641q0 -23 -12 -40.5t-32 -26.5l57 -73h-43l-49 65h-11h-36v-65h-37v214h75q39 0 63.5 -20t24.5 -54zM203 598h36q23 0 37.5 11.5t14.5 30.5t-14.5 31t-36.5 12h-37
v-85z" />
    <glyph glyph-name="macron" unicode="&#xaf;" horiz-adv-x="310" 
d="M10 573v58h290v-58h-290z" />
    <glyph glyph-name="degree" unicode="&#xb0;" horiz-adv-x="403" 
d="M202 408q-67 0 -110.5 42t-43.5 109q0 66 43.5 107.5t110.5 41.5t110.5 -41.5t43.5 -107.5q0 -67 -43.5 -109t-110.5 -42zM202 461q41 0 69.5 27.5t28.5 70.5q0 20 -9.5 42.5t-34 38t-54.5 15.5q-43 0 -71 -26.5t-28 -69.5q0 -21 9.5 -44t34 -38.5t55.5 -15.5z" />
    <glyph glyph-name="plusminus" unicode="&#xb1;" horiz-adv-x="550" 
d="M302 386h179v-58h-179v-196h-55v196h-178v58h178v187h55v-187zM69 26v55h412v-55h-412z" />
    <glyph glyph-name="uni00B2" unicode="&#xb2;" horiz-adv-x="392" 
d="M60 349v41q22 13 63.5 43.5t68.5 58.5q64 68 62 130q-2 36 -27.5 58t-68.5 22q-37 0 -83 -19l-19 45q32 17 58.5 24t56.5 7q69 0 109 -36t40 -97q0 -32 -14 -65.5t-55 -78.5q-28 -31 -95 -79h172v-54h-268z" />
    <glyph glyph-name="uni00B3" unicode="&#xb3;" horiz-adv-x="360" 
d="M188 596q42 0 71 -18t39.5 -46t10.5 -54q0 -57 -41.5 -95.5t-111.5 -38.5q-69 0 -122 35l26 45q23 -16 43 -22t45 -6q47 0 74 23.5t27 58.5q0 33 -22.5 52t-58.5 19q-40 0 -57 -14l-16 40l128 129h-181v52h256v-44h-1l-117 -116h8z" />
    <glyph glyph-name="acute" unicode="&#xb4;" horiz-adv-x="240" 
d="M35 531l-24 42l170 110l34 -57z" />
    <glyph glyph-name="paragraph" unicode="&#xb6;" horiz-adv-x="654" 
d="M550 703v-779h-59v723h-83v-723h-60v315h-39q-60 0 -110.5 14.5t-87 43.5t-56.5 74t-20 104q0 70 30.5 119.5t91.5 79t152 29.5h241zM348 295v352h-39q-75 0 -122.5 -21t-71.5 -58.5t-24 -92.5q0 -58 23.5 -97.5t71 -61t123.5 -21.5h39z" />
    <glyph glyph-name="periodcentered" unicode="&#xb7;" horiz-adv-x="234" 
d="M117 273q-23 0 -39 16.5t-16 38.5q0 23 16 39t39 16t39 -16t16 -39q0 -22 -16 -38.5t-39 -16.5z" />
    <glyph glyph-name="cedilla" unicode="&#xb8;" horiz-adv-x="244" 
d="M115 -245q-33 0 -61.5 9.5t-43.5 22.5l22 46q29 -18 46.5 -21.5t31.5 -3.5q29 0 46 12.5t17 35.5q0 25 -22.5 39.5t-64.5 14.5h-13l-10 13l31 90h53l-21 -55q48 -2 78.5 -29t30.5 -70q0 -48 -33 -76t-87 -28z" />
    <glyph glyph-name="uni00B9" unicode="&#xb9;" horiz-adv-x="267" 
d="M136 349v335l-99 -46l-16 51l145 63h27v-403h-57z" />
    <glyph glyph-name="ordmasculine" unicode="&#xba;" horiz-adv-x="416" 
d="M210 526q-68 0 -110 41.5t-42 109.5q0 69 42 110.5t110 40.5q67 -1 107.5 -42.5t40.5 -108.5q0 -68 -40.5 -109.5t-107.5 -41.5zM210 575q43 0 70 28.5t27 73.5q0 22 -9 46t-33 40.5t-55 16.5q-21 0 -45 -9.5t-40 -34.5t-16 -59q0 -45 28.5 -73.5t72.5 -28.5z" />
    <glyph glyph-name="guillemotright" unicode="&#xbb;" horiz-adv-x="453" 
d="M55 70l113 181l-113 169h72l110 -169l-110 -181h-72zM227 70l113 181l-113 169h72l110 -169l-110 -181h-72z" />
    <glyph glyph-name="onequarter" unicode="&#xbc;" horiz-adv-x="757" 
d="M189 -6l-52 25l385 693l52 -27zM146 300v336l-98 -47l-16 51l144 63h28v-403h-58zM623 0v90h-224v39l119 283l49 -16l-105 -255h161v156h56v-156h40v-51h-40v-90h-56z" />
    <glyph glyph-name="onehalf" unicode="&#xbd;" horiz-adv-x="810" 
d="M189 -6l-52 25l385 693l52 -27zM146 300v336l-98 -47l-16 51l144 63h28v-403h-58zM497 0v41q18 11 58 43t69 59q69 65 66 130q-2 36 -27 58t-69 22q-37 0 -83 -19l-18 45q55 31 114 31q69 0 109 -36t40 -97q0 -32 -14 -65.5t-55 -78.5q-34 -37 -92 -79h170v-54h-268z" />
    <glyph glyph-name="threequarters" unicode="&#xbe;" horiz-adv-x="787" 
d="M557 712l52 -27l-385 -691l-52 25zM309 423q0 -57 -41.5 -94.5t-111.5 -37.5q-69 0 -122 35l26 45q40 -28 88 -28q47 0 74 22.5t27 57.5q0 33 -22.5 52.5t-58.5 19.5q-35 0 -57 -10l-16 36l125 130h-178v52h253v-43l-116 -118h9q27 0 56 -10.5t47 -39.5t18 -69zM712 141
h41v-51h-41v-90h-55v90h-230v39l125 283l49 -16l-111 -255h167v156h55v-156z" />
    <glyph glyph-name="questiondown" unicode="&#xbf;" horiz-adv-x="436" 
d="M266 540q22 0 37 -15t15 -37t-15 -37t-37 -15t-37 15t-15 37t15 37t37 15zM296 331v-34q0 -30 -8 -58t-26 -53.5t-52.5 -56t-47.5 -43t-22.5 -27.5t-16 -32.5t-6.5 -41.5q0 -60 35 -90.5t94 -31.5q68 -1 127 33l24 -55q-77 -41 -164 -41q-49 0 -94.5 20t-69.5 61.5
t-24 92.5q0 45 18.5 84.5t69.5 86.5t64.5 63t21.5 31t12.5 32.5t4.5 36.5v23h60z" />
    <glyph glyph-name="Agrave" unicode="&#xc0;" horiz-adv-x="671" 
d="M438 811l-17 -47l-204 53l26 77zM586 0l-66 159h-370l-66 -159h-76l297 703h61l296 -703h-76zM335 605l-159 -382h318z" />
    <glyph glyph-name="Aacute" unicode="&#xc1;" horiz-adv-x="671" 
d="M455 821l-202 -60l-18 46l192 90zM586 0l-66 159h-370l-66 -159h-76l297 703h61l296 -703h-76zM335 605l-159 -382h318z" />
    <glyph glyph-name="Acircumflex" unicode="&#xc2;" horiz-adv-x="671" 
d="M334 829l-68 -65h-70l112 123h56l109 -123h-72zM586 0l-66 159h-370l-66 -159h-76l297 703h61l296 -703h-76zM335 605l-159 -382h318z" />
    <glyph glyph-name="Atilde" unicode="&#xc3;" horiz-adv-x="671" 
d="M270 818q-16 0 -29 -5.5t-20 -12.5t-10.5 -12t-8.5 -13l-43 35q18 30 46.5 48.5t65.5 18.5q31 0 66 -21.5t46.5 -24.5t17.5 -3q12 0 22 3.5t17 9t11.5 10t7 8.5t4.5 7t5 8l43 -34q-13 -29 -44 -49.5t-68 -20.5q-32 0 -66 21t-45.5 24t-17.5 3zM586 0l-66 159h-370
l-66 -159h-76l297 703h61l296 -703h-76zM335 605l-159 -382h318z" />
    <glyph glyph-name="Adieresis" unicode="&#xc4;" horiz-adv-x="671" 
d="M226 775q-21 0 -36 14.5t-15 35.5q0 20 15 34.5t36 14.5q20 0 34 -14t15 -35t-14 -35.5t-35 -14.5zM444 774q-20 0 -35 14.5t-15 35.5q0 20 15 34.5t35 14.5q21 0 35 -14t15 -35t-14 -35.5t-36 -14.5zM586 0l-66 159h-370l-66 -159h-76l297 703h61l296 -703h-76zM335 605
l-159 -382h318z" />
    <glyph glyph-name="Aring" unicode="&#xc5;" horiz-adv-x="671" 
d="M335 751q-39 0 -65.5 25.5t-26.5 63.5q0 37 26.5 62.5t65.5 25.5t65.5 -25.5t26.5 -62.5q0 -38 -26.5 -63.5t-65.5 -25.5zM335 887q-19 0 -32.5 -13.5t-13.5 -33.5q0 -19 13.5 -33t32.5 -14q20 0 33 14t13 33q0 20 -13 33.5t-33 13.5zM586 0l-66 159h-370l-66 -159h-76
l297 703h61l296 -703h-76zM335 605l-159 -382h318z" />
    <glyph glyph-name="AE" unicode="&#xc6;" horiz-adv-x="876" 
d="M-12 0l397 703h439v-64h-337v-252l289 1v-64l-289 -1v-259h337v-64h-409v177h-250l-103 -177h-74zM197 238h218v388z" />
    <glyph glyph-name="Ccedilla" unicode="&#xc7;" horiz-adv-x="678" 
d="M648 52q-38 -27 -92.5 -42.5t-110.5 -17.5l-9 -31q27 -1 49.5 -12t38.5 -33t16 -55q0 -49 -33.5 -77.5t-86.5 -28.5q-29 0 -55 6.5t-52 25.5l24 46q28 -17 45 -21.5t31 -4.5q29 -1 45.5 12t17.5 39q0 14 -8 28t-31 21.5t-57 4.5l-10 13l23 67q-56 3 -106.5 20.5t-91.5 46
t-76 74.5t-51.5 104.5t-16.5 112.5q0 77 27 144t76.5 115.5t118 75.5t147.5 27q67 0 125 -16.5t103 -47.5l-35 -57q-32 27 -82.5 41.5t-101.5 14.5q-67 0 -124 -21t-97.5 -60.5t-62.5 -94.5t-22 -119t21.5 -119t62 -94.5t97.5 -61t125 -21.5q108 0 186 52z" />
    <glyph glyph-name="Egrave" unicode="&#xc8;" horiz-adv-x="607" 
d="M439 811l-17 -47l-204 53l26 77zM555 639h-383v-250h335v-64h-335v-261h383v-64h-454v703h454v-64z" />
    <glyph glyph-name="Eacute" unicode="&#xc9;" horiz-adv-x="607" 
d="M456 821l-202 -60l-18 46l192 90zM555 639h-383v-250h335v-64h-335v-261h383v-64h-454v703h454v-64z" />
    <glyph glyph-name="Ecircumflex" unicode="&#xca;" horiz-adv-x="607" 
d="M335 829l-68 -65h-70l112 123h56l109 -123h-72zM555 639h-383v-250h335v-64h-335v-261h383v-64h-454v703h454v-64z" />
    <glyph glyph-name="Edieresis" unicode="&#xcb;" horiz-adv-x="607" 
d="M227 775q-21 0 -36 14.5t-15 35.5q0 20 15 34.5t36 14.5q20 0 34 -14t15 -35t-14 -35.5t-35 -14.5zM445 774q-20 0 -35 14.5t-15 35.5q0 20 15 34.5t35 14.5q21 0 35 -14t15 -35t-14 -35.5t-36 -14.5zM555 639h-383v-250h335v-64h-335v-261h383v-64h-454v703h454v-64z
" />
    <glyph glyph-name="Igrave" unicode="&#xcc;" horiz-adv-x="274" 
d="M223 764l-204 53l26 77l195 -83zM101 0v703h71v-703h-71z" />
    <glyph glyph-name="Iacute" unicode="&#xcd;" horiz-adv-x="274" 
d="M55 761l-18 46l192 90l28 -76zM101 0v703h71v-703h-71z" />
    <glyph glyph-name="Icircumflex" unicode="&#xce;" horiz-adv-x="274" 
d="M166 887l109 -123h-72l-67 65l-68 -65h-70l112 123h56zM101 0v703h71v-703h-71z" />
    <glyph glyph-name="Idieresis" unicode="&#xcf;" horiz-adv-x="274" 
d="M28 775q-21 0 -36 14.5t-15 35.5q0 20 15 34.5t36 14.5q20 0 34 -14t15 -35t-14 -35.5t-35 -14.5zM246 774q-20 0 -35 14.5t-15 35.5q0 20 15 34.5t35 14.5q21 0 35 -14t15 -35t-14 -35.5t-36 -14.5zM101 0v703h71v-703h-71z" />
    <glyph glyph-name="Eth" unicode="&#xd0;" horiz-adv-x="758" 
d="M339 703q80 0 148.5 -25t117 -71.5t75 -112t26.5 -142.5t-26.5 -142.5t-75 -112.5t-117 -72t-148.5 -25h-238v327h-79v52h79v324h238zM342 64q64 0 118.5 20.5t93 58.5t59 91.5t20.5 116.5t-20.5 116.5t-59 92t-93 59t-118.5 20.5h-170v-260h157v-52h-157v-263h170z" />
    <glyph glyph-name="Ntilde" unicode="&#xd1;" horiz-adv-x="789" 
d="M335 818q-16 0 -29 -5.5t-20 -12.5t-10.5 -12t-8.5 -13l-43 35q18 30 46.5 48.5t65.5 18.5q31 0 66 -21.5t46.5 -24.5t17.5 -3q12 0 22 3.5t17 9t11.5 10t7 8.5t4.5 7t5 8l43 -34q-13 -29 -44 -49.5t-68 -20.5q-32 0 -66 21t-45.5 24t-17.5 3zM617 703h71v-710h-44
l-472 577v-570h-71v710h45l471 -579v572z" />
    <glyph glyph-name="Ograve" unicode="&#xd2;" horiz-adv-x="829" 
d="M500 764l-204 53l26 77l195 -83zM415 -9q-77 0 -144.5 27t-117 76t-76.5 115.5t-27 141.5q0 74 27 140.5t76.5 116t117 77t144.5 27.5t144 -27.5t116 -76.5t76 -116t27 -141q0 -75 -27 -141.5t-76 -115.5t-116 -76t-144 -27zM415 56q60 0 114 22t93.5 61.5t61.5 94.5
t22 117q0 61 -22 115.5t-62 95t-93.5 63t-113.5 22.5q-61 0 -115 -22.5t-94 -63.5t-62 -95.5t-22 -114.5q0 -62 22 -116.5t62 -94.5t94 -62t115 -22z" />
    <glyph glyph-name="Oacute" unicode="&#xd3;" horiz-adv-x="829" 
d="M332 761l-18 46l192 90l28 -76zM415 -9q-77 0 -144.5 27t-117 76t-76.5 115.5t-27 141.5q0 74 27 140.5t76.5 116t117 77t144.5 27.5t144 -27.5t116 -76.5t76 -116t27 -141q0 -75 -27 -141.5t-76 -115.5t-116 -76t-144 -27zM415 56q60 0 114 22t93.5 61.5t61.5 94.5
t22 117q0 61 -22 115.5t-62 95t-93.5 63t-113.5 22.5q-61 0 -115 -22.5t-94 -63.5t-62 -95.5t-22 -114.5q0 -62 22 -116.5t62 -94.5t94 -62t115 -22z" />
    <glyph glyph-name="Ocircumflex" unicode="&#xd4;" horiz-adv-x="829" 
d="M413 829l-68 -65h-70l112 123h56l109 -123h-72zM415 712q77 0 144 -27.5t116 -76.5t76 -116t27 -141q0 -75 -27 -141.5t-76 -115.5t-116 -76t-144 -27t-144.5 27t-117 76t-76.5 115.5t-27 141.5q0 74 27 140.5t76.5 116t117 77t144.5 27.5zM415 56q60 0 114 22t93.5 61.5
t61.5 94.5t22 117q0 61 -22 115.5t-62 95t-93.5 63t-113.5 22.5q-61 0 -115 -22.5t-94 -63.5t-62 -95.5t-22 -114.5q0 -62 22 -116.5t62 -94.5t94 -62t115 -22z" />
    <glyph glyph-name="Otilde" unicode="&#xd5;" horiz-adv-x="829" 
d="M478 770q-32 0 -66 21t-45.5 24t-17.5 3q-16 0 -29 -5.5t-20 -12.5t-10.5 -12t-8.5 -13l-43 35q18 30 46.5 48.5t65.5 18.5q31 0 66 -21.5t46.5 -24.5t17.5 -3q12 0 22 3.5t17 9t11.5 10t7 8.5t4.5 7t5 8l43 -34q-13 -29 -44 -49.5t-68 -20.5zM415 -9q-77 0 -144.5 27
t-117 76t-76.5 115.5t-27 141.5q0 74 27 140.5t76.5 116t117 77t144.5 27.5t144 -27.5t116 -76.5t76 -116t27 -141q0 -75 -27 -141.5t-76 -115.5t-116 -76t-144 -27zM415 56q60 0 114 22t93.5 61.5t61.5 94.5t22 117q0 61 -22 115.5t-62 95t-93.5 63t-113.5 22.5
q-61 0 -115 -22.5t-94 -63.5t-62 -95.5t-22 -114.5q0 -62 22 -116.5t62 -94.5t94 -62t115 -22z" />
    <glyph glyph-name="Odieresis" unicode="&#xd6;" horiz-adv-x="829" 
d="M305 775q-21 0 -36 14.5t-15 35.5q0 20 15 34.5t36 14.5q20 0 34 -14t15 -35t-14 -35.5t-35 -14.5zM523 774q-20 0 -35 14.5t-15 35.5q0 20 15 34.5t35 14.5q21 0 35 -14t15 -35t-14 -35.5t-36 -14.5zM415 -9q-77 0 -144.5 27t-117 76t-76.5 115.5t-27 141.5
q0 74 27 140.5t76.5 116t117 77t144.5 27.5t144 -27.5t116 -76.5t76 -116t27 -141q0 -75 -27 -141.5t-76 -115.5t-116 -76t-144 -27zM415 56q60 0 114 22t93.5 61.5t61.5 94.5t22 117q0 61 -22 115.5t-62 95t-93.5 63t-113.5 22.5q-61 0 -115 -22.5t-94 -63.5t-62 -95.5
t-22 -114.5q0 -62 22 -116.5t62 -94.5t94 -62t115 -22z" />
    <glyph glyph-name="multiply" unicode="&#xd7;" horiz-adv-x="487" 
d="M425 427l-140 -139l138 -139l-41 -41l-138 139l-140 -138l-42 42l140 138l-139 140l42 41l138 -139l141 139z" />
    <glyph glyph-name="Oslash" unicode="&#xd8;" horiz-adv-x="829" 
d="M655 627q57 -48 90 -121t33 -155q0 -75 -27 -141.5t-76 -115.5t-116 -76t-144 -27q-106 0 -195 51l-52 -70l-47 36l51 69q-58 49 -90 120t-32 154q0 74 27 140.5t76.5 116t117 77t144.5 27.5q105 0 193 -51l51 68l46 -35zM122 351q0 -65 24.5 -122t67.5 -97l353 474
q-69 41 -152 41q-61 0 -115 -22.5t-94 -63.5t-62 -95.5t-22 -114.5zM415 56q60 0 114 22t93.5 61.5t61.5 94.5t22 117q0 64 -25 122t-68 98l-352 -474q33 -19 73 -30t81 -11z" />
    <glyph glyph-name="Ugrave" unicode="&#xd9;" horiz-adv-x="760" 
d="M469 764l-204 53l26 77l195 -83zM383 -9q-48 0 -91.5 11t-78.5 32.5t-65 58.5t-44 89t-14 103v418h74v-423q0 -36 10 -74t39 -74.5t75.5 -54.5t96.5 -18q36 0 74 10.5t69 36.5t51.5 69.5t20.5 104.5v423h70v-418q0 -69 -20.5 -124.5t-58 -93t-91 -57t-117.5 -19.5z" />
    <glyph glyph-name="Uacute" unicode="&#xda;" horiz-adv-x="760" 
d="M301 761l-18 46l192 90l28 -76zM383 -9q-48 0 -91.5 11t-78.5 32.5t-65 58.5t-44 89t-14 103v418h74v-423q0 -36 10 -74t39 -74.5t75.5 -54.5t96.5 -18q36 0 74 10.5t69 36.5t51.5 69.5t20.5 104.5v423h70v-418q0 -69 -20.5 -124.5t-58 -93t-91 -57t-117.5 -19.5z" />
    <glyph glyph-name="Ucircumflex" unicode="&#xdb;" horiz-adv-x="760" 
d="M382 829l-68 -65h-70l112 123h56l109 -123h-72zM600 703h70v-418q0 -69 -20.5 -124.5t-58 -93t-91 -57t-117.5 -19.5q-48 0 -91.5 11t-78.5 32.5t-65 58.5t-44 89t-14 103v418h74v-423q0 -36 10 -74t39 -74.5t75.5 -54.5t96.5 -18q36 0 74 10.5t69 36.5t51.5 69.5
t20.5 104.5v423z" />
    <glyph glyph-name="Udieresis" unicode="&#xdc;" horiz-adv-x="760" 
d="M274 775q-21 0 -36 14.5t-15 35.5q0 20 15 34.5t36 14.5q20 0 34 -14t15 -35t-14 -35.5t-35 -14.5zM492 774q-20 0 -35 14.5t-15 35.5q0 20 15 34.5t35 14.5q21 0 35 -14t15 -35t-14 -35.5t-36 -14.5zM383 -9q-48 0 -91.5 11t-78.5 32.5t-65 58.5t-44 89t-14 103v418h74
v-423q0 -36 10 -74t39 -74.5t75.5 -54.5t96.5 -18q36 0 74 10.5t69 36.5t51.5 69.5t20.5 104.5v423h70v-418q0 -69 -20.5 -124.5t-58 -93t-91 -57t-117.5 -19.5z" />
    <glyph glyph-name="Yacute" unicode="&#xdd;" horiz-adv-x="643" 
d="M445 821l-202 -60l-18 46l192 90zM623 703l-267 -426v-277h-71v279l-264 424h86l216 -356l218 356h82z" />
    <glyph glyph-name="Thorn" unicode="&#xde;" horiz-adv-x="651" 
d="M333 591q59 0 109 -16t86.5 -46t56.5 -74.5t20 -99.5t-20 -99.5t-56.5 -75t-87.5 -46.5t-111 -16h-155v-118h-74v703h74v-112h158zM330 183q32 0 66 7.5t67 29.5t49 58t16 76q0 79 -54.5 123t-143.5 44h-155v-338h155z" />
    <glyph glyph-name="germandbls" unicode="&#xdf;" horiz-adv-x="554" 
d="M517 193q1 -91 -58 -146.5t-151 -55.5q-57 0 -102 19l15 66q7 -3 28 -9.5t51 -6.5q38 0 73 16t53 49t18 72q0 41 -20 73.5t-57.5 47.5t-78.5 15h-53v57h6q66 0 107.5 36.5t41.5 96.5q0 25 -11.5 53t-41 46.5t-67.5 18.5q-25 0 -54 -11t-49 -40.5t-20 -67.5v-522h-71v527
q0 39 15 73.5t42 59.5t63 38.5t76 13.5q90 0 140 -49t50 -132q0 -48 -22 -87.5t-61 -63.5q65 -18 101 -65t37 -122z" />
    <glyph glyph-name="agrave" unicode="&#xe0;" horiz-adv-x="590" 
d="M386 573l-24 -42l-180 95l34 57zM452 460h62v-460h-62l-2 83q-27 -41 -74 -66.5t-108 -25.5q-46 0 -87 18t-71.5 50.5t-47.5 76.5t-17 94t17 94t47 76.5t71 50.5t86 18q31 0 67 -9t67.5 -31t49.5 -51zM280 56q73 0 119.5 49t46.5 125q0 75 -46.5 124.5t-119.5 49.5
q-24 0 -51.5 -8.5t-52.5 -30t-42.5 -56t-17.5 -79.5q0 -27 8.5 -56.5t29 -55.5t53 -44t73.5 -18z" />
    <glyph glyph-name="aacute" unicode="&#xe1;" horiz-adv-x="590" 
d="M392 626l-180 -95l-24 42l170 110zM452 460h62v-460h-62l-2 83q-27 -41 -74 -66.5t-108 -25.5q-46 0 -87 18t-71.5 50.5t-47.5 76.5t-17 94t17 94t47 76.5t71 50.5t86 18q31 0 67 -9t67.5 -31t49.5 -51zM280 56q73 0 119.5 49t46.5 125q0 75 -46.5 124.5t-119.5 49.5
q-24 0 -51.5 -8.5t-52.5 -30t-42.5 -56t-17.5 -79.5q0 -27 8.5 -56.5t29 -55.5t53 -44t73.5 -18z" />
    <glyph glyph-name="acircumflex" unicode="&#xe2;" horiz-adv-x="590" 
d="M290 620l-68 -86h-71l112 147h56l109 -147h-70zM452 460h62v-460h-62l-2 83q-27 -41 -74 -66.5t-108 -25.5q-46 0 -87 18t-71.5 50.5t-47.5 76.5t-17 94t17 94t47 76.5t71 50.5t86 18q31 0 67 -9t67.5 -31t49.5 -51zM280 56q73 0 119.5 49t46.5 125q0 75 -46.5 124.5
t-119.5 49.5q-24 0 -51.5 -8.5t-52.5 -30t-42.5 -56t-17.5 -79.5q0 -27 8.5 -56.5t29 -55.5t53 -44t73.5 -18z" />
    <glyph glyph-name="atilde" unicode="&#xe3;" horiz-adv-x="590" 
d="M227 602q-12 0 -27.5 -6.5t-32.5 -40.5l-43 35q26 43 51 57t47 14q18 0 33 -4.5t25 -10.5t34 -22.5t43 -16.5q37 0 56 51l43 -34q-10 -27 -39 -51t-60 -24q-10 0 -22.5 2.5t-24 8.5t-38.5 24t-45 18zM452 460h62v-460h-62l-2 83q-27 -41 -74 -66.5t-108 -25.5
q-46 0 -87 18t-71.5 50.5t-47.5 76.5t-17 94t17 94t47 76.5t71 50.5t86 18q31 0 67 -9t67.5 -31t49.5 -51zM280 56q73 0 119.5 49t46.5 125q0 75 -46.5 124.5t-119.5 49.5q-24 0 -51.5 -8.5t-52.5 -30t-42.5 -56t-17.5 -79.5q0 -27 8.5 -56.5t29 -55.5t53 -44t73.5 -18z" />
    <glyph glyph-name="adieresis" unicode="&#xe4;" horiz-adv-x="590" 
d="M187 565q-21 0 -36 14.5t-15 34.5q0 21 15 35.5t36 14.5q20 0 34 -14.5t15 -35.5q1 -20 -14 -34.5t-35 -14.5zM395 563q-20 0 -35 14.5t-15 35.5t15 35.5t35 14.5q21 0 35 -14.5t15 -35.5t-14 -35.5t-36 -14.5zM452 460h62v-460h-62l-2 83q-27 -41 -74 -66.5t-108 -25.5
q-46 0 -87 18t-71.5 50.5t-47.5 76.5t-17 94t17 94t47 76.5t71 50.5t86 18q31 0 67 -9t67.5 -31t49.5 -51zM280 56q73 0 119.5 49t46.5 125q0 75 -46.5 124.5t-119.5 49.5q-24 0 -51.5 -8.5t-52.5 -30t-42.5 -56t-17.5 -79.5q0 -27 8.5 -56.5t29 -55.5t53 -44t73.5 -18z" />
    <glyph glyph-name="aring" unicode="&#xe5;" horiz-adv-x="590" 
d="M290 525q-29 0 -52.5 15t-32.5 36t-9 39t9 39t32.5 36.5t52.5 15.5q19 0 41 -9t37.5 -31.5t15.5 -50.5q0 -18 -9 -39t-32.5 -36t-52.5 -15zM290 664q-20 0 -34 -13t-14 -35t14 -35.5t34 -13.5t34 13.5t14 35.5q0 21 -14 34.5t-34 13.5zM452 460h62v-460h-62l-2 83
q-27 -41 -74 -66.5t-108 -25.5q-46 0 -87 18t-71.5 50.5t-47.5 76.5t-17 94t17 94t47 76.5t71 50.5t86 18q31 0 67 -9t67.5 -31t49.5 -51zM280 56q73 0 119.5 49t46.5 125q0 75 -46.5 124.5t-119.5 49.5q-24 0 -51.5 -8.5t-52.5 -30t-42.5 -56t-17.5 -79.5q0 -27 8.5 -56.5
t29 -55.5t53 -44t73.5 -18z" />
    <glyph glyph-name="ae" unicode="&#xe6;" horiz-adv-x="939" 
d="M898 239l-1 -31h-376q8 -69 58 -112.5t124 -43.5q34 0 67.5 10.5t70.5 40.5l33 -52q-74 -60 -178 -60q-57 0 -105 24t-79 66l-8 -81h-49l-7 79q-27 -42 -73 -65t-107 -23q-46 0 -87 18t-71.5 50.5t-47.5 76.5t-17 94t17 94t47.5 76.5t71.5 50.5t87 18q62 0 108.5 -23
t72.5 -65l6 79h49l6 -83q30 42 75.5 67t98.5 25q94 0 154 -64t60 -166zM686 408q-64 0 -108 -39t-55 -103h307q-4 66 -45.5 104t-98.5 38zM280 56q73 0 119.5 49t46.5 125q0 75 -46.5 124.5t-119.5 49.5q-68 0 -116 -49.5t-48 -124.5q0 -27 8.5 -56.5t29 -55.5t53 -44
t73.5 -18z" />
    <glyph glyph-name="ccedilla" unicode="&#xe7;" horiz-adv-x="479" 
d="M445 35q-64 -41 -140 -44l-13 -33q48 -2 78.5 -29t30.5 -70q0 -48 -33 -76t-87 -28q-33 0 -61.5 9.5t-43.5 22.5l22 46q29 -18 46.5 -21.5t31.5 -3.5q29 0 46 12.5t17 35.5q0 25 -22.5 39.5t-64.5 14.5h-13l-10 13l24 70q-94 12 -151.5 77.5t-57.5 158.5q0 49 19 93.5
t52.5 77.5t79 51t96.5 18q93 0 157 -49l-34 -51q-51 35 -116 35q-80 0 -131 -49.5t-51 -125.5q0 -27 8.5 -56.5t30 -55t56 -43.5t81.5 -18q39 0 68 9t54 25z" />
    <glyph glyph-name="egrave" unicode="&#xe8;" horiz-adv-x="532" 
d="M373 573l-24 -42l-180 95l34 57zM491 239l-1 -31h-376q8 -69 58 -112.5t124 -43.5q34 0 67.5 10.5t70.5 40.5l33 -52q-74 -60 -178 -60q-52 0 -97 18t-78 50t-51 76.5t-18 94.5q0 24 5.5 54t20.5 61t42.5 59.5t70.5 46.5t93 18q94 0 154 -64t60 -166zM279 408
q-64 0 -108 -39t-55 -103h307q-4 66 -45.5 104t-98.5 38z" />
    <glyph glyph-name="eacute" unicode="&#xe9;" horiz-adv-x="532" 
d="M379 626l-180 -95l-24 42l170 110zM491 239l-1 -31h-376q8 -69 58 -112.5t124 -43.5q34 0 67.5 10.5t70.5 40.5l33 -52q-74 -60 -178 -60q-52 0 -97 18t-78 50t-51 76.5t-18 94.5q0 24 5.5 54t20.5 61t42.5 59.5t70.5 46.5t93 18q94 0 154 -64t60 -166zM279 408
q-64 0 -108 -39t-55 -103h307q-4 66 -45.5 104t-98.5 38z" />
    <glyph glyph-name="ecircumflex" unicode="&#xea;" horiz-adv-x="532" 
d="M277 620l-68 -86h-71l112 147h56l109 -147h-70zM491 239l-1 -31h-376q8 -69 58 -112.5t124 -43.5q34 0 67.5 10.5t70.5 40.5l33 -52q-74 -60 -178 -60q-52 0 -97 18t-78 50t-51 76.5t-18 94.5q0 24 5.5 54t20.5 61t42.5 59.5t70.5 46.5t93 18q94 0 154 -64t60 -166z
M279 408q-64 0 -108 -39t-55 -103h307q-4 66 -45.5 104t-98.5 38z" />
    <glyph glyph-name="edieresis" unicode="&#xeb;" horiz-adv-x="532" 
d="M174 565q-21 0 -36 14.5t-15 34.5q0 21 15 35.5t36 14.5q20 0 34 -14.5t15 -35.5q1 -20 -14 -34.5t-35 -14.5zM382 563q-20 0 -35 14.5t-15 35.5t15 35.5t35 14.5q21 0 35 -14.5t15 -35.5t-14 -35.5t-36 -14.5zM491 239l-1 -31h-376q8 -69 58 -112.5t124 -43.5
q34 0 67.5 10.5t70.5 40.5l33 -52q-74 -60 -178 -60q-52 0 -97 18t-78 50t-51 76.5t-18 94.5q0 24 5.5 54t20.5 61t42.5 59.5t70.5 46.5t93 18q94 0 154 -64t60 -166zM279 408q-64 0 -108 -39t-55 -103h307q-4 66 -45.5 104t-98.5 38z" />
    <glyph glyph-name="igrave" unicode="&#xec;" horiz-adv-x="226" 
d="M185 531l-180 95l34 57l170 -110zM77 0l1 460h71v-460h-72z" />
    <glyph glyph-name="iacute" unicode="&#xed;" horiz-adv-x="226" 
d="M35 531l-24 42l170 110l34 -57zM77 0l1 460h71v-460h-72z" />
    <glyph glyph-name="icircumflex" unicode="&#xee;" horiz-adv-x="226" 
d="M142 681l109 -147h-70l-68 86l-68 -86h-71l112 147h56zM77 0l1 460h71v-460h-72z" />
    <glyph glyph-name="idieresis" unicode="&#xef;" horiz-adv-x="226" 
d="M10 565q-21 0 -36 14.5t-15 34.5q0 21 15 35.5t36 14.5q20 0 34 -14.5t15 -35.5q1 -20 -14 -34.5t-35 -14.5zM218 563q-20 0 -35 14.5t-15 35.5t15 35.5t35 14.5q21 0 35 -14.5t15 -35.5t-14 -35.5t-36 -14.5zM77 0l1 460h71v-460h-72z" />
    <glyph glyph-name="eth" unicode="&#xf0;" horiz-adv-x="581" 
d="M332 627q199 -154 200 -373q0 -118 -67.5 -190.5t-177.5 -72.5q-53 0 -98 16.5t-77 47.5t-49.5 74t-17.5 94q0 49 16.5 92t46.5 74t73 48t93 17q48 0 90.5 -17.5t72.5 -48.5q-42 110 -150 194l-79 -80l-33 29l76 77q-39 26 -94 53l38 53q54 -28 101 -61l77 78l33 -29z
M288 56q78 0 126 49t48 129q0 23 -9 50t-30 51t-55.5 41.5t-79.5 17.5q-78 0 -125.5 -48.5t-47.5 -123.5q0 -74 47.5 -120t125.5 -46z" />
    <glyph glyph-name="ntilde" unicode="&#xf1;" horiz-adv-x="577" 
d="M235 602q-12 0 -27.5 -6.5t-32.5 -40.5l-43 35q26 43 51 57t47 14q18 0 33 -4.5t25 -10.5t34 -22.5t43 -16.5q37 0 56 51l43 -34q-10 -27 -39 -51t-60 -24q-10 0 -22.5 2.5t-24 8.5t-38.5 24t-45 18zM307 469q90 0 145.5 -59t55.5 -155v-255h-71v246q0 72 -39 115.5
t-103 42.5q-32 0 -64.5 -13.5t-55.5 -47t-27 -70.5l-1 -273h-71v460h58l3 -86q15 30 44 53t63 32.5t63 9.5z" />
    <glyph glyph-name="ograve" unicode="&#xf2;" horiz-adv-x="568" 
d="M356 531l-180 95l34 57l170 -110zM284 -9q-48 0 -92 18t-77.5 50.5t-52 76.5t-18.5 93q0 37 12.5 77.5t46.5 80.5t83.5 60.5t97.5 20.5t92 -18t77 -50.5t52 -76.5t19 -94q0 -49 -19 -93t-52 -76.5t-77 -50.5t-92 -18zM284 56q42 0 82.5 22.5t63 64.5t22.5 86
q0 45 -22.5 87t-63 64.5t-82.5 22.5t-82.5 -22.5t-63 -64.5t-22.5 -87q0 -44 22.5 -86t63 -64.5t82.5 -22.5z" />
    <glyph glyph-name="oacute" unicode="&#xf3;" horiz-adv-x="568" 
d="M206 531l-24 42l170 110l34 -57zM284 -9q-48 0 -92 18t-77.5 50.5t-52 76.5t-18.5 93q0 37 12.5 77.5t46.5 80.5t83.5 60.5t97.5 20.5t92 -18t77 -50.5t52 -76.5t19 -94q0 -49 -19 -93t-52 -76.5t-77 -50.5t-92 -18zM284 56q42 0 82.5 22.5t63 64.5t22.5 86
q0 45 -22.5 87t-63 64.5t-82.5 22.5t-82.5 -22.5t-63 -64.5t-22.5 -87q0 -44 22.5 -86t63 -64.5t82.5 -22.5z" />
    <glyph glyph-name="ocircumflex" unicode="&#xf4;" horiz-adv-x="568" 
d="M284 620l-68 -86h-71l112 147h56l109 -147h-70zM284 468q48 0 92 -18t77 -50.5t52 -76.5t19 -94q0 -49 -19 -93t-52 -76.5t-77 -50.5t-92 -18t-92 18t-77.5 50.5t-52 76.5t-18.5 93q0 37 12.5 77.5t46.5 80.5t83.5 60.5t97.5 20.5zM284 56q42 0 82.5 22.5t63 64.5
t22.5 86q0 45 -22.5 87t-63 64.5t-82.5 22.5t-82.5 -22.5t-63 -64.5t-22.5 -87q0 -44 22.5 -86t63 -64.5t82.5 -22.5z" />
    <glyph glyph-name="otilde" unicode="&#xf5;" horiz-adv-x="568" 
d="M351 549q-10 0 -22.5 2.5t-24 8.5t-38.5 24t-45 18q-12 0 -27.5 -6.5t-32.5 -40.5l-43 35q26 43 51 57t47 14q18 0 33 -4.5t25 -10.5t34 -22.5t43 -16.5q37 0 56 51l43 -34q-10 -27 -39 -51t-60 -24zM284 -9q-48 0 -92 18t-77.5 50.5t-52 76.5t-18.5 93q0 37 12.5 77.5
t46.5 80.5t83.5 60.5t97.5 20.5t92 -18t77 -50.5t52 -76.5t19 -94q0 -49 -19 -93t-52 -76.5t-77 -50.5t-92 -18zM284 56q42 0 82.5 22.5t63 64.5t22.5 86q0 45 -22.5 87t-63 64.5t-82.5 22.5t-82.5 -22.5t-63 -64.5t-22.5 -87q0 -44 22.5 -86t63 -64.5t82.5 -22.5z" />
    <glyph glyph-name="odieresis" unicode="&#xf6;" horiz-adv-x="568" 
d="M181 565q-21 0 -36 14.5t-15 34.5q0 21 15 35.5t36 14.5q20 0 34 -14.5t15 -35.5q1 -20 -14 -34.5t-35 -14.5zM389 563q-20 0 -35 14.5t-15 35.5t15 35.5t35 14.5q21 0 35 -14.5t15 -35.5t-14 -35.5t-36 -14.5zM284 -9q-48 0 -92 18t-77.5 50.5t-52 76.5t-18.5 93
q0 37 12.5 77.5t46.5 80.5t83.5 60.5t97.5 20.5t92 -18t77 -50.5t52 -76.5t19 -94q0 -49 -19 -93t-52 -76.5t-77 -50.5t-92 -18zM284 56q42 0 82.5 22.5t63 64.5t22.5 86q0 45 -22.5 87t-63 64.5t-82.5 22.5t-82.5 -22.5t-63 -64.5t-22.5 -87q0 -44 22.5 -86t63 -64.5
t82.5 -22.5z" />
    <glyph glyph-name="divide" unicode="&#xf7;" horiz-adv-x="556" 
d="M279 422q-21 0 -34 13t-13 34t13 34.5t34 13.5q20 0 33 -13.5t13 -34.5t-13 -34t-33 -13zM72 265v59h412v-59h-412zM279 57q-21 0 -34 13.5t-13 34.5t13 33.5t34 12.5q20 0 33 -12.5t13 -33.5t-13 -34.5t-33 -13.5z" />
    <glyph glyph-name="oslash" unicode="&#xf8;" horiz-adv-x="568" 
d="M449 404q35 -33 55 -78.5t20 -96.5q0 -49 -19 -93t-52 -76.5t-77 -50.5t-92 -18q-31 0 -64.5 9t-59.5 24l-45 -59l-41 33l44 58q-35 32 -54.5 77t-19.5 96q0 37 12.5 77.5t46.5 80.5t83.5 60.5t97.5 20.5q31 0 63.5 -9t58.5 -24l45 59l41 -33zM116 229q0 -33 12 -63.5
t32 -53.5l205 269q-38 22 -81 22q-42 0 -82.5 -22.5t-63 -64.5t-22.5 -87zM284 56q42 0 82.5 22.5t63 64.5t22.5 86q0 25 -9.5 58t-36.5 62l-205 -271q39 -22 83 -22z" />
    <glyph glyph-name="ugrave" unicode="&#xf9;" horiz-adv-x="569" 
d="M373 573l-24 -42l-180 95l34 57zM422 460h71v-460h-62l-2 79q-21 -38 -64 -63t-97 -25q-89 0 -144 59t-55 155v255h71v-242q0 -72 37 -115.5t99 -43.5q43 0 75.5 20t51 54t19.5 71v256z" />
    <glyph glyph-name="uacute" unicode="&#xfa;" horiz-adv-x="569" 
d="M379 626l-180 -95l-24 42l170 110zM422 460h71v-460h-62l-2 79q-21 -38 -64 -63t-97 -25q-89 0 -144 59t-55 155v255h71v-242q0 -72 37 -115.5t99 -43.5q43 0 75.5 20t51 54t19.5 71v256z" />
    <glyph glyph-name="ucircumflex" unicode="&#xfb;" horiz-adv-x="569" 
d="M277 620l-68 -86h-71l112 147h56l109 -147h-70zM422 460h71v-460h-62l-2 79q-21 -38 -64 -63t-97 -25q-89 0 -144 59t-55 155v255h71v-242q0 -72 37 -115.5t99 -43.5q43 0 75.5 20t51 54t19.5 71v256z" />
    <glyph glyph-name="udieresis" unicode="&#xfc;" horiz-adv-x="569" 
d="M174 565q-21 0 -36 14.5t-15 34.5q0 21 15 35.5t36 14.5q20 0 34 -14.5t15 -35.5q1 -20 -14 -34.5t-35 -14.5zM382 563q-20 0 -35 14.5t-15 35.5t15 35.5t35 14.5q21 0 35 -14.5t15 -35.5t-14 -35.5t-36 -14.5zM422 460h71v-460h-62l-2 79q-21 -38 -64 -63t-97 -25
q-89 0 -144 59t-55 155v255h71v-242q0 -72 37 -115.5t99 -43.5q43 0 75.5 20t51 54t19.5 71v256z" />
    <glyph glyph-name="yacute" unicode="&#xfd;" horiz-adv-x="504" 
d="M360 626l-180 -95l-24 42l170 110zM492 460l-192 -447l-88 -208h-73l80 192l-201 463h80l159 -380l159 380h76z" />
    <glyph glyph-name="thorn" unicode="&#xfe;" horiz-adv-x="590" 
d="M76 -195v909h67v-339q24 39 70.5 66.5t108.5 27.5q34 0 71.5 -12t75.5 -45t57.5 -82.5t19.5 -99.5t-17 -94t-47.5 -76.5t-71 -50.5t-86.5 -18q-31 0 -67.5 10.5t-67.5 35.5t-48 54v-286h-65zM310 56q24 0 51.5 8.5t52.5 30t42.5 56t17.5 79.5q0 27 -8.5 56.5t-29 55.5
t-53 44t-73.5 18q-35 0 -62 -11.5t-48 -30.5t-38 -53t-17 -79q0 -78 46 -126t119 -48z" />
    <glyph glyph-name="ydieresis" unicode="&#xff;" horiz-adv-x="504" 
d="M155 565q-21 0 -36 14.5t-15 34.5q0 21 15 35.5t36 14.5q20 0 34 -14.5t15 -35.5q1 -20 -14 -34.5t-35 -14.5zM363 563q-20 0 -35 14.5t-15 35.5t15 35.5t35 14.5q21 0 35 -14.5t15 -35.5t-14 -35.5t-36 -14.5zM492 460l-192 -447l-88 -208h-73l80 192l-201 463h80
l159 -380l159 380h76z" />
    <glyph glyph-name="Amacron" unicode="&#x100;" horiz-adv-x="671" 
d="M487 821v-58h-304v58h304zM586 0l-66 159h-370l-66 -159h-76l297 703h61l296 -703h-76zM335 605l-159 -382h318z" />
    <glyph glyph-name="amacron" unicode="&#x101;" horiz-adv-x="590" 
d="M435 631v-58h-290v58h290zM452 460h62v-460h-62l-2 83q-27 -41 -74 -66.5t-108 -25.5q-46 0 -87 18t-71.5 50.5t-47.5 76.5t-17 94t17 94t47 76.5t71 50.5t86 18q31 0 67 -9t67.5 -31t49.5 -51zM280 56q73 0 119.5 49t46.5 125q0 75 -46.5 124.5t-119.5 49.5
q-24 0 -51.5 -8.5t-52.5 -30t-42.5 -56t-17.5 -79.5q0 -27 8.5 -56.5t29 -55.5t53 -44t73.5 -18z" />
    <glyph glyph-name="Abreve" unicode="&#x102;" horiz-adv-x="671" 
d="M334 769q-42 0 -72.5 18.5t-42 46t-11.5 51.5h59q0 -28 18.5 -45.5t48.5 -17.5t49 17.5t19 45.5h59q0 -24 -11.5 -51.5t-42.5 -46t-73 -18.5zM586 0l-66 159h-370l-66 -159h-76l297 703h61l296 -703h-76zM335 605l-159 -382h318z" />
    <glyph glyph-name="abreve" unicode="&#x103;" horiz-adv-x="590" 
d="M289 536q-60 0 -98 38.5t-38 102.5h56q0 -40 22.5 -65t57.5 -25q36 0 58.5 25t22.5 65h56q0 -64 -38 -102.5t-99 -38.5zM452 460h62v-460h-62l-2 83q-27 -41 -74 -66.5t-108 -25.5q-46 0 -87 18t-71.5 50.5t-47.5 76.5t-17 94t17 94t47 76.5t71 50.5t86 18q31 0 67 -9
t67.5 -31t49.5 -51zM280 56q73 0 119.5 49t46.5 125q0 75 -46.5 124.5t-119.5 49.5q-24 0 -51.5 -8.5t-52.5 -30t-42.5 -56t-17.5 -79.5q0 -27 8.5 -56.5t29 -55.5t53 -44t73.5 -18z" />
    <glyph glyph-name="Aogonek" unicode="&#x104;" horiz-adv-x="671" 
d="M679 -157l21 -46q-30 -24 -80 -24q-31 0 -56.5 15t-35.5 37.5t-10 42.5q0 32 18.5 67t60.5 65h-11l-66 159h-370l-66 -159h-76l297 703h61l296 -703q-31 -17 -55 -49t-24 -68q0 -25 14.5 -40t37.5 -15q27 0 44 15zM335 605l-159 -382h318z" />
    <glyph glyph-name="aogonek" unicode="&#x105;" horiz-adv-x="590" 
d="M521 -168l23 -39q-33 -29 -78 -29q-46 0 -73.5 26.5t-27.5 71.5q0 22 9.5 48t31 50t46.5 42l-2 81q-27 -41 -74 -66.5t-108 -25.5q-46 0 -87 18t-71.5 50.5t-47.5 76.5t-17 94t17 94t47 76.5t71 50.5t86 18q31 0 67 -9t67.5 -31t49.5 -51l2 82h62v-460q-35 -20 -63 -54.5
t-28 -70.5q0 -29 15 -44t36 -15q27 0 47 16zM280 56q73 0 119.5 49t46.5 125q0 75 -46.5 124.5t-119.5 49.5q-24 0 -51.5 -8.5t-52.5 -30t-42.5 -56t-17.5 -79.5q0 -27 8.5 -56.5t29 -55.5t53 -44t73.5 -18z" />
    <glyph glyph-name="Cacute" unicode="&#x106;" horiz-adv-x="678" 
d="M319 761l-18 46l192 90l28 -76zM420 -9q-80 0 -149 26.5t-118 75.5t-75.5 115t-26.5 142q0 77 27 144t76.5 115.5t118 75.5t147.5 27q67 0 125 -16.5t103 -47.5l-35 -57q-32 27 -82.5 41.5t-101.5 14.5q-67 0 -124 -21t-97.5 -60.5t-62.5 -94.5t-22 -119t21.5 -119
t62 -94.5t97.5 -61t125 -21.5q108 0 186 52l33 -56q-42 -29 -101.5 -45t-126.5 -16z" />
    <glyph glyph-name="cacute" unicode="&#x107;" horiz-adv-x="479" 
d="M200 531l-24 42l170 110l34 -57zM291 -9q-40 0 -83 12t-83.5 45t-60.5 82.5t-20 98.5t19 93.5t52.5 77.5t79 51t96.5 18q93 0 157 -49l-34 -51q-51 35 -116 35q-80 0 -131 -49.5t-51 -125.5q0 -27 8.5 -56.5t30 -55t56 -43.5t81.5 -18q39 0 68 9t54 25l31 -55
q-32 -20 -67.5 -32t-86.5 -12z" />
    <glyph glyph-name="Cdotaccent" unicode="&#x10a;" horiz-adv-x="678" 
d="M402 772q-21 0 -36.5 15t-15.5 36q0 22 14.5 37t36.5 15q20 0 35 -15.5t15 -36.5t-14 -36t-35 -15zM420 -9q-80 0 -149 26.5t-118 75.5t-75.5 115t-26.5 142q0 77 27 144t76.5 115.5t118 75.5t147.5 27q67 0 125 -16.5t103 -47.5l-35 -57q-32 27 -82.5 41.5t-101.5 14.5
q-67 0 -124 -21t-97.5 -60.5t-62.5 -94.5t-22 -119t21.5 -119t62 -94.5t97.5 -61t125 -21.5q108 0 186 52l33 -56q-42 -29 -101.5 -45t-126.5 -16z" />
    <glyph glyph-name="cdotaccent" unicode="&#x10b;" horiz-adv-x="479" 
d="M277 552q-22 1 -37.5 15.5t-15.5 36.5t15.5 37.5t36.5 15.5q23 0 39 -14.5t16 -37.5t-15.5 -37.5t-38.5 -15.5zM291 -9q-40 0 -83 12t-83.5 45t-60.5 82.5t-20 98.5t19 93.5t52.5 77.5t79 51t96.5 18q93 0 157 -49l-34 -51q-51 35 -116 35q-80 0 -131 -49.5t-51 -125.5
q0 -27 8.5 -56.5t30 -55t56 -43.5t81.5 -18q39 0 68 9t54 25l31 -55q-32 -20 -67.5 -32t-86.5 -12z" />
    <glyph glyph-name="Ccaron" unicode="&#x10c;" horiz-adv-x="678" 
d="M437 764h-56l-109 123h72l67 -65l68 65h70zM429 56q108 0 186 52l33 -56q-42 -29 -101.5 -45t-126.5 -16q-80 0 -149 26.5t-118 75.5t-75.5 115t-26.5 142q0 77 27 144t76.5 115.5t118 75.5t147.5 27q67 0 125 -16.5t103 -47.5l-35 -57q-32 27 -82.5 41.5t-101.5 14.5
q-67 0 -124 -21t-97.5 -60.5t-62.5 -94.5t-22 -119t21.5 -119t62 -94.5t97.5 -61t125 -21.5z" />
    <glyph glyph-name="ccaron" unicode="&#x10d;" horiz-adv-x="479" 
d="M304 534h-56l-109 147h70l68 -86l68 86h71zM292 56q39 0 68 9t54 25l31 -55q-32 -20 -67.5 -32t-86.5 -12q-40 0 -83 12t-83.5 45t-60.5 82.5t-20 98.5t19 93.5t52.5 77.5t79 51t96.5 18q93 0 157 -49l-34 -51q-51 35 -116 35q-80 0 -131 -49.5t-51 -125.5
q0 -27 8.5 -56.5t30 -55t56 -43.5t81.5 -18z" />
    <glyph glyph-name="Dcaron" unicode="&#x10e;" horiz-adv-x="758" 
d="M397 764h-56l-109 123h72l67 -65l68 65h70zM339 703q80 0 148.5 -25t117 -71.5t75 -112t26.5 -142.5t-26.5 -142.5t-75 -112.5t-117 -72t-148.5 -25h-238v703h238zM342 64q64 0 118.5 20.5t93 58.5t59 91.5t20.5 116.5t-20.5 116.5t-59 92t-93 59t-118.5 20.5h-170v-575
h170z" />
    <glyph glyph-name="dcaron" unicode="&#x10f;" horiz-adv-x="621" 
d="M268 -9q-46 0 -87 18t-71.5 50.5t-47.5 76.5t-17 94t17 94t47 76.5t71 50.5t86 18q30 0 65.5 -10.5t65.5 -36.5t46 -60v352h71v-714h-59l-2 103q-17 -36 -48 -63t-68 -38t-69 -11zM589 511l-24 26q16 13 32.5 37.5t16.5 41.5l-11 -2q-18 0 -30 13t-13 34q0 23 15.5 38
t39.5 15t39 -16t15 -43q1 -42 -22 -82t-58 -62zM280 56q45 0 80.5 19t59.5 57.5t26 97.5q-1 29 -9.5 59t-28.5 55.5t-52 42.5t-76 17q-24 0 -51.5 -8.5t-52.5 -30t-42.5 -56t-17.5 -79.5q0 -27 8.5 -56.5t29 -55.5t53 -44t73.5 -18z" />
    <glyph glyph-name="Dcroat" unicode="&#x110;" horiz-adv-x="758" 
d="M339 703q80 0 148.5 -25t117 -71.5t75 -112t26.5 -142.5t-26.5 -142.5t-75 -112.5t-117 -72t-148.5 -25h-238v327h-79v52h79v324h238zM342 64q64 0 118.5 20.5t93 58.5t59 91.5t20.5 116.5t-20.5 116.5t-59 92t-93 59t-118.5 20.5h-170v-260h157v-52h-157v-263h170z" />
    <glyph glyph-name="dcroat" unicode="&#x111;" horiz-adv-x="590" 
d="M574 628v-52h-60v-576h-62l-3 84q-28 -42 -74.5 -67.5t-106.5 -25.5q-46 0 -87 18t-71.5 50.5t-47.5 76.5t-17 94t17 94t47 76.5t71 50.5t86 18t83 -15t61 -36t35 -38v196h-167v52h167v86h69v-86h60zM280 56q73 0 119.5 49t46.5 125q0 75 -46.5 124.5t-119.5 49.5
q-24 0 -51.5 -8.5t-52.5 -30t-42.5 -56t-17.5 -79.5q0 -27 8.5 -56.5t29 -55.5t53 -44t73.5 -18z" />
    <glyph glyph-name="Emacron" unicode="&#x112;" horiz-adv-x="607" 
d="M488 821v-58h-304v58h304zM555 639h-383v-250h335v-64h-335v-261h383v-64h-454v703h454v-64z" />
    <glyph glyph-name="emacron" unicode="&#x113;" horiz-adv-x="532" 
d="M422 631v-58h-290v58h290zM491 239l-1 -31h-376q8 -69 58 -112.5t124 -43.5q34 0 67.5 10.5t70.5 40.5l33 -52q-74 -60 -178 -60q-52 0 -97 18t-78 50t-51 76.5t-18 94.5q0 24 5.5 54t20.5 61t42.5 59.5t70.5 46.5t93 18q94 0 154 -64t60 -166zM279 408q-64 0 -108 -39
t-55 -103h307q-4 66 -45.5 104t-98.5 38z" />
    <glyph glyph-name="Edotaccent" unicode="&#x116;" horiz-adv-x="607" 
d="M337 772q-21 0 -36.5 15t-15.5 36q0 22 14.5 37t36.5 15q20 0 35 -15.5t15 -36.5t-14 -36t-35 -15zM555 639h-383v-250h335v-64h-335v-261h383v-64h-454v703h454v-64z" />
    <glyph glyph-name="edotaccent" unicode="&#x117;" horiz-adv-x="532" 
d="M276 552q-22 1 -37.5 15.5t-15.5 36.5t15.5 37.5t36.5 15.5q23 0 39 -14.5t16 -37.5t-15.5 -37.5t-38.5 -15.5zM491 239l-1 -31h-376q8 -69 58 -112.5t124 -43.5q34 0 67.5 10.5t70.5 40.5l33 -52q-74 -60 -178 -60q-52 0 -97 18t-78 50t-51 76.5t-18 94.5q0 24 5.5 54
t20.5 61t42.5 59.5t70.5 46.5t93 18q94 0 154 -64t60 -166zM279 408q-64 0 -108 -39t-55 -103h307q-4 66 -45.5 104t-98.5 38z" />
    <glyph glyph-name="Eogonek" unicode="&#x118;" horiz-adv-x="607" 
d="M572 -157l21 -46q-30 -24 -80 -24q-31 0 -56.5 15t-35.5 37.5t-10 42.5q0 32 18.5 67t60.5 65h-389v703h454v-64h-383v-250h335v-64h-335v-261h383v-64q-31 -17 -55 -49t-24 -68q0 -25 14.5 -40t37.5 -15q27 0 44 15z" />
    <glyph glyph-name="eogonek" unicode="&#x119;" horiz-adv-x="532" 
d="M474 -117l23 -39q-33 -29 -78 -29q-46 0 -73.5 26.5t-27.5 71.5q0 21 8 43.5t20 39.5q-28 -5 -57 -5q-52 0 -97 18t-78 50t-51 76.5t-18 94.5q0 24 5.5 54t20.5 61t42.5 59.5t70.5 46.5t93 18q94 0 154 -64t60 -166l-1 -31h-376q8 -69 58 -112.5t124 -43.5
q34 0 67.5 10.5t70.5 40.5l33 -52q-20 -16 -33 -23q-58 -49 -58 -102q0 -29 15 -44t36 -15q27 0 47 16zM279 408q-64 0 -108 -39t-55 -103h307q-4 66 -45.5 104t-98.5 38z" />
    <glyph glyph-name="Ecaron" unicode="&#x11a;" horiz-adv-x="607" 
d="M362 764h-56l-109 123h72l67 -65l68 65h70zM555 639h-383v-250h335v-64h-335v-261h383v-64h-454v703h454v-64z" />
    <glyph glyph-name="ecaron" unicode="&#x11b;" horiz-adv-x="532" 
d="M303 534h-56l-109 147h70l68 -86l68 86h71zM491 239l-1 -31h-376q8 -69 58 -112.5t124 -43.5q34 0 67.5 10.5t70.5 40.5l33 -52q-74 -60 -178 -60q-52 0 -97 18t-78 50t-51 76.5t-18 94.5q0 24 5.5 54t20.5 61t42.5 59.5t70.5 46.5t93 18q94 0 154 -64t60 -166zM279 408
q-64 0 -108 -39t-55 -103h307q-4 66 -45.5 104t-98.5 38z" />
    <glyph glyph-name="Gbreve" unicode="&#x11e;" horiz-adv-x="740" 
d="M420 769q-42 0 -72.5 18.5t-42 46t-11.5 51.5h59q0 -28 18.5 -45.5t48.5 -17.5t49 17.5t19 45.5h59q0 -24 -11.5 -51.5t-42.5 -46t-73 -18.5zM613 320h72v-258q-65 -38 -129 -54.5t-136 -16.5q-76 0 -144.5 27t-119 75.5t-78.5 115t-28 141.5t28 142t79 116.5t119.5 76.5
t145.5 27q67 0 125 -16.5t103 -47.5l-33 -57q-15 13 -45 27t-69 21.5t-74 7.5q-62 0 -118 -22t-98.5 -62t-66.5 -95t-24 -118q0 -62 23.5 -117t65.5 -94.5t97 -61t115 -21.5q106 0 190 41v223z" />
    <glyph glyph-name="gbreve" unicode="&#x11f;" horiz-adv-x="589" 
d="M282 536q-60 0 -98 38.5t-38 102.5h56q0 -40 22.5 -65t57.5 -25q36 0 58.5 25t22.5 65h56q0 -64 -38 -102.5t-99 -38.5zM451 459h62v-434q0 -48 -16 -90t-47 -73.5t-76.5 -48.5t-102.5 -17q-120 0 -203 57l32 54q78 -49 167 -49q81 0 128 45t47 114v59q-28 -38 -73 -61.5
t-101 -23.5q-46 0 -87 18t-71.5 50.5t-47.5 76.5t-17 94t17 94t47 76.5t71 50.5t86 18q30 0 66 -9t67.5 -31.5t49.5 -51.5zM280 56q73 0 119.5 49t46.5 125q0 75 -46.5 124.5t-119.5 49.5q-24 0 -51.5 -8.5t-52.5 -30t-42.5 -56t-17.5 -79.5q0 -27 8.5 -56.5t29 -55.5
t53 -44t73.5 -18z" />
    <glyph glyph-name="Gdotaccent" unicode="&#x120;" horiz-adv-x="740" 
d="M422 772q-21 0 -36.5 15t-15.5 36q0 22 14.5 37t36.5 15q20 0 35 -15.5t15 -36.5t-14 -36t-35 -15zM613 320h72v-258q-65 -38 -129 -54.5t-136 -16.5q-76 0 -144.5 27t-119 75.5t-78.5 115t-28 141.5t28 142t79 116.5t119.5 76.5t145.5 27q67 0 125 -16.5t103 -47.5
l-33 -57q-15 13 -45 27t-69 21.5t-74 7.5q-62 0 -118 -22t-98.5 -62t-66.5 -95t-24 -118q0 -62 23.5 -117t65.5 -94.5t97 -61t115 -21.5q106 0 190 41v223z" />
    <glyph glyph-name="gdotaccent" unicode="&#x121;" horiz-adv-x="589" 
d="M282 552q-22 1 -37.5 15.5t-15.5 36.5t15.5 37.5t36.5 15.5q23 0 39 -14.5t16 -37.5t-15.5 -37.5t-38.5 -15.5zM451 459h62v-434q0 -48 -16 -90t-47 -73.5t-76.5 -48.5t-102.5 -17q-120 0 -203 57l32 54q78 -49 167 -49q81 0 128 45t47 114v59q-28 -38 -73 -61.5
t-101 -23.5q-46 0 -87 18t-71.5 50.5t-47.5 76.5t-17 94t17 94t47 76.5t71 50.5t86 18q30 0 66 -9t67.5 -31.5t49.5 -51.5zM280 56q73 0 119.5 49t46.5 125q0 75 -46.5 124.5t-119.5 49.5q-24 0 -51.5 -8.5t-52.5 -30t-42.5 -56t-17.5 -79.5q0 -27 8.5 -56.5t29 -55.5
t53 -44t73.5 -18z" />
    <glyph glyph-name="uni0122" unicode="&#x122;" horiz-adv-x="740" 
d="M613 320h72v-258q-65 -38 -129 -54.5t-136 -16.5q-76 0 -144.5 27t-119 75.5t-78.5 115t-28 141.5t28 142t79 116.5t119.5 76.5t145.5 27q67 0 125 -16.5t103 -47.5l-33 -57q-15 13 -45 27t-69 21.5t-74 7.5q-62 0 -118 -22t-98.5 -62t-66.5 -95t-24 -118
q0 -62 23.5 -117t65.5 -94.5t97 -61t115 -21.5q106 0 190 41v223zM418 -42q27 0 41.5 -17t14.5 -44q0 -39 -21.5 -74t-56.5 -54l-24 25q16 12 32 32t16 34l-10 -1q-19 0 -31.5 13.5t-12.5 33.5q0 22 14.5 37t37.5 15z" />
    <glyph glyph-name="uni0123" unicode="&#x123;" horiz-adv-x="589" 
d="M282 510q-26 0 -41 17t-15 44q-1 43 22 82.5t58 61.5l24 -27q-16 -13 -32.5 -37t-16.5 -41l11 1q18 0 31 -14t13 -35q1 -22 -14.5 -37t-39.5 -15zM451 459h62v-434q0 -48 -16 -90t-47 -73.5t-76.5 -48.5t-102.5 -17q-120 0 -203 57l32 54q78 -49 167 -49q81 0 128 45
t47 114v59q-28 -38 -73 -61.5t-101 -23.5q-46 0 -87 18t-71.5 50.5t-47.5 76.5t-17 94t17 94t47 76.5t71 50.5t86 18q30 0 66 -9t67.5 -31.5t49.5 -51.5zM280 56q73 0 119.5 49t46.5 125q0 75 -46.5 124.5t-119.5 49.5q-24 0 -51.5 -8.5t-52.5 -30t-42.5 -56t-17.5 -79.5
q0 -27 8.5 -56.5t29 -55.5t53 -44t73.5 -18z" />
    <glyph glyph-name="Hbar" unicode="&#x126;" horiz-adv-x="798" 
d="M778 585v-56h-81v-529h-71v324h-454v-324h-71v529h-69v56h69v118h71v-118h454v118h71v-118h81zM626 388v141h-454v-141h454z" />
    <glyph glyph-name="hbar" unicode="&#x127;" horiz-adv-x="577" 
d="M307 469q90 0 145.5 -59t55.5 -155v-255h-71v246q0 71 -39.5 115t-102.5 43q-43 0 -76 -19.5t-52 -53.5t-20 -71v-260h-71v576h-61v52h61v86h69v-86h166v-52h-166v-193q21 37 64 61.5t98 24.5z" />
    <glyph glyph-name="Itilde" unicode="&#x128;" horiz-adv-x="274" 
d="M201 770q-32 0 -66 21t-45.5 24t-17.5 3q-16 0 -29 -5.5t-20 -12.5t-10.5 -12t-8.5 -13l-43 35q18 30 46.5 48.5t65.5 18.5q31 0 66 -21.5t46.5 -24.5t17.5 -3q12 0 22 3.5t17 9t11.5 10t7 8.5t4.5 7t5 8l43 -34q-13 -29 -44 -49.5t-68 -20.5zM101 0v703h71v-703h-71z
" />
    <glyph glyph-name="itilde" unicode="&#x129;" horiz-adv-x="226" 
d="M180 549q-10 0 -22.5 2.5t-24 8.5t-38.5 24t-45 18q-12 0 -27.5 -6.5t-32.5 -40.5l-43 35q26 43 51 57t47 14q18 0 33 -4.5t25 -10.5t34 -22.5t43 -16.5q37 0 56 51l43 -34q-10 -27 -39 -51t-60 -24zM77 0l1 460h71v-460h-72z" />
    <glyph glyph-name="Imacron" unicode="&#x12a;" horiz-adv-x="274" 
d="M-15 763v58h304v-58h-304zM101 0v703h71v-703h-71z" />
    <glyph glyph-name="imacron" unicode="&#x12b;" horiz-adv-x="226" 
d="M-3 573v58h232v-58h-232zM77 0l1 460h71v-460h-72z" />
    <glyph glyph-name="Iogonek" unicode="&#x12e;" horiz-adv-x="274" 
d="M189 -157l21 -46q-30 -24 -80 -24q-31 0 -56.5 15t-35.5 37.5t-10 42.5q0 32 18.5 67t60.5 65h-6v703h71v-703q-31 -17 -55 -49t-24 -68q0 -25 14.5 -40t37.5 -15q27 0 44 15z" />
    <glyph glyph-name="iogonek" unicode="&#x12f;" horiz-adv-x="226" 
d="M112 552q-22 1 -37.5 15.5t-15.5 36.5t15.5 37.5t36.5 15.5q23 0 39 -14.5t16 -37.5t-15.5 -37.5t-38.5 -15.5zM156 -168l23 -39q-33 -29 -78 -29q-46 0 -73.5 26.5t-27.5 71.5q0 32 19.5 68.5t64.5 69.5h-7l1 460h71v-460q-35 -20 -63 -54.5t-28 -70.5q0 -29 15 -44
t36 -15q27 0 47 16z" />
    <glyph glyph-name="Idotaccent" unicode="&#x130;" horiz-adv-x="274" 
d="M138 772q-21 0 -36.5 15t-15.5 36q0 22 14.5 37t36.5 15q20 0 35 -15.5t15 -36.5t-14 -36t-35 -15zM101 0v703h71v-703h-71z" />
    <glyph glyph-name="dotlessi" unicode="&#x131;" horiz-adv-x="226" 
d="M77 0l1 460h71v-460h-72z" />
    <glyph glyph-name="IJ" unicode="&#x132;" horiz-adv-x="737" 
d="M101 0v703h71v-703h-71zM432 -9q-36 0 -74 9t-67 27l28 59q19 -12 49 -19.5t58 -7.5q76 0 110.5 42t34.5 131v471h72v-473q0 -239 -211 -239z" />
    <glyph glyph-name="ij" unicode="&#x133;" horiz-adv-x="458" 
d="M112 556q-23 0 -39 15.5t-16 38.5t16 38t39 16q24 0 40 -15.5t16 -38.5t-16 -38.5t-40 -15.5zM345 556q-24 0 -40 15.5t-16 38.5t16 38t40 16q23 0 39.5 -15.5t16.5 -38.5t-16.5 -38.5t-39.5 -15.5zM77 0l1 460h71v-460h-72zM241 -204q-37 0 -61 11l17 60q16 -6 37 -6
q34 0 55 21.5t21 63.5v514h71v-513q0 -72 -37.5 -111.5t-102.5 -39.5z" />
    <glyph glyph-name="uni0136" unicode="&#x136;" horiz-adv-x="620" 
d="M240 358l388 -358h-102l-354 325v-325h-71v703h71v-321l328 321h96zM322 -42q27 0 41.5 -17t14.5 -44q0 -39 -21.5 -74t-56.5 -54l-24 25q16 12 32 32t16 34l-10 -1q-19 0 -31.5 13.5t-12.5 33.5q0 22 14.5 37t37.5 15z" />
    <glyph glyph-name="uni0137" unicode="&#x137;" horiz-adv-x="489" 
d="M223 244l266 -244h-102l-240 216v-216h-71v714h71v-452l230 198h97zM260 -50q26 0 41 -17t15 -44q1 -43 -22 -82.5t-58 -61.5l-24 27q16 13 32.5 37t16.5 41l-11 -1q-18 0 -31 14t-13 35q-1 22 14.5 37t39.5 15z" />
    <glyph glyph-name="kgreenlandic" unicode="&#x138;" horiz-adv-x="489" 
d="M489 0h-102l-240 207v-207h-71v460h71v-208l230 208h97l-251 -225z" />
    <glyph glyph-name="Lacute" unicode="&#x139;" horiz-adv-x="567" 
d="M240 897l28 -76l-202 -60l-18 46zM172 64h383v-64h-454v703h71v-639z" />
    <glyph glyph-name="lacute" unicode="&#x13a;" horiz-adv-x="228" 
d="M36 772l-18 46l192 90l28 -76zM79 0v714h71v-714h-71z" />
    <glyph glyph-name="uni013B" unicode="&#x13b;" horiz-adv-x="567" 
d="M172 64h383v-64h-454v703h71v-639zM344 -42q27 0 41.5 -17t14.5 -44q0 -39 -21.5 -74t-56.5 -54l-24 25q16 12 32 32t16 34l-10 -1q-19 0 -31.5 13.5t-12.5 33.5q0 22 14.5 37t37.5 15z" />
    <glyph glyph-name="uni013C" unicode="&#x13c;" horiz-adv-x="228" 
d="M79 0v714h71v-714h-71zM89 -255l-24 27q16 13 32.5 37t16.5 41l-11 -1q-18 0 -31 14t-13 35q-1 22 14.5 37t39.5 15q26 0 41 -17t15 -44q1 -43 -22 -82.5t-58 -61.5z" />
    <glyph glyph-name="Lcaron" unicode="&#x13d;" horiz-adv-x="567" 
d="M172 64h383v-64h-454v703h71v-639zM485 603q-18 0 -30.5 13.5t-12.5 34.5q0 22 15.5 37t39.5 15t39 -16t15 -43q1 -42 -22 -82t-58 -62l-24 27q16 12 32.5 36t16.5 42z" />
    <glyph glyph-name="lcaron" unicode="&#x13e;" horiz-adv-x="258" 
d="M78 0v714h72v-714h-72zM225 511l-24 26q16 13 32.5 37.5t16.5 41.5l-11 -2q-19 0 -31 13t-12 34q0 23 15.5 38t39.5 15t39 -16t15 -43q1 -42 -22 -82t-58 -62z" />
    <glyph glyph-name="Ldot" unicode="&#x13f;" horiz-adv-x="567" 
d="M172 64h383v-64h-454v703h71v-639zM350 293q-23 0 -39 16.5t-16 38.5q0 23 16 39t39 16t39 -16t16 -39q0 -22 -16 -38.5t-39 -16.5z" />
    <glyph glyph-name="ldot" unicode="&#x140;" horiz-adv-x="302" 
d="M78 0v714h72v-714h-72zM266 289q-23 0 -39 16t-16 39t16 39t39 16t38.5 -16t15.5 -39t-15.5 -39t-38.5 -16z" />
    <glyph glyph-name="Lslash" unicode="&#x141;" horiz-adv-x="567" 
d="M172 64h383v-64h-454v296l-80 -47l-28 48l108 63v343h71v-301l94 55l28 -48l-122 -72v-273z" />
    <glyph glyph-name="lslash" unicode="&#x142;" horiz-adv-x="378" 
d="M350 405l-123 -71v-334h-71v293l-94 -54l-26 44l120 69v362h71v-321l97 56z" />
    <glyph glyph-name="Nacute" unicode="&#x143;" horiz-adv-x="789" 
d="M520 821l-202 -60l-18 46l192 90zM617 703h71v-710h-44l-472 577v-570h-71v710h45l471 -579v572z" />
    <glyph glyph-name="nacute" unicode="&#x144;" horiz-adv-x="577" 
d="M400 626l-180 -95l-24 42l170 110zM307 469q90 0 145.5 -59t55.5 -155v-255h-71v246q0 72 -39 115.5t-103 42.5q-32 0 -64.5 -13.5t-55.5 -47t-27 -70.5l-1 -273h-71v460h58l3 -86q15 30 44 53t63 32.5t63 9.5z" />
    <glyph glyph-name="uni0145" unicode="&#x145;" horiz-adv-x="789" 
d="M617 703h71v-710h-44l-472 577v-570h-71v710h45l471 -579v572zM394 -42q27 0 41.5 -17t14.5 -44q0 -39 -21.5 -74t-56.5 -54l-24 25q16 12 32 32t16 34l-10 -1q-19 0 -31.5 13.5t-12.5 33.5q0 22 14.5 37t37.5 15z" />
    <glyph glyph-name="uni0146" unicode="&#x146;" horiz-adv-x="577" 
d="M307 469q90 0 145.5 -59t55.5 -155v-255h-71v246q0 72 -39 115.5t-103 42.5q-32 0 -64.5 -13.5t-55.5 -47t-27 -70.5l-1 -273h-71v460h58l3 -86q15 30 44 53t63 32.5t63 9.5zM291 -50q26 0 41 -17t15 -44q1 -43 -22 -82.5t-58 -61.5l-24 27q16 13 32.5 37t16.5 41l-11 -1
q-18 0 -31 14t-13 35q-1 22 14.5 37t39.5 15z" />
    <glyph glyph-name="Ncaron" unicode="&#x147;" horiz-adv-x="789" 
d="M426 764h-56l-109 123h72l67 -65l68 65h70zM617 703h71v-710h-44l-472 577v-570h-71v710h45l471 -579v572z" />
    <glyph glyph-name="ncaron" unicode="&#x148;" horiz-adv-x="577" 
d="M324 534h-56l-109 147h70l68 -86l68 86h71zM307 469q90 0 145.5 -59t55.5 -155v-255h-71v246q0 72 -39 115.5t-103 42.5q-32 0 -64.5 -13.5t-55.5 -47t-27 -70.5l-1 -273h-71v460h58l3 -86q15 30 44 53t63 32.5t63 9.5z" />
    <glyph glyph-name="napostrophe" unicode="&#x149;" horiz-adv-x="577" 
d="M94 642q1 -42 -22 -82t-58 -62l-24 27q16 12 32.5 36t16.5 42l-11 -2q-18 0 -30.5 13.5t-12.5 34.5q0 22 15.5 37t39.5 15t39 -16t15 -43zM307 469q90 0 145.5 -59t55.5 -155v-255h-71v246q0 72 -39 115.5t-103 42.5q-32 0 -64.5 -13.5t-55.5 -47t-27 -70.5l-1 -273h-71
v460h58l3 -86q15 30 44 53t63 32.5t63 9.5z" />
    <glyph glyph-name="Eng" unicode="&#x14a;" horiz-adv-x="791" 
d="M617 703h71v-710q0 -42 -12.5 -78.5t-37 -63t-59.5 -41t-78 -14.5q-28 0 -58.5 9t-54.5 28l28 59q12 -10 35.5 -18.5t43.5 -8.5q46 0 71.5 18t37.5 52.5t13 90.5l-445 544v-570h-71v710h45l471 -579v572z" />
    <glyph glyph-name="eng" unicode="&#x14b;" horiz-adv-x="577" 
d="M307 469q90 0 145.5 -59t55.5 -155v-313q0 -69 -37.5 -107.5t-102.5 -38.5q-33 0 -69 18l26 53q18 -6 36 -6q35 0 55.5 21.5t20.5 63.5v300q0 72 -39 115.5t-103 42.5q-32 0 -64.5 -13.5t-55.5 -47t-27 -70.5l-1 -273h-71v460h58l3 -86q15 30 44 53t63 32.5t63 9.5z" />
    <glyph glyph-name="Omacron" unicode="&#x14c;" horiz-adv-x="829" 
d="M262 763v58h304v-58h-304zM415 -9q-77 0 -144.5 27t-117 76t-76.5 115.5t-27 141.5q0 74 27 140.5t76.5 116t117 77t144.5 27.5t144 -27.5t116 -76.5t76 -116t27 -141q0 -75 -27 -141.5t-76 -115.5t-116 -76t-144 -27zM415 56q60 0 114 22t93.5 61.5t61.5 94.5t22 117
q0 61 -22 115.5t-62 95t-93.5 63t-113.5 22.5q-61 0 -115 -22.5t-94 -63.5t-62 -95.5t-22 -114.5q0 -62 22 -116.5t62 -94.5t94 -62t115 -22z" />
    <glyph glyph-name="omacron" unicode="&#x14d;" horiz-adv-x="568" 
d="M139 573v58h290v-58h-290zM284 -9q-48 0 -92 18t-77.5 50.5t-52 76.5t-18.5 93q0 37 12.5 77.5t46.5 80.5t83.5 60.5t97.5 20.5t92 -18t77 -50.5t52 -76.5t19 -94q0 -49 -19 -93t-52 -76.5t-77 -50.5t-92 -18zM284 56q42 0 82.5 22.5t63 64.5t22.5 86q0 45 -22.5 87
t-63 64.5t-82.5 22.5t-82.5 -22.5t-63 -64.5t-22.5 -87q0 -44 22.5 -86t63 -64.5t82.5 -22.5z" />
    <glyph glyph-name="Ohungarumlaut" unicode="&#x150;" horiz-adv-x="829" 
d="M300 742l-41 27l81 155l65 -37zM493 742l-41 27l81 155l65 -37zM415 -9q-77 0 -144.5 27t-117 76t-76.5 115.5t-27 141.5q0 74 27 140.5t76.5 116t117 77t144.5 27.5t144 -27.5t116 -76.5t76 -116t27 -141q0 -75 -27 -141.5t-76 -115.5t-116 -76t-144 -27zM415 56
q60 0 114 22t93.5 61.5t61.5 94.5t22 117q0 61 -22 115.5t-62 95t-93.5 63t-113.5 22.5q-61 0 -115 -22.5t-94 -63.5t-62 -95.5t-22 -114.5q0 -62 22 -116.5t62 -94.5t94 -62t115 -22z" />
    <glyph glyph-name="ohungarumlaut" unicode="&#x151;" horiz-adv-x="568" 
d="M188 514l-43 23l82 178l61 -30zM355 514l-43 23l82 178l61 -30zM284 -9q-48 0 -92 18t-77.5 50.5t-52 76.5t-18.5 93q0 37 12.5 77.5t46.5 80.5t83.5 60.5t97.5 20.5t92 -18t77 -50.5t52 -76.5t19 -94q0 -49 -19 -93t-52 -76.5t-77 -50.5t-92 -18zM284 56q42 0 82.5 22.5
t63 64.5t22.5 86q0 45 -22.5 87t-63 64.5t-82.5 22.5t-82.5 -22.5t-63 -64.5t-22.5 -87q0 -44 22.5 -86t63 -64.5t82.5 -22.5z" />
    <glyph glyph-name="OE" unicode="&#x152;" horiz-adv-x="1214" 
d="M1161 639h-383v-250h335v-64h-335v-261h383v-64h-454v130q-49 -65 -125 -102t-167 -37q-77 0 -144.5 27t-117 76t-76.5 115.5t-27 141.5q0 74 27 140.5t76.5 116t117 77t144.5 27.5q43 0 97.5 -12.5t107 -46.5t87.5 -81v131h454v-64zM415 56q60 0 114 22t93.5 61.5
t61.5 94.5t22 117q0 61 -22 115.5t-62 95t-93.5 63t-113.5 22.5q-61 0 -115 -22.5t-94 -63.5t-62 -95.5t-22 -114.5q0 -62 22 -116.5t62 -94.5t94 -62t115 -22z" />
    <glyph glyph-name="oe" unicode="&#x153;" horiz-adv-x="941" 
d="M900 239l-1 -31h-376q8 -69 58 -112.5t124 -43.5q34 0 67.5 10.5t70.5 40.5l33 -52q-74 -60 -178 -60q-68 0 -123 30t-87 81q-15 -24 -43 -50.5t-71.5 -43.5t-89.5 -17q-48 0 -92 18t-77.5 50.5t-52 76.5t-18.5 93q0 37 12.5 77.5t46.5 80.5t83.5 60.5t97.5 20.5
q62 0 116.5 -30t86.5 -80q22 37 57 64t73 37t69 10q94 0 154 -64t60 -166zM688 408q-64 0 -108 -39t-55 -103h307q-4 66 -45.5 104t-98.5 38zM284 56q42 0 82.5 22.5t63 64.5t22.5 86q0 45 -22.5 87t-63 64.5t-82.5 22.5t-82.5 -22.5t-63 -64.5t-22.5 -87q0 -44 22.5 -86
t63 -64.5t82.5 -22.5z" />
    <glyph glyph-name="Racute" unicode="&#x154;" horiz-adv-x="669" 
d="M437 821l-202 -60l-18 46l192 90zM615 0h-89l-160 234q-24 -3 -49 -3h-145v-231h-71v703h225q59 0 108.5 -14.5t85.5 -44t55.5 -75t19.5 -103.5q0 -38 -13 -80t-49.5 -78.5t-89.5 -56.5zM172 295h145q93 0 149 46.5t56 124.5q0 53 -22.5 91t-66.5 60t-109 22h-152v-344z
" />
    <glyph glyph-name="racute" unicode="&#x155;" horiz-adv-x="351" 
d="M310 626l-180 -95l-24 42l170 110zM301 469q21 0 36 -3l-6 -71q-18 6 -42 6q-43 0 -74.5 -19.5t-49 -53.5t-18.5 -71v-257h-71v460h62l4 -96q10 32 36.5 58t60 36.5t62.5 10.5z" />
    <glyph glyph-name="uni0156" unicode="&#x156;" horiz-adv-x="669" 
d="M443 251l172 -251h-89l-160 234q-24 -3 -49 -3h-145v-231h-71v703h225q59 0 108.5 -14.5t85.5 -44t55.5 -75t19.5 -103.5q0 -38 -13 -80t-49.5 -78.5t-89.5 -56.5zM172 295h145q93 0 149 46.5t56 124.5q0 53 -22.5 91t-66.5 60t-109 22h-152v-344zM326 -42q27 0 41.5 -17
t14.5 -44q0 -39 -21.5 -74t-56.5 -54l-24 25q16 12 32 32t16 34l-10 -1q-19 0 -31.5 13.5t-12.5 33.5q0 22 14.5 37t37.5 15z" />
    <glyph glyph-name="uni0157" unicode="&#x157;" horiz-adv-x="351" 
d="M301 469q21 0 36 -3l-6 -71q-18 6 -42 6q-43 0 -74.5 -19.5t-49 -53.5t-18.5 -71v-257h-71v460h62l4 -96q10 32 36.5 58t60 36.5t62.5 10.5zM112 -50q26 0 41 -17t15 -44q1 -43 -22 -82.5t-58 -61.5l-24 27q16 13 32.5 37t16.5 41l-11 -1q-18 0 -31 14t-13 35
q-1 22 14.5 37t39.5 15z" />
    <glyph glyph-name="Rcaron" unicode="&#x158;" horiz-adv-x="669" 
d="M343 764h-56l-109 123h72l67 -65l68 65h70zM615 0h-89l-160 234q-24 -3 -49 -3h-145v-231h-71v703h225q59 0 108.5 -14.5t85.5 -44t55.5 -75t19.5 -103.5q0 -38 -13 -80t-49.5 -78.5t-89.5 -56.5zM172 295h145q93 0 149 46.5t56 124.5q0 53 -22.5 91t-66.5 60t-109 22
h-152v-344z" />
    <glyph glyph-name="rcaron" unicode="&#x159;" horiz-adv-x="351" 
d="M234 534h-56l-109 147h70l68 -86l68 86h71zM142 364q10 32 36.5 58t60 36.5t62.5 10.5q21 0 36 -3l-6 -71q-18 6 -42 6q-43 0 -74.5 -19.5t-49 -53.5t-18.5 -71v-257h-71v460h62z" />
    <glyph glyph-name="Sacute" unicode="&#x15a;" horiz-adv-x="563" 
d="M215 761l-18 46l192 90l28 -76zM283 -9q-72 0 -136.5 18.5t-111.5 52.5l38 61q40 -30 94.5 -48.5t112.5 -18.5q74 0 119.5 34.5t45.5 94.5q0 59 -40 93.5t-131 54.5q-80 18 -125 45t-66 63.5t-21 86.5q0 29 11 60t42 62t77 46.5t93 15.5q137 0 214 -64l-36 -55
q-38 29 -78 42t-98 13q-32 0 -69 -10.5t-61 -39t-24 -68.5q0 -46 33 -76t125 -52q117 -27 171 -76.5t54 -133.5q0 -35 -12 -70.5t-41 -64.5t-74.5 -47.5t-105.5 -18.5z" />
    <glyph glyph-name="sacute" unicode="&#x15b;" horiz-adv-x="444" 
d="M146 531l-24 42l170 110l34 -57zM226 -9q-102 0 -189 55l35 57q66 -50 154 -50q48 0 76 18t28 51q0 30 -23.5 48t-86.5 34q-92 24 -127 56.5t-35 78.5q0 58 46 93.5t122 35.5q96 0 164 -48l-32 -55q-37 22 -67.5 31.5t-70.5 9.5t-66 -16t-26 -46q0 -27 25.5 -42.5
t91.5 -32.5q87 -23 121 -55t34 -90q0 -59 -48.5 -96t-125.5 -37z" />
    <glyph glyph-name="Scedilla" unicode="&#x15e;" horiz-adv-x="563" 
d="M516 192q0 -33 -11 -67.5t-41 -66t-74.5 -48t-88.5 -18.5l-9 -31q27 -1 49.5 -12t38.5 -33t16 -55q0 -49 -33.5 -77.5t-86.5 -28.5q-29 0 -55 6.5t-52 25.5l24 46q28 -17 45 -21.5t31 -4.5q29 -1 45.5 12t17.5 39q0 14 -8 28t-31 21.5t-57 4.5l-10 13l23 67
q-129 8 -214 70l38 61q40 -30 94.5 -48.5t112.5 -18.5q74 0 119.5 34.5t45.5 94.5q0 59 -40 93.5t-131 54.5q-80 18 -125 45t-66 63.5t-21 86.5q0 29 11 60t42 62t77 46.5t93 15.5q137 0 214 -64l-36 -55q-38 29 -78 42t-98 13q-32 0 -69 -10.5t-61 -39t-24 -68.5
q0 -46 33 -76t125 -52q117 -27 171 -76.5t54 -133.5z" />
    <glyph glyph-name="scedilla" unicode="&#x15f;" horiz-adv-x="444" 
d="M400 124q0 -41 -24.5 -72.5t-62 -44.5t-69.5 -15l-13 -34q48 -2 78.5 -29t30.5 -70q0 -48 -33 -76t-87 -28q-33 0 -61.5 9.5t-43.5 22.5l22 46q29 -18 46.5 -21.5t31.5 -3.5q29 0 46 12.5t17 35.5q0 25 -22.5 39.5t-64.5 14.5h-13l-10 13l24 69q-82 8 -155 54l35 57
q66 -50 154 -50q48 0 76 18t28 51q0 30 -23.5 48t-86.5 34q-92 24 -127 56.5t-35 78.5q0 58 46 93.5t122 35.5q96 0 164 -48l-32 -55q-37 22 -67.5 31.5t-70.5 9.5t-66 -16t-26 -46q0 -27 25.5 -42.5t91.5 -32.5q87 -23 121 -55t34 -90z" />
    <glyph glyph-name="Scaron" unicode="&#x160;" horiz-adv-x="563" 
d="M323 764h-56l-109 123h72l67 -65l68 65h70zM291 402q117 -27 171 -76.5t54 -133.5q0 -35 -12 -70.5t-41 -64.5t-74.5 -47.5t-105.5 -18.5q-72 0 -136.5 18.5t-111.5 52.5l38 61q40 -30 94.5 -48.5t112.5 -18.5q74 0 119.5 34.5t45.5 94.5q0 59 -40 93.5t-131 54.5
q-80 18 -125 45t-66 63.5t-21 86.5q0 29 11 60t42 62t77 46.5t93 15.5q137 0 214 -64l-36 -55q-38 29 -78 42t-98 13q-32 0 -69 -10.5t-61 -39t-24 -68.5q0 -46 33 -76t125 -52z" />
    <glyph glyph-name="scaron" unicode="&#x161;" horiz-adv-x="444" 
d="M250 534h-56l-109 147h70l68 -86l68 86h71zM245 269q87 -23 121 -55t34 -90q0 -59 -48.5 -96t-125.5 -37q-102 0 -189 55l35 57q66 -50 154 -50q48 0 76 18t28 51q0 30 -23.5 48t-86.5 34q-92 24 -127 56.5t-35 78.5q0 58 46 93.5t122 35.5q96 0 164 -48l-32 -55
q-37 22 -67.5 31.5t-70.5 9.5t-66 -16t-26 -46q0 -27 25.5 -42.5t91.5 -32.5z" />
    <glyph glyph-name="uni0162" unicode="&#x162;" horiz-adv-x="581" 
d="M329 0h-10l-12 -39q27 -1 49.5 -12t38.5 -33t16 -55q0 -49 -33.5 -77.5t-86.5 -28.5q-29 0 -55 6.5t-52 25.5l24 46q28 -17 45 -21.5t31 -4.5q29 -1 45.5 12t17.5 39q0 14 -8 28t-31 21.5t-57 4.5l-10 13l26 75h-10v639h-245v64h557v-64h-240v-639z" />
    <glyph glyph-name="uni0163" unicode="&#x163;" horiz-adv-x="404" 
d="M264 -48q48 -2 78.5 -29t30.5 -70q0 -48 -33 -76t-87 -28q-33 0 -61.5 9.5t-43.5 22.5l22 46q29 -18 46.5 -21.5t31.5 -3.5q29 0 46 12.5t17 35.5q0 25 -22.5 39.5t-64.5 14.5h-13l-10 13l27 78q-39 8 -68 33t-40 58.5t-11 63.5v252h-94v58h95v158h69v-158h193v-58h-193
v-252q0 -96 103 -96q9 0 20 1.5t23 5.5t22 9.5t18 11.5t9 7l27 -55q-23 -19 -55.5 -30.5t-66.5 -12.5z" />
    <glyph glyph-name="Tcaron" unicode="&#x164;" horiz-adv-x="581" 
d="M319 764h-56l-109 123h72l67 -65l68 65h70zM569 703v-64h-240v-639h-72v639h-245v64h557z" />
    <glyph glyph-name="tcaron" unicode="&#x165;" horiz-adv-x="404" 
d="M312 495l-24 26q16 13 32.5 37t16.5 41l-11 -1q-18 0 -30 13t-13 34q0 23 15.5 38t39.5 15t39 -16t15 -43q1 -42 -22 -82.5t-58 -61.5zM270 -9q-71 0 -116 42.5t-45 116.5v252h-94v58h95v158h69v-158h193v-58h-193v-252q0 -96 103 -96q9 0 20 1.5t23 5.5t22 9.5t18 11.5
t9 7l27 -55q-55 -43 -131 -43z" />
    <glyph glyph-name="Tbar" unicode="&#x166;" horiz-adv-x="581" 
d="M569 639h-240v-259h117v-52h-117v-328h-72v328h-118v52h118v259h-245v64h557v-64z" />
    <glyph glyph-name="tbar" unicode="&#x167;" horiz-adv-x="404" 
d="M374 89l27 -55q-55 -43 -131 -43q-71 0 -116 42.5t-45 116.5v88h-82v49h82v115h-94v58h95v158h69v-158h193v-58h-193v-115h132v-49h-132v-88q0 -96 103 -96q9 0 20 1.5t23 5.5t22 9.5t18 11.5t9 7z" />
    <glyph glyph-name="Utilde" unicode="&#x168;" horiz-adv-x="760" 
d="M447 770q-32 0 -66 21t-45.5 24t-17.5 3q-16 0 -29 -5.5t-20 -12.5t-10.5 -12t-8.5 -13l-43 35q18 30 46.5 48.5t65.5 18.5q31 0 66 -21.5t46.5 -24.5t17.5 -3q12 0 22 3.5t17 9t11.5 10t7 8.5t4.5 7t5 8l43 -34q-13 -29 -44 -49.5t-68 -20.5zM383 -9q-48 0 -91.5 11
t-78.5 32.5t-65 58.5t-44 89t-14 103v418h74v-423q0 -36 10 -74t39 -74.5t75.5 -54.5t96.5 -18q36 0 74 10.5t69 36.5t51.5 69.5t20.5 104.5v423h70v-418q0 -69 -20.5 -124.5t-58 -93t-91 -57t-117.5 -19.5z" />
    <glyph glyph-name="utilde" unicode="&#x169;" horiz-adv-x="569" 
d="M214 602q-12 0 -27.5 -6.5t-32.5 -40.5l-43 35q26 43 51 57t47 14q18 0 33 -4.5t25 -10.5t34 -22.5t43 -16.5q37 0 56 51l43 -34q-10 -27 -39 -51t-60 -24q-10 0 -22.5 2.5t-24 8.5t-38.5 24t-45 18zM422 460h71v-460h-62l-2 79q-21 -38 -64 -63t-97 -25q-89 0 -144 59
t-55 155v255h71v-242q0 -72 37 -115.5t99 -43.5q43 0 75.5 20t51 54t19.5 71v256z" />
    <glyph glyph-name="Umacron" unicode="&#x16a;" horiz-adv-x="760" 
d="M231 763v58h304v-58h-304zM383 -9q-48 0 -91.5 11t-78.5 32.5t-65 58.5t-44 89t-14 103v418h74v-423q0 -36 10 -74t39 -74.5t75.5 -54.5t96.5 -18q36 0 74 10.5t69 36.5t51.5 69.5t20.5 104.5v423h70v-418q0 -69 -20.5 -124.5t-58 -93t-91 -57t-117.5 -19.5z" />
    <glyph glyph-name="umacron" unicode="&#x16b;" horiz-adv-x="569" 
d="M422 631v-58h-290v58h290zM422 460h71v-460h-62l-2 79q-21 -38 -64 -63t-97 -25q-89 0 -144 59t-55 155v255h71v-242q0 -72 37 -115.5t99 -43.5q43 0 75.5 20t51 54t19.5 71v256z" />
    <glyph glyph-name="Uring" unicode="&#x16e;" horiz-adv-x="760" 
d="M383 751q-39 0 -65.5 25.5t-26.5 63.5q0 37 26.5 62.5t65.5 25.5t65.5 -25.5t26.5 -62.5q0 -38 -26.5 -63.5t-65.5 -25.5zM383 793q20 0 33 14t13 33q0 20 -13 33.5t-33 13.5q-19 0 -32.5 -13.5t-13.5 -33.5q0 -19 13.5 -33t32.5 -14zM383 -9q-48 0 -91.5 11t-78.5 32.5
t-65 58.5t-44 89t-14 103v418h74v-423q0 -36 10 -74t39 -74.5t75.5 -54.5t96.5 -18q36 0 74 10.5t69 36.5t51.5 69.5t20.5 104.5v423h70v-418q0 -69 -20.5 -124.5t-58 -93t-91 -57t-117.5 -19.5z" />
    <glyph glyph-name="uring" unicode="&#x16f;" horiz-adv-x="569" 
d="M277 525q-29 0 -52.5 15t-32.5 36t-9 39t9 39t32.5 36.5t52.5 15.5q19 0 41 -9t37.5 -31.5t15.5 -50.5q0 -18 -9 -39t-32.5 -36t-52.5 -15zM277 664q-20 0 -34 -13t-14 -35t14 -35.5t34 -13.5t34 13.5t14 35.5q0 21 -14 34.5t-34 13.5zM422 460h71v-460h-62l-2 79
q-21 -38 -64 -63t-97 -25q-89 0 -144 59t-55 155v255h71v-242q0 -72 37 -115.5t99 -43.5q43 0 75.5 20t51 54t19.5 71v256z" />
    <glyph glyph-name="Uhungarumlaut" unicode="&#x170;" horiz-adv-x="760" 
d="M269 742l-41 27l81 155l65 -37zM462 742l-41 27l81 155l65 -37zM383 -9q-48 0 -91.5 11t-78.5 32.5t-65 58.5t-44 89t-14 103v418h74v-423q0 -36 10 -74t39 -74.5t75.5 -54.5t96.5 -18q36 0 74 10.5t69 36.5t51.5 69.5t20.5 104.5v423h70v-418q0 -69 -20.5 -124.5
t-58 -93t-91 -57t-117.5 -19.5z" />
    <glyph glyph-name="uhungarumlaut" unicode="&#x171;" horiz-adv-x="569" 
d="M281 685l-100 -171l-43 23l82 178zM448 685l-100 -171l-43 23l82 178zM422 460h71v-460h-62l-2 79q-21 -38 -64 -63t-97 -25q-89 0 -144 59t-55 155v255h71v-242q0 -72 37 -115.5t99 -43.5q43 0 75.5 20t51 54t19.5 71v256z" />
    <glyph glyph-name="Uogonek" unicode="&#x172;" horiz-adv-x="760" 
d="M600 703h70v-418q0 -116 -55 -190t-152 -96q-12 -6 -32.5 -24t-33 -42.5t-12.5 -49.5t14.5 -40t37.5 -15q27 0 44 15l21 -46q-30 -24 -80 -24q-31 0 -56.5 15t-35.5 37.5t-10 42.5q0 29 15 61.5t52 61.5h-4q-48 0 -91.5 11t-78.5 32.5t-65 58.5t-44 89t-14 103v418h74
v-423q0 -36 10 -74t39 -74.5t75.5 -54.5t96.5 -18q36 0 74 10.5t69 36.5t51.5 69.5t20.5 104.5v423z" />
    <glyph glyph-name="uogonek" unicode="&#x173;" horiz-adv-x="569" 
d="M500 -168l23 -39q-33 -29 -78 -29q-46 0 -73.5 26.5t-27.5 71.5q0 22 9.5 48t31 50t46.5 42l-2 77q-21 -38 -64 -63t-97 -25q-89 0 -144 59t-55 155v255h71v-242q0 -72 37 -115.5t99 -43.5q43 0 75.5 20t51 54t19.5 71v256h71v-460q-35 -20 -63 -54.5t-28 -70.5
q0 -29 15 -44t36 -15q27 0 47 16z" />
    <glyph glyph-name="Wcircumflex" unicode="&#x174;" horiz-adv-x="927" 
d="M462 829l-68 -65h-70l112 123h56l109 -123h-72zM850 703h71l-205 -703h-53l-200 590l-200 -590h-51l-206 703h75l161 -590l109 339l87 251h52l89 -251l110 -342l94 351z" />
    <glyph glyph-name="wcircumflex" unicode="&#x175;" horiz-adv-x="771" 
d="M386 620l-68 -86h-71l112 147h56l109 -147h-70zM677 460h76l-173 -460h-58l-136 371l-135 -371h-60l-173 460h77l129 -370l128 379h70l132 -381z" />
    <glyph glyph-name="Ycircumflex" unicode="&#x176;" horiz-adv-x="643" 
d="M324 829l-68 -65h-70l112 123h56l109 -123h-72zM623 703l-267 -426v-277h-71v279l-264 424h86l216 -356l218 356h82z" />
    <glyph glyph-name="ycircumflex" unicode="&#x177;" horiz-adv-x="504" 
d="M258 620l-68 -86h-71l112 147h56l109 -147h-70zM492 460l-192 -447l-88 -208h-73l80 192l-201 463h80l159 -380l159 380h76z" />
    <glyph glyph-name="Ydieresis" unicode="&#x178;" horiz-adv-x="643" 
d="M216 775q-21 0 -36 14.5t-15 35.5q0 20 15 34.5t36 14.5q20 0 34 -14t15 -35t-14 -35.5t-35 -14.5zM434 774q-20 0 -35 14.5t-15 35.5q0 20 15 34.5t35 14.5q21 0 35 -14t15 -35t-14 -35.5t-36 -14.5zM623 703l-267 -426v-277h-71v279l-264 424h86l216 -356l218 356h82z
" />
    <glyph glyph-name="Zacute" unicode="&#x179;" horiz-adv-x="604" 
d="M425 821l-202 -60l-18 46l192 90zM124 64h447v-64h-545v44l449 595h-435v64h530v-48z" />
    <glyph glyph-name="zacute" unicode="&#x17a;" horiz-adv-x="465" 
d="M331 626l-180 -95l-24 42l170 110zM426 460v-52l-302 -350h302v-58h-392v52l302 350h-293v58h383z" />
    <glyph glyph-name="Zdotaccent" unicode="&#x17b;" horiz-adv-x="604" 
d="M306 772q-21 0 -36.5 15t-15.5 36q0 22 14.5 37t36.5 15q20 0 35 -15.5t15 -36.5t-14 -36t-35 -15zM124 64h447v-64h-545v44l449 595h-435v64h530v-48z" />
    <glyph glyph-name="zdotaccent" unicode="&#x17c;" horiz-adv-x="465" 
d="M228 552q-22 1 -37.5 15.5t-15.5 36.5t15.5 37.5t36.5 15.5q23 0 39 -14.5t16 -37.5t-15.5 -37.5t-38.5 -15.5zM426 460v-52l-302 -350h302v-58h-392v52l302 350h-293v58h383z" />
    <glyph glyph-name="Zcaron" unicode="&#x17d;" horiz-adv-x="604" 
d="M331 764h-56l-109 123h72l67 -65l68 65h70zM124 64h447v-64h-545v44l449 595h-435v64h530v-48z" />
    <glyph glyph-name="zcaron" unicode="&#x17e;" horiz-adv-x="465" 
d="M255 534h-56l-109 147h70l68 -86l68 86h71zM426 460v-52l-302 -350h302v-58h-392v52l302 350h-293v58h383z" />
    <glyph glyph-name="uni01EA" unicode="&#x1ea;" horiz-adv-x="829" 
d="M495 -1q-35 -21 -56 -52t-21 -64q0 -25 14.5 -40t37.5 -15q27 0 44 15l21 -46q-30 -24 -80 -24q-31 0 -56.5 15t-35.5 37.5t-10 42.5q0 29 15 61.5t52 61.5h-5q-77 0 -144.5 27t-117 76t-76.5 115.5t-27 141.5q0 74 27 140.5t76.5 116t117 77t144.5 27.5t144 -27.5
t116 -76.5t76 -116t27 -141q0 -65 -20.5 -124.5t-58 -106t-90.5 -78t-114 -43.5zM122 351q0 -62 22 -116.5t62 -94.5t94 -62t115 -22q60 0 114 22t93.5 61.5t61.5 94.5t22 117q0 61 -22 115.5t-62 95t-93.5 63t-113.5 22.5q-61 0 -115 -22.5t-94 -63.5t-62 -95.5t-22 -114.5
z" />
    <glyph glyph-name="uni01EB" unicode="&#x1eb;" horiz-adv-x="568" 
d="M346 -1q-39 -24 -64 -57.5t-25 -66.5q0 -29 15 -44t36 -15q27 0 47 16l23 -39q-33 -29 -78 -29q-46 0 -73.5 26.5t-27.5 71.5q0 29 16.5 63t56.5 66q-46 2 -88 21t-73.5 51t-49 75t-17.5 91q0 37 12.5 77.5t46.5 80.5t83.5 60.5t97.5 20.5t92 -18t77 -50.5t52 -76.5
t19 -94q0 -41 -11.5 -74.5t-30.5 -61.5t-54 -55t-82 -39zM116 229q0 -44 22.5 -86t63 -64.5t82.5 -22.5t82.5 22.5t63 64.5t22.5 86q0 45 -22.5 87t-63 64.5t-82.5 22.5t-82.5 -22.5t-63 -64.5t-22.5 -87z" />
    <glyph glyph-name="AEacute" unicode="&#x1fc;" horiz-adv-x="876" 
d="M476 767l-18 46l192 90l28 -76zM-12 0l397 703h439v-64h-337v-252l289 1v-64l-289 -1v-259h337v-64h-409v177h-250l-103 -177h-74zM197 238h218v388z" />
    <glyph glyph-name="aeacute" unicode="&#x1fd;" horiz-adv-x="939" 
d="M572 626l-180 -95l-24 42l170 110zM898 239l-1 -31h-376q8 -69 58 -112.5t124 -43.5q34 0 67.5 10.5t70.5 40.5l33 -52q-74 -60 -178 -60q-57 0 -105 24t-79 66l-8 -81h-49l-7 79q-27 -42 -73 -65t-107 -23q-46 0 -87 18t-71.5 50.5t-47.5 76.5t-17 94t17 94t47.5 76.5
t71.5 50.5t87 18q62 0 108.5 -23t72.5 -65l6 79h49l6 -83q30 42 75.5 67t98.5 25q94 0 154 -64t60 -166zM686 408q-64 0 -108 -39t-55 -103h307q-4 66 -45.5 104t-98.5 38zM280 56q73 0 119.5 49t46.5 125q0 75 -46.5 124.5t-119.5 49.5q-68 0 -116 -49.5t-48 -124.5
q0 -27 8.5 -56.5t29 -55.5t53 -44t73.5 -18z" />
    <glyph glyph-name="Oslashacute" unicode="&#x1fe;" horiz-adv-x="829" 
d="M533 821l-202 -60l-18 46l192 90zM655 627q57 -48 90 -121t33 -155q0 -75 -27 -141.5t-76 -115.5t-116 -76t-144 -27q-106 0 -195 51l-52 -70l-47 36l51 69q-58 49 -90 120t-32 154q0 74 27 140.5t76.5 116t117 77t144.5 27.5q105 0 193 -51l51 68l46 -35zM122 351
q0 -65 24.5 -122t67.5 -97l353 474q-69 41 -152 41q-61 0 -115 -22.5t-94 -63.5t-62 -95.5t-22 -114.5zM415 56q60 0 114 22t93.5 61.5t61.5 94.5t22 117q0 64 -25 122t-68 98l-352 -474q33 -19 73 -30t81 -11z" />
    <glyph glyph-name="oslashacute" unicode="&#x1ff;" horiz-adv-x="568" 
d="M386 626l-180 -95l-24 42l170 110zM449 404q35 -33 55 -78.5t20 -96.5q0 -49 -19 -93t-52 -76.5t-77 -50.5t-92 -18q-31 0 -64.5 9t-59.5 24l-45 -59l-41 33l44 58q-35 32 -54.5 77t-19.5 96q0 37 12.5 77.5t46.5 80.5t83.5 60.5t97.5 20.5q31 0 63.5 -9t58.5 -24l45 59
l41 -33zM116 229q0 -33 12 -63.5t32 -53.5l205 269q-38 22 -81 22q-42 0 -82.5 -22.5t-63 -64.5t-22.5 -87zM284 56q42 0 82.5 22.5t63 64.5t22.5 86q0 25 -9.5 58t-36.5 62l-205 -271q39 -22 83 -22z" />
    <glyph glyph-name="uni0218" unicode="&#x218;" horiz-adv-x="563" 
d="M283 -9q-72 0 -136.5 18.5t-111.5 52.5l38 61q40 -30 94.5 -48.5t112.5 -18.5q74 0 119.5 34.5t45.5 94.5q0 59 -40 93.5t-131 54.5q-80 18 -125 45t-66 63.5t-21 86.5q0 29 11 60t42 62t77 46.5t93 15.5q137 0 214 -64l-36 -55q-38 29 -78 42t-98 13q-32 0 -69 -10.5
t-61 -39t-24 -68.5q0 -46 33 -76t125 -52q117 -27 171 -76.5t54 -133.5q0 -35 -12 -70.5t-41 -64.5t-74.5 -47.5t-105.5 -18.5zM276 -140l-10 -1q-19 0 -31.5 13.5t-12.5 33.5q0 22 14.5 37t37.5 15q27 0 41.5 -17t14.5 -44q0 -39 -21.5 -74t-56.5 -54l-24 25q16 12 32 32
t16 34z" />
    <glyph glyph-name="uni0219" unicode="&#x219;" horiz-adv-x="444" 
d="M226 -9q-102 0 -189 55l35 57q66 -50 154 -50q48 0 76 18t28 51q0 30 -23.5 48t-86.5 34q-92 24 -127 56.5t-35 78.5q0 58 46 93.5t122 35.5q96 0 164 -48l-32 -55q-37 22 -67.5 31.5t-70.5 9.5t-66 -16t-26 -46q0 -27 25.5 -42.5t91.5 -32.5q87 -23 121 -55t34 -90
q0 -59 -48.5 -96t-125.5 -37zM196 -255l-24 27q16 13 32.5 37t16.5 41l-11 -1q-18 0 -31 14t-13 35q-1 22 14.5 37t39.5 15q26 0 41 -17t15 -44q1 -43 -22 -82.5t-58 -61.5z" />
    <glyph glyph-name="uni021A" unicode="&#x21a;" horiz-adv-x="581" 
d="M569 703v-64h-240v-639h-72v639h-245v64h557zM289 -42q27 0 41.5 -17t14.5 -44q0 -39 -21.5 -74t-56.5 -54l-24 25q16 12 32 32t16 34l-10 -1q-19 0 -31.5 13.5t-12.5 33.5q0 22 14.5 37t37.5 15z" />
    <glyph glyph-name="uni021B" unicode="&#x21b;" horiz-adv-x="404" 
d="M270 -9q-71 0 -116 42.5t-45 116.5v252h-94v58h95v158h69v-158h193v-58h-193v-252q0 -96 103 -96q9 0 20 1.5t23 5.5t22 9.5t18 11.5t9 7l27 -55q-55 -43 -131 -43zM229 -261l-24 27q16 13 32.5 37t16.5 41l-11 -1q-18 0 -31 14t-13 35q-1 22 14.5 37t39.5 15
q26 0 41 -17t15 -44q1 -43 -22 -82.5t-58 -61.5z" />
    <glyph glyph-name="uni0237" unicode="&#x237;" horiz-adv-x="232" 
d="M15 -204q-37 0 -61 11l17 60q16 -6 37 -6q34 0 55 21.5t21 63.5v514h71v-513q0 -72 -37.5 -111.5t-102.5 -39.5z" />
    <glyph glyph-name="circumflex" unicode="&#x2c6;" horiz-adv-x="350" 
d="M313 534h-70l-68 86l-68 -86h-71l112 147h56z" />
    <glyph glyph-name="caron" unicode="&#x2c7;" horiz-adv-x="350" 
d="M242 681h71l-112 -147h-56l-109 147h70l68 -86z" />
    <glyph glyph-name="breve" unicode="&#x2d8;" horiz-adv-x="312" 
d="M158 536q-60 0 -98 38.5t-38 102.5h56q0 -40 22.5 -65t57.5 -25q36 0 58.5 25t22.5 65h56q0 -64 -38 -102.5t-99 -38.5z" />
    <glyph glyph-name="dotaccent" unicode="&#x2d9;" horiz-adv-x="123" 
d="M61 552q-22 1 -37.5 15.5t-15.5 36.5t15.5 37.5t36.5 15.5q23 0 39 -14.5t16 -37.5t-15.5 -37.5t-38.5 -15.5z" />
    <glyph glyph-name="ring" unicode="&#x2da;" horiz-adv-x="208" 
d="M104 525q-29 0 -52.5 15t-32.5 36t-9 39t9 39t32.5 36.5t52.5 15.5q19 0 41 -9t37.5 -31.5t15.5 -50.5q0 -18 -9 -39t-32.5 -36t-52.5 -15zM104 567q20 0 34 13.5t14 35.5q0 21 -14 34.5t-34 13.5t-34 -13t-14 -35t14 -35.5t34 -13.5z" />
    <glyph glyph-name="ogonek" unicode="&#x2db;" horiz-adv-x="208" 
d="M114 -236q-46 0 -73.5 26.5t-27.5 71.5q0 37 19 68.5t47 55t53 35.5l30 -21q-35 -20 -63 -54.5t-28 -70.5q0 -29 15 -44t36 -15q27 0 47 16l23 -39q-33 -29 -78 -29z" />
    <glyph glyph-name="tilde" unicode="&#x2dc;" horiz-adv-x="392" 
d="M263 549q-10 0 -22.5 2.5t-24 8.5t-38.5 24t-45 18q-12 0 -27.5 -6.5t-32.5 -40.5l-43 35q26 43 51 57t47 14q18 0 33 -4.5t25 -10.5t34 -22.5t43 -16.5q37 0 56 51l43 -34q-10 -27 -39 -51t-60 -24z" />
    <glyph glyph-name="hungarumlaut" unicode="&#x2dd;" horiz-adv-x="330" 
d="M53 514l-43 23l82 178l61 -30zM220 514l-43 23l82 178l61 -30z" />
    <glyph glyph-name="gravecomb" unicode="&#x300;" 
d="M-34 531l-180 95l34 57l170 -110z" />
    <glyph glyph-name="acutecomb" unicode="&#x301;" 
d="M-191 531l-24 42l170 110l34 -57z" />
    <glyph glyph-name="uni0302" unicode="&#x302;" 
d="M-37 534h-70l-68 86l-68 -86h-71l112 147h56z" />
    <glyph glyph-name="tildecomb" unicode="&#x303;" 
d="M-129 549q-10 0 -22.5 2.5t-24 8.5t-38.5 24t-45 18q-12 0 -27.5 -6.5t-32.5 -40.5l-43 35q26 43 51 57t47 14q18 0 33 -4.5t25 -10.5t34 -22.5t43 -16.5q37 0 56 51l43 -34q-10 -27 -39 -51t-60 -24z" />
    <glyph glyph-name="uni0304" unicode="&#x304;" 
d="M-300 573v58h290v-58h-290z" />
    <glyph glyph-name="uni0306" unicode="&#x306;" 
d="M-159 536q-60 0 -98 38.5t-38 102.5h56q0 -40 22.5 -65t57.5 -25q36 0 58.5 25t22.5 65h56q0 -64 -38 -102.5t-99 -38.5z" />
    <glyph glyph-name="uni0307" unicode="&#x307;" 
d="M-62 552q-22 1 -37.5 15.5t-15.5 36.5t15.5 37.5t36.5 15.5q23 0 39 -14.5t16 -37.5t-15.5 -37.5t-38.5 -15.5z" />
    <glyph glyph-name="uni0308" unicode="&#x308;" 
d="M-272 565q-21 0 -36 14.5t-15 34.5q0 21 15 35.5t36 14.5q20 0 34 -14.5t15 -35.5q1 -20 -14 -34.5t-35 -14.5zM-64 563q-20 0 -35 14.5t-15 35.5t15 35.5t35 14.5q21 0 35 -14.5t15 -35.5t-14 -35.5t-36 -14.5z" />
    <glyph glyph-name="uni030A" unicode="&#x30a;" 
d="M-104 525q-29 0 -52.5 15t-32.5 36t-9 39t9 39t32.5 36.5t52.5 15.5q19 0 41 -9t37.5 -31.5t15.5 -50.5q0 -18 -9 -39t-32.5 -36t-52.5 -15zM-104 567q20 0 34 13.5t14 35.5q0 21 -14 34.5t-34 13.5t-34 -13t-14 -35t14 -35.5t34 -13.5z" />
    <glyph glyph-name="uni030B" unicode="&#x30b;" 
d="M-296 514l-43 23l82 178l61 -30zM-129 514l-43 23l82 178l61 -30z" />
    <glyph glyph-name="uni030C" unicode="&#x30c;" 
d="M-108 681h71l-112 -147h-56l-109 147h70l68 -86z" />
    <glyph glyph-name="uni0326" unicode="&#x326;" 
d="M-90 -255l-24 27q16 13 32.5 37t16.5 41l-11 -1q-18 0 -31 14t-13 35q-1 22 14.5 37t39.5 15q26 0 41 -17t15 -44q1 -43 -22 -82.5t-58 -61.5z" />
    <glyph glyph-name="uni0327" unicode="&#x327;" 
d="M-129 -245q-33 0 -61.5 9.5t-43.5 22.5l22 46q29 -18 46.5 -21.5t31.5 -3.5q29 0 46 12.5t17 35.5q0 25 -22.5 39.5t-64.5 14.5h-13l-10 13l31 90h53l-21 -55q48 -2 78.5 -29t30.5 -70q0 -48 -33 -76t-87 -28z" />
    <glyph glyph-name="uni0328" unicode="&#x328;" 
d="M-124 -236q-46 0 -73.5 26.5t-27.5 71.5q0 37 19 68.5t47 55t53 35.5l30 -21q-35 -20 -63 -54.5t-28 -70.5q0 -29 15 -44t36 -15q27 0 47 16l23 -39q-33 -29 -78 -29z" />
    <glyph glyph-name="uni0335" unicode="&#x335;" 
d="M-326 241v52h307v-52h-307z" />
    <glyph glyph-name="uni0336" unicode="&#x336;" 
d="M-713 279v56h703v-56h-703z" />
    <glyph glyph-name="uni0337" unicode="&#x337;" 
d="M-320 165l-26 44l288 166l26 -44z" />
    <glyph glyph-name="uni0338" unicode="&#x338;" 
d="M-383 -9l-41 33l377 496l41 -33z" />
    <glyph glyph-name="Wgrave" unicode="&#x1e80;" horiz-adv-x="927" 
d="M566 811l-17 -47l-204 53l26 77zM850 703h71l-205 -703h-53l-200 590l-200 -590h-51l-206 703h75l161 -590l109 339l87 251h52l89 -251l110 -342l94 351z" />
    <glyph glyph-name="wgrave" unicode="&#x1e81;" horiz-adv-x="771" 
d="M482 573l-24 -42l-180 95l34 57zM677 460h76l-173 -460h-58l-136 371l-135 -371h-60l-173 460h77l129 -370l128 379h70l132 -381z" />
    <glyph glyph-name="Wacute" unicode="&#x1e82;" horiz-adv-x="927" 
d="M583 821l-202 -60l-18 46l192 90zM850 703h71l-205 -703h-53l-200 590l-200 -590h-51l-206 703h75l161 -590l109 339l87 251h52l89 -251l110 -342l94 351z" />
    <glyph glyph-name="wacute" unicode="&#x1e83;" horiz-adv-x="771" 
d="M488 626l-180 -95l-24 42l170 110zM677 460h76l-173 -460h-58l-136 371l-135 -371h-60l-173 460h77l129 -370l128 379h70l132 -381z" />
    <glyph glyph-name="Wdieresis" unicode="&#x1e84;" horiz-adv-x="927" 
d="M354 775q-21 0 -36 14.5t-15 35.5q0 20 15 34.5t36 14.5q20 0 34 -14t15 -35t-14 -35.5t-35 -14.5zM572 774q-20 0 -35 14.5t-15 35.5q0 20 15 34.5t35 14.5q21 0 35 -14t15 -35t-14 -35.5t-36 -14.5zM850 703h71l-205 -703h-53l-200 590l-200 -590h-51l-206 703h75
l161 -590l109 339l87 251h52l89 -251l110 -342l94 351z" />
    <glyph glyph-name="wdieresis" unicode="&#x1e85;" horiz-adv-x="771" 
d="M283 565q-21 0 -36 14.5t-15 34.5q0 21 15 35.5t36 14.5q20 0 34 -14.5t15 -35.5q1 -20 -14 -34.5t-35 -14.5zM491 563q-20 0 -35 14.5t-15 35.5t15 35.5t35 14.5q21 0 35 -14.5t15 -35.5t-14 -35.5t-36 -14.5zM677 460h76l-173 -460h-58l-136 371l-135 -371h-60
l-173 460h77l129 -370l128 379h70l132 -381z" />
    <glyph glyph-name="uni1E9E" unicode="&#x1e9e;" horiz-adv-x="734" 
d="M470 418q112 0 175 -57t63 -157q0 -45 -16.5 -84.5t-47.5 -68t-76 -44.5t-99 -16q-99 0 -168 48l30 56q57 -41 134 -41q81 0 127.5 42.5t46.5 110.5t-47 111t-132 43h-84v57l181 221h-219q-84 0 -128.5 -42.5t-44.5 -117.5v-479h-71v479q0 106 61 165t183 59h306v-54
l-188 -231h14z" />
    <glyph glyph-name="Ygrave" unicode="&#x1ef2;" horiz-adv-x="643" 
d="M428 811l-17 -47l-204 53l26 77zM623 703l-267 -426v-277h-71v279l-264 424h86l216 -356l218 356h82z" />
    <glyph glyph-name="ygrave" unicode="&#x1ef3;" horiz-adv-x="504" 
d="M354 573l-24 -42l-180 95l34 57zM492 460l-192 -447l-88 -208h-73l80 192l-201 463h80l159 -380l159 380h76z" />
    <glyph glyph-name="uni1EF8" unicode="&#x1ef8;" horiz-adv-x="643" 
d="M260 818q-16 0 -29 -5.5t-20 -12.5t-10.5 -12t-8.5 -13l-43 35q18 30 46.5 48.5t65.5 18.5q31 0 66 -21.5t46.5 -24.5t17.5 -3q12 0 22 3.5t17 9t11.5 10t7 8.5t4.5 7t5 8l43 -34q-13 -29 -44 -49.5t-68 -20.5q-32 0 -66 21t-45.5 24t-17.5 3zM623 703l-267 -426v-277
h-71v279l-264 424h86l216 -356l218 356h82z" />
    <glyph glyph-name="uni1EF9" unicode="&#x1ef9;" horiz-adv-x="504" 
d="M195 602q-12 0 -27.5 -6.5t-32.5 -40.5l-43 35q26 43 51 57t47 14q18 0 33 -4.5t25 -10.5t34 -22.5t43 -16.5q37 0 56 51l43 -34q-10 -27 -39 -51t-60 -24q-10 0 -22.5 2.5t-24 8.5t-38.5 24t-45 18zM492 460l-192 -447l-88 -208h-73l80 192l-201 463h80l159 -380
l159 380h76z" />
    <glyph glyph-name="endash" unicode="&#x2013;" horiz-adv-x="557" 
d="M68 223v58h421v-58h-421z" />
    <glyph glyph-name="emdash" unicode="&#x2014;" horiz-adv-x="956" 
d="M68 223v58h820v-58h-820z" />
    <glyph glyph-name="quoteleft" unicode="&#x2018;" horiz-adv-x="216" 
d="M108 521q-26 0 -41.5 17t-15.5 44q0 43 22.5 82.5t57.5 61.5l25 -27q-16 -12 -32.5 -36t-16.5 -42l11 2q18 0 31 -14.5t13 -34.5q0 -23 -15 -38t-39 -15z" />
    <glyph glyph-name="quoteright" unicode="&#x2019;" horiz-adv-x="210" 
d="M86 528l-25 27q16 12 32.5 36t16.5 42l-11 -2q-18 0 -31 14.5t-13 34.5q0 23 15 38t39 15q26 0 41 -17t15 -44q1 -43 -21.5 -82.5t-57.5 -61.5z" />
    <glyph glyph-name="quotesinglbase" unicode="&#x201a;" horiz-adv-x="222" 
d="M87 -125l-25 26q16 13 32.5 37t16.5 41l-11 -1q-18 0 -31 14t-13 35q0 23 15 38t39 15q26 0 41 -17t16 -44q0 -43 -22.5 -82.5t-57.5 -61.5z" />
    <glyph glyph-name="quotedblleft" unicode="&#x201c;" horiz-adv-x="361" 
d="M108 521q-26 0 -41.5 17t-15.5 44q0 43 22.5 82.5t57.5 61.5l25 -27q-16 -12 -32.5 -36t-16.5 -42l11 2q18 0 31 -14.5t13 -34.5q0 -23 -15 -38t-39 -15zM253 521q-26 0 -40.5 17t-15.5 44q-1 43 21.5 82.5t58.5 61.5l24 -27q-16 -12 -32.5 -36t-16.5 -42l11 2
q18 0 31 -14.5t13 -34.5q0 -23 -15 -38t-39 -15z" />
    <glyph glyph-name="quotedblright" unicode="&#x201d;" horiz-adv-x="355" 
d="M86 528l-25 27q16 12 32.5 36t16.5 42l-11 -2q-18 0 -31 14.5t-13 34.5q0 23 15 38t39 15q26 0 41 -17t15 -44q1 -43 -21.5 -82.5t-57.5 -61.5zM231 528l-25 27q16 12 32.5 36t16.5 42l-11 -2q-18 0 -30.5 14.5t-13.5 34.5q0 23 15 38t39 15q26 0 41 -17t16 -44
q0 -44 -22.5 -83t-57.5 -61z" />
    <glyph glyph-name="quotedblbase" unicode="&#x201e;" horiz-adv-x="367" 
d="M87 -125l-25 26q16 13 32.5 37t16.5 41l-11 -1q-18 0 -31 14t-13 35q0 23 15 38t39 15q26 0 41 -17t16 -44q0 -43 -22.5 -82.5t-57.5 -61.5zM232 -125l-25 26q16 13 33 37t17 41l-12 -1q-18 0 -30.5 14t-13.5 35q0 23 15 38t39 15q27 0 41.5 -17t15.5 -44
q0 -44 -22.5 -83t-57.5 -61z" />
    <glyph glyph-name="dagger" unicode="&#x2020;" horiz-adv-x="575" 
d="M515 499v-67h-193v-432h-66v432h-196v67h196v216h66v-216h193z" />
    <glyph glyph-name="daggerdbl" unicode="&#x2021;" horiz-adv-x="575" 
d="M515 472h-194v-224h194v-67h-194v-181h-67v181h-194v67h194l1 224h-195v67h195v176h66v-176h194v-67z" />
    <glyph glyph-name="bullet" unicode="&#x2022;" horiz-adv-x="351" 
d="M176 278q-17 0 -38.5 9t-37 32.5t-15.5 50.5q0 17 9 38.5t32 37.5t50 16q26 0 49 -16t32 -37.5t9 -38.5q0 -18 -9 -39.5t-32 -37t-49 -15.5z" />
    <glyph glyph-name="ellipsis" unicode="&#x2026;" horiz-adv-x="672" 
d="M116 -9q-23 0 -39 16t-16 38q0 23 16 39t39 16t39 -16t16 -39q0 -22 -16 -38t-39 -16zM336 -9q-23 0 -39 16t-16 38q0 23 16 39t39 16t39 -16t16 -39q0 -22 -16 -38t-39 -16zM556 -9q-23 0 -39 16t-16 38q0 23 16 39t39 16t39 -16t16 -39q0 -22 -16 -38t-39 -16z" />
    <glyph glyph-name="perthousand" unicode="&#x2030;" horiz-adv-x="1179" 
d="M192 -32l-56 28l456 762l57 -30zM198 405q-71 0 -117 46t-46 120q0 71 46 116t117 45t117 -45t46 -116q0 -74 -46 -120t-117 -46zM198 459q21 0 46 10t43 38t18 64q0 47 -30.5 77.5t-76.5 30.5q-45 0 -75.5 -30.5t-30.5 -77.5q0 -50 30 -81t76 -31zM594 -11
q-72 0 -117.5 45.5t-45.5 118.5q0 26 8 54.5t27.5 52t51.5 39.5t76 16q35 0 65 -11.5t52 -33t34 -51.5t12 -66q0 -73 -45.5 -118.5t-117.5 -45.5zM985 -13q-72 0 -118 45.5t-46 118.5q0 26 8 54t28 52t52 40t76 16q71 0 116.5 -45t45.5 -117q0 -73 -45.5 -118.5
t-116.5 -45.5zM594 42q21 0 46 10t42.5 37.5t17.5 63.5q0 23 -10 48.5t-36 43t-60 17.5q-21 0 -46 -10t-43 -37t-18 -62q0 -23 10.5 -49.5t37 -44t59.5 -17.5zM985 39q21 0 46 10.5t42.5 38t17.5 63.5q0 22 -10 48t-36.5 43t-59.5 17q-21 0 -46.5 -10t-43 -36.5t-17.5 -61.5
q0 -36 17.5 -63.5t43 -38t46.5 -10.5z" />
    <glyph glyph-name="guilsinglleft" unicode="&#x2039;" horiz-adv-x="279" 
d="M153 70l-109 180l109 170h72l-113 -170l113 -180h-72z" />
    <glyph glyph-name="guilsinglright" unicode="&#x203a;" horiz-adv-x="280" 
d="M55 70l113 180l-113 170h71l110 -170l-110 -180h-71z" />
    <glyph glyph-name="fraction" unicode="&#x2044;" horiz-adv-x="456" 
d="M59 -6l-52 25l385 693l52 -27z" />
    <glyph glyph-name="Euro" unicode="&#x20ac;" horiz-adv-x="763" 
d="M688 100l27 -58q-31 -20 -87 -35.5t-131 -15.5q-79 0 -153 29t-123.5 87.5t-69.5 127.5h-106v68h93q-3 24 -3 50t3 50h-93v68h107q34 111 126.5 176t218.5 65q64 0 121.5 -14.5t93.5 -39.5l-28 -59q-18 14 -59.5 28t-77 17t-50.5 3q-95 0 -166.5 -47t-102.5 -129h287v-68
h-305q-3 -24 -3 -50t3 -50h305v-68h-288q30 -83 104.5 -131t179.5 -48q31 0 67 5.5t64.5 16.5t45.5 22z" />
    <glyph glyph-name="trademark" unicode="&#x2122;" horiz-adv-x="689" 
d="M602 703l11 -268h-43l-7 200l-84 -134h-35l-84 134l-6 -200h-43l11 268h43l97 -154l97 154h43zM38 660v42h228v-42h-92v-225h-44v225h-92z" />
    <glyph glyph-name="minus" unicode="&#x2212;" horiz-adv-x="556" 
d="M72 265v59h412v-59h-412z" />
    <glyph glyph-name="approxequal" unicode="&#x2248;" horiz-adv-x="553" 
d="M362 341q-41 0 -85.5 21t-61.5 24.5t-29 3.5t-24 -3.5t-20.5 -9t-13.5 -10t-13 -13.5l-43 35q17 23 31.5 35t36 20.5t47.5 8.5q40 0 83.5 -21t62 -24.5t31.5 -3.5q7 0 23 3t31.5 15t20.5 22l43 -34q-5 -9 -22 -27.5t-43.5 -30t-54.5 -11.5zM362 112q-41 0 -85.5 21
t-61.5 24.5t-29 3.5q-16 0 -29 -5t-20.5 -11t-12 -10t-9.5 -11l-43 35q16 27 47 46t68 19q40 0 83.5 -21.5t62 -25t31.5 -3.5q7 0 23 3t31.5 15t20.5 22l43 -34q-5 -9 -22 -27t-43.5 -29.5t-54.5 -11.5z" />
    <glyph glyph-name="notequal" unicode="&#x2260;" horiz-adv-x="595" 
d="M507 373h-168l-52 -168h220v-60h-238l-42 -137h-64l42 137h-150v60h168l52 168h-220v59h238l37 122h64l-37 -122h150v-59z" />
    <glyph glyph-name="uniF8FF" unicode="&#xf8ff;" horiz-adv-x="1451" 
d="M752 522q-25 0 -43 18t-18 43q0 26 18 44t43 18q26 0 44 -18t18 -44q0 -25 -18 -43t-44 -18zM100 270q0 134 9 314h100q0 -4 2 -34.5t3 -62t3 -88t2 -129.5h-119zM604 264q-40 0 -61 17t-21 49l4 87h-22v79l119 30l1 -17h178q10 -64 10 -239h-118q0 92 3 147h-61l3 -65
q4 -4 15 -4q13 0 18 5v-74q-14 -15 -68 -15zM328 265q-43 0 -67.5 29t-24.5 85q0 65 33.5 100t100.5 35q64 0 94 -31.5t30 -85.5v-127h-83l-8 61q-6 -32 -23.5 -49t-51.5 -17zM834 270q0 175 10 239h80q6 -44 6 -76q4 37 26 59t54 22q21 0 39.5 -8.5t27.5 -32.5t10 -65
l3 -138h-114l2 93q0 6 -1.5 17.5t-13.5 11.5q-8 0 -13 -5.5t-5 -23.5q0 -7 1.5 -37t1.5 -56h-114zM1228 265q-63 0 -92.5 33.5t-29.5 90.5q0 37 13 65.5t40.5 44t70.5 15.5q121 0 121 -123q0 -61 -30.5 -93.5t-92.5 -32.5zM366 345q11 0 17.5 8.5t6.5 21.5q0 26 -24 26
q-22 0 -22 -26q0 -14 6 -22t16 -8zM1228 345q10 0 16.5 8.5t6.5 21.5q0 26 -23 26q-21 0 -21 -26q0 -14 5.5 -22t15.5 -8zM390 -50q-61 0 -88 17v83q24 -16 70 -16q29 0 41.5 10t12.5 18q-16 -11 -49 -11q-90 0 -90 83v13h-55l3 -65q6 -4 15 -4q13 0 18 5v-73
q-19 -15 -68 -15q-44 0 -62.5 17.5t-18.5 53.5l3 81h-18v80l117 29l-1 -18h177v-119q0 -15 3.5 -21t11.5 -6q16 0 16 27v119h104q3 -18 6.5 -60t3.5 -78q0 -81 -34 -115.5t-118 -34.5zM558 -44q0 142 10 282h78q2 -11 4.5 -38t2.5 -38q8 38 28.5 59.5t51.5 21.5
q37 0 58.5 -29.5t21.5 -83.5q0 -135 -137 -135l1 -39h-119zM970 -5q-70 0 -105.5 31t-35.5 91q0 27 10.5 56.5t39.5 49.5t75 20q54 0 85 -30.5t31 -85.5q0 -21 -3 -35h-124q4 -6 16 -12t34 -6q34 0 55 12v-75q-23 -16 -78 -16zM938 109h40q1 13 -3.5 20t-13.5 7
q-10 0 -16.5 -7.5t-6.5 -19.5zM670 72q15 0 26 11t11 26q0 11 -5.5 17t-14.5 6q-22 0 -22 -31q0 -14 5 -29zM1098 -10q-10 0 -17 6.5t-7 16.5t7 16.5t17 6.5t17 -6.5t7 -16.5t-7 -16.5t-17 -6.5zM1098 -5q8 0 13 5t5 13t-5 13t-13 5t-13 -5t-5 -13t5 -13t13 -5zM1088 2v23
h11q10 0 10 -7q0 -1 -1.5 -4t-5.5 -3l6 -9h-6l-4 9h-5v-9h-5zM1093 15h7q3 0 4 3q-1 3 -4 3h-7v-6z" />
    <glyph glyph-name="A.salt" horiz-adv-x="745" 
d="M375 712q63 0 115 -20t88.5 -59t56.5 -98.5t20 -134.5v-400h-73v234h-420v-234h-72v400q0 75 20 134t57.5 98.5t90.5 59.5t117 20zM162 299h420v105q0 116 -54.5 179.5t-152.5 63.5q-100 0 -156.5 -64t-56.5 -179v-105z" />
    <glyph glyph-name="Aacute.salt" horiz-adv-x="745" 
d="M495 821l-202 -60l-18 46l192 90zM375 712q63 0 115 -20t88.5 -59t56.5 -98.5t20 -134.5v-400h-73v234h-420v-234h-72v400q0 75 20 134t57.5 98.5t90.5 59.5t117 20zM162 299h420v105q0 116 -54.5 179.5t-152.5 63.5q-100 0 -156.5 -64t-56.5 -179v-105z" />
    <glyph glyph-name="Abreve.salt" horiz-adv-x="745" 
d="M374 769q-42 0 -72.5 18.5t-42 46t-11.5 51.5h59q0 -28 18.5 -45.5t48.5 -17.5t49 17.5t19 45.5h59q0 -24 -11.5 -51.5t-42.5 -46t-73 -18.5zM375 712q63 0 115 -20t88.5 -59t56.5 -98.5t20 -134.5v-400h-73v234h-420v-234h-72v400q0 75 20 134t57.5 98.5t90.5 59.5
t117 20zM162 299h420v105q0 116 -54.5 179.5t-152.5 63.5q-100 0 -156.5 -64t-56.5 -179v-105z" />
    <glyph glyph-name="Acircumflex.salt" horiz-adv-x="745" 
d="M374 829l-68 -65h-70l112 123h56l109 -123h-72zM375 712q63 0 115 -20t88.5 -59t56.5 -98.5t20 -134.5v-400h-73v234h-420v-234h-72v400q0 75 20 134t57.5 98.5t90.5 59.5t117 20zM162 299h420v105q0 116 -54.5 179.5t-152.5 63.5q-100 0 -156.5 -64t-56.5 -179v-105z
" />
    <glyph glyph-name="Adieresis.salt" horiz-adv-x="745" 
d="M266 775q-21 0 -36 14.5t-15 35.5q0 20 15 34.5t36 14.5q20 0 34 -14t15 -35t-14 -35.5t-35 -14.5zM484 774q-20 0 -35 14.5t-15 35.5q0 20 15 34.5t35 14.5q21 0 35 -14t15 -35t-14 -35.5t-36 -14.5zM375 712q63 0 115 -20t88.5 -59t56.5 -98.5t20 -134.5v-400h-73v234
h-420v-234h-72v400q0 75 20 134t57.5 98.5t90.5 59.5t117 20zM162 299h420v105q0 116 -54.5 179.5t-152.5 63.5q-100 0 -156.5 -64t-56.5 -179v-105z" />
    <glyph glyph-name="Agrave.salt" horiz-adv-x="745" 
d="M478 811l-17 -47l-204 53l26 77zM375 712q63 0 115 -20t88.5 -59t56.5 -98.5t20 -134.5v-400h-73v234h-420v-234h-72v400q0 75 20 134t57.5 98.5t90.5 59.5t117 20zM162 299h420v105q0 116 -54.5 179.5t-152.5 63.5q-100 0 -156.5 -64t-56.5 -179v-105z" />
    <glyph glyph-name="Aogonek.salt" horiz-adv-x="745" 
d="M672 -157l21 -46q-30 -24 -80 -24q-31 0 -56.5 15t-35.5 37.5t-10 42.5q0 32 18.5 67t60.5 65h-8v234h-420v-234h-72v400q0 75 20 134t57.5 98.5t90.5 59.5t117 20q63 0 115 -20t88.5 -59t56.5 -98.5t20 -134.5v-400q-31 -17 -55 -49t-24 -68q0 -25 14.5 -40t37.5 -15
q27 0 44 15zM162 299h420v105q0 116 -54.5 179.5t-152.5 63.5q-100 0 -156.5 -64t-56.5 -179v-105z" />
    <glyph glyph-name="Aring.salt" horiz-adv-x="745" 
d="M375 751q-39 0 -65.5 25.5t-26.5 63.5q0 37 26.5 62.5t65.5 25.5t65.5 -25.5t26.5 -62.5q0 -38 -26.5 -63.5t-65.5 -25.5zM375 887q-19 0 -32.5 -13.5t-13.5 -33.5q0 -19 13.5 -33t32.5 -14q20 0 33 14t13 33q0 20 -13 33.5t-33 13.5zM375 712q63 0 115 -20t88.5 -59
t56.5 -98.5t20 -134.5v-400h-73v234h-420v-234h-72v400q0 75 20 134t57.5 98.5t90.5 59.5t117 20zM162 299h420v105q0 116 -54.5 179.5t-152.5 63.5q-100 0 -156.5 -64t-56.5 -179v-105z" />
    <glyph glyph-name="Atilde.salt" horiz-adv-x="745" 
d="M310 818q-16 0 -29 -5.5t-20 -12.5t-10.5 -12t-8.5 -13l-43 35q18 30 46.5 48.5t65.5 18.5q31 0 66 -21.5t46.5 -24.5t17.5 -3q12 0 22 3.5t17 9t11.5 10t7 8.5t4.5 7t5 8l43 -34q-13 -29 -44 -49.5t-68 -20.5q-32 0 -66 21t-45.5 24t-17.5 3zM375 712q63 0 115 -20
t88.5 -59t56.5 -98.5t20 -134.5v-400h-73v234h-420v-234h-72v400q0 75 20 134t57.5 98.5t90.5 59.5t117 20zM162 299h420v105q0 116 -54.5 179.5t-152.5 63.5q-100 0 -156.5 -64t-56.5 -179v-105z" />
    <glyph glyph-name="R.salt" horiz-adv-x="675" 
d="M626 52l25 2v-58q-2 -1 -17 -3t-28 -2q-19 0 -40 6.5t-41.5 22t-39 36.5t-52 68t-47.5 65t-32 30t-34 12h-148v-231h-71v703h225q59 0 108.5 -14.5t85.5 -44t55.5 -75t19.5 -103.5q0 -85 -46.5 -143t-129.5 -80q12 -7 27.5 -22t46 -58t43 -57.5t24.5 -25.5t29 -19.5
t37 -8.5zM317 295q93 0 149 46.5t56 124.5q0 53 -22.5 91t-66.5 60t-109 22h-152v-344h145z" />
    <glyph glyph-name="Racute.salt" horiz-adv-x="675" 
d="M446 821l-202 -60l-18 46l192 90zM626 52l25 2v-58q-2 -1 -17 -3t-28 -2q-19 0 -40 6.5t-41.5 22t-39 36.5t-52 68t-47.5 65t-32 30t-34 12h-148v-231h-71v703h225q59 0 108.5 -14.5t85.5 -44t55.5 -75t19.5 -103.5q0 -85 -46.5 -143t-129.5 -80q12 -7 27.5 -22t46 -58
t43 -57.5t24.5 -25.5t29 -19.5t37 -8.5zM317 295q93 0 149 46.5t56 124.5q0 53 -22.5 91t-66.5 60t-109 22h-152v-344h145z" />
    <glyph glyph-name="Rcaron.salt" horiz-adv-x="675" 
d="M352 764h-56l-109 123h72l67 -65l68 65h70zM626 52l25 2v-58q-2 -1 -17 -3t-28 -2q-19 0 -40 6.5t-41.5 22t-39 36.5t-52 68t-47.5 65t-32 30t-34 12h-148v-231h-71v703h225q59 0 108.5 -14.5t85.5 -44t55.5 -75t19.5 -103.5q0 -85 -46.5 -143t-129.5 -80q12 -7 27.5 -22
t46 -58t43 -57.5t24.5 -25.5t29 -19.5t37 -8.5zM317 295q93 0 149 46.5t56 124.5q0 53 -22.5 91t-66.5 60t-109 22h-152v-344h145z" />
    <glyph glyph-name="uni0156.salt" horiz-adv-x="675" 
d="M626 52l25 2v-58q-2 -1 -17 -3t-28 -2q-19 0 -40 6.5t-41.5 22t-39 36.5t-52 68t-47.5 65t-32 30t-34 12h-148v-231h-71v703h225q59 0 108.5 -14.5t85.5 -44t55.5 -75t19.5 -103.5q0 -85 -46.5 -143t-129.5 -80q12 -7 27.5 -22t46 -58t43 -57.5t24.5 -25.5t29 -19.5
t37 -8.5zM317 295q93 0 149 46.5t56 124.5q0 53 -22.5 91t-66.5 60t-109 22h-152v-344h145zM335 -42q27 0 41.5 -17t14.5 -44q0 -39 -21.5 -74t-56.5 -54l-24 25q16 12 32 32t16 34l-10 -1q-19 0 -31.5 13.5t-12.5 33.5q0 22 14.5 37t37.5 15z" />
    <glyph glyph-name="Y.salt" horiz-adv-x="647" 
d="M530 703h72v-157q0 -50 -11 -101.5t-39 -94t-75 -72t-115 -36.5v-242h-71v242q-56 5 -101.5 27t-78 60.5t-49.5 93.5t-17 123v157h71v-159q0 -113 55.5 -176t154.5 -63q97 0 150.5 63t53.5 176v159z" />
    <glyph glyph-name="Yacute.salt" horiz-adv-x="647" 
d="M442 821l-202 -60l-18 46l192 90zM530 703h72v-157q0 -50 -11 -101.5t-39 -94t-75 -72t-115 -36.5v-242h-71v242q-56 5 -101.5 27t-78 60.5t-49.5 93.5t-17 123v157h71v-159q0 -113 55.5 -176t154.5 -63q97 0 150.5 63t53.5 176v159z" />
    <glyph glyph-name="Ycircumflex.salt" horiz-adv-x="647" 
d="M321 829l-68 -65h-70l112 123h56l109 -123h-72zM530 703h72v-157q0 -50 -11 -101.5t-39 -94t-75 -72t-115 -36.5v-242h-71v242q-56 5 -101.5 27t-78 60.5t-49.5 93.5t-17 123v157h71v-159q0 -113 55.5 -176t154.5 -63q97 0 150.5 63t53.5 176v159z" />
    <glyph glyph-name="Ydieresis.salt" horiz-adv-x="647" 
d="M213 775q-21 0 -36 14.5t-15 35.5q0 20 15 34.5t36 14.5q20 0 34 -14t15 -35t-14 -35.5t-35 -14.5zM431 774q-20 0 -35 14.5t-15 35.5q0 20 15 34.5t35 14.5q21 0 35 -14t15 -35t-14 -35.5t-36 -14.5zM530 703h72v-157q0 -50 -11 -101.5t-39 -94t-75 -72t-115 -36.5v-242
h-71v242q-56 5 -101.5 27t-78 60.5t-49.5 93.5t-17 123v157h71v-159q0 -113 55.5 -176t154.5 -63q97 0 150.5 63t53.5 176v159z" />
    <glyph glyph-name="Ygrave.salt" horiz-adv-x="647" 
d="M425 811l-17 -47l-204 53l26 77zM530 703h72v-157q0 -50 -11 -101.5t-39 -94t-75 -72t-115 -36.5v-242h-71v242q-56 5 -101.5 27t-78 60.5t-49.5 93.5t-17 123v157h71v-159q0 -113 55.5 -176t154.5 -63q97 0 150.5 63t53.5 176v159z" />
    <glyph glyph-name="uni1EF8.salt" horiz-adv-x="647" 
d="M257 818q-16 0 -29 -5.5t-20 -12.5t-10.5 -12t-8.5 -13l-43 35q18 30 46.5 48.5t65.5 18.5q31 0 66 -21.5t46.5 -24.5t17.5 -3q12 0 22 3.5t17 9t11.5 10t7 8.5t4.5 7t5 8l43 -34q-13 -29 -44 -49.5t-68 -20.5q-32 0 -66 21t-45.5 24t-17.5 3zM530 703h72v-157
q0 -50 -11 -101.5t-39 -94t-75 -72t-115 -36.5v-242h-71v242q-56 5 -101.5 27t-78 60.5t-49.5 93.5t-17 123v157h71v-159q0 -113 55.5 -176t154.5 -63q97 0 150.5 63t53.5 176v159z" />
    <glyph glyph-name="glyph265" horiz-adv-x="860" 
d="M819 239l-1 -31h-376q8 -69 58 -112.5t124 -43.5q34 0 67.5 10.5t70.5 40.5l33 -52q-74 -60 -178 -60q-33 0 -74 12t-77.5 44t-56.5 75q-10 -24 -28.5 -48.5t-43.5 -42.5t-60.5 -29t-79.5 -11q-76 0 -118.5 35t-42.5 93q0 63 52.5 101.5t137.5 38.5q87 0 144 -29v43
q0 62 -38.5 100t-103.5 38q-33 0 -65.5 -7.5t-77.5 -30.5l-23 53q54 27 96.5 35t83.5 8q62 0 110 -26.5t71 -75.5q29 47 76.5 74.5t105.5 27.5q94 0 154 -64t60 -166zM607 408q-64 0 -108 -39t-55 -103h307q-4 66 -45.5 104t-98.5 38zM210 45q29 0 58 9.5t53 31t36.5 47.5
t12.5 44q-26 15 -63.5 22.5t-73.5 7.5q-60 0 -92.5 -23t-32.5 -61q0 -36 28.5 -57t73.5 -21z" />
    <glyph glyph-name="i.locl" horiz-adv-x="226" 
d="M112 552q-22 1 -37.5 15.5t-15.5 36.5t15.5 37.5t36.5 15.5q23 0 39 -14.5t16 -37.5t-15.5 -37.5t-38.5 -15.5zM77 0l1 460h71v-460h-72z" />
    <glyph glyph-name="a.salt" horiz-adv-x="511" 
d="M242 469q65 0 109.5 -26t67 -68.5t22.5 -100.5v-274h-65l-2 83q-15 -26 -42.5 -48.5t-63 -33t-71.5 -10.5q-76 0 -118.5 35t-42.5 93q0 39 23.5 73t69.5 51.5t99 17.5q82 0 142 -26v38q0 63 -38 100.5t-104 37.5q-33 0 -65.5 -7.5t-77.5 -30.5l-23 53q45 23 82.5 33
t97.5 10zM208 47q48 0 84 20.5t57 52t21 57.5q-26 15 -62.5 22.5t-69.5 7.5q-63 0 -96.5 -23t-33.5 -61q0 -36 27.5 -56t72.5 -20z" />
    <glyph glyph-name="aacute.salt" horiz-adv-x="511" 
d="M348 626l-180 -95l-24 42l170 110zM242 469q65 0 109.5 -26t67 -68.5t22.5 -100.5v-274h-65l-2 83q-15 -26 -42.5 -48.5t-63 -33t-71.5 -10.5q-76 0 -118.5 35t-42.5 93q0 39 23.5 73t69.5 51.5t99 17.5q82 0 142 -26v38q0 63 -38 100.5t-104 37.5q-33 0 -65.5 -7.5
t-77.5 -30.5l-23 53q45 23 82.5 33t97.5 10zM208 47q48 0 84 20.5t57 52t21 57.5q-26 15 -62.5 22.5t-69.5 7.5q-63 0 -96.5 -23t-33.5 -61q0 -36 27.5 -56t72.5 -20z" />
    <glyph glyph-name="abreve.salt" horiz-adv-x="511" 
d="M245 536q-60 0 -98 38.5t-38 102.5h56q0 -40 22.5 -65t57.5 -25q36 0 58.5 25t22.5 65h56q0 -64 -38 -102.5t-99 -38.5zM242 469q65 0 109.5 -26t67 -68.5t22.5 -100.5v-274h-65l-2 83q-15 -26 -42.5 -48.5t-63 -33t-71.5 -10.5q-76 0 -118.5 35t-42.5 93q0 39 23.5 73
t69.5 51.5t99 17.5q82 0 142 -26v38q0 63 -38 100.5t-104 37.5q-33 0 -65.5 -7.5t-77.5 -30.5l-23 53q45 23 82.5 33t97.5 10zM208 47q48 0 84 20.5t57 52t21 57.5q-26 15 -62.5 22.5t-69.5 7.5q-63 0 -96.5 -23t-33.5 -61q0 -36 27.5 -56t72.5 -20z" />
    <glyph glyph-name="acircumflex.salt" horiz-adv-x="511" 
d="M246 620l-68 -86h-71l112 147h56l109 -147h-70zM242 469q65 0 109.5 -26t67 -68.5t22.5 -100.5v-274h-65l-2 83q-15 -26 -42.5 -48.5t-63 -33t-71.5 -10.5q-76 0 -118.5 35t-42.5 93q0 39 23.5 73t69.5 51.5t99 17.5q82 0 142 -26v38q0 63 -38 100.5t-104 37.5
q-33 0 -65.5 -7.5t-77.5 -30.5l-23 53q45 23 82.5 33t97.5 10zM208 47q48 0 84 20.5t57 52t21 57.5q-26 15 -62.5 22.5t-69.5 7.5q-63 0 -96.5 -23t-33.5 -61q0 -36 27.5 -56t72.5 -20z" />
    <glyph glyph-name="adieresis.salt" horiz-adv-x="511" 
d="M143 565q-21 0 -36 14.5t-15 34.5q0 21 15 35.5t36 14.5q20 0 34 -14.5t15 -35.5q1 -20 -14 -34.5t-35 -14.5zM351 563q-20 0 -35 14.5t-15 35.5t15 35.5t35 14.5q21 0 35 -14.5t15 -35.5t-14 -35.5t-36 -14.5zM242 469q65 0 109.5 -26t67 -68.5t22.5 -100.5v-274h-65
l-2 83q-15 -26 -42.5 -48.5t-63 -33t-71.5 -10.5q-76 0 -118.5 35t-42.5 93q0 39 23.5 73t69.5 51.5t99 17.5q82 0 142 -26v38q0 63 -38 100.5t-104 37.5q-33 0 -65.5 -7.5t-77.5 -30.5l-23 53q45 23 82.5 33t97.5 10zM208 47q48 0 84 20.5t57 52t21 57.5q-26 15 -62.5 22.5
t-69.5 7.5q-63 0 -96.5 -23t-33.5 -61q0 -36 27.5 -56t72.5 -20z" />
    <glyph glyph-name="agrave.salt" horiz-adv-x="511" 
d="M342 573l-24 -42l-180 95l34 57zM242 469q65 0 109.5 -26t67 -68.5t22.5 -100.5v-274h-65l-2 83q-15 -26 -42.5 -48.5t-63 -33t-71.5 -10.5q-76 0 -118.5 35t-42.5 93q0 39 23.5 73t69.5 51.5t99 17.5q82 0 142 -26v38q0 63 -38 100.5t-104 37.5q-33 0 -65.5 -7.5
t-77.5 -30.5l-23 53q45 23 82.5 33t97.5 10zM208 47q48 0 84 20.5t57 52t21 57.5q-26 15 -62.5 22.5t-69.5 7.5q-63 0 -96.5 -23t-33.5 -61q0 -36 27.5 -56t72.5 -20z" />
    <glyph glyph-name="amacron.salt" horiz-adv-x="511" 
d="M391 631v-58h-290v58h290zM242 469q65 0 109.5 -26t67 -68.5t22.5 -100.5v-274h-65l-2 83q-15 -26 -42.5 -48.5t-63 -33t-71.5 -10.5q-76 0 -118.5 35t-42.5 93q0 39 23.5 73t69.5 51.5t99 17.5q82 0 142 -26v38q0 63 -38 100.5t-104 37.5q-33 0 -65.5 -7.5t-77.5 -30.5
l-23 53q45 23 82.5 33t97.5 10zM208 47q48 0 84 20.5t57 52t21 57.5q-26 15 -62.5 22.5t-69.5 7.5q-63 0 -96.5 -23t-33.5 -61q0 -36 27.5 -56t72.5 -20z" />
    <glyph glyph-name="aogonek.salt" horiz-adv-x="511" 
d="M448 -168l23 -39q-33 -29 -78 -29q-46 0 -73.5 26.5t-27.5 71.5q0 32 19.5 68.5t64.5 69.5l-2 83q-15 -26 -42.5 -48.5t-63 -33t-71.5 -10.5q-76 0 -118.5 35t-42.5 93q0 39 23.5 73t69.5 51.5t99 17.5q82 0 142 -26v38q0 63 -38 100.5t-104 37.5q-33 0 -65.5 -7.5
t-77.5 -30.5l-23 53q45 23 82.5 33t97.5 10q65 0 109.5 -26t67 -68.5t22.5 -100.5v-274q-35 -20 -63 -54.5t-28 -70.5q0 -29 15 -44t36 -15q27 0 47 16zM208 47q48 0 84 20.5t57 52t21 57.5q-26 15 -62.5 22.5t-69.5 7.5q-63 0 -96.5 -23t-33.5 -61q0 -36 27.5 -56t72.5 -20
z" />
    <glyph glyph-name="aring.salt" horiz-adv-x="511" 
d="M246 525q-29 0 -52.5 15t-32.5 36t-9 39t9 39t32.5 36.5t52.5 15.5q19 0 41 -9t37.5 -31.5t15.5 -50.5q0 -18 -9 -39t-32.5 -36t-52.5 -15zM246 664q-20 0 -34 -13t-14 -35t14 -35.5t34 -13.5t34 13.5t14 35.5q0 21 -14 34.5t-34 13.5zM242 469q65 0 109.5 -26t67 -68.5
t22.5 -100.5v-274h-65l-2 83q-15 -26 -42.5 -48.5t-63 -33t-71.5 -10.5q-76 0 -118.5 35t-42.5 93q0 39 23.5 73t69.5 51.5t99 17.5q82 0 142 -26v38q0 63 -38 100.5t-104 37.5q-33 0 -65.5 -7.5t-77.5 -30.5l-23 53q45 23 82.5 33t97.5 10zM208 47q48 0 84 20.5t57 52
t21 57.5q-26 15 -62.5 22.5t-69.5 7.5q-63 0 -96.5 -23t-33.5 -61q0 -36 27.5 -56t72.5 -20z" />
    <glyph glyph-name="atilde.salt" horiz-adv-x="511" 
d="M183 602q-12 0 -27.5 -6.5t-32.5 -40.5l-43 35q26 43 51 57t47 14q18 0 33 -4.5t25 -10.5t34 -22.5t43 -16.5q37 0 56 51l43 -34q-10 -27 -39 -51t-60 -24q-10 0 -22.5 2.5t-24 8.5t-38.5 24t-45 18zM242 469q65 0 109.5 -26t67 -68.5t22.5 -100.5v-274h-65l-2 83
q-15 -26 -42.5 -48.5t-63 -33t-71.5 -10.5q-76 0 -118.5 35t-42.5 93q0 39 23.5 73t69.5 51.5t99 17.5q82 0 142 -26v38q0 63 -38 100.5t-104 37.5q-33 0 -65.5 -7.5t-77.5 -30.5l-23 53q45 23 82.5 33t97.5 10zM208 47q48 0 84 20.5t57 52t21 57.5q-26 15 -62.5 22.5
t-69.5 7.5q-63 0 -96.5 -23t-33.5 -61q0 -36 27.5 -56t72.5 -20z" />
    <glyph glyph-name="A.c2sc" horiz-adv-x="543" 
d="M451 0l-49 113h-262l-49 -113h-74l231 516h48l229 -516h-74zM167 174h208l-104 239z" />
    <glyph glyph-name="Aacute.c2sc" horiz-adv-x="543" 
d="M397 644l-184 -91l-24 43l172 112zM451 0l-49 113h-262l-49 -113h-74l231 516h48l229 -516h-74zM167 174h208l-104 239z" />
    <glyph glyph-name="Abreve.c2sc" horiz-adv-x="543" 
d="M270 560q-59 0 -95.5 38t-36.5 100h56q0 -39 21 -63t55 -24q33 0 54 24t21 63h56q0 -64 -37.5 -101t-93.5 -37zM451 0l-49 113h-262l-49 -113h-74l231 516h48l229 -516h-74zM167 174h208l-104 239z" />
    <glyph glyph-name="Acircumflex.c2sc" horiz-adv-x="543" 
d="M269 645l-68 -86h-71l112 145h56l109 -145h-70zM451 0l-49 113h-262l-49 -113h-74l231 516h48l229 -516h-74zM167 174h208l-104 239z" />
    <glyph glyph-name="Adieresis.c2sc" horiz-adv-x="543" 
d="M172 581q-21 0 -36 14.5t-15 35.5q0 20 15 34.5t36 14.5q20 0 34 -14t15 -35t-14 -35.5t-35 -14.5zM370 580q-20 0 -35 14.5t-15 35.5q0 20 15 34.5t35 14.5q21 0 35 -14t15 -35t-14 -35.5t-36 -14.5zM451 0l-49 113h-262l-49 -113h-74l231 516h48l229 -516h-74zM167 174
h208l-104 239z" />
    <glyph glyph-name="Agrave.c2sc" horiz-adv-x="543" 
d="M361 596l-24 -43l-184 91l36 64zM451 0l-49 113h-262l-49 -113h-74l231 516h48l229 -516h-74zM167 174h208l-104 239z" />
    <glyph glyph-name="Amacron.aalt" horiz-adv-x="543" 
d="M411 654v-58h-284v58h284zM451 0l-49 113h-262l-49 -113h-74l231 516h48l229 -516h-74zM167 174h208l-104 239z" />
    <glyph glyph-name="Aogonek.c2sc" horiz-adv-x="543" 
d="M532 -167l19 -41q-31 -29 -78 -29q-43 0 -71.5 25t-28.5 72q0 35 19.5 72t64.5 68h-6l-49 113h-262l-49 -113h-74l231 516h48l229 -516q-35 -18 -64.5 -51.5t-29.5 -71.5q0 -30 14 -46t37 -16q28 0 50 18zM167 174h208l-104 239z" />
    <glyph glyph-name="Aring.c2sc" horiz-adv-x="543" 
d="M269 548q-39 0 -65.5 25.5t-26.5 63.5q0 37 26.5 62.5t65.5 25.5t65.5 -25.5t26.5 -62.5q0 -38 -26.5 -63.5t-65.5 -25.5zM269 684q-19 0 -32.5 -13.5t-13.5 -33.5q0 -19 13.5 -33t32.5 -14q20 0 33 14t13 33q0 20 -13 33.5t-33 13.5zM451 0l-49 113h-262l-49 -113h-74
l231 516h48l229 -516h-74zM167 174h208l-104 239z" />
    <glyph glyph-name="Atilde.c2sc" horiz-adv-x="543" 
d="M210 631q-17 0 -32 -10t-25 -26l-43 34q4 10 19.5 26t38 25t44.5 9q18 0 33 -5.5t40.5 -20.5t40.5 -15q17 0 32 10t25 26l43 -34q-4 -10 -19.5 -26t-38 -25t-44.5 -9q-18 0 -34 5.5t-40.5 20.5t-39.5 15zM451 0l-49 113h-262l-49 -113h-74l231 516h48l229 -516h-74z
M167 174h208l-104 239z" />
    <glyph glyph-name="AE.aalt" horiz-adv-x="685" 
d="M1 0l292 516h343v-65h-243v-157h208v-59h-208v-171h243v-64h-316v123h-176l-69 -123h-74zM175 183h145v265z" />
    <glyph glyph-name="AEacute.aalt" horiz-adv-x="685" 
d="M382 552l-24 43l172 112l36 -64zM1 0l292 516h343v-65h-243v-157h208v-59h-208v-171h243v-64h-316v123h-176l-69 -123h-74zM175 183h145v265z" />
    <glyph glyph-name="B.aalt" horiz-adv-x="526" 
d="M370 264q48 -11 76.5 -43t28.5 -74q0 -69 -49.5 -108t-143.5 -39h-198v516h182q98 0 145 -37t47 -101q0 -39 -25 -70t-63 -44zM386 374q0 36 -32.5 58.5t-96.5 22.5h-102v-163h126q50 0 77.5 22t27.5 60zM275 61q61 0 93.5 23.5t32.5 62.5q0 36 -28.5 60t-87.5 24h-130
v-170h120z" />
    <glyph glyph-name="C.aalt" horiz-adv-x="527" 
d="M318 -9q-56 0 -106 20t-87 56.5t-57.5 86t-20.5 104.5t20.5 104.5t58 86t89 56.5t109.5 20q96 0 172 -53l-30 -56q-60 43 -134 43q-44 0 -88 -16.5t-73 -49.5t-39.5 -68t-10.5 -67q0 -42 15.5 -79t43.5 -64.5t65.5 -42.5t79.5 -15q76 0 138 40l29 -58q-37 -22 -77.5 -35
t-96.5 -13z" />
    <glyph glyph-name="Cacute.aalt" horiz-adv-x="527" 
d="M261 553l-24 43l172 112l36 -64zM318 -9q-56 0 -106 20t-87 56.5t-57.5 86t-20.5 104.5t20.5 104.5t58 86t89 56.5t109.5 20q96 0 172 -53l-30 -56q-60 43 -134 43q-44 0 -88 -16.5t-73 -49.5t-39.5 -68t-10.5 -67q0 -42 15.5 -79t43.5 -64.5t65.5 -42.5t79.5 -15
q76 0 138 40l29 -58q-37 -22 -77.5 -35t-96.5 -13z" />
    <glyph glyph-name="Ccaron.aalt" horiz-adv-x="527" 
d="M344 559h-56l-109 145h70l68 -86l68 86h71zM325 57q76 0 138 40l29 -58q-37 -22 -77.5 -35t-96.5 -13t-106 20t-87 56.5t-57.5 86t-20.5 104.5t20.5 104.5t58 86t89 56.5t109.5 20q96 0 172 -53l-30 -56q-60 43 -134 43q-44 0 -88 -16.5t-73 -49.5t-39.5 -68t-10.5 -67
q0 -42 15.5 -79t43.5 -64.5t65.5 -42.5t79.5 -15z" />
    <glyph glyph-name="Ccedilla.aalt" horiz-adv-x="527" 
d="M492 39q-75 -45 -159 -48l-11 -34q46 -3 76 -28.5t30 -68.5q0 -21 -10.5 -44.5t-39.5 -39.5t-68 -16q-26 0 -54.5 8t-48.5 24l19 38q10 -8 31.5 -16t47.5 -9q29 -1 47 14t18 40q0 26 -21 41t-59 15l-16 -1l-10 13l21 66q-37 4 -77.5 20t-80.5 53t-60 89t-20 103
q0 55 20.5 104.5t58 86t89 56.5t109.5 20q96 0 172 -53l-30 -56q-60 43 -134 43q-44 0 -88 -16.5t-73 -49.5t-39.5 -68t-10.5 -67q0 -42 15.5 -79t43.5 -64.5t65.5 -42.5t79.5 -15q76 0 138 40z" />
    <glyph glyph-name="Cdotaccent.aalt" horiz-adv-x="527" 
d="M318 580q-21 0 -36.5 15t-15.5 37q0 21 15.5 36t36.5 15t36 -15t16 -36q1 -22 -14.5 -37t-37.5 -15zM318 -9q-56 0 -106 20t-87 56.5t-57.5 86t-20.5 104.5t20.5 104.5t58 86t89 56.5t109.5 20q96 0 172 -53l-30 -56q-60 43 -134 43q-44 0 -88 -16.5t-73 -49.5t-39.5 -68
t-10.5 -67q0 -42 15.5 -79t43.5 -64.5t65.5 -42.5t79.5 -15q76 0 138 40l29 -58q-37 -22 -77.5 -35t-96.5 -13z" />
    <glyph glyph-name="D.aalt" horiz-adv-x="599" 
d="M273 516q61 0 113 -18.5t88.5 -52.5t56.5 -82t20 -105t-20 -105t-56.5 -82t-88.5 -52.5t-113 -18.5h-189v516h189zM277 62q89 0 144.5 54.5t55.5 140.5q0 88 -55.5 142.5t-144.5 54.5h-122v-392h122z" />
    <glyph glyph-name="Eth.aalt" horiz-adv-x="599" 
d="M273 516q61 0 113 -18.5t88.5 -52.5t56.5 -82t20 -105t-20 -105t-56.5 -82t-88.5 -52.5t-113 -18.5h-189v234h-82v52h82v230h189zM277 62q89 0 144.5 54.5t55.5 140.5q0 88 -55.5 142.5t-144.5 54.5h-122v-168h133v-52h-133v-172h122z" />
    <glyph glyph-name="Dcaron.aalt" horiz-adv-x="599" 
d="M319 559h-56l-109 145h70l68 -86l68 86h71zM273 516q61 0 113 -18.5t88.5 -52.5t56.5 -82t20 -105t-20 -105t-56.5 -82t-88.5 -52.5t-113 -18.5h-189v516h189zM277 62q89 0 144.5 54.5t55.5 140.5q0 88 -55.5 142.5t-144.5 54.5h-122v-392h122z" />
    <glyph glyph-name="Dcroat.aalt" horiz-adv-x="599" 
d="M273 516q61 0 113 -18.5t88.5 -52.5t56.5 -82t20 -105t-20 -105t-56.5 -82t-88.5 -52.5t-113 -18.5h-189v234h-82v52h82v230h189zM277 62q89 0 144.5 54.5t55.5 140.5q0 88 -55.5 142.5t-144.5 54.5h-122v-168h133v-52h-133v-172h122z" />
    <glyph glyph-name="E.aalt" horiz-adv-x="485" 
d="M435 455h-280v-162h245v-61h-245v-170h280v-62h-351v516h351v-61z" />
    <glyph glyph-name="Eacute.aalt" horiz-adv-x="485" 
d="M396 644l-184 -91l-24 43l172 112zM435 455h-280v-162h245v-61h-245v-170h280v-62h-351v516h351v-61z" />
    <glyph glyph-name="Ecaron.aalt" horiz-adv-x="485" 
d="M295 559h-56l-109 145h70l68 -86l68 86h71zM435 455h-280v-162h245v-61h-245v-170h280v-62h-351v516h351v-61z" />
    <glyph glyph-name="Ecircumflex.aalt" horiz-adv-x="485" 
d="M268 645l-68 -86h-71l112 145h56l109 -145h-70zM435 455h-280v-162h245v-61h-245v-170h280v-62h-351v516h351v-61z" />
    <glyph glyph-name="Edieresis.aalt" horiz-adv-x="485" 
d="M171 581q-21 0 -36 14.5t-15 35.5q0 20 15 34.5t36 14.5q20 0 34 -14t15 -35t-14 -35.5t-35 -14.5zM369 580q-20 0 -35 14.5t-15 35.5q0 20 15 34.5t35 14.5q21 0 35 -14t15 -35t-14 -35.5t-36 -14.5zM435 455h-280v-162h245v-61h-245v-170h280v-62h-351v516h351v-61z
" />
    <glyph glyph-name="Edotaccent.aalt" horiz-adv-x="485" 
d="M269 580q-21 0 -36.5 15t-15.5 37q0 21 15.5 36t36.5 15t36 -15t16 -36q1 -22 -14.5 -37t-37.5 -15zM435 455h-280v-162h245v-61h-245v-170h280v-62h-351v516h351v-61z" />
    <glyph glyph-name="Egrave.aalt" horiz-adv-x="485" 
d="M360 596l-24 -43l-184 91l36 64zM435 455h-280v-162h245v-61h-245v-170h280v-62h-351v516h351v-61z" />
    <glyph glyph-name="Emacron.aalt" horiz-adv-x="485" 
d="M410 654v-58h-284v58h284zM435 455h-280v-162h245v-61h-245v-170h280v-62h-351v516h351v-61z" />
    <glyph glyph-name="Eogonek.aalt" horiz-adv-x="485" 
d="M442 -167l19 -41q-31 -29 -78 -29q-43 0 -71.5 25t-28.5 72q0 35 19.5 72t64.5 68h-283v516h351v-61h-280v-162h245v-61h-245v-170h280v-62q-35 -18 -64.5 -51.5t-29.5 -71.5q0 -30 14 -46t37 -16q28 0 50 18z" />
    <glyph glyph-name="F.aalt" horiz-adv-x="462" 
d="M428 454h-273v-196h241v-62h-241v-196h-71v516h344v-62z" />
    <glyph glyph-name="G.aalt" horiz-adv-x="578" 
d="M458 244h67v-198q-41 -28 -93 -41.5t-101 -13.5q-60 0 -112.5 20t-91 56t-59.5 85t-21 105t21 105.5t59.5 86t91 56.5t112.5 20q49 0 95 -12.5t80 -35.5l-32 -56q-24 17 -61 27t-72 10q-34 0 -71 -9.5t-74.5 -36.5t-56.5 -69t-19 -85q0 -33 11.5 -67.5t39 -64.5t70 -50
t94.5 -20q31 0 65.5 8.5t57.5 19.5v160z" />
    <glyph glyph-name="Gbreve.aalt" horiz-adv-x="578" 
d="M321 560q-59 0 -95.5 38t-36.5 100h56q0 -39 21 -63t55 -24q33 0 54 24t21 63h56q0 -64 -37.5 -101t-93.5 -37zM458 244h67v-198q-41 -28 -93 -41.5t-101 -13.5q-60 0 -112.5 20t-91 56t-59.5 85t-21 105t21 105.5t59.5 86t91 56.5t112.5 20q49 0 95 -12.5t80 -35.5
l-32 -56q-24 17 -61 27t-72 10q-34 0 -71 -9.5t-74.5 -36.5t-56.5 -69t-19 -85q0 -33 11.5 -67.5t39 -64.5t70 -50t94.5 -20q31 0 65.5 8.5t57.5 19.5v160z" />
    <glyph glyph-name="uni0122.aalt" horiz-adv-x="578" 
d="M458 244h67v-198q-41 -28 -93 -41.5t-101 -13.5q-60 0 -112.5 20t-91 56t-59.5 85t-21 105t21 105.5t59.5 86t91 56.5t112.5 20q49 0 95 -12.5t80 -35.5l-32 -56q-24 17 -61 27t-72 10q-34 0 -71 -9.5t-74.5 -36.5t-56.5 -69t-19 -85q0 -33 11.5 -67.5t39 -64.5t70 -50
t94.5 -20q31 0 65.5 8.5t57.5 19.5v160zM332 -62q27 0 42.5 -17.5t15.5 -44.5q0 -43 -22.5 -82.5t-58.5 -60.5l-25 26q17 13 33.5 36.5t15.5 39.5l-11 -1q-19 0 -32 14.5t-13 35.5q0 23 15.5 38.5t39.5 15.5z" />
    <glyph glyph-name="Gdotaccent.aalt" horiz-adv-x="578" 
d="M321 580q-21 0 -36.5 15t-15.5 37q0 21 15.5 36t36.5 15t36 -15t16 -36q1 -22 -14.5 -37t-37.5 -15zM458 244h67v-198q-41 -28 -93 -41.5t-101 -13.5q-60 0 -112.5 20t-91 56t-59.5 85t-21 105t21 105.5t59.5 86t91 56.5t112.5 20q49 0 95 -12.5t80 -35.5l-32 -56
q-24 17 -61 27t-72 10q-34 0 -71 -9.5t-74.5 -36.5t-56.5 -69t-19 -85q0 -33 11.5 -67.5t39 -64.5t70 -50t94.5 -20q31 0 65.5 8.5t57.5 19.5v160z" />
    <glyph glyph-name="H.aalt" horiz-adv-x="629" 
d="M473 516h72v-516h-72v230h-317v-230h-72v516h72v-223h317v223z" />
    <glyph glyph-name="Hbar.aalt" horiz-adv-x="629" 
d="M613 422v-54h-68v-368h-72v230h-317v-230h-72v368h-65v54h65v94h72v-94h317v94h72v-94h68zM473 293v75h-317v-75h317z" />
    <glyph glyph-name="I.aalt" horiz-adv-x="239" 
d="M84 0v516h71v-516h-71z" />
    <glyph glyph-name="dotlessi.aalt" horiz-adv-x="239" 
d="M84 0v516h71v-516h-71z" />
    <glyph glyph-name="Iacute.aalt" horiz-adv-x="239" 
d="M63 553l-24 43l172 112l36 -64zM84 0v516h71v-516h-71z" />
    <glyph glyph-name="Icircumflex.aalt" horiz-adv-x="239" 
d="M148 704l109 -145h-70l-68 86l-68 -86h-71l112 145h56zM84 0v516h71v-516h-71z" />
    <glyph glyph-name="Idieresis.aalt" horiz-adv-x="239" 
d="M22 581q-21 0 -36 14.5t-15 35.5q0 20 15 34.5t36 14.5q20 0 34 -14t15 -35t-14 -35.5t-35 -14.5zM220 580q-20 0 -35 14.5t-15 35.5q0 20 15 34.5t35 14.5q21 0 35 -14t15 -35t-14 -35.5t-36 -14.5zM84 0v516h71v-516h-71z" />
    <glyph glyph-name="Igrave.aalt" horiz-adv-x="239" 
d="M187 553l-184 91l36 64l172 -112zM84 0v516h71v-516h-71z" />
    <glyph glyph-name="IJ.aalt" horiz-adv-x="614" 
d="M84 0v516h71v-516h-71zM367 -9q-28 0 -59 7.5t-51 20.5l27 60q14 -8 35.5 -13t39.5 -5q53 0 79.5 28t26.5 93v334h71v-343q0 -90 -45 -136t-124 -46z" />
    <glyph glyph-name="Imacron.aalt" horiz-adv-x="239" 
d="M6 596v58h227v-58h-227zM84 0v516h71v-516h-71z" />
    <glyph glyph-name="Iogonek.aalt" horiz-adv-x="239" 
d="M162 -167l19 -41q-31 -29 -78 -29q-43 0 -71.5 25t-28.5 72q0 35 19.5 72t64.5 68h-3v516h71v-516q-35 -18 -64.5 -51.5t-29.5 -71.5q0 -30 14 -46t37 -16q28 0 50 18z" />
    <glyph glyph-name="Itilde.aalt" horiz-adv-x="239" 
d="M163 590q-15 0 -27 5.5t-32 20.5t-32 15q-9 0 -20.5 -6.5t-25.5 -29.5l-34 34q3 9 15.5 25.5t31 25.5t35.5 9q24 0 51 -20.5t40 -20.5q14 0 26.5 10.5t18.5 25.5l35 -34q-3 -9 -15.5 -25.5t-31 -25.5t-35.5 -9zM84 0v516h71v-516h-71z" />
    <glyph glyph-name="J.aalt" horiz-adv-x="375" 
d="M128 -9q-28 0 -59 7.5t-51 20.5l27 60q14 -8 35.5 -13t39.5 -5q53 0 79.5 28t26.5 93v334h71v-343q0 -90 -45 -136t-124 -46z" />
    <glyph glyph-name="uni0237.aalt" horiz-adv-x="375" 
d="M128 -9q-28 0 -59 7.5t-51 20.5l27 60q14 -8 35.5 -13t39.5 -5q53 0 79.5 28t26.5 93v334h71v-343q0 -90 -45 -136t-124 -46z" />
    <glyph glyph-name="K.aalt" horiz-adv-x="512" 
d="M508 0h-98l-255 230v-230h-71v516h71v-237l242 237h90l-262 -257z" />
    <glyph glyph-name="uni0136.aalt" horiz-adv-x="512" 
d="M225 259l283 -259h-98l-255 230v-230h-71v516h71v-237l242 237h90zM272 -62q27 0 42.5 -17.5t15.5 -44.5q0 -43 -22.5 -82.5t-58.5 -60.5l-25 26q17 13 33.5 36.5t15.5 39.5l-11 -1q-19 0 -32 14.5t-13 35.5q0 23 15.5 38.5t39.5 15.5z" />
    <glyph glyph-name="kgreenlandic.aalt" horiz-adv-x="512" 
d="M508 0h-98l-255 230v-230h-71v516h71v-237l242 237h90l-262 -257z" />
    <glyph glyph-name="L.aalt" horiz-adv-x="456" 
d="M155 62h282v-62h-353v516h71v-454z" />
    <glyph glyph-name="Lacute.aalt" horiz-adv-x="456" 
d="M208 708l36 -64l-184 -91l-24 43zM155 62h282v-62h-353v516h71v-454z" />
    <glyph glyph-name="Lcaron.aalt" horiz-adv-x="456" 
d="M155 62h282v-62h-353v516h71v-454zM323 416q-18 0 -30.5 13.5t-12.5 34.5q0 22 15.5 37t39.5 15t39 -16t15 -43q1 -42 -22 -82t-58 -62l-24 27q16 12 32.5 36t16.5 42z" />
    <glyph glyph-name="uni013B.aalt" horiz-adv-x="456" 
d="M155 62h282v-62h-353v516h71v-454zM262 -62q27 0 42.5 -17.5t15.5 -44.5q0 -43 -22.5 -82.5t-58.5 -60.5l-25 26q17 13 33.5 36.5t15.5 39.5l-11 -1q-19 0 -32 14.5t-13 35.5q0 23 15.5 38.5t39.5 15.5z" />
    <glyph glyph-name="Ldot.aalt" horiz-adv-x="456" 
d="M155 62h282v-62h-353v516h71v-454zM336 221q-23 0 -39 16.5t-16 38.5q0 23 16 39t39 16t39 -16t16 -39q0 -22 -16 -38.5t-39 -16.5z" />
    <glyph glyph-name="Lslash.aalt" horiz-adv-x="456" 
d="M155 62h282v-62h-353v220l-72 -40l-28 48l100 55v233h71v-194l86 48l28 -48l-114 -63v-197z" />
    <glyph glyph-name="M.aalt" horiz-adv-x="699" 
d="M624 0h-71l-10 371l-172 -297h-47l-167 295l-12 -369h-71l21 516h47l205 -357l213 357h45z" />
    <glyph glyph-name="N.aalt" horiz-adv-x="623" 
d="M468 516h71v-528h-41l-343 413v-401h-71v528h44l340 -408v396z" />
    <glyph glyph-name="Nacute.aalt" horiz-adv-x="623" 
d="M433 644l-184 -91l-24 43l172 112zM468 516h71v-528h-41l-343 413v-401h-71v528h44l340 -408v396z" />
    <glyph glyph-name="napostrophe.aalt" horiz-adv-x="623" 
d="M17 745q24 0 39 -16t15 -43q1 -42 -22 -82t-58 -62l-24 27q16 12 32.5 36t16.5 42l-11 -2q-18 0 -30.5 13.5t-12.5 34.5q0 22 15.5 37t39.5 15zM468 516h71v-528h-41l-343 413v-401h-71v528h44l340 -408v396z" />
    <glyph glyph-name="Ncaron.aalt" horiz-adv-x="623" 
d="M332 559h-56l-109 145h70l68 -86l68 86h71zM468 516h71v-528h-41l-343 413v-401h-71v528h44l340 -408v396z" />
    <glyph glyph-name="uni0145.aalt" horiz-adv-x="623" 
d="M468 516h71v-528h-41l-343 413v-401h-71v528h44l340 -408v396zM310 -62q27 0 42.5 -17.5t15.5 -44.5q0 -43 -22.5 -82.5t-58.5 -60.5l-25 26q17 13 33.5 36.5t15.5 39.5l-11 -1q-19 0 -32 14.5t-13 35.5q0 23 15.5 38.5t39.5 15.5z" />
    <glyph glyph-name="Eng.aalt" horiz-adv-x="623" 
d="M468 516h71v-539q0 -88 -43 -134.5t-124 -46.5q-71 0 -112 27l28 61q12 -8 32.5 -12.5t39.5 -4.5q54 0 81 27t27 84v46l-313 377v-401h-71v528h44l340 -408v396z" />
    <glyph glyph-name="Ntilde.aalt" horiz-adv-x="623" 
d="M246 631q-17 0 -32 -10t-25 -26l-43 34q4 10 19.5 26t38 25t44.5 9q18 0 33 -5.5t40.5 -20.5t40.5 -15q17 0 32 10t25 26l43 -34q-4 -10 -19.5 -26t-38 -25t-44.5 -9q-18 0 -34 5.5t-40.5 20.5t-39.5 15zM468 516h71v-528h-41l-343 413v-401h-71v528h44l340 -408v396z
" />
    <glyph glyph-name="O.c2sc" horiz-adv-x="648" 
d="M324 -9q-58 0 -109.5 20t-89 56.5t-58 85.5t-20.5 104t20.5 104t58 86t89 57.5t109.5 20.5q43 0 90 -13.5t93.5 -51t70 -93t23.5 -110.5t-20.5 -104.5t-58 -85.5t-89 -56t-109.5 -20zM324 57q31 0 65.5 10t69 37.5t52 69t17.5 83.5q0 31 -10.5 65t-38.5 68t-70.5 51.5
t-84.5 17.5q-31 0 -66 -10.5t-69.5 -38.5t-52 -70t-17.5 -83q0 -52 26.5 -100.5t76 -74t102.5 -25.5z" />
    <glyph glyph-name="Oacute.aalt" horiz-adv-x="648" 
d="M267 553l-24 43l172 112l36 -64zM324 -9q-58 0 -109.5 20t-89 56.5t-58 85.5t-20.5 104t20.5 104t58 86t89 57.5t109.5 20.5q43 0 90 -13.5t93.5 -51t70 -93t23.5 -110.5t-20.5 -104.5t-58 -85.5t-89 -56t-109.5 -20zM324 57q31 0 65.5 10t69 37.5t52 69t17.5 83.5
q0 31 -10.5 65t-38.5 68t-70.5 51.5t-84.5 17.5q-31 0 -66 -10.5t-69.5 -38.5t-52 -70t-17.5 -83q0 -52 26.5 -100.5t76 -74t102.5 -25.5z" />
    <glyph glyph-name="Ocircumflex.aalt" horiz-adv-x="648" 
d="M323 645l-68 -86h-71l112 145h56l109 -145h-70zM324 525q43 0 90 -13.5t93.5 -51t70 -93t23.5 -110.5t-20.5 -104.5t-58 -85.5t-89 -56t-109.5 -20t-109.5 20t-89 56.5t-58 85.5t-20.5 104t20.5 104t58 86t89 57.5t109.5 20.5zM324 57q31 0 65.5 10t69 37.5t52 69
t17.5 83.5q0 31 -10.5 65t-38.5 68t-70.5 51.5t-84.5 17.5q-31 0 -66 -10.5t-69.5 -38.5t-52 -70t-17.5 -83q0 -52 26.5 -100.5t76 -74t102.5 -25.5z" />
    <glyph glyph-name="Odieresis.aalt" horiz-adv-x="648" 
d="M226 581q-21 0 -36 14.5t-15 35.5q0 20 15 34.5t36 14.5q20 0 34 -14t15 -35t-14 -35.5t-35 -14.5zM424 580q-20 0 -35 14.5t-15 35.5q0 20 15 34.5t35 14.5q21 0 35 -14t15 -35t-14 -35.5t-36 -14.5zM324 -9q-58 0 -109.5 20t-89 56.5t-58 85.5t-20.5 104t20.5 104
t58 86t89 57.5t109.5 20.5q43 0 90 -13.5t93.5 -51t70 -93t23.5 -110.5t-20.5 -104.5t-58 -85.5t-89 -56t-109.5 -20zM324 57q31 0 65.5 10t69 37.5t52 69t17.5 83.5q0 31 -10.5 65t-38.5 68t-70.5 51.5t-84.5 17.5q-31 0 -66 -10.5t-69.5 -38.5t-52 -70t-17.5 -83
q0 -52 26.5 -100.5t76 -74t102.5 -25.5z" />
    <glyph glyph-name="Ograve.aalt" horiz-adv-x="648" 
d="M391 553l-184 91l36 64l172 -112zM324 -9q-58 0 -109.5 20t-89 56.5t-58 85.5t-20.5 104t20.5 104t58 86t89 57.5t109.5 20.5q43 0 90 -13.5t93.5 -51t70 -93t23.5 -110.5t-20.5 -104.5t-58 -85.5t-89 -56t-109.5 -20zM324 57q31 0 65.5 10t69 37.5t52 69t17.5 83.5
q0 31 -10.5 65t-38.5 68t-70.5 51.5t-84.5 17.5q-31 0 -66 -10.5t-69.5 -38.5t-52 -70t-17.5 -83q0 -52 26.5 -100.5t76 -74t102.5 -25.5z" />
    <glyph glyph-name="Ohungarumlaut.aalt" horiz-adv-x="648" 
d="M230 542l-44 24l78 170l61 -31zM402 542l-44 24l78 170l61 -31zM324 -9q-58 0 -109.5 20t-89 56.5t-58 85.5t-20.5 104t20.5 104t58 86t89 57.5t109.5 20.5q43 0 90 -13.5t93.5 -51t70 -93t23.5 -110.5t-20.5 -104.5t-58 -85.5t-89 -56t-109.5 -20zM324 57q31 0 65.5 10
t69 37.5t52 69t17.5 83.5q0 31 -10.5 65t-38.5 68t-70.5 51.5t-84.5 17.5q-31 0 -66 -10.5t-69.5 -38.5t-52 -70t-17.5 -83q0 -52 26.5 -100.5t76 -74t102.5 -25.5z" />
    <glyph glyph-name="Omacron.aalt" horiz-adv-x="648" 
d="M181 596v58h284v-58h-284zM324 -9q-58 0 -109.5 20t-89 56.5t-58 85.5t-20.5 104t20.5 104t58 86t89 57.5t109.5 20.5q43 0 90 -13.5t93.5 -51t70 -93t23.5 -110.5t-20.5 -104.5t-58 -85.5t-89 -56t-109.5 -20zM324 57q31 0 65.5 10t69 37.5t52 69t17.5 83.5
q0 31 -10.5 65t-38.5 68t-70.5 51.5t-84.5 17.5q-31 0 -66 -10.5t-69.5 -38.5t-52 -70t-17.5 -83q0 -52 26.5 -100.5t76 -74t102.5 -25.5z" />
    <glyph glyph-name="uni01EA.aalt" horiz-adv-x="648" 
d="M381 -4q-41 -24 -64 -56t-23 -63q0 -30 14 -46t37 -16q28 0 50 18l19 -41q-31 -29 -78 -29q-43 0 -71.5 25t-28.5 72q0 41 21 75t51 56q-70 4 -121.5 32.5t-82.5 67.5t-44 83t-13 83q0 55 20.5 104t58 86t89 57.5t109.5 20.5q43 0 90 -13.5t93.5 -51t70 -93t23.5 -110.5
q0 -48 -14 -87t-37 -71t-66 -62t-103 -41zM119 257q0 -52 26.5 -100.5t76 -74t102.5 -25.5q31 0 65.5 10t69 37.5t52 69t17.5 83.5q0 31 -10.5 65t-38.5 68t-70.5 51.5t-84.5 17.5q-31 0 -66 -10.5t-69.5 -38.5t-52 -70t-17.5 -83z" />
    <glyph glyph-name="Oslash.aalt" horiz-adv-x="648" 
d="M512 457q42 -36 65.5 -88.5t23.5 -111.5q0 -55 -20.5 -104.5t-58 -85.5t-89 -56t-109.5 -20q-35 0 -72 9t-66 24l-56 -75l-47 36l54 72q-42 36 -66 88.5t-24 111.5q0 55 20.5 104t58 86t89 57.5t109.5 20.5q36 0 74 -9.5t67 -25.5l50 67l46 -35zM119 257q0 -42 16 -80
t44 -64l244 322q-46 24 -99 24q-31 0 -66 -10.5t-69.5 -38.5t-52 -70t-17.5 -83zM324 57q31 0 65.5 10t69 37.5t52 69t17.5 83.5q0 41 -15.5 78.5t-42.5 65.5l-242 -322q44 -22 96 -22z" />
    <glyph glyph-name="Oslashacute.aalt" horiz-adv-x="648" 
d="M451 644l-184 -91l-24 43l172 112zM512 457q42 -36 65.5 -88.5t23.5 -111.5q0 -55 -20.5 -104.5t-58 -85.5t-89 -56t-109.5 -20q-35 0 -72 9t-66 24l-56 -75l-47 36l54 72q-42 36 -66 88.5t-24 111.5q0 55 20.5 104t58 86t89 57.5t109.5 20.5q36 0 74 -9.5t67 -25.5
l50 67l46 -35zM119 257q0 -42 16 -80t44 -64l244 322q-46 24 -99 24q-31 0 -66 -10.5t-69.5 -38.5t-52 -70t-17.5 -83zM324 57q31 0 65.5 10t69 37.5t52 69t17.5 83.5q0 41 -15.5 78.5t-42.5 65.5l-242 -322q44 -22 96 -22z" />
    <glyph glyph-name="Otilde.aalt" horiz-adv-x="648" 
d="M378 590q-18 0 -34 5.5t-40.5 20.5t-39.5 15q-17 0 -32 -10t-25 -26l-43 34q4 10 19.5 26t38 25t44.5 9q18 0 33 -5.5t40.5 -20.5t40.5 -15q17 0 32 10t25 26l43 -34q-4 -10 -19.5 -26t-38 -25t-44.5 -9zM324 -9q-58 0 -109.5 20t-89 56.5t-58 85.5t-20.5 104t20.5 104
t58 86t89 57.5t109.5 20.5q43 0 90 -13.5t93.5 -51t70 -93t23.5 -110.5t-20.5 -104.5t-58 -85.5t-89 -56t-109.5 -20zM324 57q31 0 65.5 10t69 37.5t52 69t17.5 83.5q0 31 -10.5 65t-38.5 68t-70.5 51.5t-84.5 17.5q-31 0 -66 -10.5t-69.5 -38.5t-52 -70t-17.5 -83
q0 -52 26.5 -100.5t76 -74t102.5 -25.5z" />
    <glyph glyph-name="OE.aalt" horiz-adv-x="929" 
d="M881 455h-280v-162h245v-61h-245v-170h280v-62h-351v75q-38 -39 -91.5 -61.5t-114.5 -22.5q-58 0 -109.5 20t-89 56.5t-58 85.5t-20.5 104t20.5 104t58 86t89 57.5t109.5 20.5q61 0 114.5 -22.5t91.5 -62.5v76h351v-61zM324 57q31 0 65.5 10t69 37.5t52 69t17.5 83.5
q0 31 -10.5 65t-38.5 68t-70.5 51.5t-84.5 17.5q-31 0 -66 -10.5t-69.5 -38.5t-52 -70t-17.5 -83q0 -52 26.5 -100.5t76 -74t102.5 -25.5z" />
    <glyph glyph-name="P.aalt" horiz-adv-x="506" 
d="M263 516q68 0 114.5 -24.5t70 -63.5t23.5 -90q0 -83 -58.5 -129.5t-152.5 -46.5h-105v-162h-71v516h179zM259 223q60 0 99.5 30.5t39.5 86.5q0 52 -39 83.5t-100 31.5h-104v-232h104z" />
    <glyph glyph-name="Thorn.aalt" horiz-adv-x="512" 
d="M264 440q90 0 146.5 -48t56.5 -130q0 -54 -23 -94t-68.5 -64.5t-112.5 -24.5h-108v-79h-71v516h71v-76h109zM260 141q58 0 97.5 31t39.5 90q0 57 -39.5 86.5t-98.5 29.5h-104v-237h105z" />
    <glyph glyph-name="Q.aalt" horiz-adv-x="648" 
d="M601 257q0 -52 -19 -99.5t-48 -78t-56 -46.5l101 -90l-43 -49l-123 110q-40 -13 -89 -13q-58 0 -109.5 20t-89 56.5t-58 85.5t-20.5 104t20.5 104t58 86t89 57.5t109.5 20.5q43 0 90 -13.5t93.5 -51t70 -93t23.5 -110.5zM119 257q0 -52 26.5 -100.5t76 -74t102.5 -25.5
q31 0 65.5 10t69 37.5t52 69t17.5 83.5q0 31 -10.5 65t-38.5 68t-70.5 51.5t-84.5 17.5q-31 0 -66 -10.5t-69.5 -38.5t-52 -70t-17.5 -83z" />
    <glyph glyph-name="r.aalt" horiz-adv-x="533" 
d="M502 0h-85l-127 164l-37 -2h-98v-162h-71v516h176q70 0 116 -24t69 -62.5t23 -91.5q0 -54 -28.5 -95.5t-79.5 -61.5zM155 223h98q65 0 103.5 31.5t38.5 83.5q0 57 -39.5 87t-98.5 30h-102v-232z" />
    <glyph glyph-name="racute.aalt" horiz-adv-x="533" 
d="M379 644l-184 -91l-24 43l172 112zM502 0h-85l-127 164l-37 -2h-98v-162h-71v516h176q70 0 116 -24t69 -62.5t23 -91.5q0 -54 -28.5 -95.5t-79.5 -61.5zM155 223h98q65 0 103.5 31.5t38.5 83.5q0 57 -39.5 87t-98.5 30h-102v-232z" />
    <glyph glyph-name="rcaron.aalt" horiz-adv-x="533" 
d="M278 559h-56l-109 145h70l68 -86l68 86h71zM502 0h-85l-127 164l-37 -2h-98v-162h-71v516h176q70 0 116 -24t69 -62.5t23 -91.5q0 -54 -28.5 -95.5t-79.5 -61.5zM155 223h98q65 0 103.5 31.5t38.5 83.5q0 57 -39.5 87t-98.5 30h-102v-232z" />
    <glyph glyph-name="uni0157.aalt" horiz-adv-x="533" 
d="M360 181l142 -181h-85l-127 164l-37 -2h-98v-162h-71v516h176q70 0 116 -24t69 -62.5t23 -91.5q0 -54 -28.5 -95.5t-79.5 -61.5zM155 223h98q65 0 103.5 31.5t38.5 83.5q0 57 -39.5 87t-98.5 30h-102v-232zM266 -62q27 0 42.5 -17.5t15.5 -44.5q0 -43 -22.5 -82.5
t-58.5 -60.5l-25 26q17 13 33.5 36.5t15.5 39.5l-11 -1q-19 0 -32 14.5t-13 35.5q0 23 15.5 38.5t39.5 15.5z" />
    <glyph glyph-name="S.aalt" horiz-adv-x="456" 
d="M225 -9q-113 0 -189 56l38 59q63 -51 151 -51q54 0 84 21t30 61q0 36 -28.5 59t-94.5 41q-82 23 -120.5 55.5t-38.5 88.5q0 66 50 105t133 39q46 0 91 -13t73 -34l-37 -57q-23 17 -54 29t-79 12q-50 0 -77 -19.5t-27 -52.5q0 -25 15.5 -41.5t45.5 -28.5t64 -22
q83 -24 119.5 -60.5t36.5 -97.5q0 -71 -50 -110t-136 -39z" />
    <glyph glyph-name="Sacute.aalt" horiz-adv-x="456" 
d="M182 553l-24 43l172 112l36 -64zM225 -9q-113 0 -189 56l38 59q63 -51 151 -51q54 0 84 21t30 61q0 36 -28.5 59t-94.5 41q-82 23 -120.5 55.5t-38.5 88.5q0 66 50 105t133 39q46 0 91 -13t73 -34l-37 -57q-23 17 -54 29t-79 12q-50 0 -77 -19.5t-27 -52.5
q0 -25 15.5 -41.5t45.5 -28.5t64 -22q83 -24 119.5 -60.5t36.5 -97.5q0 -71 -50 -110t-136 -39z" />
    <glyph glyph-name="Scaron.aalt" horiz-adv-x="456" 
d="M265 559h-56l-109 145h70l68 -86l68 86h71zM255 298q83 -24 119.5 -60.5t36.5 -97.5q0 -71 -50 -110t-136 -39q-113 0 -189 56l38 59q63 -51 151 -51q54 0 84 21t30 61q0 36 -28.5 59t-94.5 41q-82 23 -120.5 55.5t-38.5 88.5q0 66 50 105t133 39q46 0 91 -13t73 -34
l-37 -57q-23 17 -54 29t-79 12q-50 0 -77 -19.5t-27 -52.5q0 -25 15.5 -41.5t45.5 -28.5t64 -22z" />
    <glyph glyph-name="Scedilla.c2sc" horiz-adv-x="456" 
d="M411 140q0 -65 -43 -103.5t-117 -44.5l-11 -35q46 -3 76 -28.5t30 -68.5q0 -21 -10.5 -44.5t-39.5 -39.5t-68 -16q-26 0 -54.5 8t-48.5 24l19 38q10 -8 31.5 -16t47.5 -9q29 -1 47 14t18 40q0 26 -21 41t-59 15l-16 -1l-10 13l21 65q-98 4 -167 55l38 59q63 -51 151 -51
q54 0 84 21t30 61q0 36 -28.5 59t-94.5 41q-82 23 -120.5 55.5t-38.5 88.5q0 66 50 105t133 39q46 0 91 -13t73 -34l-37 -57q-23 17 -54 29t-79 12q-50 0 -77 -19.5t-27 -52.5q0 -25 15.5 -41.5t45.5 -28.5t64 -22q83 -24 119.5 -60.5t36.5 -97.5z" />
    <glyph glyph-name="uni0218.aalt" horiz-adv-x="456" 
d="M225 -9q-113 0 -189 56l38 59q63 -51 151 -51q54 0 84 21t30 61q0 36 -28.5 59t-94.5 41q-82 23 -120.5 55.5t-38.5 88.5q0 66 50 105t133 39q46 0 91 -13t73 -34l-37 -57q-23 17 -54 29t-79 12q-50 0 -77 -19.5t-27 -52.5q0 -25 15.5 -41.5t45.5 -28.5t64 -22
q83 -24 119.5 -60.5t36.5 -97.5q0 -71 -50 -110t-136 -39zM204 -267l-25 26q17 13 33.5 36.5t15.5 39.5l-11 -1q-19 0 -32 14.5t-13 35.5q0 23 15.5 38.5t39.5 15.5q27 0 42.5 -17.5t15.5 -44.5q0 -43 -22.5 -82.5t-58.5 -60.5z" />
    <glyph glyph-name="uni1E9E.aalt" horiz-adv-x="574" 
d="M375 304q53 -1 89.5 -22t55 -55t18.5 -79q0 -67 -47 -111t-122 -44q-80 0 -125 35l34 57q32 -28 91 -28q48 0 72.5 26t24.5 68q0 43 -29 68.5t-82 25.5h-65v59l123 148h-144q-56 0 -88 -29.5t-32 -79.5v-343h-71v343q0 39 11 71t34 54.5t60 35t86 12.5h229v-56z" />
    <glyph glyph-name="T.aalt" horiz-adv-x="472" 
d="M453 516v-62h-180v-454h-72v454h-182v62h434z" />
    <glyph glyph-name="Tbar.aalt" horiz-adv-x="472" 
d="M453 454h-180v-172h118v-52h-118v-230h-72v230h-117v52h117v172h-182v62h434v-62z" />
    <glyph glyph-name="Tcaron.aalt" horiz-adv-x="472" 
d="M263 559h-56l-109 145h70l68 -86l68 86h71zM453 516v-62h-180v-454h-72v454h-182v62h434z" />
    <glyph glyph-name="uni0162.c2sc" horiz-adv-x="472" 
d="M273 0h-8l-13 -43q46 -3 76 -28.5t30 -68.5q0 -21 -10.5 -44.5t-39.5 -39.5t-68 -16q-26 0 -54.5 8t-48.5 24l19 38q10 -8 31.5 -16t47.5 -9q29 -1 47 14t18 40q0 26 -21 41t-59 15l-16 -1l-10 13l23 73h-16v454h-182v62h434v-62h-180v-454z" />
    <glyph glyph-name="uni021A.aalt" horiz-adv-x="472" 
d="M453 516v-62h-180v-454h-72v454h-182v62h434zM239 -62q27 0 42.5 -17.5t15.5 -44.5q0 -43 -22.5 -82.5t-58.5 -60.5l-25 26q17 13 33.5 36.5t15.5 39.5l-11 -1q-19 0 -32 14.5t-13 35.5q0 23 15.5 38.5t39.5 15.5z" />
    <glyph glyph-name="U.aalt" horiz-adv-x="600" 
d="M302 -9q-50 0 -92.5 15t-72 43.5t-45.5 70t-16 93.5v303h71v-307q0 -69 41 -110.5t114 -41.5q71 0 111.5 41.5t40.5 110.5v307h71v-303q0 -105 -61 -163.5t-162 -58.5z" />
    <glyph glyph-name="Uacute.aalt" horiz-adv-x="600" 
d="M245 553l-24 43l172 112l36 -64zM302 -9q-50 0 -92.5 15t-72 43.5t-45.5 70t-16 93.5v303h71v-307q0 -69 41 -110.5t114 -41.5q71 0 111.5 41.5t40.5 110.5v307h71v-303q0 -105 -61 -163.5t-162 -58.5z" />
    <glyph glyph-name="Ucircumflex.aalt" horiz-adv-x="600" 
d="M301 645l-68 -86h-71l112 145h56l109 -145h-70zM454 516h71v-303q0 -105 -61 -163.5t-162 -58.5q-50 0 -92.5 15t-72 43.5t-45.5 70t-16 93.5v303h71v-307q0 -69 41 -110.5t114 -41.5q71 0 111.5 41.5t40.5 110.5v307z" />
    <glyph glyph-name="Udieresis.aalt" horiz-adv-x="600" 
d="M204 581q-21 0 -36 14.5t-15 35.5q0 20 15 34.5t36 14.5q20 0 34 -14t15 -35t-14 -35.5t-35 -14.5zM402 580q-20 0 -35 14.5t-15 35.5q0 20 15 34.5t35 14.5q21 0 35 -14t15 -35t-14 -35.5t-36 -14.5zM302 -9q-50 0 -92.5 15t-72 43.5t-45.5 70t-16 93.5v303h71v-307
q0 -69 41 -110.5t114 -41.5q71 0 111.5 41.5t40.5 110.5v307h71v-303q0 -105 -61 -163.5t-162 -58.5z" />
    <glyph glyph-name="Ugrave.aalt" horiz-adv-x="600" 
d="M369 553l-184 91l36 64l172 -112zM302 -9q-50 0 -92.5 15t-72 43.5t-45.5 70t-16 93.5v303h71v-307q0 -69 41 -110.5t114 -41.5q71 0 111.5 41.5t40.5 110.5v307h71v-303q0 -105 -61 -163.5t-162 -58.5z" />
    <glyph glyph-name="Uhungarumlaut.aalt" horiz-adv-x="600" 
d="M208 542l-44 24l78 170l61 -31zM380 542l-44 24l78 170l61 -31zM302 -9q-50 0 -92.5 15t-72 43.5t-45.5 70t-16 93.5v303h71v-307q0 -69 41 -110.5t114 -41.5q71 0 111.5 41.5t40.5 110.5v307h71v-303q0 -105 -61 -163.5t-162 -58.5z" />
    <glyph glyph-name="Umacron.aalt" horiz-adv-x="600" 
d="M159 596v58h284v-58h-284zM302 -9q-50 0 -92.5 15t-72 43.5t-45.5 70t-16 93.5v303h71v-307q0 -69 41 -110.5t114 -41.5q71 0 111.5 41.5t40.5 110.5v307h71v-303q0 -105 -61 -163.5t-162 -58.5z" />
    <glyph glyph-name="Uogonek.aalt" horiz-adv-x="600" 
d="M454 516h71v-303q0 -90 -45.5 -146.5t-123.5 -70.5q-41 -24 -63.5 -56t-22.5 -63q0 -30 14 -46t37 -16q28 0 50 18l19 -41q-31 -29 -78 -29q-43 0 -71.5 25t-28.5 72q0 41 21 75t51 56q-96 5 -152 63.5t-56 158.5v303h71v-307q0 -69 41 -110.5t114 -41.5q71 0 111.5 41.5
t40.5 110.5v307z" />
    <glyph glyph-name="Uring.aalt" horiz-adv-x="600" 
d="M301 548q-39 0 -65.5 25.5t-26.5 63.5q0 37 26.5 62.5t65.5 25.5t65.5 -25.5t26.5 -62.5q0 -38 -26.5 -63.5t-65.5 -25.5zM301 590q20 0 33 14t13 33q0 20 -13 33.5t-33 13.5q-19 0 -32.5 -13.5t-13.5 -33.5q0 -19 13.5 -33t32.5 -14zM302 -9q-50 0 -92.5 15t-72 43.5
t-45.5 70t-16 93.5v303h71v-307q0 -69 41 -110.5t114 -41.5q71 0 111.5 41.5t40.5 110.5v307h71v-303q0 -105 -61 -163.5t-162 -58.5z" />
    <glyph glyph-name="Utilde.aalt" horiz-adv-x="600" 
d="M356 590q-18 0 -34 5.5t-40.5 20.5t-39.5 15q-17 0 -32 -10t-25 -26l-43 34q4 10 19.5 26t38 25t44.5 9q18 0 33 -5.5t40.5 -20.5t40.5 -15q17 0 32 10t25 26l43 -34q-4 -10 -19.5 -26t-38 -25t-44.5 -9zM302 -9q-50 0 -92.5 15t-72 43.5t-45.5 70t-16 93.5v303h71v-307
q0 -69 41 -110.5t114 -41.5q71 0 111.5 41.5t40.5 110.5v307h71v-303q0 -105 -61 -163.5t-162 -58.5z" />
    <glyph glyph-name="V.aalt" horiz-adv-x="531" 
d="M435 516h76l-221 -516h-48l-222 516h77l159 -370l12 -29l12 29z" />
    <glyph glyph-name="W.aalt" horiz-adv-x="729" 
d="M630 516h71l-149 -516h-52l-137 412l-134 -412h-53l-149 516h76l93 -330l15 -55l18 55l109 339h50l112 -340l19 -58l17 58z" />
    <glyph glyph-name="Wacute.aalt" horiz-adv-x="729" 
d="M491 644l-184 -91l-24 43l172 112zM630 516h71l-149 -516h-52l-137 412l-134 -412h-53l-149 516h76l93 -330l15 -55l18 55l109 339h50l112 -340l19 -58l17 58z" />
    <glyph glyph-name="Wcircumflex.aalt" horiz-adv-x="729" 
d="M363 645l-68 -86h-71l112 145h56l109 -145h-70zM630 516h71l-149 -516h-52l-137 412l-134 -412h-53l-149 516h76l93 -330l15 -55l18 55l109 339h50l112 -340l19 -58l17 58z" />
    <glyph glyph-name="Wdieresis.aalt" horiz-adv-x="729" 
d="M266 581q-21 0 -36 14.5t-15 35.5q0 20 15 34.5t36 14.5q20 0 34 -14t15 -35t-14 -35.5t-35 -14.5zM464 580q-20 0 -35 14.5t-15 35.5q0 20 15 34.5t35 14.5q21 0 35 -14t15 -35t-14 -35.5t-36 -14.5zM630 516h71l-149 -516h-52l-137 412l-134 -412h-53l-149 516h76
l93 -330l15 -55l18 55l109 339h50l112 -340l19 -58l17 58z" />
    <glyph glyph-name="Wgrave.aalt" horiz-adv-x="729" 
d="M455 596l-24 -43l-184 91l36 64zM630 516h71l-149 -516h-52l-137 412l-134 -412h-53l-149 516h76l93 -330l15 -55l18 55l109 339h50l112 -340l19 -58l17 58z" />
    <glyph glyph-name="X.aalt" horiz-adv-x="521" 
d="M503 0h-87l-158 209l-156 -209h-84l197 260l-191 256h86l151 -202l151 202h84l-190 -255z" />
    <glyph glyph-name="y.aalt" horiz-adv-x="517" 
d="M494 516l-200 -315v-201h-71v201l-199 315h87l151 -244l150 244h82z" />
    <glyph glyph-name="yacute.aalt" horiz-adv-x="517" 
d="M389 644l-184 -91l-24 43l172 112zM494 516l-200 -315v-201h-71v201l-199 315h87l151 -244l150 244h82z" />
    <glyph glyph-name="ycircumflex.aalt" horiz-adv-x="517" 
d="M261 645l-68 -86h-71l112 145h56l109 -145h-70zM494 516l-200 -315v-201h-71v201l-199 315h87l151 -244l150 244h82z" />
    <glyph glyph-name="ydieresis.aalt" horiz-adv-x="517" 
d="M164 581q-21 0 -36 14.5t-15 35.5q0 20 15 34.5t36 14.5q20 0 34 -14t15 -35t-14 -35.5t-35 -14.5zM362 580q-20 0 -35 14.5t-15 35.5q0 20 15 34.5t35 14.5q21 0 35 -14t15 -35t-14 -35.5t-36 -14.5zM494 516l-200 -315v-201h-71v201l-199 315h87l151 -244l150 244h82z
" />
    <glyph glyph-name="ygrave.aalt" horiz-adv-x="517" 
d="M353 596l-24 -43l-184 91l36 64zM494 516l-200 -315v-201h-71v201l-199 315h87l151 -244l150 244h82z" />
    <glyph glyph-name="uni1EF9.aalt" horiz-adv-x="517" 
d="M202 631q-17 0 -32 -10t-25 -26l-43 34q4 10 19.5 26t38 25t44.5 9q18 0 33 -5.5t40.5 -20.5t40.5 -15q17 0 32 10t25 26l43 -34q-4 -10 -19.5 -26t-38 -25t-44.5 -9q-18 0 -34 5.5t-40.5 20.5t-39.5 15zM494 516l-200 -315v-201h-71v201l-199 315h87l151 -244l150 244
h82z" />
    <glyph glyph-name="Z.aalt" horiz-adv-x="482" 
d="M442 516v-47l-318 -407h318v-62h-409v47l315 407h-300v62h394z" />
    <glyph glyph-name="Zacute.aalt" horiz-adv-x="482" 
d="M372 644l-184 -91l-24 43l172 112zM442 516v-47l-318 -407h318v-62h-409v47l315 407h-300v62h394z" />
    <glyph glyph-name="Zcaron.aalt" horiz-adv-x="482" 
d="M271 559h-56l-109 145h70l68 -86l68 86h71zM442 516v-47l-318 -407h318v-62h-409v47l315 407h-300v62h394z" />
    <glyph glyph-name="Zdotaccent.aalt" horiz-adv-x="482" 
d="M245 580q-21 0 -36.5 15t-15.5 37q0 21 15.5 36t36.5 15t36 -15t16 -36q1 -22 -14.5 -37t-37.5 -15zM442 516v-47l-318 -407h318v-62h-409v47l315 407h-300v62h394z" />
    <glyph glyph-name="A.c2sc.salt" horiz-adv-x="583" 
d="M293 525q100 0 157 -59.5t57 -171.5v-294h-73v163h-286v-163h-72v294q0 112 57.5 171.5t159.5 59.5zM148 224h286v76q0 74 -36.5 116.5t-104.5 42.5q-69 0 -107 -42.5t-38 -116.5v-76z" />
    <glyph glyph-name="Aacute.c2sc.salt" horiz-adv-x="583" 
d="M419 644l-184 -91l-24 43l172 112zM293 525q100 0 157 -59.5t57 -171.5v-294h-73v163h-286v-163h-72v294q0 112 57.5 171.5t159.5 59.5zM148 224h286v76q0 74 -36.5 116.5t-104.5 42.5q-69 0 -107 -42.5t-38 -116.5v-76z" />
    <glyph glyph-name="Abreve.c2sc.salt" horiz-adv-x="583" 
d="M292 560q-59 0 -95.5 38t-36.5 100h56q0 -39 21 -63t55 -24q33 0 54 24t21 63h56q0 -64 -37.5 -101t-93.5 -37zM293 525q100 0 157 -59.5t57 -171.5v-294h-73v163h-286v-163h-72v294q0 112 57.5 171.5t159.5 59.5zM148 224h286v76q0 74 -36.5 116.5t-104.5 42.5
q-69 0 -107 -42.5t-38 -116.5v-76z" />
    <glyph glyph-name="Acircumflex.c2sc.salt" horiz-adv-x="583" 
d="M291 645l-68 -86h-71l112 145h56l109 -145h-70zM293 525q100 0 157 -59.5t57 -171.5v-294h-73v163h-286v-163h-72v294q0 112 57.5 171.5t159.5 59.5zM148 224h286v76q0 74 -36.5 116.5t-104.5 42.5q-69 0 -107 -42.5t-38 -116.5v-76z" />
    <glyph glyph-name="Adieresis.c2sc.salt" horiz-adv-x="583" 
d="M194 581q-21 0 -36 14.5t-15 35.5q0 20 15 34.5t36 14.5q20 0 34 -14t15 -35t-14 -35.5t-35 -14.5zM392 580q-20 0 -35 14.5t-15 35.5q0 20 15 34.5t35 14.5q21 0 35 -14t15 -35t-14 -35.5t-36 -14.5zM293 525q100 0 157 -59.5t57 -171.5v-294h-73v163h-286v-163h-72v294
q0 112 57.5 171.5t159.5 59.5zM148 224h286v76q0 74 -36.5 116.5t-104.5 42.5q-69 0 -107 -42.5t-38 -116.5v-76z" />
    <glyph glyph-name="Agrave.c2sc.salt" horiz-adv-x="583" 
d="M383 596l-24 -43l-184 91l36 64zM293 525q100 0 157 -59.5t57 -171.5v-294h-73v163h-286v-163h-72v294q0 112 57.5 171.5t159.5 59.5zM148 224h286v76q0 74 -36.5 116.5t-104.5 42.5q-69 0 -107 -42.5t-38 -116.5v-76z" />
    <glyph glyph-name="Amacron.aalt.aalt" horiz-adv-x="583" 
d="M433 654v-58h-284v58h284zM293 525q100 0 157 -59.5t57 -171.5v-294h-73v163h-286v-163h-72v294q0 112 57.5 171.5t159.5 59.5zM148 224h286v76q0 74 -36.5 116.5t-104.5 42.5q-69 0 -107 -42.5t-38 -116.5v-76z" />
    <glyph glyph-name="Aogonek.c2sc.salt" horiz-adv-x="583" 
d="M514 -167l19 -41q-31 -29 -78 -29q-43 0 -71.5 25t-28.5 72q0 35 19.5 72t64.5 68h-5v163h-286v-163h-72v294q0 112 57.5 171.5t159.5 59.5q100 0 157 -59.5t57 -171.5v-294q-35 -18 -64.5 -51.5t-29.5 -71.5q0 -30 14 -46t37 -16q28 0 50 18zM148 224h286v76
q0 74 -36.5 116.5t-104.5 42.5q-69 0 -107 -42.5t-38 -116.5v-76z" />
    <glyph glyph-name="Aring.c2sc.salt" horiz-adv-x="583" 
d="M291 548q-39 0 -65.5 25.5t-26.5 63.5q0 37 26.5 62.5t65.5 25.5t65.5 -25.5t26.5 -62.5q0 -38 -26.5 -63.5t-65.5 -25.5zM291 684q-19 0 -32.5 -13.5t-13.5 -33.5q0 -19 13.5 -33t32.5 -14q20 0 33 14t13 33q0 20 -13 33.5t-33 13.5zM293 525q100 0 157 -59.5t57 -171.5
v-294h-73v163h-286v-163h-72v294q0 112 57.5 171.5t159.5 59.5zM148 224h286v76q0 74 -36.5 116.5t-104.5 42.5q-69 0 -107 -42.5t-38 -116.5v-76z" />
    <glyph glyph-name="Atilde.c2sc.salt" horiz-adv-x="583" 
d="M232 631q-17 0 -32 -10t-25 -26l-43 34q4 10 19.5 26t38 25t44.5 9q18 0 33 -5.5t40.5 -20.5t40.5 -15q17 0 32 10t25 26l43 -34q-4 -10 -19.5 -26t-38 -25t-44.5 -9q-18 0 -34 5.5t-40.5 20.5t-39.5 15zM293 525q100 0 157 -59.5t57 -171.5v-294h-73v163h-286v-163h-72
v294q0 112 57.5 171.5t159.5 59.5zM148 224h286v76q0 74 -36.5 116.5t-104.5 42.5q-69 0 -107 -42.5t-38 -116.5v-76z" />
    <glyph glyph-name="r.aalt.aalt" horiz-adv-x="538" 
d="M487 51l19 1v-56q-12 -5 -42 -5q-29 0 -54 14.5t-43 34.5t-54.5 71t-62.5 51h-95v-162h-71v516h176q70 0 116 -24t69 -62.5t23 -91.5q0 -28 -11 -61t-41 -60.5t-72 -41.5q19 -11 54 -56.5t54 -56.5t35 -11zM155 223h98q65 0 103.5 31.5t38.5 83.5q0 57 -39.5 87t-98.5 30
h-102v-232z" />
    <glyph glyph-name="racute.aalt.aalt" horiz-adv-x="538" 
d="M385 644l-184 -91l-24 43l172 112zM487 51l19 1v-56q-12 -5 -42 -5q-29 0 -54 14.5t-43 34.5t-54.5 71t-62.5 51h-95v-162h-71v516h176q70 0 116 -24t69 -62.5t23 -91.5q0 -28 -11 -61t-41 -60.5t-72 -41.5q19 -11 54 -56.5t54 -56.5t35 -11zM155 223h98q65 0 103.5 31.5
t38.5 83.5q0 57 -39.5 87t-98.5 30h-102v-232z" />
    <glyph glyph-name="rcaron.aalt.aalt" horiz-adv-x="538" 
d="M284 559h-56l-109 145h70l68 -86l68 86h71zM487 51l19 1v-56q-12 -5 -42 -5q-29 0 -54 14.5t-43 34.5t-54.5 71t-62.5 51h-95v-162h-71v516h176q70 0 116 -24t69 -62.5t23 -91.5q0 -28 -11 -61t-41 -60.5t-72 -41.5q19 -11 54 -56.5t54 -56.5t35 -11zM155 223h98
q65 0 103.5 31.5t38.5 83.5q0 57 -39.5 87t-98.5 30h-102v-232z" />
    <glyph glyph-name="uni0157.aalt.aalt" horiz-adv-x="538" 
d="M487 51l19 1v-56q-12 -5 -42 -5q-29 0 -54 14.5t-43 34.5t-54.5 71t-62.5 51h-95v-162h-71v516h176q70 0 116 -24t69 -62.5t23 -91.5q0 -28 -11 -61t-41 -60.5t-72 -41.5q19 -11 54 -56.5t54 -56.5t35 -11zM155 223h98q65 0 103.5 31.5t38.5 83.5q0 57 -39.5 87t-98.5 30
h-102v-232zM268 -62q27 0 42.5 -17.5t15.5 -44.5q0 -43 -22.5 -82.5t-58.5 -60.5l-25 26q17 13 33.5 36.5t15.5 39.5l-11 -1q-19 0 -32 14.5t-13 35.5q0 23 15.5 38.5t39.5 15.5z" />
    <glyph glyph-name="y.aalt.aalt" horiz-adv-x="520" 
d="M405 516h71v-117q0 -101 -47.5 -159.5t-132.5 -68.5v-171h-71v171q-86 11 -133.5 69t-47.5 159v117h71v-123q0 -73 38.5 -115t108.5 -42q69 0 106 42t37 115v123z" />
    <glyph glyph-name="yacute.aalt.aalt" horiz-adv-x="520" 
d="M387 644l-184 -91l-24 43l172 112zM405 516h71v-117q0 -101 -47.5 -159.5t-132.5 -68.5v-171h-71v171q-86 11 -133.5 69t-47.5 159v117h71v-123q0 -73 38.5 -115t108.5 -42q69 0 106 42t37 115v123z" />
    <glyph glyph-name="ycircumflex.aalt.aalt" horiz-adv-x="520" 
d="M259 645l-68 -86h-71l112 145h56l109 -145h-70zM405 516h71v-117q0 -101 -47.5 -159.5t-132.5 -68.5v-171h-71v171q-86 11 -133.5 69t-47.5 159v117h71v-123q0 -73 38.5 -115t108.5 -42q69 0 106 42t37 115v123z" />
    <glyph glyph-name="ydieresis.aalt.aalt" horiz-adv-x="520" 
d="M162 581q-21 0 -36 14.5t-15 35.5q0 20 15 34.5t36 14.5q20 0 34 -14t15 -35t-14 -35.5t-35 -14.5zM360 580q-20 0 -35 14.5t-15 35.5q0 20 15 34.5t35 14.5q21 0 35 -14t15 -35t-14 -35.5t-36 -14.5zM405 516h71v-117q0 -101 -47.5 -159.5t-132.5 -68.5v-171h-71v171
q-86 11 -133.5 69t-47.5 159v117h71v-123q0 -73 38.5 -115t108.5 -42q69 0 106 42t37 115v123z" />
    <glyph glyph-name="ygrave.aalt.aalt" horiz-adv-x="520" 
d="M351 596l-24 -43l-184 91l36 64zM405 516h71v-117q0 -101 -47.5 -159.5t-132.5 -68.5v-171h-71v171q-86 11 -133.5 69t-47.5 159v117h71v-123q0 -73 38.5 -115t108.5 -42q69 0 106 42t37 115v123z" />
    <glyph glyph-name="uni1EF9.aalt.aalt" horiz-adv-x="520" 
d="M200 631q-17 0 -32 -10t-25 -26l-43 34q4 10 19.5 26t38 25t44.5 9q18 0 33 -5.5t40.5 -20.5t40.5 -15q17 0 32 10t25 26l43 -34q-4 -10 -19.5 -26t-38 -25t-44.5 -9q-18 0 -34 5.5t-40.5 20.5t-39.5 15zM405 516h71v-117q0 -101 -47.5 -159.5t-132.5 -68.5v-171h-71v171
q-86 11 -133.5 69t-47.5 159v117h71v-123q0 -73 38.5 -115t108.5 -42q69 0 106 42t37 115v123z" />
    <glyph glyph-name="seven.salt" horiz-adv-x="507" 
d="M119 0l124 283h-149v68h176l125 284h-377v68h464v-39l-137 -313h108v-68h-136l-123 -283h-75z" />
    <glyph glyph-name="zero.aalt" horiz-adv-x="555" 
d="M279 -9q-51 0 -93 17.5t-72.5 51.5t-46.5 84.5t-16 114.5q0 63 16.5 113.5t46.5 84t72 51t92 17.5q51 0 93 -18t71.5 -52t45.5 -84.5t16 -113.5q0 -127 -61 -196.5t-164 -69.5zM280 57q71 0 111.5 50t40.5 151q0 100 -40.5 151t-113.5 51q-71 0 -113 -50.5t-42 -150.5
q0 -102 41.5 -152t115.5 -50z" />
    <glyph glyph-name="one.c2sc" horiz-adv-x="336" 
d="M200 516h44v-516h-71v433l-134 -44l-22 60z" />
    <glyph glyph-name="two.c2sc" horiz-adv-x="455" 
d="M46 0v48q1 1 35.5 22t67.5 45t66 55q54 50 81 95t26 88q-1 48 -36 77.5t-84 29.5q-79 0 -140 -35l-23 55q32 20 75.5 32.5t87.5 12.5q87 0 139.5 -46.5t52.5 -125.5q0 -46 -24 -92t-78 -100q-49 -49 -118 -99h237v-62h-365z" />
    <glyph glyph-name="three.c2sc" horiz-adv-x="452" 
d="M229 314q33 0 65 -7.5t56.5 -26t39 -49t14.5 -74.5q0 -25 -9.5 -52.5t-33 -52.5t-65 -43t-101.5 -18q-50 0 -92 10.5t-67 27.5l25 54q60 -33 133 -33q60 0 99 29.5t39 77.5q0 103 -123 103q-47 0 -85 -16l-17 45l172 166h-232v61h332v-48l-164 -154h14z" />
    <glyph glyph-name="four.aalt" horiz-adv-x="471" 
d="M441 181v-61h-64v-120h-69v120h-277v46l138 359l64 -22l-120 -322h195v196h69v-196h64z" />
    <glyph glyph-name="five.aalt" horiz-adv-x="452" 
d="M240 321q48 -1 89.5 -19t62.5 -56t21 -87q0 -28 -9.5 -57.5t-33.5 -54t-63.5 -40.5t-95.5 -16q-99 0 -168 42l25 56q66 -40 143 -40q29 0 60 10t51.5 36.5t20.5 62.5q0 23 -11 48t-39.5 40t-65.5 16q-67 1 -114 -28l-37 27v255h305v-62h-238v-148q44 17 97 15z" />
    <glyph glyph-name="six.aalt" horiz-adv-x="473" 
d="M258 341q81 0 130 -46.5t49 -125.5q0 -38 -14.5 -71t-40.5 -57t-62.5 -37t-78.5 -13q-91 0 -143 49t-52 142q0 99 66.5 187t200.5 156l38 -51q-159 -76 -212 -174q23 18 56 29.5t63 11.5zM243 51q25 0 55 10.5t50 38.5t20 65q0 52 -35.5 85t-92.5 33q-25 0 -54.5 -10.5
t-50.5 -39t-21 -65.5q0 -51 35.5 -84t93.5 -33z" />
    <glyph glyph-name="seven.c2sc" horiz-adv-x="423" 
d="M99 0l216 451h-292v65h377v-34l-230 -482h-71z" />
    <glyph glyph-name="eight.aalt" horiz-adv-x="496" 
d="M250 -9q-92 0 -146.5 43.5t-54.5 112.5q0 49 28.5 84.5t76.5 50.5q-38 13 -60 42t-22 64q0 62 48.5 99.5t129.5 37.5q78 0 126.5 -37.5t48.5 -99.5q0 -34 -22.5 -63.5t-59.5 -42.5q48 -15 76 -51t28 -85q0 -69 -54 -112t-143 -43zM250 307q22 0 47 7.5t41.5 27.5t16.5 46
q0 37 -29 59t-76 22q-49 0 -78.5 -22t-29.5 -59q0 -36 30 -58.5t78 -22.5zM250 50q27 0 56 8.5t48.5 32t19.5 56.5q0 47 -36 75t-88 28q-55 0 -91 -28t-36 -75q0 -44 34 -70.5t93 -26.5z" />
    <glyph glyph-name="nine.aalt" horiz-adv-x="473" 
d="M233 525q91 0 143 -49t52 -142q0 -99 -66.5 -187t-200.5 -156l-38 51q75 36 129 78t83 96q-23 -18 -56 -29.5t-63 -11.5q-81 0 -130 46.5t-49 125.5q0 38 14.5 71t40.5 57t62.5 37t78.5 13zM234 233q25 0 54.5 10.5t50.5 39t21 65.5q0 51 -35.5 84t-93.5 33
q-25 0 -55 -10.5t-50 -38.5t-20 -65q0 -52 35.5 -85t92.5 -33z" />
    <glyph glyph-name="braceleft.aalt" horiz-adv-x="292" 
d="M244 -94q-28 0 -60 9.5t-53 40t-21 84.5v123q0 30 -16 44.5t-38 14.5h-18v55h18q22 0 38 15t16 45v123q0 45 15.5 74.5t45.5 44.5t73 15v-56q-35 0 -53 -22.5t-18 -66.5v-110q0 -65 -58 -89q58 -24 58 -89v-109q0 -44 18 -67t53 -23v-56z" />
    <glyph glyph-name="braceright.aalt" horiz-adv-x="291" 
d="M48 -93v56q35 0 53.5 23t18.5 66v110q0 66 57 89q-57 23 -57 89v109q0 44 -18.5 67t-53.5 23v56q28 0 60 -9.5t53 -40t21 -84.5v-123q0 -30 16 -45t39 -15h17v-54h-17q-23 0 -39 -15t-16 -45v-123q0 -45 -15.5 -74.5t-45.5 -44.5t-73 -15z" />
    <glyph glyph-name="bracketleft.aalt" horiz-adv-x="314" 
d="M271 526h-109v-543h109v-59h-173v661h173v-59z" />
    <glyph glyph-name="bracketright.aalt" horiz-adv-x="314" 
d="M44 585h173v-661h-173v59h109v543h-109v59z" />
    <glyph glyph-name="exclam.aalt" horiz-adv-x="256" 
d="M100 181l-15 358h85l-15 -358h-55zM129 -9q-23 0 -38 15t-15 37t15 37.5t38 15.5q21 0 36.5 -15.5t15.5 -37.5q0 -21 -15.5 -36.5t-36.5 -15.5z" />
    <glyph glyph-name="exclamdown.aalt" horiz-adv-x="256" 
d="M127 419q-21 0 -37 16t-16 37t16 37t37 16q22 0 37.5 -15.5t15.5 -37.5t-15.5 -37.5t-37.5 -15.5zM86 -23l14 357h56l14 -357h-84z" />
    <glyph glyph-name="numbersign.aalt" horiz-adv-x="660" 
d="M627 325h-106l-37 -134h102v-59h-118l-37 -132h-64l37 132h-188l-37 -132h-62l37 132h-90v59h106l38 134h-104v59h120l37 132h61l-37 -132h189l37 132h63l-37 -132h90v-59zM420 191l38 134h-189l-37 -134h188z" />
    <glyph glyph-name="parenleft.aalt" horiz-adv-x="305" 
d="M240 -94q-60 38 -104 95.5t-65 121.5t-21 131q0 113 53 203t137 144l32 -50q-53 -43 -78 -74.5t-41.5 -63.5t-26.5 -72.5t-10 -86.5t13 -98t46 -100t97 -100z" />
    <glyph glyph-name="parenright.aalt" horiz-adv-x="306" 
d="M65 -94l-32 50q55 45 79.5 76t41 62.5t26.5 72.5t10 87q0 114 -62 200q-34 49 -95 97l32 50q84 -53 137 -143.5t53 -203.5t-53 -204t-137 -144z" />
    <glyph glyph-name="question.aalt" horiz-adv-x="351" 
d="M110 164v20q0 31 13 58.5t52.5 60t48 44.5t13.5 24t5 28q0 34 -26.5 55t-66.5 21q-59 0 -99 -26l-13 57q26 14 55 22.5t67 8.5q69 0 111 -36.5t42 -94.5q0 -33 -14 -61t-55.5 -60t-51 -43.5t-15 -21.5t-7.5 -20.5t-2 -19.5v-16h-57zM138 -7q-19 0 -32.5 13.5t-13.5 32.5
t13.5 32t32.5 13q20 0 33 -13t13 -32t-13 -32.5t-33 -13.5z" />
    <glyph glyph-name="questiondown.aalt" horiz-adv-x="352" 
d="M167 483q0 19 13.5 32.5t32.5 13.5t32.5 -13.5t13.5 -32.5t-13.5 -32t-32.5 -13t-32.5 13t-13.5 32zM301 73l13 -57q-27 -14 -55.5 -22.5t-66.5 -8.5q-68 0 -110.5 36.5t-42.5 94.5q0 33 14 61t55.5 60t51 43.5t15 21.5t7.5 20.5t2 19.5v16h57v-20q0 -26 -8 -47
t-21.5 -37t-44 -41.5t-39 -37.5t-13.5 -24t-5 -28q0 -33 26 -54.5t69 -21.5q32 0 56.5 7.5t39.5 18.5z" />
    <glyph glyph-name="at.aalt" horiz-adv-x="650" 
d="M335 525q61 0 113 -18.5t88.5 -52.5t56 -82t19.5 -104q0 -66 -29 -110.5t-79 -44.5q-29 -1 -51.5 15t-29.5 41q-16 -28 -45 -44t-63 -16q-28 0 -58.5 13.5t-53 50t-22.5 81.5q0 60 39.5 102t96.5 42q22 0 49.5 -9.5t49.5 -35.5l1 39h42v-177q0 -27 10.5 -41t29.5 -14
q29 0 45.5 29t16.5 76q0 35 -10.5 72t-37 68t-71.5 51.5t-110 20.5q-78 -1 -130 -33t-77 -80.5t-25 -110.5q1 -99 62.5 -160.5t160.5 -62.5q33 -1 71 7.5t65 22.5l16 -44q-30 -16 -69.5 -25t-77.5 -9q-61 0 -113 19.5t-89 56t-57.5 86.5t-20.5 109t21 109.5t59 87t91.5 56
t115.5 19.5zM325 158q39 0 64.5 26t25.5 67q0 44 -25.5 71t-64.5 27q-18 0 -40 -9t-37 -32.5t-15 -53.5q0 -41 26.5 -68.5t65.5 -27.5z" />
    <glyph glyph-name="ampersand.aalt" horiz-adv-x="556" 
d="M467 -13l-76 67q-73 -63 -178 -63q-75 0 -121.5 40.5t-46.5 106.5q0 40 20 72.5t45 50.5t44 26q-31 29 -46.5 56.5t-15.5 64.5q0 51 39.5 84t103.5 33q58 0 96.5 -30.5t38.5 -76.5q0 -35 -25.5 -70t-97.5 -76l147 -141q15 15 34.5 38.5t56.5 84.5l47 -28
q-54 -84 -73.5 -106t-25.5 -28l70 -65zM211 312q29 13 52.5 30t34 36t10.5 36q0 25 -20.5 42.5t-52.5 17.5q-35 0 -56.5 -19t-21.5 -49q0 -18 10 -39.5t44 -54.5zM221 51q69 0 131 42l-161 155q-78 -39 -78 -109q0 -19 10 -40t36.5 -34.5t61.5 -13.5z" />
    <glyph glyph-name="cent.aalt" horiz-adv-x="417" 
d="M339 142l33 -52q-46 -31 -104 -36v-88h-58v89q-54 8 -95 41t-56.5 75t-15.5 79q0 36 10.5 65.5t28 53.5t50.5 46t78 29v92h58v-90q26 -2 52 -10t55 -29l-34 -51q-39 29 -88 29q-64 0 -103 -38t-39 -97q0 -57 40 -96.5t98 -39.5q52 0 90 28z" />
    <glyph glyph-name="currency.aalt" horiz-adv-x="476" 
d="M403 252q0 -22 -6 -48.5t-24 -52.5l39 -40l-33 -33l-41 40q-18 -13 -45 -20.5t-54 -7.5t-54 7.5t-46 20.5l-42 -41l-34 33l42 42q-14 18 -22.5 45t-8.5 55q0 27 8.5 54t22.5 45l-42 41l34 33l41 -42q19 13 46 21t55 8q27 0 54 -7.5t45 -20.5l42 42l33 -34l-40 -40
q14 -20 22 -46t8 -54zM239 144q21 0 45.5 10t40.5 36.5t16 61.5q0 22 -9.5 47t-34.5 42t-58 17q-45 0 -74 -30t-29 -76q0 -35 16.5 -61.5t41 -36.5t45.5 -10z" />
    <glyph glyph-name="dollar.aalt" horiz-adv-x="394" 
d="M349 150q0 -50 -32 -82.5t-89 -39.5v-62h-60v61q-32 3 -67 14t-59 28l28 53q23 -17 55 -29t67 -12q42 0 68.5 18t26.5 47q0 14 -6.5 27.5t-19 23t-25.5 15t-54 19.5q-73 22 -101 52.5t-28 72.5q0 48 33 80t88 40v60h60v-59q30 -3 59.5 -14t46.5 -23l-28 -48
q-19 13 -48 21.5t-56 8.5q-40 0 -65.5 -16.5t-25.5 -45.5q0 -14 8.5 -28t27.5 -23t54 -21q45 -14 77.5 -31.5t48.5 -46t16 -60.5z" />
    <glyph glyph-name="Euro.aalt" horiz-adv-x="592" 
d="M372 46q76 0 137 40l29 -46q-49 -29 -89.5 -39t-82.5 -10q-92 0 -159.5 50.5t-91.5 133.5h-74v44h65l-2 39l2 38h-65v44h74q15 51 51.5 95.5t92 67t114.5 22.5q95 0 165 -51l-29 -46q-57 41 -130 41q-51 0 -94.5 -20.5t-67.5 -51t-35 -57.5h211v-44h-222q-3 -18 -3 -38
q0 -19 3 -39h222v-44h-210q16 -43 49 -74.5t71 -43t69 -11.5z" />
    <glyph glyph-name="plus.aalt" horiz-adv-x="417" 
d="M378 286v-48h-144v-154h-51v154h-145v48h145v151h51v-151h144z" />
    <glyph glyph-name="minus.aalt" horiz-adv-x="469" 
d="M64 238v48h340v-48h-340z" />
    <glyph glyph-name="multiply.aalt" horiz-adv-x="399" 
d="M338 364l-104 -103l102 -103l-34 -34l-102 103l-104 -102l-34 34l103 103l-102 103l34 35l103 -104l104 103z" />
    <glyph glyph-name="divide.aalt" horiz-adv-x="437" 
d="M219 356q-16 0 -27 10.5t-11 26.5q0 17 10.5 27t27.5 10q16 0 26.5 -10t10.5 -27q0 -16 -10.5 -26.5t-26.5 -10.5zM60 241v45h318v-45h-318zM220 90q-16 0 -26.5 10.5t-10.5 26.5q0 17 10.5 27t26.5 10t26.5 -10t10.5 -27q0 -16 -10.5 -26.5t-26.5 -10.5z" />
    <glyph glyph-name="equal.aalt" horiz-adv-x="477" 
d="M69 329v49h339v-49h-339zM69 148v49h339v-49h-339z" />
    <glyph glyph-name="notequal.aalt" horiz-adv-x="477" 
d="M408 330h-125l-40 -132h165v-49h-179l-30 -98h-57l30 98h-103v49h118l40 132h-158v49h173l27 89h56l-27 -89h110v-49z" />
    <glyph glyph-name="greater.aalt" horiz-adv-x="347" 
d="M66 444l245 -156v-55l-245 -156v59l189 125l-189 124v59z" />
    <glyph glyph-name="less.aalt" horiz-adv-x="347" 
d="M281 444v-59l-189 -124l189 -125v-59l-244 156v55z" />
    <glyph glyph-name="plusminus.aalt" horiz-adv-x="436" 
d="M240 336h130v-47h-130v-142h-45v142h-130v47h130v136h45v-136zM65 63v45h305v-45h-305z" />
    <glyph glyph-name="percent.aalt" horiz-adv-x="703" 
d="M216 -31l-55 31l329 551l56 -33zM167 281q-25 0 -55 11.5t-51 42.5t-21 72q0 25 12 53.5t43.5 48t71.5 19.5t71.5 -19.5t43.5 -48t12 -53.5q0 -41 -21 -72t-51 -42.5t-55 -11.5zM167 335q30 0 50.5 20t20.5 52q0 29 -20.5 48.5t-50.5 19.5t-50 -19.5t-20 -48.5
q0 -32 20 -52t50 -20zM536 -5q-25 0 -55 11.5t-51 42.5t-21 72q0 25 12 53.5t43.5 48t71.5 19.5t71.5 -19.5t43.5 -48t12 -53.5q0 -41 -21 -72t-51 -42.5t-55 -11.5zM536 49q30 0 50.5 20t20.5 52q0 29 -20.5 48.5t-50.5 19.5t-50 -19.5t-20 -48.5q0 -32 20 -52t50 -20z" />
    <glyph glyph-name="perthousand.aalt" horiz-adv-x="1001" 
d="M216 -31l-55 31l329 551l56 -33zM167 281q-25 0 -55 11.5t-51 42.5t-21 72q0 25 12 53.5t43.5 48t71.5 19.5t71.5 -19.5t43.5 -48t12 -53.5q0 -41 -21 -72t-51 -42.5t-55 -11.5zM167 335q30 0 50.5 20t20.5 52q0 29 -20.5 48.5t-50.5 19.5t-50 -19.5t-20 -48.5
q0 -32 20 -52t50 -20zM536 -5q-25 0 -55 11.5t-51 42.5t-21 72q0 25 12 53.5t43.5 48t71.5 19.5t71.5 -19.5t43.5 -48t12 -53.5q0 -41 -21 -72t-51 -42.5t-55 -11.5zM834 -5q-25 0 -55 11.5t-51 42.5t-21 72q0 25 12 53.5t43.5 48t71.5 19.5t71.5 -19.5t43.5 -48t12 -53.5
q0 -41 -21 -72t-51 -42.5t-55 -11.5zM536 49q30 0 50.5 20t20.5 52q0 29 -20.5 48.5t-50.5 19.5t-50 -19.5t-20 -48.5q0 -32 20 -52t50 -20zM834 49q30 0 50.5 20t20.5 52q0 29 -20.5 48.5t-50.5 19.5t-50 -19.5t-20 -48.5q0 -32 20 -52t50 -20z" />
    <glyph glyph-name="sterling.aalt" horiz-adv-x="449" 
d="M177 196l1 -145h226v-51h-360v51h75v145h-74v46h74v121q0 75 46 118.5t121 43.5q25 0 45 -4t33 -9.5t20.5 -10t14.5 -9t8 -5.5l-31 -45q-32 28 -86 28q-48 0 -80.5 -30t-32.5 -84v-114h118v-46h-118z" />
    <glyph glyph-name="yen.aalt" horiz-adv-x="497" 
d="M474 516l-174 -275h78v-44h-101v-78h101v-44h-101v-75h-59v75h-104v44h104v78h-104v44h82l-173 275h69l159 -254l158 254h65z" />
    <glyph glyph-name="glyph561" 
d="M-90 514l-24 27q16 12 32.5 36t16.5 42l-11 -2q-18 0 -30.5 13.5t-12.5 34.5q0 22 15.5 37t39.5 15t39 -16t15 -43q1 -42 -22 -82t-58 -62z" />
    <glyph glyph-name="uni0308.aalt" 
d="M-272 775q-21 0 -36 14.5t-15 35.5q0 20 15 34.5t36 14.5q20 0 34 -14t15 -35t-14 -35.5t-35 -14.5zM-54 774q-20 0 -35 14.5t-15 35.5q0 20 15 34.5t35 14.5q21 0 35 -14t15 -35t-14 -35.5t-36 -14.5z" />
    <glyph glyph-name="uni0307.aalt" 
d="M-58 772q-21 0 -36.5 15t-15.5 36q0 22 14.5 37t36.5 15q20 0 35 -15.5t15 -36.5t-14 -36t-35 -15z" />
    <glyph glyph-name="gravecomb.case" 
d="M-33 764l-204 53l26 77l195 -83z" />
    <glyph glyph-name="acutecomb.case" 
d="M-220 761l-18 46l192 90l28 -76z" />
    <glyph glyph-name="uni030B.aalt" 
d="M-351 742l-41 27l81 155l65 -37zM-158 742l-41 27l81 155l65 -37z" />
    <glyph glyph-name="uni0302.aalt" 
d="M-37 764h-72l-67 65l-68 -65h-70l112 123h56z" />
    <glyph glyph-name="uni030C.aalt" 
d="M-107 887h70l-112 -123h-56l-109 123h72l67 -65z" />
    <glyph glyph-name="uni0306.aalt" 
d="M-159 769q-42 0 -72.5 18.5t-42 46t-11.5 51.5h59q0 -28 18.5 -45.5t48.5 -17.5t49 17.5t19 45.5h59q0 -24 -11.5 -51.5t-42.5 -46t-73 -18.5z" />
    <glyph glyph-name="uni030A.aalt" 
d="M-104 751q-39 0 -65.5 25.5t-26.5 63.5q0 37 26.5 62.5t65.5 25.5t65.5 -25.5t26.5 -62.5q0 -38 -26.5 -63.5t-65.5 -25.5zM-104 793q20 0 33 14t13 33q0 20 -13 33.5t-33 13.5q-19 0 -32.5 -13.5t-13.5 -33.5q0 -19 13.5 -33t32.5 -14z" />
    <glyph glyph-name="tildecomb.case" 
d="M-132 770q-32 0 -66 21t-45.5 24t-17.5 3q-16 0 -29 -5.5t-20 -12.5t-10.5 -12t-8.5 -13l-43 35q18 30 46.5 48.5t65.5 18.5q31 0 66 -21.5t46.5 -24.5t17.5 -3q12 0 22 3.5t17 9t11.5 10t7 8.5t4.5 7t5 8l43 -34q-13 -29 -44 -49.5t-68 -20.5z" />
    <glyph glyph-name="uni0304.aalt" 
d="M-324 763v58h304v-58h-304z" />
    <glyph glyph-name="uni0326.aalt" 
d="M-64 -140l-10 -1q-19 0 -31.5 13.5t-12.5 33.5q0 22 14.5 37t37.5 15q27 0 41.5 -17t14.5 -44q0 -39 -21.5 -74t-56.5 -54l-24 25q16 12 32 32t16 34z" />
    <glyph glyph-name="uni0327.aalt" 
d="M-130 -245q-29 0 -55 6.5t-52 25.5l24 46q28 -17 45 -21.5t31 -4.5q29 -1 45.5 12t17.5 39q0 14 -8 28t-31 21.5t-57 4.5l-10 13l30 88h52l-16 -52q27 -1 49.5 -12t38.5 -33t16 -55q0 -49 -33.5 -77.5t-86.5 -28.5z" />
    <glyph glyph-name="uni0328.aalt" 
d="M-45 -203q-30 -24 -80 -24q-31 0 -56.5 15t-35.5 37.5t-10 42.5q0 26 11 53t39 55t64 45l30 -21q-31 -17 -55 -49t-24 -68q0 -25 14.5 -40t37.5 -15q27 0 44 15z" />
    <glyph glyph-name="uni0337.aalt" 
d="M-311 174l-28 48l273 160l28 -48z" />
    <glyph glyph-name="uni0338.aalt" 
d="M-547 -11l-47 36l538 721l46 -35z" />
    <glyph glyph-name="glyph604" horiz-adv-x="139" 
d="M42 514l-24 27q16 12 32.5 36t16.5 42l-11 -2q-18 0 -30.5 13.5t-12.5 34.5q0 22 15.5 37t39.5 15t39 -16t15 -43q1 -42 -22 -82t-58 -62z" />
    <glyph glyph-name="acute.aalt" horiz-adv-x="264" 
d="M45 761l-18 46l192 90l28 -76z" />
    <glyph glyph-name="breve.aalt" horiz-adv-x="317" 
d="M158 769q-42 0 -72.5 18.5t-42 46t-11.5 51.5h59q0 -28 18.5 -45.5t48.5 -17.5t49 17.5t19 45.5h59q0 -24 -11.5 -51.5t-42.5 -46t-73 -18.5z" />
    <glyph glyph-name="caron.aalt" horiz-adv-x="350" 
d="M243 887h70l-112 -123h-56l-109 123h72l67 -65z" />
    <glyph glyph-name="circumflex.aalt" horiz-adv-x="350" 
d="M313 764h-72l-67 65l-68 -65h-70l112 123h56z" />
    <glyph glyph-name="dieresis.aalt" horiz-adv-x="327" 
d="M61 775q-21 0 -36 14.5t-15 35.5q0 20 15 34.5t36 14.5q20 0 34 -14t15 -35t-14 -35.5t-35 -14.5zM279 774q-20 0 -35 14.5t-15 35.5q0 20 15 34.5t35 14.5q21 0 35 -14t15 -35t-14 -35.5t-36 -14.5z" />
    <glyph glyph-name="dotaccent.aalt" horiz-adv-x="123" 
d="M65 772q-21 0 -36.5 15t-15.5 36q0 22 14.5 37t36.5 15q20 0 35 -15.5t15 -36.5t-14 -36t-35 -15z" />
    <glyph glyph-name="grave.aalt" horiz-adv-x="264" 
d="M231 764l-204 53l26 77l195 -83z" />
    <glyph glyph-name="hungarumlaut.aalt" horiz-adv-x="453" 
d="M83 742l-41 27l81 155l65 -37zM276 742l-41 27l81 155l65 -37z" />
    <glyph glyph-name="macron.aalt" horiz-adv-x="344" 
d="M20 763v58h304v-58h-304z" />
    <glyph glyph-name="ring.aalt" horiz-adv-x="208" 
d="M104 751q-39 0 -65.5 25.5t-26.5 63.5q0 37 26.5 62.5t65.5 25.5t65.5 -25.5t26.5 -62.5q0 -38 -26.5 -63.5t-65.5 -25.5zM104 793q20 0 33 14t13 33q0 20 -13 33.5t-33 13.5q-19 0 -32.5 -13.5t-13.5 -33.5q0 -19 13.5 -33t32.5 -14z" />
    <glyph glyph-name="tilde.aalt" horiz-adv-x="392" 
d="M260 770q-32 0 -66 21t-45.5 24t-17.5 3q-16 0 -29 -5.5t-20 -12.5t-10.5 -12t-8.5 -13l-43 35q18 30 46.5 48.5t65.5 18.5q31 0 66 -21.5t46.5 -24.5t17.5 -3q12 0 22 3.5t17 9t11.5 10t7 8.5t4.5 7t5 8l43 -34q-13 -29 -44 -49.5t-68 -20.5z" />
    <glyph glyph-name="glyph616" horiz-adv-x="339" 
d="M71 581q-21 0 -36 14.5t-15 35.5q0 20 15 34.5t36 14.5q20 0 34 -14t15 -35t-14 -35.5t-35 -14.5zM269 580q-20 0 -35 14.5t-15 35.5q0 20 15 34.5t35 14.5q21 0 35 -14t15 -35t-14 -35.5t-36 -14.5z" />
    <glyph glyph-name="glyph617" horiz-adv-x="123" 
d="M60 580q-21 0 -36.5 15t-15.5 37q0 21 15.5 36t36.5 15t36 -15t16 -36q1 -22 -14.5 -37t-37.5 -15z" />
    <glyph glyph-name="gravecomb.c2sc" horiz-adv-x="264" 
d="M218 553l-184 91l36 64l172 -112z" />
    <glyph glyph-name="acutecomb.c2sc" horiz-adv-x="265" 
d="M58 553l-24 43l172 112l36 -64z" />
    <glyph glyph-name="glyph620" horiz-adv-x="434" 
d="M85 542l-44 24l78 170l61 -31zM257 542l-44 24l78 170l61 -31z" />
    <glyph glyph-name="glyph621" horiz-adv-x="297" 
d="M287 559h-70l-68 86l-68 -86h-71l112 145h56z" />
    <glyph glyph-name="glyph622" horiz-adv-x="297" 
d="M216 704h71l-112 -145h-56l-109 145h70l68 -86z" />
    <glyph glyph-name="glyph623" horiz-adv-x="283" 
d="M142 560q-59 0 -95.5 38t-36.5 100h56q0 -39 21 -63t55 -24q33 0 54 24t21 63h56q0 -64 -37.5 -101t-93.5 -37z" />
    <glyph glyph-name="glyph624" horiz-adv-x="208" 
d="M104 548q-39 0 -65.5 25.5t-26.5 63.5q0 37 26.5 62.5t65.5 25.5t65.5 -25.5t26.5 -62.5q0 -38 -26.5 -63.5t-65.5 -25.5zM104 590q20 0 33 14t13 33q0 20 -13 33.5t-33 13.5q-19 0 -32.5 -13.5t-13.5 -33.5q0 -19 13.5 -33t32.5 -14z" />
    <glyph glyph-name="tildecomb.c2sc" horiz-adv-x="336" 
d="M224 590q-18 0 -34 5.5t-40.5 20.5t-39.5 15q-17 0 -32 -10t-25 -26l-43 34q4 10 19.5 26t38 25t44.5 9q18 0 33 -5.5t40.5 -20.5t40.5 -15q17 0 32 10t25 26l43 -34q-4 -10 -19.5 -26t-38 -25t-44.5 -9z" />
    <glyph glyph-name="glyph626" horiz-adv-x="344" 
d="M30 596v58h284v-58h-284z" />
    <glyph glyph-name="glyph627" horiz-adv-x="131" 
d="M41 -267l-25 26q17 13 33.5 36.5t15.5 39.5l-11 -1q-19 0 -32 14.5t-13 35.5q0 23 15.5 38.5t39.5 15.5q27 0 42.5 -17.5t15.5 -44.5q0 -43 -22.5 -82.5t-58.5 -60.5z" />
    <glyph glyph-name="glyph628" horiz-adv-x="244" 
d="M117 -240q-26 0 -54.5 8t-48.5 24l19 38q10 -8 31.5 -16t47.5 -9q29 -1 47 14t18 40q0 26 -21 41t-59 15l-16 -1l-10 13l26 81h48l-16 -51q46 -3 76 -28.5t30 -68.5q0 -21 -10.5 -44.5t-39.5 -39.5t-68 -16z" />
    <glyph glyph-name="glyph629" horiz-adv-x="208" 
d="M151 -208q-31 -29 -78 -29q-43 0 -71.5 25t-28.5 72q0 33 16 66t48 58.5t58 36.5l30 -21q-35 -18 -64.5 -51.5t-29.5 -71.5q0 -30 14 -46t37 -16q28 0 50 18z" />
    <glyph glyph-name="glyph630" horiz-adv-x="345" 
d="M19 241v52h286v-52h-286z" />
    <glyph glyph-name="glyph631" horiz-adv-x="390" 
d="M84 177l-28 48l257 142l28 -48z" />
    <glyph glyph-name="glyph632" horiz-adv-x="626" 
d="M131 -47l-47 36l432 572l46 -35z" />
    <glyph glyph-name="glyph633" horiz-adv-x="414" 
d="M102 0l89 205h-103v53h124l91 200h-272v58h347v-33l-100 -225h78v-53h-100l-90 -205h-64z" />
    </font>
</defs>
</svg>
