<?xml version="1.0" encoding="utf-8"?>
<!-- Generator: Adobe Illustrator 21.1.0, SVG Export Plug-In . SVG Version: 6.00 Build 0)  -->
<svg version="1.1" id="Layer_1"
	xmlns="http://www.w3.org/2000/svg"
	xmlns:xlink="http://www.w3.org/1999/xlink"
	x="0px" y="0px"
	width="300px"
	height="88px"
	viewBox="0 0 520 153"
	style="enable-background:new 0 0 520 153;"
	xml:space="preserve"
	preserveAspectRatio="xMinYMin">
<style type="text/css">
	.st0{fill:#d42561;}
</style>
<g>
	<g>
		<rect x="276.7" y="130.1" class="st0" width="1.4" height="22.6"/>
	</g>
	<g>
		<g>
			<path class="st0" d="M75.9,149.5l1.1-1.2c2.4,2.2,4.6,3.2,7.8,3.2c3.2,0,5.5-1.8,5.5-4.3v-0.1c0-2.3-1.2-3.6-6.1-4.6
				c-5.2-1.1-7.3-2.8-7.3-6.1v-0.1c0-3.2,2.9-5.7,7-5.7c3.2,0,5.2,0.9,7.4,2.6l-1,1.3c-2-1.8-4.1-2.4-6.5-2.4
				c-3.2,0-5.3,1.8-5.3,4.1v0.1c0,2.3,1.2,3.7,6.3,4.7c5,1,7.1,2.8,7.1,6v0.1c0,3.5-3,5.9-7.2,5.9C81.2,152.9,78.5,151.8,75.9,149.5
				z"/>
		</g>
		<g>
			<path class="st0" d="M96.7,136.9h1.7l4.8,13.9l4.8-13.9h1.2l4.8,13.9l4.8-13.9h1.6l-5.8,15.9h-1.3l-4.7-13.5l-4.7,13.5h-1.3
				L96.7,136.9z"/>
		</g>
		<g>
			<path class="st0" d="M124.3,144.8L124.3,144.8c0-4.6,3.2-8.3,7.5-8.3c4.4,0,7.2,3.6,7.2,8.3c0,0.3,0,0.4,0,0.6h-13.1
				c0.3,3.9,3.1,6.2,6.2,6.2c2.4,0,4.1-1.1,5.4-2.5l1.1,0.9c-1.6,1.7-3.5,3-6.5,3C127.9,153,124.3,149.7,124.3,144.8z M137.4,144
				c-0.2-3.2-2-6.1-5.7-6.1c-3.1,0-5.5,2.6-5.8,6.1H137.4z"/>
		</g>
		<g>
			<path class="st0" d="M143.9,144.8L143.9,144.8c0-4.6,3.2-8.3,7.5-8.3c4.4,0,7.2,3.6,7.2,8.3c0,0.3,0,0.4,0,0.6h-13.1
				c0.3,3.9,3.1,6.2,6.2,6.2c2.4,0,4.1-1.1,5.4-2.5l1.1,0.9c-1.6,1.7-3.5,3-6.5,3C147.5,153,143.9,149.7,143.9,144.8z M157,144
				c-0.2-3.2-2-6.1-5.7-6.1c-3.1,0-5.5,2.6-5.8,6.1H157z"/>
		</g>
		<g>
			<path class="st0" d="M165.4,148.6v-10.3h-2.3v-1.4h2.3v-5h1.5v5h5.5v1.4H167v10.2c0,2.3,1.3,3.1,3.2,3.1c0.8,0,1.4-0.2,2.3-0.6
				v1.4c-0.8,0.4-1.6,0.6-2.6,0.6C167.4,152.9,165.4,151.6,165.4,148.6z"/>
		</g>
	</g>
	<g>
		<path class="st0" d="M214.4,131h9.1c2.7,0,4.8,0.8,6.1,2.1c1,1,1.6,2.5,1.6,4v0.1c0,3.6-2.7,5.7-6.3,6.2l7.1,9.3h-2l-6.9-9H216v9
			h-1.6V131z M223.3,142.2c3.6,0,6.3-1.8,6.3-4.9v-0.1c0-2.9-2.3-4.7-6.2-4.7H216v9.7H223.3z"/>
	</g>
	<g>
		<path class="st0" d="M236.5,144.8L236.5,144.8c0-4.6,3.2-8.3,7.5-8.3c4.4,0,7.2,3.6,7.2,8.3c0,0.3,0,0.4,0,0.6h-13.1
			c0.3,3.9,3.1,6.2,6.2,6.2c2.4,0,4.1-1.1,5.4-2.5l1.1,0.9c-1.6,1.7-3.5,3-6.5,3C240.1,153,236.5,149.7,236.5,144.8z M249.6,144
			c-0.2-3.2-2-6.1-5.7-6.1c-3.1,0-5.5,2.6-5.8,6.1H249.6z"/>
	</g>
	<g>
		<path class="st0" d="M255.9,148.1L255.9,148.1c0-3.3,2.8-5.2,6.9-5.2c2.2,0,3.7,0.3,5.2,0.7v-0.7c0-3.2-1.9-4.8-5.2-4.8
			c-1.9,0-3.5,0.5-4.9,1.3l-0.6-1.3c1.7-0.8,3.4-1.4,5.6-1.4c2.1,0,3.8,0.6,5,1.7c1.1,1.1,1.6,2.5,1.6,4.5v9.8H268V150
			c-1.1,1.5-3,3-6,3C259.1,153,255.9,151.3,255.9,148.1z M268.1,146.7v-1.8c-1.3-0.3-3.1-0.7-5.4-0.7c-3.3,0-5.2,1.5-5.2,3.7v0.1
			c0,2.3,2.2,3.6,4.6,3.6C265.3,151.6,268.1,149.6,268.1,146.7z"/>
	</g>
	<g>
		<g>
			<path class="st0" d="M321.6,131h9.1c2.7,0,4.8,0.8,6.1,2.1c1,1,1.6,2.5,1.6,4v0.1c0,3.6-2.7,5.7-6.3,6.2l7.1,9.3h-2l-6.9-9h-7.1
				v9h-1.6V131z M330.5,142.2c3.6,0,6.3-1.8,6.3-4.9v-0.1c0-2.9-2.3-4.7-6.2-4.7h-7.4v9.7H330.5z"/>
		</g>
		<g>
			<path class="st0" d="M343.8,144.8L343.8,144.8c0-4.6,3.2-8.3,7.5-8.3c4.4,0,7.2,3.6,7.2,8.3c0,0.3,0,0.4,0,0.6h-13.1
				c0.3,3.9,3.1,6.2,6.2,6.2c2.4,0,4.1-1.1,5.4-2.5l1.1,0.9c-1.6,1.7-3.5,3-6.5,3C347.4,153,343.8,149.7,343.8,144.8z M356.9,144
				c-0.2-3.2-2-6.1-5.7-6.1c-3.1,0-5.5,2.6-5.8,6.1H356.9z"/>
		</g>
		<g>
			<path class="st0" d="M365.4,138.2h-2.3v-1.4h2.3v-1.5c0-1.8,0.5-3.2,1.4-4.1c0.8-0.8,1.9-1.2,3.3-1.2c1,0,1.6,0.1,2.4,0.4v1.4
				c-0.9-0.3-1.5-0.4-2.4-0.4c-2.2,0-3.2,1.3-3.2,4v1.5h5.5v1.4h-5.5v14.4h-1.5V138.2z M375.7,130.7h1.9v2.1h-1.9V130.7z
				 M375.9,136.9h1.5v15.8h-1.5V136.9z"/>
		</g>
		<g>
			<path class="st0" d="M384.9,136.9h1.5v2.9c1.1-1.9,2.8-3.3,5.7-3.3c4,0,6.3,2.7,6.3,6.5v9.6h-1.5v-9.4c0-3.2-1.8-5.4-5-5.4
				c-3.1,0-5.5,2.4-5.5,5.6v9.1h-1.5V136.9z"/>
		</g>
		<g>
			<path class="st0" d="M404.3,144.8L404.3,144.8c0-4.6,3.2-8.3,7.5-8.3c4.4,0,7.2,3.6,7.2,8.3c0,0.3,0,0.4,0,0.6h-13.1
				c0.3,3.9,3.1,6.2,6.2,6.2c2.4,0,4.1-1.1,5.4-2.5l1.1,0.9c-1.6,1.7-3.5,3-6.5,3C407.9,153,404.3,149.7,404.3,144.8z M417.4,144
				c-0.2-3.2-2-6.1-5.7-6.1c-3.1,0-5.5,2.6-5.8,6.1H417.4z"/>
		</g>
		<g>
			<path class="st0" d="M424,144.8L424,144.8c0-5.2,3.9-8.3,7.7-8.3c3.2,0,5.2,1.8,6.5,3.8v-10.2h1.5v22.6h-1.5v-3.5
				c-1.4,2.1-3.4,3.9-6.5,3.9C427.8,153,424,149.9,424,144.8z M438.2,144.8L438.2,144.8c0-4.1-3.2-6.8-6.4-6.8
				c-3.4,0-6.2,2.5-6.2,6.7v0.1c0,4.1,2.9,6.8,6.2,6.8C435.1,151.5,438.2,148.8,438.2,144.8z"/>
		</g>
	</g>
	<g>

			<rect x="296" y="138.7" transform="matrix(0.707 0.7072 -0.7072 0.707 188.4779 -170.2463)" class="st0" width="7.4" height="7.4"/>
	</g>
	<g>

			<rect x="188.6" y="138.7" transform="matrix(0.707 0.7072 -0.7072 0.707 156.9961 -94.2519)" class="st0" width="7.4" height="7.4"/>
	</g>
	<g>
		<g>
			<rect x="335.1" y="26.5" class="st0" width="173.6" height="3.2"/>
		</g>
	</g>
	<g>
		<g>
			<rect x="1.6" y="26.5" class="st0" width="177.2" height="3.2"/>
		</g>
	</g>
	<g>
		<g>
			<path class="st0" d="M201.5,20.6l-5.4,3.2l-1.6-2.7l13.8-8.1l1.6,2.7l-5.4,3.2l10.4,17.7l-3,1.8L201.5,20.6z"/>
		</g>
		<g>
			<path class="st0" d="M221.2,7.4l14-4.2l1,3.2l-10.7,3.2l2,6.5l9.1-2.8l0.9,3l-9.1,2.8l2,6.7l10.7-3.2l1,3.2l-14,4.2L221.2,7.4z"
				/>
		</g>
		<g>
			<path class="st0" d="M257,15.3l-4.6,9.1l-3.9,0.2l6.4-12.5l-7.2-11.2l3.9-0.2l5,8l4.2-8.4l3.9-0.2l-6.2,11.9l7.8,11.7l-3.9,0.2
				L257,15.3z"/>
		</g>
		<g>
			<path class="st0" d="M286.9,21.5l-8.5-1.7l-2.8,4.8l-3.6-0.7l12.9-21.6l2.9,0.6l3.5,24.9l-3.6-0.7L286.9,21.5z M286.5,18.1
				l-1.2-10.8l-0.1,0l-5.3,9.5L286.5,18.1z"/>
		</g>
		<g>
			<path class="st0" d="M301.7,25.7c0.9,2.2,2.5,3.9,4.8,5c2.7,1.3,4.5,1,5.5-1c0.8-1.6,0.4-3-1.3-4.2c-0.8-0.5-1.6-1.1-2.5-1.7
				c-1.6-1.2-2.6-2.5-3-4c-0.4-1.5-0.3-3.1,0.5-4.6c0.9-1.9,2.2-3.1,4-3.6c1.7-0.6,3.6-0.3,5.8,0.7c2.5,1.3,4.4,3.1,5.6,5.5l-3,1.8
				c-1-1.8-2.5-3.2-4.3-4.1c-1-0.5-1.9-0.6-2.8-0.4c-0.9,0.2-1.6,0.8-2.2,1.8c-0.3,0.6-0.3,1.3-0.1,2c0.2,0.7,0.8,1.4,1.7,2.1
				c0.5,0.4,1.2,0.9,2.2,1.5c1.8,1.2,2.9,2.6,3.2,4.3c0.4,1.6,0.2,3.1-0.6,4.6c-2.1,4-5.5,4.9-10.3,2.6c-3-1.5-5.2-3.8-6.4-6.8
				L301.7,25.7z"/>
		</g>
	</g>
	<g>
		<g>
			<polygon class="st0" points="351.3,111.9 356,115.1 357.7,115.1 352.9,111.9 			"/>
			<polygon class="st0" points="355.8,111.9 355,111.9 359.8,115.1 361.4,115.1 356,111.5 			"/>
			<polygon class="st0" points="356.4,110.4 362.7,114.5 363.1,113.6 356.8,109.6 			"/>
			<polygon class="st0" points="357.3,108.5 363.6,112.6 363.9,111.7 357.6,107.6 			"/>
			<polygon class="st0" points="358.1,106.6 364.4,110.7 364.7,109.8 358.5,105.7 			"/>
			<polygon class="st0" points="358.9,104.7 365.2,108.8 365.6,107.9 359.3,103.8 			"/>
			<polygon class="st0" points="360,102.3 359.8,102.7 366,106.8 366.5,106 360.9,102.3 			"/>
			<polygon class="st0" points="362.9,102.3 367.7,105.5 369.4,105.5 364.6,102.3 			"/>
			<polygon class="st0" points="366.7,102.3 371.5,105.5 373.1,105.5 368.4,102.3 			"/>
			<polygon class="st0" points="370.4,102.3 375.2,105.5 376.9,105.5 372.1,102.3 			"/>
			<polygon class="st0" points="378.8,68.3 378.1,66.8 373.7,63.9 374.4,65.3 			"/>
			<polygon class="st0" points="375.9,102.3 374.1,102.3 379,105.5 379.3,105.5 378.8,104.2 			"/>
			<polygon class="st0" points="380.5,71.9 379.7,70.3 375.3,67.3 376.1,69 			"/>
			<polygon class="st0" points="382.2,75.4 381.4,73.9 376.9,70.9 377.7,72.5 			"/>
			<polygon class="st0" points="383.8,79 383.1,77.4 378.6,74.5 379.4,76.1 			"/>
			<polygon class="st0" points="385.5,82.6 384.8,81 380.3,78 381,79.6 			"/>
			<polygon class="st0" points="387.2,86.2 386.4,84.6 381.9,81.6 382.7,83.2 			"/>
			<polygon class="st0" points="388.8,89.7 388.1,88.2 383.6,85.2 384.3,86.7 			"/>
			<polygon class="st0" points="390.4,93.3 389.7,91.7 385.3,88.8 386,90.3 			"/>
			<polygon class="st0" points="392.1,96.9 391.3,95.2 386.9,92.3 387.7,94 			"/>
			<polygon class="st0" points="393.7,100.4 393,98.7 388.5,95.8 389.3,97.5 			"/>
			<polygon class="st0" points="388.8,111.9 393.5,115.1 395.2,115.1 390.4,111.9 			"/>
			<polygon class="st0" points="395.4,104 394.7,102.4 390.3,99.5 391,101.1 			"/>
			<polygon class="st0" points="397.1,107.5 396.3,106 391.9,103 392.6,104.6 			"/>
			<polygon class="st0" points="392.7,111.9 392.5,111.9 397.3,115.1 398.9,115.1 394.1,111.9 			"/>
			<polygon class="st0" points="398.7,111 398,109.5 393.6,106.6 394.3,108.1 			"/>
			<polygon class="st0" points="400.4,114.6 399.6,113 395.2,110.1 395.9,111.7 			"/>
			<path class="st0" d="M370,61.1h-1.9l-22.7,48.7h8.9l4.2-9.6h20.7l4.3,9.6h9.1L370,61.1z M361.6,93.4l7.3-16.6l7.3,16.6H361.6z"/>
			<polygon class="st0" points="363.4,92.1 364.2,92.1 363.6,91.8 			"/>
			<polygon class="st0" points="364.1,90.7 366.3,92.1 368,92.1 364.5,89.9 			"/>
			<polygon class="st0" points="364.9,88.8 370,92.1 371.7,92.1 365.3,88 			"/>
			<polygon class="st0" points="365.8,86.9 372.8,91.5 373.2,90.6 366.2,86 			"/>
			<path class="st0" d="M366.6,85l6.5,4.3c-0.3-0.5-0.5-1-0.7-1.5l-5.4-3.6L366.6,85z"/>
			<polygon class="st0" points="367.5,83.1 371.5,85.8 370.9,84.2 367.8,82.2 			"/>
			<polygon class="st0" points="368.3,81.1 370,82.3 369.3,80.7 368.7,80.3 			"/>
		</g>
		<g>
			<polygon class="st0" points="59.6,65.1 65.5,69 65.5,67.9 59.6,64 			"/>
			<polygon class="st0" points="59.6,67.6 65.5,71.5 65.5,70.4 59.6,66.5 			"/>
			<polygon class="st0" points="59.6,70.1 65.5,73.9 65.5,72.8 59.6,69 			"/>
			<polygon class="st0" points="59.6,72.5 65.5,76.4 65.5,75.3 59.6,71.4 			"/>
			<polygon class="st0" points="59.6,75 65.5,78.9 65.5,77.8 59.6,73.9 			"/>
			<polygon class="st0" points="59.6,77.5 65.5,81.4 65.5,80.3 59.6,76.4 			"/>
			<polygon class="st0" points="59.6,80 65.5,83.8 65.5,82.7 59.6,78.9 			"/>
			<polygon class="st0" points="59.6,82.4 65.5,86.3 65.5,85.2 59.6,81.3 			"/>
			<polygon class="st0" points="59.6,84.9 65.5,88.8 65.5,87.7 59.6,83.8 			"/>
			<polygon class="st0" points="59.6,87.4 65.5,91.3 65.5,90.1 59.6,86.3 			"/>
			<path class="st0" d="M59.6,89.8C59.6,89.8,59.6,89.8,59.6,89.8l5.9,3.9v-1.1l-5.9-3.9V89.8z"/>
			<path class="st0" d="M59.8,92.4l5.7,3.8v-1l-5.9-3.9C59.7,91.7,59.7,92.1,59.8,92.4z"/>
			<path class="st0" d="M60.4,95.3l5.3,3.5c0-0.3-0.1-0.8-0.1-1.2L60,94C60.1,94.5,60.3,94.9,60.4,95.3z"/>
			<path class="st0" d="M61.3,97.3c1.2,1.9,2.9,2.8,4.7,3.2c0,0,0-0.1,0-0.1L61.3,97.3z"/>
			<path class="st0" d="M69.1,114.7l-3.1-2.1c-0.5,0-0.9-0.1-1.4-0.2l0.5,0.3C66.3,113.6,67.7,114.3,69.1,114.7z"/>
			<path class="st0" d="M72.4,115.6c0.7,0.1,1.4,0.2,2.1,0.3l-4.6-3.1c-0.3,0-0.6,0-0.9,0c-0.3,0-0.5,0-0.8,0L72.4,115.6z"/>
			<path class="st0" d="M71.8,112.7l4.9,3.3h1.6l-5.2-3.4C72.7,112.6,72.3,112.7,71.8,112.7z"/>
			<path class="st0" d="M74.9,112.3l5.4,3.5c0.5,0,1-0.1,1.4-0.1l-5.5-3.6C75.7,112.1,75.3,112.2,74.9,112.3z"/>
			<path class="st0" d="M83.3,115.4c0.4-0.1,0.8-0.3,1.2-0.3l-5.8-3.8c-0.4,0.1-0.7,0.2-1.1,0.4L83.3,115.4z"/>
			<path class="st0" d="M80,110.6l5.9,3.9l1-0.4l-6-3.9C80.6,110.3,80.3,110.5,80,110.6z"/>
			<path class="st0" d="M82,109.6l6.1,4L89,113l-6.2-4C82.6,109.2,82.3,109.4,82,109.6z"/>
			<path class="st0" d="M90.8,111.8l-6.3-4.1c-0.2,0.2-0.5,0.4-0.7,0.6l6.2,4.1L90.8,111.8z"/>
			<path class="st0" d="M91.7,111l0.7-0.6l-6.3-4.2c-0.2,0.2-0.4,0.5-0.6,0.7L91.7,111z"/>
			<path class="st0" d="M93.7,108.7l-6.4-4.1c-0.2,0.3-0.3,0.5-0.5,0.8l6.4,4.1C93.4,109.2,93.5,109,93.7,108.7z"/>
			<path class="st0" d="M94.7,107l-6.3-4.2c-0.2,0.3-0.3,0.6-0.5,0.8l6.3,4.2C94.5,107.5,94.6,107.3,94.7,107z"/>
			<path class="st0" d="M95.6,105.1l-6.3-4.1c-0.1,0.3-0.2,0.6-0.3,0.8l6.3,4.2L95.6,105.1z"/>
			<path class="st0" d="M96.3,103.1L90.1,99c-0.1,0.3-0.2,0.6-0.3,0.9L96,104C96.1,103.7,96.2,103.3,96.3,103.1z"/>
			<path class="st0" d="M96.8,100.9l-6.2-4c-0.1,0.3-0.1,0.6-0.2,0.9l6.2,4L96.8,100.9z"/>
			<path class="st0" d="M90.9,95.6l6.1,4c0-0.3,0.1-0.7,0.1-1l-6-4C91,95,90.9,95.3,90.9,95.6z"/>
			<path class="st0" d="M91.2,93.3l6,4c0-0.3,0.1-0.7,0.1-1l-6-4C91.3,92.7,91.2,93,91.2,93.3z"/>
			<polygon class="st0" points="97.3,66.9 91.4,62.9 91.4,64 97.3,67.9 			"/>
			<polygon class="st0" points="91.4,66.3 97.3,70.2 97.3,69.1 91.4,65.2 			"/>
			<polygon class="st0" points="91.4,68.8 97.3,72.6 97.3,71.5 91.4,67.7 			"/>
			<polygon class="st0" points="91.4,71.2 97.3,75.1 97.3,74 91.4,70.1 			"/>
			<polygon class="st0" points="91.4,73.7 97.3,77.6 97.3,76.5 91.4,72.6 			"/>
			<polygon class="st0" points="91.4,76.2 97.3,80.1 97.3,79 91.4,75.1 			"/>
			<polygon class="st0" points="91.4,78.6 97.3,82.5 97.3,81.4 91.4,77.5 			"/>
			<polygon class="st0" points="91.4,81.1 97.3,85 97.3,83.9 91.4,80 			"/>
			<polygon class="st0" points="91.4,83.6 97.3,87.5 97.3,86.4 91.4,82.5 			"/>
			<polygon class="st0" points="91.4,86.1 97.3,89.9 97.3,88.8 91.4,85 			"/>
			<polygon class="st0" points="91.4,88.5 97.3,92.4 97.3,91.3 91.4,87.4 			"/>
			<path class="st0" d="M91.3,91l5.9,3.9v-1.1l-5.9-3.9C91.4,90.3,91.3,90.6,91.3,91z"/>
			<path class="st0" d="M89.2,89.8V61.5h-8.5v28.2c0,9.3-4.5,13.1-11.7,13.1c-7.3,0-11.5-3.8-11.5-13.1V61.5H49v28.3
				c0,14.4,7.9,20.9,20,20.9C81.1,110.7,89.2,104.2,89.2,89.8z"/>
		</g>
		<g>
			<path class="st0" d="M116.9,85.8c0,0.2,0,0.4,0,0.6l5.9,3.9c0.1-0.3,0.1-0.7,0.1-1l-5.9-3.9C116.9,85.4,116.9,85.6,116.9,85.8z"
				/>
			<path class="st0" d="M117.2,89l5.6,3.7v-1.2l-5.8-3.8C117.1,88.2,117.1,88.6,117.2,89z"/>
			<path class="st0" d="M123.2,86.9l-6.1-4c-0.1,0.3-0.1,0.7-0.1,1l6.1,4L123.2,86.9z"/>
			<path class="st0" d="M122.9,94.1l-5.2-3.5c0.2,0.5,0.4,1,0.6,1.5l4.9,3.3C123,95,123,94.5,122.9,94.1z"/>
			<path class="st0" d="M123.8,84.9l-6.2-4.1c-0.1,0.3-0.2,0.6-0.3,0.9l6.2,4.1C123.7,85.5,123.7,85.1,123.8,84.9z"/>
			<path class="st0" d="M124.7,82.9l-6.3-4.2c-0.1,0.3-0.3,0.6-0.4,0.9l6.3,4.1L124.7,82.9z"/>
			<path class="st0" d="M119.6,94.5c1.2,1.6,2.7,2.9,4.5,3.9l-0.5-1.3L119.6,94.5z"/>
			<path class="st0" d="M125.7,81.1l-6.3-4.1c-0.2,0.3-0.3,0.5-0.5,0.8l6.3,4.2L125.7,81.1z"/>
			<path class="st0" d="M127,79.6l-6.2-4.2c-0.2,0.2-0.4,0.4-0.6,0.7l6.3,4.2L127,79.6z"/>
			<path class="st0" d="M127.9,78.7c0.2-0.3,0.5-0.5,0.8-0.7l-6.2-4.1c-0.3,0.2-0.5,0.4-0.8,0.7L127.9,78.7z"/>
			<path class="st0" d="M129.6,77.4c0.3-0.2,0.6-0.4,0.8-0.6l-6.1-4c-0.3,0.2-0.6,0.3-0.9,0.5L129.6,77.4z"/>
			<path class="st0" d="M127.2,112.9c1.3,0.6,2.7,1.2,4.2,1.6l-3.1-2.1c-0.8-0.1-1.5-0.2-2.2-0.4L127.2,112.9z"/>
			<path class="st0" d="M125.5,72.2l6,4l1-0.5l-5.8-3.9C126.2,72,125.9,72.1,125.5,72.2z"/>
			<path class="st0" d="M128,71.4l5.7,3.8l1.1-0.3l-5.6-3.7C128.8,71.2,128.4,71.3,128,71.4z"/>
			<path class="st0" d="M136.8,115.6l-4.4-2.9c-0.6,0-1.2,0-1.7-0.1l4,2.7C135.4,115.5,136.1,115.6,136.8,115.6z"/>
			<path class="st0" d="M131.1,70.9l5.4,3.6l1.4-0.2l-5.2-3.4C132.1,70.9,131.6,70.9,131.1,70.9z"/>
			<polygon class="st0" points="132.9,94.2 137.7,97.4 139,97.4 134.3,94.2 			"/>
			<path class="st0" d="M139.3,115.8c0.5,0.1,1.1,0.1,1.7,0.1l-5-3.3c-0.5,0-1,0.1-1.5,0.1L139.3,115.8z"/>
			<path class="st0" d="M139.5,74.1c0.5-0.1,1.1-0.1,1.6-0.1l-4.2-2.8c-0.7-0.1-1.4-0.2-2.1-0.3L139.5,74.1z"/>
			<polygon class="st0" points="141,96.2 138,94.2 136.4,94.2 141,97.3 			"/>
			<path class="st0" d="M137.7,112.4l5.2,3.4l1.6-0.1l-5.4-3.5C138.7,112.3,138.2,112.4,137.7,112.4z"/>
			<path class="st0" d="M140.4,72.1l3.1,2l2.1,0.3l-1.4-1C143.4,73.2,142.1,72.6,140.4,72.1z"/>
			<polygon class="st0" points="141,94.2 140.1,94.2 141,94.8 			"/>
			<path class="st0" d="M140.7,111.9l5.5,3.6l1.3-0.2l-5.6-3.7C141.5,111.7,141.1,111.8,140.7,111.9z"/>
			<path class="st0" d="M143.4,111.2l5.7,3.8l1.2-0.3l-5.7-3.8C144.2,111,143.8,111.1,143.4,111.2z"/>
			<path class="st0" d="M145.9,110.4l5.9,3.8l1-0.3l-5.9-3.9C146.6,110.1,146.2,110.2,145.9,110.4z"/>
			<path class="st0" d="M152.4,76.5l-5-3.3l-0.4,0.9l1.9,1.2C150.4,75.7,151.5,76.2,152.4,76.5z"/>
			<polygon class="st0" points="154.4,75.4 148.2,71.3 147.9,72.1 154.1,76.2 			"/>
			<path class="st0" d="M148.2,109.4l6,3.9l1-0.4l-6-3.9C148.8,109.1,148.5,109.3,148.2,109.4z"/>
			<polygon class="st0" points="155.3,73.4 149,69.3 148.6,70.2 154.8,74.3 			"/>
			<polygon class="st0" points="156,71.5 149.8,67.3 149.4,68.2 155.7,72.4 			"/>
			<path class="st0" d="M150.3,108.3l6.1,4l1-0.5l-6.2-4C150.9,108,150.6,108.2,150.3,108.3z"/>
			<path class="st0" d="M156.6,70c-0.1,0-0.2,0-6.2-4.1l-0.3,0.6l6.3,4.1L156.6,70z"/>
			<path class="st0" d="M159.2,110.7l-6.2-4.1l-0.3,0.2c0,0-0.2,0.2-0.5,0.3l6.2,4L159.2,110.7z"/>
			<polygon class="st0" points="153.5,88.3 159.4,92.1 159.4,91 153.5,87.2 			"/>
			<polygon class="st0" points="153.5,90.7 159.4,94.6 159.4,93.5 153.5,89.6 			"/>
			<polygon class="st0" points="153.5,93.2 159.4,97.1 159.4,96 153.5,92.1 			"/>
			<polygon class="st0" points="153.5,95.7 159.4,99.6 159.4,98.5 153.5,94.5 			"/>
			<polygon class="st0" points="153.5,98.1 159.4,102 159.4,100.9 153.5,97 			"/>
			<polygon class="st0" points="153.5,100.6 159.4,104.5 159.4,103.4 153.5,99.5 			"/>
			<polygon class="st0" points="153.5,103.1 159.4,107 159.4,105.9 153.5,101.9 			"/>
			<polygon class="st0" points="153.5,105.1 153.5,105.5 159.4,109.5 159.4,108.4 153.5,104.5 			"/>
			<path class="st0" d="M151.4,84.4h-21.7v7.6h13.5v8.6c-2.6,1-6.5,1.9-11,1.9c-10,0-17.4-7.1-17.4-16.8c0-9.9,6.9-17,18.3-17
				c6.4,0,12.6,3.2,12.6,3.2l3-7.3c0,0-6.3-3.9-17-3.9c-14.3,0-26,11-26,24.9c0,14.3,10.9,25,27.2,25c11.5,0,18.7-5.5,18.7-5.5V84.4
				z"/>
		</g>
		<g>
			<polygon class="st0" points="168.2,111.9 173,115.1 174.7,115.1 169.9,111.9 			"/>
			<polygon class="st0" points="172.7,111.9 172,111.9 176.8,115.1 178.4,115.1 172.9,111.5 			"/>
			<polygon class="st0" points="173.8,109.6 173.4,110.4 179.7,114.5 180.1,113.6 			"/>
			<polygon class="st0" points="180.9,111.7 174.6,107.6 174.2,108.5 180.5,112.6 			"/>
			<polygon class="st0" points="181.7,109.8 175.5,105.7 175.1,106.6 181.4,110.7 			"/>
			<polygon class="st0" points="182.5,107.9 176.3,103.8 175.9,104.7 182.2,108.8 			"/>
			<polygon class="st0" points="183,106.8 183.4,106 177.8,102.3 176.9,102.3 176.8,102.7 			"/>
			<polygon class="st0" points="179.9,102.3 184.7,105.5 186.4,105.5 181.6,102.3 			"/>
			<polygon class="st0" points="183.6,102.3 188.4,105.5 190.1,105.5 185.3,102.3 			"/>
			<polygon class="st0" points="187.4,102.3 192.2,105.5 193.9,105.5 189.1,102.3 			"/>
			<polygon class="st0" points="195.1,66.8 190.7,63.9 191.3,65.3 195.8,68.3 			"/>
			<polygon class="st0" points="196.3,105.5 195.7,104.2 192.8,102.3 191.1,102.3 195.9,105.5 			"/>
			<polygon class="st0" points="196.7,70.3 192.3,67.3 193,69 197.4,71.9 			"/>
			<polygon class="st0" points="198.4,73.9 193.9,70.9 194.7,72.5 199.2,75.4 			"/>
			<polygon class="st0" points="200.1,77.4 195.6,74.5 196.3,76.1 200.8,79 			"/>
			<polygon class="st0" points="201.8,81 197.3,78 198,79.6 202.5,82.6 			"/>
			<polygon class="st0" points="203.4,84.6 198.9,81.6 199.6,83.2 204.2,86.2 			"/>
			<polygon class="st0" points="205.1,88.2 200.6,85.2 201.3,86.7 205.8,89.7 			"/>
			<polygon class="st0" points="206.7,91.7 202.2,88.8 203,90.3 207.4,93.3 			"/>
			<polygon class="st0" points="208.3,95.2 203.9,92.3 204.7,94 209.1,96.9 			"/>
			<polygon class="st0" points="209.9,98.7 205.5,95.8 206.3,97.5 210.7,100.4 			"/>
			<polygon class="st0" points="205.7,111.9 210.5,115.1 212.2,115.1 207.4,111.9 			"/>
			<polygon class="st0" points="211.7,102.4 207.2,99.5 208,101.1 212.4,104 			"/>
			<polygon class="st0" points="213.3,106 208.9,103 209.6,104.6 214.1,107.5 			"/>
			<polygon class="st0" points="209.7,111.9 209.5,111.9 214.3,115.1 215.9,115.1 211.1,111.9 			"/>
			<polygon class="st0" points="215,109.5 210.5,106.6 211.2,108.1 215.7,111 			"/>
			<polygon class="st0" points="212.2,110.1 212.9,111.7 217.4,114.6 216.6,113 			"/>
			<path class="st0" d="M187,61.1h-1.9l-22.7,48.7h8.9l4.2-9.6h20.7l4.3,9.6h9.1L187,61.1z M193.3,93.7h-14.7H178l0.2-0.5l7.3-16.6
				l0.3-0.7l0.3,0.7l7.3,16.6l0.2,0.5H193.3z"/>
			<polygon class="st0" points="181.3,92.1 180.7,91.8 180.5,92.1 			"/>
			<polygon class="st0" points="183.2,92.1 184.9,92.1 181.4,89.9 181,90.7 			"/>
			<polygon class="st0" points="186.9,92.1 188.7,92.1 182.3,88 181.9,88.8 			"/>
			<polygon class="st0" points="189.8,91.5 190.2,90.6 183.2,86 182.7,86.9 			"/>
			<path class="st0" d="M189.4,87.7l-5.4-3.6l-0.4,0.9l6.5,4.3C189.8,88.8,189.6,88.2,189.4,87.7z"/>
			<polygon class="st0" points="184.8,82.2 184.5,83.1 188.5,85.8 187.8,84.2 			"/>
			<polygon class="st0" points="185.6,80.3 185.3,81.1 186.9,82.3 186.3,80.7 			"/>
		</g>
		<g>
			<polygon class="st0" points="227.7,111.9 232.5,115.1 234.2,115.1 229.4,111.9 			"/>
			<polygon class="st0" points="232.3,111.9 231.5,111.9 236.3,115.1 237.9,115.1 233.2,111.9 			"/>
			<polygon class="st0" points="234.4,99.1 240.3,102.9 240.3,101.8 234.4,98 			"/>
			<polygon class="st0" points="234.4,101.5 240.3,105.4 240.3,104.3 234.4,100.4 			"/>
			<polygon class="st0" points="234.4,104 240.3,107.9 240.3,106.8 234.4,102.9 			"/>
			<polygon class="st0" points="234.4,106.5 240.3,110.3 240.3,109.2 234.4,105.4 			"/>
			<polygon class="st0" points="234.4,108.9 240.3,112.8 240.3,111.7 234.4,107.8 			"/>
			<polygon class="st0" points="234.4,111.4 240,115.1 240.3,115.1 240.3,114.2 234.4,110.3 			"/>
			<path class="st0" d="M237.6,97.9h-1.1l4.8,3.2h1.6l-4.8-3.2C237.9,97.9,237.8,97.9,237.6,97.9z"/>
			<path class="st0" d="M240.9,97.8c-0.3,0-0.5,0-0.8,0l1.5,1L240.9,97.8z"/>
			<path class="st0" d="M259.1,98.1c0.3-0.1,0.6-0.3,0.9-0.5l-6.2-4c-0.3,0.2-0.6,0.4-0.8,0.6L259.1,98.1z"/>
			<polygon class="st0" points="256.4,98.7 258.5,100.1 257.6,98.9 258,98.7 254.7,96.5 			"/>
			<polygon class="st0" points="255.3,111.9 260.1,115.1 261.2,115.1 256.4,111.9 			"/>
			<path class="st0" d="M261.7,96.2l-6.2-4.1c-0.2,0.2-0.5,0.4-0.7,0.6l6.2,4.1L261.7,96.2z"/>
			<path class="st0" d="M263.2,94.6l-6.2-4.1c-0.2,0.3-0.4,0.5-0.6,0.7l6.3,4.1L263.2,94.6z"/>
			<polygon class="st0" points="261.9,103.3 257.8,100.5 259.1,102.3 263.1,105 			"/>
			<polygon class="st0" points="264.4,106.8 260.5,104.2 261.9,106 265.6,108.5 			"/>
			<polygon class="st0" points="266.6,110 263.2,107.7 263.8,108.5 264.6,109.5 267.9,111.7 			"/>
			<polygon class="st0" points="258,111.9 262.8,115.1 264.2,115.1 259.4,111.9 			"/>
			<path class="st0" d="M264.4,93l-6.3-4.1c-0.2,0.3-0.3,0.5-0.5,0.8l6.3,4.1L264.4,93z"/>
			<path class="st0" d="M259.8,70.4l-1.1-0.7c0.2,0.5,0.4,1,0.6,1.5l4,2.7C262.4,72.6,261.3,71.4,259.8,70.4z"/>
			<path class="st0" d="M265.3,91.1L259,87c-0.1,0.3-0.3,0.6-0.4,0.8l6.3,4.1L265.3,91.1z"/>
			<path class="st0" d="M264.7,75.9l-4.8-3.2c0.1,0.4,0.2,0.8,0.3,1.2l5.2,3.4L264.7,75.9z"/>
			<path class="st0" d="M265.9,89.1l-6.2-4c-0.1,0.3-0.2,0.6-0.3,0.9l6.2,4.1C265.8,89.7,265.9,89.4,265.9,89.1z"/>
			<path class="st0" d="M266.4,86.9l-6.1-4c-0.1,0.3-0.1,0.7-0.2,1l6.1,4.1C266.3,87.5,266.4,87.2,266.4,86.9z"/>
			<path class="st0" d="M265.9,79.2l-5.5-3.6c0,0.4,0.1,0.7,0.1,1.1l5.6,3.8L265.9,79.2z"/>
			<path class="st0" d="M260.5,81.6l6,4c0.1-0.3,0.1-0.8,0.1-1.1l-6-3.9C260.5,80.9,260.5,81.3,260.5,81.6z"/>
			<path class="st0" d="M266.6,83.1l-0.1-1.2l-5.8-3.8c0,0.2,0,0.4,0,0.5c0,0.2,0,0.4,0,0.6L266.6,83.1z"/>
			<polygon class="st0" points="262.1,111.9 261.5,111.9 266.3,115.1 267.9,115.1 263.2,111.9 			"/>
			<polygon class="st0" points="269.8,115 268.1,112.7 265.8,111.2 266.4,111.9 265.2,111.9 			"/>
			<path class="st0" d="M249.7,93.4c6-2.8,8.8-8.1,8.8-14.8c0-10.1-6.5-17.2-19.3-17.2h-15.5v48.3h8.5v-14h5.3c1.5,0,3-0.1,4.3-0.2
				l10.2,14.2h10L249.7,93.4z M238.6,88.6h-6.3h-0.4v-0.4V69.3V69h0.4h6.3c9.2,0,11.1,5.3,11.1,9.7
				C249.7,85.1,245.7,88.6,238.6,88.6z"/>
			<polygon class="st0" points="233.5,70.6 233.5,71.3 240.3,75.7 240.3,74.6 234.2,70.6 			"/>
			<polygon class="st0" points="233.5,72.6 233.5,73.7 240.3,78.2 240.3,77.1 			"/>
			<polygon class="st0" points="233.5,75.1 233.5,76.2 240.3,80.7 240.3,79.6 			"/>
			<polygon class="st0" points="233.5,77.6 233.5,78.7 240.3,83.1 240.3,82 			"/>
			<polygon class="st0" points="233.5,80.1 233.5,81.1 240.3,85.6 240.3,84.5 			"/>
			<path class="st0" d="M238.7,87c0.6,0,1,0,1.6-0.1l-6.7-4.4v1.1L238.7,87z"/>
			<polygon class="st0" points="234.9,87 236.6,87 233.5,85 233.5,86.1 			"/>
			<polygon class="st0" points="244.1,74.6 237.9,70.6 236.3,70.6 242.4,74.6 			"/>
			<path class="st0" d="M246.2,74.6h1.1l-0.4-0.6l-4.5-3c-0.7-0.1-1.4-0.3-2.2-0.3L246.2,74.6z"/>
		</g>
		<g>
			<polygon class="st0" points="316.8,99.8 317,99.8 316.8,99.7 			"/>
			<polygon class="st0" points="311.2,111.9 316,115.1 317.7,115.1 312.9,111.9 			"/>
			<polygon class="st0" points="315,111.9 319.7,115.1 321.5,115.1 316.6,111.9 			"/>
			<polygon class="st0" points="316.8,63.9 322.7,67.8 322.7,66.9 316.8,62.9 			"/>
			<polygon class="st0" points="316.8,66.1 322.7,70 322.7,68.9 316.8,65 			"/>
			<polygon class="st0" points="316.8,68.6 322.7,72.5 322.7,71.4 316.8,67.5 			"/>
			<polygon class="st0" points="316.8,71.1 322.7,75 322.7,73.9 316.8,70 			"/>
			<polygon class="st0" points="316.8,73.6 322.7,77.4 322.7,76.3 316.8,72.5 			"/>
			<polygon class="st0" points="316.8,76 322.7,79.9 322.7,78.8 316.8,74.9 			"/>
			<polygon class="st0" points="316.8,78.5 322.7,82.4 322.7,81.3 316.8,77.4 			"/>
			<polygon class="st0" points="316.8,81 322.7,84.9 322.7,83.8 316.8,79.9 			"/>
			<polygon class="st0" points="316.8,83.5 322.7,87.3 322.7,86.2 316.8,82.4 			"/>
			<polygon class="st0" points="316.8,85.9 322.7,89.8 322.7,88.7 316.8,84.8 			"/>
			<polygon class="st0" points="316.8,88.4 322.7,92.3 322.7,91.2 316.8,87.3 			"/>
			<polygon class="st0" points="316.8,90.9 322.7,94.8 322.7,93.7 316.8,89.8 			"/>
			<polygon class="st0" points="316.8,93.4 322.7,97.2 322.7,96.1 316.8,92.3 			"/>
			<polygon class="st0" points="316.8,95.8 322.7,99.7 322.7,98.6 316.8,94.7 			"/>
			<polygon class="st0" points="316.8,98.3 319.1,99.8 320.8,99.8 316.8,97.2 			"/>
			<polygon class="st0" points="318.7,111.9 323.5,115.1 325.2,115.1 320.4,111.9 			"/>
			<polygon class="st0" points="322.5,111.9 327.3,115.1 328.9,115.1 324.1,111.9 			"/>
			<polygon class="st0" points="326.2,111.9 331,115.1 332.7,115.1 327.9,111.9 			"/>
			<polygon class="st0" points="330,111.9 334.8,115.1 336.4,115.1 331.7,111.9 			"/>
			<polygon class="st0" points="333.7,111.9 338.6,115.1 340.2,115.1 335.4,111.9 			"/>
			<polygon class="st0" points="337.5,111.9 337.5,111.9 342.3,115.1 343.9,115.1 339.2,111.9 			"/>
			<polygon class="st0" points="345.6,108.8 339.7,104.9 339.7,105.9 345.6,109.8 			"/>
			<polygon class="st0" points="339.7,108.4 345.6,112.3 345.6,111.2 339.7,107.4 			"/>
			<polygon class="st0" points="339.7,110.9 345.6,114.7 345.6,113.6 339.7,109.8 			"/>
			<polygon class="st0" points="337.5,102 314.7,102 314.7,61.5 306.1,61.5 306.1,109.8 337.5,109.8 			"/>
		</g>
		<g>
			<polygon class="st0" points="410.4,111.9 415.2,115.1 416.9,115.1 412.1,111.9 			"/>
			<polygon class="st0" points="415.3,111.9 414.1,111.9 418.9,115.1 420.6,115.1 415.8,111.9 			"/>
			<polygon class="st0" points="417.4,85.8 417.4,86.9 423.1,90.7 419.9,87.4 			"/>
			<polygon class="st0" points="417.4,89.4 423.3,93.3 423.3,92.2 417.4,88.3 			"/>
			<polygon class="st0" points="417.4,91.8 423.3,95.8 423.3,94.7 417.4,90.7 			"/>
			<polygon class="st0" points="417.4,94.3 423.3,98.3 423.3,97.2 417.4,93.2 			"/>
			<polygon class="st0" points="417.4,96.8 423.3,100.7 423.3,99.6 417.4,95.7 			"/>
			<polygon class="st0" points="417.4,99.3 423.3,103.2 423.3,102.1 417.4,98.2 			"/>
			<polygon class="st0" points="417.4,101.7 423.3,105.7 423.3,104.6 417.4,100.6 			"/>
			<polygon class="st0" points="417.4,104.2 423.3,108.2 423.3,107.1 417.4,103.1 			"/>
			<polygon class="st0" points="417.4,106.7 423.3,110.6 423.3,109.5 417.4,105.6 			"/>
			<polygon class="st0" points="417.4,109.2 423.3,113 423.3,111.9 417.4,108.1 			"/>
			<polygon class="st0" points="417.4,111.6 422.7,115.1 423.3,115.1 423.3,114.4 417.4,110.5 			"/>
			<polygon class="st0" points="450,112.3 448.8,112.3 453.6,115.4 454.9,115.4 450,112.2 			"/>
			<polygon class="st0" points="450,63 450,64.1 455.9,68 455.9,66.9 453.8,65.4 			"/>
			<polygon class="st0" points="450,66.4 455.9,70.2 455.9,69.1 450,65.3 			"/>
			<polygon class="st0" points="450,68.8 455.9,72.7 455.9,71.6 450,67.7 			"/>
			<polygon class="st0" points="450,71.3 455.9,75.2 455.9,74.1 450,70.2 			"/>
			<polygon class="st0" points="450,73.8 455.9,77.6 455.9,76.5 450,72.7 			"/>
			<polygon class="st0" points="450,76.2 455.9,80.1 455.9,79 450,75.1 			"/>
			<polygon class="st0" points="450,78.7 455.9,82.6 455.9,81.5 450,77.6 			"/>
			<polygon class="st0" points="450,81.2 455.9,85.1 455.9,84 450,80.1 			"/>
			<polygon class="st0" points="450,83.7 455.9,87.5 455.9,86.4 450,82.6 			"/>
			<polygon class="st0" points="450,86.1 455.9,90 455.9,88.9 450,85 			"/>
			<polygon class="st0" points="450,88.6 455.9,92.5 455.9,91.4 450,87.5 			"/>
			<polygon class="st0" points="450,91.1 455.9,95 455.9,93.9 450,90 			"/>
			<polygon class="st0" points="450,93.6 455.9,97.4 455.9,96.3 450,92.5 			"/>
			<polygon class="st0" points="450,96 455.9,99.9 455.9,98.8 450,94.9 			"/>
			<polygon class="st0" points="450,98.5 455.9,102.4 455.9,101.3 450,97.4 			"/>
			<polygon class="st0" points="450,101 455.9,104.9 455.9,103.8 450,99.9 			"/>
			<polygon class="st0" points="450,103.4 455.9,107.3 455.9,106.2 450,102.4 			"/>
			<polygon class="st0" points="450,105.9 455.9,109.8 455.9,108.7 450,104.8 			"/>
			<polygon class="st0" points="450,108.4 455.9,112.2 455.9,111.2 450,107.3 			"/>
			<polygon class="st0" points="450,110.1 450,110.8 455.9,114.7 455.9,113.6 450,109.8 			"/>
			<polygon class="st0" points="439.3,92.3 409.5,61.2 406.8,61.2 406.8,109.8 415.3,109.8 415.3,79.8 445.6,110.1 447.9,110.1
				447.9,61.5 439.3,61.5 			"/>
		</g>
		<g>
			<polygon class="st0" points="471.6,111.9 476.5,115.1 478.1,115.1 473.3,111.9 			"/>
			<polygon class="st0" points="475.4,111.9 480.2,115.1 481.9,115.1 477.1,111.9 			"/>
			<polygon class="st0" points="479.1,111.9 483.9,115.1 485.7,115.1 480.8,111.9 			"/>
			<polygon class="st0" points="482.9,111.9 487.7,115.1 489.4,115.1 484.6,111.9 			"/>
			<path class="st0" d="M486.6,111.9l4.8,3.2h1.7l-4.8-3.2C487.7,111.9,487.2,111.9,486.6,111.9z"/>
			<path class="st0" d="M490.1,111.7l5.1,3.3c0.5,0,1.1,0,1.6-0.1l-5.3-3.5C491,111.6,490.5,111.6,490.1,111.7z"/>
			<path class="st0" d="M493,111.2l5.5,3.6l1.3-0.2l-5.6-3.6C493.8,111,493.4,111.1,493,111.2z"/>
			<path class="st0" d="M501.4,114.3c0.4-0.1,0.8-0.3,1.2-0.3l-5.8-3.8c-0.4,0.1-0.7,0.3-1.1,0.4L501.4,114.3z"/>
			<path class="st0" d="M498.1,109.6l5.9,3.9l1-0.4l-6-3.9C498.7,109.3,498.4,109.4,498.1,109.6z"/>
			<path class="st0" d="M506.3,112.5c0.3-0.1,0.7-0.3,1-0.5l-6.1-3.9c-0.3,0.2-0.6,0.3-0.9,0.5L506.3,112.5z"/>
			<path class="st0" d="M502.3,107.4l6.1,4l0.8-0.5l-6.1-4.1C502.8,107,502.5,107.2,502.3,107.4z"/>
			<path class="st0" d="M504.1,106.1l6.2,4l0.8-0.5l-6.2-4.1C504.6,105.7,504.3,105.9,504.1,106.1z"/>
			<path class="st0" d="M512.7,108.2l-6.3-4.1c-0.2,0.2-0.4,0.4-0.7,0.6l6.2,4.1L512.7,108.2z"/>
			<path class="st0" d="M507.8,102.6c-0.2,0.2-0.4,0.4-0.6,0.6l6.2,4.2l0.6-0.7L507.8,102.6z"/>
			<path class="st0" d="M515.5,105.1l-6.3-4.2c-0.2,0.2-0.4,0.5-0.6,0.7l6.3,4.1L515.5,105.1z"/>
			<path class="st0" d="M510.7,72.4l-0.2-0.1c0.3,0.5,0.6,1.1,0.9,1.6l3.2,2.1C513.5,74.6,512.2,73.4,510.7,72.4z"/>
			<path class="st0" d="M516.6,103.4l-6.3-4.2c-0.2,0.3-0.3,0.5-0.5,0.8l6.3,4.2L516.6,103.4z"/>
			<path class="st0" d="M517.6,101.6l-6.3-4.2c-0.1,0.3-0.3,0.5-0.4,0.8l6.3,4.1L517.6,101.6z"/>
			<path class="st0" d="M516.5,78.6l-4.2-2.8c0.2,0.5,0.4,1,0.5,1.4l4.7,3.1L516.5,78.6z"/>
			<path class="st0" d="M518.4,99.7l-6.2-4.2c-0.1,0.3-0.2,0.6-0.4,0.9l6.3,4.1C518.2,100.2,518.4,100,518.4,99.7z"/>
			<path class="st0" d="M519.1,97.6l-6.2-4.1c-0.1,0.3-0.2,0.6-0.3,0.9l6.2,4.1L519.1,97.6z"/>
			<path class="st0" d="M518.4,82.3l-5-3.3c0.1,0.4,0.2,0.8,0.3,1.2l5.3,3.5C518.7,83.2,518.6,82.7,518.4,82.3z"/>
			<path class="st0" d="M519.6,95.4l-6.1-4c-0.1,0.3-0.1,0.6-0.2,1l6.1,4.1L519.6,95.4z"/>
			<path class="st0" d="M519.3,85.4l-5.5-3.6c0.1,0.4,0.1,0.8,0.1,1.2l5.6,3.7C519.5,86.2,519.5,85.8,519.3,85.4z"/>
			<path class="st0" d="M513.7,90.2l6.1,4l0.1-1l-6.1-4C513.8,89.5,513.8,89.9,513.7,90.2z"/>
			<path class="st0" d="M514.1,84.4c0,0.4,0,0.8,0,1.1l5.8,3.8l-0.1-1.2L514.1,84.4z"/>
			<path class="st0" d="M520,91.1v-0.3l-5.9-3.9c0,0.3,0,0.7-0.1,1l5.9,4C519.9,91.6,520,91.4,520,91.1z"/>
			<path class="st0" d="M512,85.6c0-14-10.9-24.1-25.8-24.1h-18.2v48.3h18.2C500.9,109.8,512,99.4,512,85.6z M486.2,102h-9.7V69.3
				h9.7c9.7,0,16.6,6.9,16.6,16.4C502.8,95.2,495.5,102,486.2,102z"/>
			<polygon class="st0" points="478.1,70.6 477.8,70.6 477.8,71.5 484.6,75.9 484.6,74.8 			"/>
			<polygon class="st0" points="484.6,78.4 484.6,77.3 477.8,72.8 477.8,73.9 			"/>
			<polygon class="st0" points="484.6,80.9 484.6,79.8 477.8,75.3 477.8,76.4 			"/>
			<polygon class="st0" points="484.6,83.3 484.6,82.2 477.8,77.8 477.8,78.9 			"/>
			<polygon class="st0" points="484.6,85.8 484.6,84.7 477.8,80.3 477.8,81.4 			"/>
			<polygon class="st0" points="484.6,88.3 484.6,87.2 477.8,82.7 477.8,83.8 			"/>
			<polygon class="st0" points="484.6,90.8 484.6,89.7 477.8,85.2 477.8,86.3 			"/>
			<polygon class="st0" points="484.6,93.2 484.6,92.1 477.8,87.7 477.8,88.8 			"/>
			<polygon class="st0" points="484.6,95.7 484.6,94.6 477.8,90.1 477.8,91.3 			"/>
			<polygon class="st0" points="484.6,98.2 484.6,97.1 477.8,92.6 477.8,93.7 			"/>
			<polygon class="st0" points="484.6,100.7 484.6,99.6 477.8,95.1 477.8,96.2 			"/>
			<polygon class="st0" points="480.9,100.7 482.6,100.7 477.8,97.6 477.8,98.7 			"/>
			<polygon class="st0" points="478.9,100.7 477.8,100 477.8,100.7 			"/>
			<polygon class="st0" points="480.2,70.6 486.3,74.6 488,74.6 481.9,70.6 			"/>
			<polygon class="st0" points="483.9,70.6 490.1,74.6 491.8,74.6 485.6,70.6 			"/>
			<path class="st0" d="M487.8,70.6l6,4h0.6c0.3,0,0.7,0,1.1,0.1L490,71C489.2,70.8,488.5,70.7,487.8,70.6z"/>
		</g>
		<g>
			<path class="st0" d="M11.1,112.3c-0.4-0.1-0.8-0.1-1.2-0.2c1,0.6,2.1,1.1,3.3,1.6L11.1,112.3z"/>
			<path class="st0" d="M18.3,77.5l-6.2-4.1c-0.1,0.3-0.1,0.7-0.1,1c0,0,0,0,0,0l6,3.9C18.1,78.1,18.1,77.9,18.3,77.5z"/>
			<path class="st0" d="M14.8,77.8l-1.7-1.2C13.5,77,14.1,77.3,14.8,77.8z"/>
			<path class="st0" d="M18.8,76.5c0.1-0.3,0.3-0.5,0.6-0.8l-6.3-4.1c-0.2,0.2-0.4,0.4-0.6,0.7L18.8,76.5z"/>
			<path class="st0" d="M19.7,115.5l-4.2-2.8c-0.6,0-1.2,0-1.8-0.1l3.5,2.3C18.1,115.2,18.9,115.4,19.7,115.5z"/>
			<path class="st0" d="M14.2,71l6.1,4l0.9-0.6l-5.9-3.8C14.9,70.7,14.5,70.8,14.2,71z"/>
			<path class="st0" d="M23.7,73.7l-4.8-3.2c-0.6-0.1-1.1-0.1-1.7-0.1c-0.1,0-0.1,0-0.2,0l5.4,3.6C22.9,73.9,23.3,73.8,23.7,73.7z"
				/>
			<path class="st0" d="M22.3,115.8c0.6,0,1.2,0.1,1.7,0.1l-5-3.3c-0.5,0-1,0.1-1.5,0.1L22.3,115.8z"/>
			<path class="st0" d="M20.7,112.4l5.2,3.5l1.4-0.1l-5.4-3.6C21.6,112.2,21.2,112.3,20.7,112.4z"/>
			<path class="st0" d="M22.1,71.3l3.5,2.3c0.6,0,1.2,0.1,1.9,0.1l-0.2-0.1L27,73.4C25.6,72.6,23.9,71.9,22.1,71.3z"/>
			<path class="st0" d="M29.1,115.4c0.5-0.1,0.9-0.1,1.3-0.3l-5.8-3.8c-0.4,0.1-0.8,0.3-1.1,0.4L29.1,115.4z"/>
			<path class="st0" d="M25.9,110.9l5.9,3.9l1.1-0.4l-6-3.9C26.6,110.6,26.3,110.7,25.9,110.9z"/>
			<path class="st0" d="M28.1,109.8l6.1,4l0.9-0.5l-6.1-4C28.6,109.5,28.3,109.6,28.1,109.8z"/>
			<path class="st0" d="M34.3,75.8l-4.4-3l-0.3,0.9l1,0.6C31.9,74.8,33.1,75.2,34.3,75.8z"/>
			<path class="st0" d="M36.8,112l-6.3-4c-0.2,0.2-0.5,0.4-0.7,0.6l6.2,4L36.8,112z"/>
			<path class="st0" d="M36.7,74.9l-6.2-4.1l-0.3,0.9l6.2,4.1C36.5,75.4,36.7,75.2,36.7,74.9z"/>
			<path class="st0" d="M37.5,72.9l-6.2-4.1L31,69.7l6.2,4.1C37.3,73.5,37.4,73.2,37.5,72.9z"/>
			<path class="st0" d="M32,106.4c-0.2,0.2-0.4,0.5-0.6,0.7l6.3,4.1l0.6-0.7L32,106.4z"/>
			<path class="st0" d="M38.3,71L32,66.8l-0.3,0.9l6.2,4.1C38.1,71.5,38.2,71.3,38.3,71z"/>
			<path class="st0" d="M38.9,69.3l-6.3-4.1l-0.3,0.7l6.3,4.1C38.7,69.8,38.8,69.5,38.9,69.3z"/>
			<path class="st0" d="M39.5,108.8l-6.3-4.1c-0.2,0.3-0.3,0.5-0.5,0.8l6.3,4.2L39.5,108.8z"/>
			<path class="st0" d="M34.7,91.4l-0.4-0.3c0.1,0.2,0.2,0.5,0.2,0.7l3.4,2.2C37,93.2,36,92.3,34.7,91.4z"/>
			<path class="st0" d="M40.4,107l-6.3-4.2c-0.1,0.3-0.2,0.6-0.4,0.9l6.3,4.1L40.4,107z"/>
			<path class="st0" d="M40.9,104.9l-6.1-4.1c-0.1,0.3-0.2,0.7-0.3,1l6.2,4.1L40.9,104.9z"/>
			<path class="st0" d="M39.8,96.7l-4.9-3.3c0.1,0.4,0.1,0.8,0.2,1.2l5.4,3.5C40.3,97.8,40.1,97.2,39.8,96.7z"/>
			<path class="st0" d="M35,99.5l6.1,4c0.1-0.3,0.1-0.7,0.1-1l-6-4C35.1,98.9,35.1,99.2,35,99.5z"/>
			<path class="st0" d="M41.1,101.1c0-0.4-0.1-0.8-0.1-1.2l-5.7-3.8c0,0.2,0,0.4,0,0.6c0,0.2,0,0.3,0,0.5L41.1,101.1z"/>
			<path class="st0" d="M33.1,96.7c0-6.3-3.1-10.6-13.9-14.8c-6.8-2.5-9.4-4.4-9.4-7.5c0-3.4,2.3-6.2,7.4-6.2c3.7,0,8,1.7,10.8,3.2
				l2.7-7.6c-3.1-1.8-8.2-3.3-13.3-3.3c-10.3,0-16.2,6.7-16.2,14c0,5.8,3.2,10.2,12.6,13.7c8.7,3.2,10.5,5.2,10.5,8.4
				c0,3.1-2.6,5.9-8.3,5.9c-4.3,0-9.1-1.6-13.1-4.3L0,106c4.4,2.7,10.1,4.6,15.8,4.6C26.6,110.6,33.1,105.3,33.1,96.7z"/>
		</g>
	</g>
</g>
</svg>
