<?xml version="1.0" encoding="utf-8"?>
<!-- Generator: Adobe Illustrator 21.1.0, SVG Export Plug-In . SVG Version: 6.00 Build 0)  -->
<svg version="1.1" id="Layer_1" xmlns="http://www.w3.org/2000/svg" xmlns:xlink="http://www.w3.org/1999/xlink" x="0px" y="0px"
	 viewBox="0 0 48 30" style="enable-background:new 0 0 48 30;" xml:space="preserve">
<style type="text/css">
	.st0{fill:#FFFFFF;}
	.st1{fill:#D42561;}
</style>
<g>
	<rect class="st0" width="48" height="30"/>
	<g>
		<path class="st1" d="M13.8,17c0,1.6-1.1,2.6-3.5,2.6H6.7v-9.1h3.4c2.4,0,3.4,1,3.4,2.4c0,1-0.5,1.7-1.3,2
			C13.2,15.1,13.8,15.9,13.8,17z M10.1,11.9H8.5v2.3h1.8c1,0,1.5-0.4,1.5-1.1C11.8,12.4,11.3,11.9,10.1,11.9z M12.1,16.8
			c0-0.7-0.5-1.2-1.7-1.2H8.5v2.4h1.9C11.5,18.1,12.1,17.6,12.1,16.8z"/>
		<path class="st1" d="M21.8,18v1.6h-6.2v-9.1h1.8V18H21.8z"/>
		<path class="st1" d="M22.2,15c0-2.7,2-4.7,4.8-4.7c2.8,0,4.8,2,4.8,4.7c0,2.7-2,4.7-4.8,4.7C24.2,19.7,22.2,17.7,22.2,15z M30,15
			c0-1.7-1.3-3-3-3c-1.7,0-3,1.3-3,3c0,1.7,1.3,3,3,3C28.7,18,30,16.7,30,15z"/>
		<path class="st1" d="M41.3,15v3.6c-0.5,0.4-1.6,1.1-3.5,1.1c-2.8,0-4.9-2-4.9-4.7s2-4.7,4.9-4.7c1.8,0,2.8,0.6,3.1,0.9l-0.8,1.4
			c-0.2-0.2-1-0.6-2.3-0.6c-1.8,0-3.1,1.2-3.1,3c0,1.8,1.4,3.1,3.1,3.1c0.7,0,1.3-0.1,1.7-0.4V15H41.3z"/>
	</g>
</g>
</svg>
