<?xml version="1.0" encoding="utf-8"?>
<!-- Generator: Adobe Illustrator 21.1.0, SVG Export Plug-In . SVG Version: 6.00 Build 0)  -->
<svg version="1.1" id="Isolation_Mode" xmlns="http://www.w3.org/2000/svg" xmlns:xlink="http://www.w3.org/1999/xlink" x="0px"
	 y="0px" viewBox="0 0 21 490" style="enable-background:new 0 0 21 490;" xml:space="preserve">
<style type="text/css">
	.st0{fill:#FFFFFF;}
</style>
<g>
	<polygon class="st0" points="0,309.2 0,313.1 21,326.6 21,322.8 13.4,317.7 	"/>
	<polygon class="st0" points="0,321 21,334.6 21,330.7 0,317.2 	"/>
	<polygon class="st0" points="0,329.7 21,343.2 21,339.4 0,325.8 	"/>
	<polygon class="st0" points="0,338.3 21,351.9 21,348 0,334.5 	"/>
	<polygon class="st0" points="0,347 21,360.5 21,356.7 0,343.1 	"/>
	<polygon class="st0" points="0,355.6 21,369.2 21,365.3 0,351.8 	"/>
	<polygon class="st0" points="0,364.3 21,377.8 21,374 0,360.4 	"/>
	<polygon class="st0" points="0,372.9 21,386.5 21,382.6 0,369.1 	"/>
	<polygon class="st0" points="0,381.6 21,395.1 21,391.3 0,377.7 	"/>
	<polygon class="st0" points="0,390.2 21,403.8 21,399.9 0,386.4 	"/>
	<polygon class="st0" points="0,398.9 21,412.4 21,408.6 0,395 	"/>
	<polygon class="st0" points="0,407.5 21,421.1 21,417.2 0,403.7 	"/>
	<polygon class="st0" points="0,416.2 21,429.7 21,425.9 0,412.3 	"/>
	<polygon class="st0" points="0,424.8 21,438.3 21,434.5 0,421 	"/>
	<polygon class="st0" points="0,433.4 21,447 21,443.2 0,429.6 	"/>
	<polygon class="st0" points="0,442.1 21,455.6 21,451.8 0,438.2 	"/>
	<polygon class="st0" points="0,450.7 21,464.3 21,460.5 0,446.9 	"/>
	<polygon class="st0" points="0,459.4 21,472.9 21,469.1 0,455.5 	"/>
	<polygon class="st0" points="0,468 21,481.4 21,477.8 0,464.2 	"/>
	<polygon class="st0" points="0,474.1 0,476.5 21,490 21,486.4 0,472.8 	"/>
	<polygon class="st0" points="0,145.7 0,149.6 21,163.1 21,159.3 13.4,154.3 	"/>
	<polygon class="st0" points="0,157.5 21,171.1 21,167.2 0,153.7 	"/>
	<polygon class="st0" points="0,166.2 21,179.7 21,175.9 0,162.3 	"/>
	<polygon class="st0" points="0,174.8 21,188.4 21,184.5 0,171 	"/>
	<polygon class="st0" points="0,183.5 21,197 21,193.2 0,179.6 	"/>
	<polygon class="st0" points="0,192.1 21,205.7 21,201.8 0,188.3 	"/>
	<polygon class="st0" points="0,200.8 21,214.3 21,210.5 0,196.9 	"/>
	<polygon class="st0" points="0,209.4 21,223 21,219.1 0,205.6 	"/>
	<polygon class="st0" points="0,218.1 21,231.6 21,227.8 0,214.2 	"/>
	<polygon class="st0" points="0,77.2 0,81.1 21,94.6 21,90.8 13.4,85.7 	"/>
	<polygon class="st0" points="0,89 21,102.5 21,98.7 0,85.1 	"/>
	<polygon class="st0" points="0,97.6 21,111.2 21,107.3 0,93.8 	"/>
	<polygon class="st0" points="0,106.3 21,119.8 21,116 0,102.4 	"/>
	<polygon class="st0" points="0,114.9 21,128.5 21,124.6 0,111.1 	"/>
	<polygon class="st0" points="0,123.6 21,137.1 21,133.3 0,119.7 	"/>
	<polygon class="st0" points="0,132.2 21,145.8 21,141.9 0,128.4 	"/>
	<polygon class="st0" points="0,140.9 21,154.4 21,150.6 0,137 	"/>
	<polygon class="st0" points="0,60.6 0,64.4 21,78 21,74.2 13.4,69.1 	"/>
	<polygon class="st0" points="0,72.4 21,85.9 21,82.1 0,68.5 	"/>
	<polygon class="st0" points="0,0 0,3.8 21,17.4 21,13.5 	"/>
	<polygon class="st0" points="0,12.5 21,26 21,22.2 0,8.6 	"/>
	<polygon class="st0" points="0,21.1 21,34.7 21,30.8 0,17.3 	"/>
	<polygon class="st0" points="0,29.8 21,43.3 21,39.5 0,25.9 	"/>
	<polygon class="st0" points="0,38.4 21,52 21,48.1 0,34.6 	"/>
	<polygon class="st0" points="0,47.1 21,60.6 21,56.8 0,43.2 	"/>
	<polygon class="st0" points="0,55.7 21,69.3 21,65.4 0,51.9 	"/>
	<polygon class="st0" points="0,226.7 21,240.3 21,236.4 0,222.9 	"/>
	<polygon class="st0" points="0,235.4 21,248.9 21,245.1 0,231.5 	"/>
	<polygon class="st0" points="0,244 21,257.6 21,253.7 0,240.2 	"/>
	<polygon class="st0" points="0,252.7 21,266.2 21,262.4 0,248.8 	"/>
	<polygon class="st0" points="0,261.3 21,274.9 21,271 0,257.5 	"/>
	<polygon class="st0" points="0,270 21,283.5 21,279.7 0,266.1 	"/>
	<polygon class="st0" points="0,278.6 21,292.2 21,288.3 0,274.8 	"/>
	<polygon class="st0" points="0,287.3 21,300.8 21,297 0,283.4 	"/>
	<polygon class="st0" points="0,295.9 21,309.5 21,305.6 0,292.1 	"/>
	<polygon class="st0" points="0,304.5 21,317.9 21,314.3 0,300.7 	"/>
</g>
</svg>
