<?xml version="1.0" encoding="utf-8"?>
<!-- Generator: Adobe Illustrator 21.1.0, SVG Export Plug-In . SVG Version: 6.00 Build 0)  -->
<svg version="1.1" id="Layer_1" xmlns="http://www.w3.org/2000/svg" xmlns:xlink="http://www.w3.org/1999/xlink" x="0px" y="0px"
	 viewBox="0 0 150 16" style="enable-background:new 0 0 150 16;" xml:space="preserve">
<style type="text/css">
	.st0{fill:#FFFFFF;}
</style>
<g>
	<path class="st0" d="M140,0c-1.8,1.7-2.9,4.2-2.9,6.8c0,0.3,0,0.6,0.1,0.9c1.8-0.6,3.8-0.6,5.6,0c0-0.3,0.1-0.6,0.1-0.9
		C142.8,4.2,141.8,1.7,140,0z"/>
	<g>
		<path class="st0" d="M119.6,4.5h1.6l1.6,5.8c0.1,0.4,0.2,0.9,0.2,0.9h0c0,0,0.1-0.5,0.2-0.9l1.7-5.8h1.4l1.7,5.8
			c0.1,0.4,0.2,0.9,0.2,0.9h0c0,0,0.1-0.5,0.2-0.9l1.6-5.8h1.6l-2.5,8.3h-1.6l-1.6-5.3c-0.1-0.4-0.2-0.9-0.2-0.9h0
			c0,0-0.1,0.5-0.2,0.9l-1.6,5.3h-1.7L119.6,4.5z"/>
		<g>
			<path class="st0" d="M95.7,4.3C97.9,4.3,99,6,99,8.1c0,0.2,0,0.7,0,0.7h-5.7c0.1,1.8,1.3,2.7,2.7,2.7c1.3,0,2.3-1,2.3-1l0.6,1.2
				c0,0-1.1,1.2-3,1.2c-2.4,0-4.1-1.9-4.1-4.3C91.8,6,93.5,4.3,95.7,4.3z M97.5,7.6c0-1.4-0.9-2.1-1.9-2.1c-1.1,0-2.1,0.8-2.3,2.1
				H97.5z"/>
			<path class="st0" d="M88.3,1.2h1.5v9c0,1,0.4,1.2,0.8,1.2c0.1,0,0.3,0,0.3,0v1.4c0,0-0.2,0-0.5,0c-0.8,0-2.1-0.2-2.1-2.3V1.2z"/>
			<path class="st0" d="M55.5,10.6c0,0,0.9,1,2.2,1c0.6,0,1.3-0.4,1.3-1c0-1.5-4-1.2-4-3.9c0-1.5,1.3-2.4,2.8-2.4
				c1.7,0,2.5,0.9,2.5,0.9l-0.6,1.2c0,0-0.7-0.7-1.9-0.7c-0.6,0-1.3,0.3-1.3,1c0,1.5,4,1.2,4,3.9c0,1.4-1.1,2.4-2.8,2.4
				c-1.9,0-2.9-1.2-2.9-1.2L55.5,10.6z"/>
			<path class="st0" d="M65.8,4.5h1.4v1.1c0,0.3,0,0.6,0,0.6h0c0.4-1,1.5-1.9,2.7-1.9c1.3,0,2.1,0.6,2.3,1.9h0
				c0.4-1,1.5-1.9,2.8-1.9c1.7,0,2.6,1.1,2.6,3.2v5.3h-1.5v-5c0-1.2-0.2-2.1-1.4-2.1c-1.1,0-1.9,1-2.2,2.1c-0.1,0.3-0.1,0.7-0.1,1.1
				v3.8h-1.5v-5c0-1.1-0.2-2.1-1.3-2.1c-1.1,0-1.9,1-2.2,2.2c-0.1,0.3-0.1,0.7-0.1,1.1v3.8h-1.5V4.5z"/>
			<path class="st0" d="M79.4,4.5h1.4v0.7c0,0.3,0,0.6,0,0.6h0c0,0,0.7-1.5,2.6-1.5c2.1,0,3.4,1.8,3.4,4.3c0,2.6-1.5,4.3-3.5,4.3
				c-1.7,0-2.4-1.4-2.4-1.4h0c0,0,0,0.3,0,0.7V16h-1.5V4.5z M83,11.6c1.2,0,2.2-1.1,2.2-3c0-1.8-0.9-3-2.2-3c-1.2,0-2.2,0.9-2.2,3
				C80.8,10.1,81.6,11.6,83,11.6z"/>
			<g>
				<path class="st0" d="M62.3,4.5h1.5v8.3h-1.5V4.5z"/>
				<ellipse class="st0" cx="63" cy="2.2" rx="0.9" ry="1"/>
			</g>
			<path class="st0" d="M115.5,4.3c2.2,0,3.4,1.7,3.4,3.9c0,0.2,0,0.7,0,0.7h-5.7c0.1,1.8,1.3,2.7,2.7,2.7c1.3,0,2.3-1,2.3-1
				l0.6,1.2c0,0-1.1,1.2-3,1.2c-2.4,0-4.1-1.9-4.1-4.3C111.6,6,113.2,4.3,115.5,4.3z M117.3,7.6c0-1.4-0.9-2.1-1.9-2.1
				c-1.1,0-2.1,0.8-2.3,2.1H117.3z"/>
			<path class="st0" d="M99.8,4.5h1.6l1.9,5.6c0.2,0.5,0.2,1.1,0.3,1.1h0c0,0,0.1-0.7,0.3-1.1l1.9-5.6h1.6l-2.9,8.3h-1.7L99.8,4.5z"
				/>
			<path class="st0" d="M108.7,4.5h1.5v8.3h-1.5V4.5z"/>
			<ellipse class="st0" cx="109.4" cy="2.2" rx="0.9" ry="1"/>
		</g>
	</g>
	<g>
		<g>
			<path class="st0" d="M149.3,12.9c0.4,0,0.7,0.3,0.7,0.7c0,0.4-0.3,0.7-0.7,0.7c-0.4,0-0.7-0.3-0.7-0.7
				C148.7,13.2,149,12.9,149.3,12.9z M149.3,14.2c0.3,0,0.5-0.3,0.5-0.6c0-0.3-0.2-0.6-0.5-0.6c-0.3,0-0.5,0.3-0.5,0.6
				C148.8,13.9,149,14.2,149.3,14.2z M149.1,13.2h0.3c0.1,0,0.2,0.1,0.2,0.2c0,0.1-0.1,0.2-0.1,0.2v0c0,0,0,0,0,0l0.1,0.3h-0.1
				l-0.1-0.3h-0.1V14h-0.1V13.2z M149.3,13.6c0.1,0,0.1,0,0.1-0.1c0-0.1,0-0.1-0.1-0.1h-0.1v0.3H149.3z"/>
		</g>
	</g>
	<path class="st0" d="M143.4,9c-0.4,2-1.4,3.9-2.8,5.3c2.2,1.7,5.1,2.2,7.8,1.3C147.8,12.6,146,10.2,143.4,9z"/>
	<path class="st0" d="M131.5,15.5c2.7,0.9,5.6,0.4,7.8-1.3c-1.4-1.4-2.4-3.2-2.8-5.3C133.9,10.2,132.1,12.6,131.5,15.5z"/>
	<path class="st0" d="M137.4,8.8c0.4,1.8,1.3,3.5,2.5,4.7c1.3-1.3,2.2-2.9,2.5-4.7C140.8,8.2,139.1,8.2,137.4,8.8z"/>
	<g>
		<path class="st0" d="M0.1,11.7h1V7.3C1.1,7.1,1,7,0.8,7H0V6h1.4C2,6,2.2,6.2,2.2,6.7v0.3c0,0.2,0,0.4,0,0.4h0
			c0.3-0.8,1.2-1.6,2.3-1.6c1,0,1.6,0.5,1.9,1.6h0c0.4-0.8,1.2-1.6,2.3-1.6c1.4,0,2.1,0.9,2.1,2.6v3.3h1v1H9.5v-4
			C9.5,7.7,9.3,7,8.4,7C7.2,7,6.5,8.3,6.5,9.6v2.1h1v1H5.3v-4C5.3,7.8,5.1,7,4.2,7C3,7,2.3,8.4,2.3,9.7v2.1h1v1H0.1V11.7z"/>
		<path class="st0" d="M16,8.6h0.4V8.3c0-1.1-0.6-1.4-1.4-1.4c-1,0-1.8,0.7-1.8,0.7l-0.5-0.9c0,0,0.9-0.8,2.4-0.8
			c1.6,0,2.5,0.9,2.5,2.6v3c0,0.2,0.1,0.3,0.3,0.3h0.6v1h-1.3c-0.6,0-0.8-0.3-0.8-0.7v-0.1c0-0.3,0.1-0.4,0.1-0.4h0
			c0,0-0.6,1.4-2.1,1.4c-1.1,0-2.1-0.7-2.1-2C12.3,8.7,15,8.6,16,8.6z M14.7,11.9c1.1,0,1.7-1.2,1.7-2.2V9.4h-0.3
			c-0.6,0-2.6,0-2.6,1.3C13.6,11.3,14,11.9,14.7,11.9z"/>
		<path class="st0" d="M22,5.8c1.4,0,2,1.1,2,1.1h0c0,0,0-0.2,0-0.5V4.3h-1.1v-1h2.3v8.1c0,0.2,0.1,0.3,0.3,0.3H26v1h-1.3
			c-0.6,0-0.8-0.3-0.8-0.7v-0.1c0-0.2,0-0.4,0-0.4h0c0,0-0.5,1.3-2.1,1.3c-1.7,0-2.8-1.4-2.8-3.5C19.1,7.2,20.2,5.8,22,5.8z
			 M22.1,11.8c0.9,0,1.8-0.7,1.8-2.4c0-1.2-0.6-2.4-1.8-2.4c-1,0-1.8,0.9-1.8,2.4C20.3,10.8,21.1,11.8,22.1,11.8z"/>
		<path class="st0" d="M29.7,5.8c1.8,0,2.7,1.4,2.7,3.2c0,0.2,0,0.5,0,0.5h-4.6c0.1,1.5,1.1,2.3,2.2,2.3c1.1,0,1.9-0.8,1.9-0.8
			l0.5,0.9c0,0-1,0.9-2.5,0.9c-2,0-3.4-1.5-3.4-3.5C26.6,7.2,27.9,5.8,29.7,5.8z M31.2,8.6c0-1.2-0.7-1.8-1.5-1.8
			c-0.9,0-1.7,0.7-1.9,1.8H31.2z"/>
		<path class="st0" d="M37.2,4.3h-1.1v-1h2.3v3.1c0,0.3,0,0.6,0,0.6h0c0,0,0.6-1.2,2-1.2c1.7,0,2.8,1.4,2.8,3.5
			c0,2.1-1.2,3.5-2.9,3.5c-1.5,0-2-1.2-2-1.2h0c0,0,0,0.2,0,0.5v0.5h-1.2V4.3z M40.2,11.8c1,0,1.8-0.9,1.8-2.4
			c0-1.5-0.7-2.4-1.8-2.4c-0.9,0-1.8,0.7-1.8,2.4C38.4,10.6,39,11.8,40.2,11.8z"/>
		<path class="st0" d="M45.2,14.5c0.5,0,1-0.4,1.2-0.9l0.3-0.7L44.4,7h-0.8V6h2.9v1h-0.8l1.4,4c0.1,0.3,0.1,0.6,0.1,0.6h0
			c0,0,0.1-0.3,0.2-0.6l1.4-4H48V6h2.8v1H50l-2.5,6.8c-0.4,1.1-1.3,1.7-2.2,1.7c-0.8,0-1.4-0.4-1.4-0.4l0.4-1
			C44.3,14.1,44.7,14.5,45.2,14.5z"/>
	</g>
</g>
</svg>
