<?xml version="1.0" encoding="utf-8"?>
<!-- Generator: Adobe Illustrator 21.1.0, SVG Export Plug-In . SVG Version: 6.00 Build 0)  -->
<svg version="1.1" id="logo" xmlns="http://www.w3.org/2000/svg" xmlns:xlink="http://www.w3.org/1999/xlink" x="0px" y="0px"
	 viewBox="0 0 66 66" style="enable-background:new 0 0 66 66;" xml:space="preserve">
<style type="text/css">
	.st0{fill:#D42561;}
	.st1{fill:#FFFFFF;}
</style>
<g>
	<rect class="st0" width="66" height="66"/>
	<g>
		<path class="st1" d="M15.5,29.2c0.4-1,0.8-2,1.2-3c0.2,0.1,0.3,0.2,0.4,0.2c1.5,0.9,3.2,1.5,5,1.4c0.6,0,1.3-0.2,1.8-0.5
			c1.4-0.7,1.5-2.5,0.3-3.4c-1-0.7-2.1-1.1-3.2-1.6c-0.9-0.4-1.9-0.8-2.7-1.3c-3.2-2-2.7-6-0.5-8c1.3-1.1,2.8-1.5,4.4-1.6
			c1.8,0,3.5,0.3,5.1,1.1c0.3,0.1,0.4,0.3,0.2,0.6c-0.3,0.9-0.6,1.7-1,2.6c-0.9-0.3-1.7-0.7-2.5-0.9c-0.9-0.3-1.9-0.4-2.8-0.1
			C20,15,19.4,15.9,19.4,17c0,0.5,0.2,1,0.7,1.3c0.8,0.5,1.6,0.9,2.4,1.3c1.2,0.6,2.4,1.1,3.5,1.7c1.2,0.7,2,1.6,2.3,3
			c0.6,2.8-0.6,5.6-4,6.4c-3.1,0.8-6,0.1-8.7-1.4C15.6,29.3,15.6,29.3,15.5,29.2"/>
		<path class="st1" d="M40,47.3c-1,1.3-2.1,2.6-3.1,4c-0.1,0.1-0.2,0.2-0.3,0.3c-0.5,1-1.3,1.3-2.3,1.1c-0.6-0.1-1.3,0-2.1,0
			c2-2.5,4-5,6-7.4c-2-2.7-3.9-5.4-5.9-8.1c0.2,0,0.3,0,0.5,0c0.9,0,1.7,0,2.6,0c0.4,0,0.6,0.1,0.8,0.4c1.2,1.7,2.5,3.5,3.7,5.2
			c0.1,0.1,0.1,0.2,0.2,0.3c0.1-0.1,0.2-0.2,0.3-0.3c1.3-1.7,2.6-3.5,3.8-5.2c0.2-0.2,0.3-0.3,0.6-0.3c0.9,0,1.8,0,2.6,0
			c0.1,0,0.2,0,0.4,0c-2,2.7-4,5.3-6,7.9c2,2.5,3.9,5,6,7.6c-0.2,0-0.3,0-0.4,0c-0.9,0-1.9,0-2.8,0c-0.3,0-0.4-0.1-0.6-0.3
			c-1.2-1.6-2.5-3.2-3.8-4.8C40.2,47.5,40.1,47.4,40,47.3"/>
		<path class="st1" d="M46.8,27.6c0,1,0,1.9,0,2.9c0,0.1-0.2,0.2-0.3,0.2c-0.1,0-0.2,0-0.2,0c-3.8,0-7.6,0-11.3,0
			c-0.5,0-0.5,0-0.5-0.5c0-6,0-11.9,0-17.9c0-0.5,0-0.5,0.5-0.5c0.8,0,1.6,0,2.4,0c0.4,0,0.5,0.1,0.5,0.5c0,4.9,0,9.8,0,14.7
			c0,0.6,0,0.6,0.6,0.6c2.6,0,5.2,0,7.8,0C46.4,27.6,46.6,27.6,46.8,27.6"/>
		<path class="st1" d="M24,52.7h-3v-0.6c0-3.9,0-7.9,0-11.8c0-0.5,0-0.5-0.5-0.5c-1.5,0-3,0-4.5,0h-0.5v-2.6c0.1,0,0.3,0,0.4,0
			c4.3,0,8.6,0,12.9,0c0.4,0,0.5,0.1,0.5,0.5c0,0.7,0,1.3,0,2.1H24V52.7z"/>
		<path class="st1" d="M20,16.3c0.7,0.4,1.4,0.9,2,1.3c0.1,0.1,0.3,0.2,0.4,0.3c0.3,0.1,0.3,0.3,0.1,0.6c-0.7-0.4-1.4-0.9-2-1.3
			c-0.1-0.1-0.3-0.2-0.4-0.3C19.8,16.8,19.8,16.6,20,16.3"/>
		<path class="st1" d="M28,28.8c0.1-0.1,0.1-0.2,0.1-0.2c0,0,0.1-0.1,0.1-0.2c1,0.6,1.9,1.2,2.8,1.8c-0.1,0.1-0.1,0.2-0.2,0.4
			C29.9,30.1,29,29.5,28,28.8"/>
		<path class="st1" d="M31.2,30c-0.9-0.6-1.8-1.1-2.6-1.7c-0.1-0.1,0-0.3-0.1-0.4c0,0,0.1,0,0.1,0c0.5,0.3,0.9,0.6,1.4,0.9
			c0.4,0.2,0.8,0.5,1.1,0.7C31.4,29.6,31.4,29.6,31.2,30"/>
		<path class="st1" d="M30.1,16.7c-0.9-0.6-1.8-1.1-2.6-1.7c-0.1-0.1-0.1-0.3-0.1-0.4c0,0,0.1,0,0.1-0.1c0.4,0.3,0.8,0.5,1.3,0.8
			c0.4,0.3,0.8,0.5,1.2,0.8C30.3,16.3,30.3,16.3,30.1,16.7"/>
		<path class="st1" d="M27.2,15.3c0.8,0.5,1.6,1.1,2.5,1.6c0.3,0.2,0.3,0.3,0.1,0.6c-0.9-0.6-1.7-1.1-2.6-1.7
			c-0.1-0.1-0.1-0.3-0.1-0.4C27.1,15.3,27.2,15.3,27.2,15.3"/>
		<path class="st1" d="M20.4,15.6c0.9,0.6,1.9,1.2,2.8,1.8c-0.1,0.1-0.2,0.2-0.3,0.4c-0.9-0.6-1.9-1.2-2.8-1.8
			C20.2,15.8,20.3,15.7,20.4,15.6"/>
		<path class="st1" d="M20.7,15.4c0.3-0.2,0.5-0.2,0.7-0.1c0.8,0.5,1.6,1.1,2.4,1.6c-0.2,0.3-0.4,0.3-0.7,0.1
			C22.4,16.5,21.6,15.9,20.7,15.4"/>
		<path class="st1" d="M27.5,29.5c0.1-0.1,0.2-0.2,0.3-0.3c0.9,0.6,1.8,1.2,2.8,1.8c0,0,0,0.1,0,0.1c-0.1,0-0.3,0.2-0.4,0.1
			C29.3,30.6,28.4,30.1,27.5,29.5"/>
		<path class="st1" d="M26.9,29.9c0.1,0,0.3-0.1,0.4-0.1c0.9,0.5,1.8,1.1,2.6,1.7c-0.2,0.3-0.3,0.3-0.6,0.2
			c-0.8-0.5-1.6-1.1-2.5-1.6C26.9,30,26.9,30,26.9,29.9"/>
		<path class="st1" d="M31.6,27.4c-0.9-0.6-1.7-1.1-2.6-1.7c-0.1-0.1-0.1-0.3-0.2-0.6c0.2,0.1,0.3,0.1,0.4,0.2
			c0.7,0.5,1.4,0.9,2.1,1.4C31.6,26.8,31.7,27,31.6,27.4"/>
		<path class="st1" d="M25.3,30.9c0.3-0.2,0.5-0.2,0.7-0.1c0.8,0.5,1.6,1,2.4,1.6c-0.3,0.2-0.5,0.3-0.7,0.1
			C26.9,32,26.1,31.5,25.3,30.9"/>
		<path class="st1" d="M49.9,31.7c-0.9-0.6-1.7-1.1-2.6-1.7c-0.1-0.1-0.1-0.3-0.2-0.5c0.2,0.1,0.3,0.1,0.4,0.2
			c0.7,0.5,1.4,0.9,2.2,1.4C50,31.2,50,31.4,49.9,31.7"/>
		<path class="st1" d="M47.3,30.5c0.8,0.5,1.7,1.1,2.5,1.6c0.1,0.1,0.1,0.3,0.2,0.5c0,0-0.1,0-0.1,0.1c-0.2-0.1-0.3-0.2-0.5-0.3
			c-0.7-0.4-1.3-0.9-2-1.3c-0.1-0.1-0.2-0.3-0.3-0.5C47.2,30.5,47.2,30.5,47.3,30.5"/>
		<path class="st1" d="M27.4,32.9c-0.2,0-0.4,0.1-0.6,0c-0.8-0.5-1.7-1.1-2.5-1.6c0.3-0.2,0.5-0.2,0.8,0c0.7,0.5,1.4,0.9,2.1,1.4
			c0.1,0.1,0.2,0.1,0.2,0.2C27.4,32.8,27.4,32.8,27.4,32.9"/>
		<path class="st1" d="M28.9,27c0.8,0.6,1.7,1.1,2.5,1.7c0.1,0.1,0.1,0.3,0.1,0.5c0,0-0.1,0-0.1,0.1c-0.9-0.6-1.7-1.1-2.6-1.7
			c-0.1-0.1-0.1-0.3-0.1-0.4C28.8,27,28.9,27,28.9,27"/>
		<path class="st1" d="M31.6,28.3c-0.3-0.2-0.7-0.4-1-0.7c-0.5-0.3-0.9-0.6-1.4-0.9c-0.3-0.2-0.3-0.3-0.2-0.7
			c0.9,0.6,1.7,1.1,2.5,1.7c0.1,0.1,0.1,0.3,0.2,0.5C31.7,28.2,31.7,28.3,31.6,28.3"/>
		<path class="st1" d="M40.9,26.8c-0.9-0.6-1.7-1.1-2.5-1.7c-0.1-0.1-0.1-0.3-0.2-0.5c0,0,0.1,0,0.1-0.1c0.1,0.1,0.2,0.1,0.3,0.2
			c0.7,0.5,1.4,0.9,2.1,1.4C41,26.3,41,26.5,40.9,26.8"/>
		<path class="st1" d="M40.9,25.8c-0.9-0.6-1.7-1.1-2.5-1.7c-0.1-0.1-0.1-0.3-0.2-0.5c0,0,0.1,0,0.1-0.1c0.1,0.1,0.2,0.1,0.3,0.2
			c0.7,0.5,1.4,0.9,2.1,1.4C41,25.3,41,25.5,40.9,25.8"/>
		<path class="st1" d="M40.9,24.9c-0.7-0.5-1.4-0.9-2.1-1.4c-0.1-0.1-0.2-0.1-0.3-0.2c-0.3-0.1-0.3-0.3-0.2-0.6
			c0.1,0.1,0.2,0.1,0.3,0.1c0.7,0.5,1.4,0.9,2.1,1.4C41,24.3,41,24.5,40.9,24.9"/>
		<path class="st1" d="M40.9,23.9c-0.4-0.3-0.8-0.5-1.2-0.8c-0.4-0.3-0.8-0.5-1.2-0.8c-0.3-0.2-0.3-0.2-0.2-0.6
			c0.2,0.1,0.4,0.3,0.6,0.4c0.6,0.4,1.2,0.8,1.8,1.1C41,23.4,41,23.6,40.9,23.9"/>
		<path class="st1" d="M40.9,15.2c-0.4-0.3-0.9-0.6-1.3-0.9c-0.4-0.2-0.7-0.5-1.1-0.7c-0.2-0.1-0.3-0.3-0.2-0.6
			c0.1,0,0.2,0.1,0.3,0.1c0.7,0.5,1.4,0.9,2.1,1.4C41,14.7,41,14.9,40.9,15.2"/>
		<path class="st1" d="M38.3,20.7c0.6,0.4,1.2,0.8,1.8,1.2c0.2,0.1,0.4,0.3,0.6,0.4c0.3,0.2,0.3,0.2,0.2,0.7
			c-0.9-0.6-1.7-1.1-2.6-1.7c-0.1-0.1-0.1-0.3-0.1-0.5C38.2,20.8,38.3,20.7,38.3,20.7"/>
		<path class="st1" d="M40.9,21c-0.9-0.6-1.7-1.1-2.5-1.7c-0.1-0.1-0.1-0.3-0.2-0.5c0,0,0.1,0,0.1-0.1c0.1,0.1,0.2,0.1,0.3,0.2
			c0.7,0.5,1.4,0.9,2.1,1.4C41,20.5,41,20.7,40.9,21"/>
		<path class="st1" d="M38.3,14.9c0.1,0.1,0.2,0.1,0.3,0.2c0.7,0.4,1.4,0.9,2.1,1.3c0.3,0.2,0.3,0.3,0.2,0.7
			c-0.3-0.2-0.5-0.3-0.8-0.5c-0.5-0.4-1.1-0.7-1.6-1.1C38.3,15.4,38.2,15.3,38.3,14.9"/>
		<path class="st1" d="M40.9,18.1c-0.8-0.5-1.6-1.1-2.4-1.6c-0.2-0.1-0.4-0.3-0.2-0.6c0,0,0,0,0.1-0.1c0.3,0.2,0.6,0.4,0.9,0.6
			c0.5,0.3,1,0.6,1.5,0.9C41,17.6,41,17.8,40.9,18.1"/>
		<path class="st1" d="M30.4,15.9c-0.9-0.6-1.7-1.1-2.6-1.7c-0.3-0.2-0.1-0.3,0-0.5c0.9,0.6,1.8,1.2,2.7,1.8c0.1,0.1,0,0.3,0.1,0.4
			C30.5,15.9,30.4,15.9,30.4,15.9"/>
		<path class="st1" d="M40.9,19.1c-0.8-0.5-1.7-1.1-2.5-1.7c-0.1-0.1-0.1-0.3-0.2-0.6c0.2,0.1,0.3,0.1,0.3,0.1
			c0.8,0.5,1.5,1,2.3,1.5c0.1,0.1,0.2,0.3,0.3,0.5C41,19,40.9,19,40.9,19.1"/>
		<path class="st1" d="M40.9,16.2c-0.9-0.6-1.7-1.1-2.5-1.7c-0.1-0.1-0.1-0.3-0.2-0.5c0,0,0.1,0,0.1-0.1c0.1,0,0.2,0.1,0.3,0.1
			c0.7,0.5,1.4,0.9,2.1,1.4C41,15.7,41,15.8,40.9,16.2"/>
		<path class="st1" d="M40.9,22c-0.4-0.3-0.8-0.5-1.1-0.7c-0.4-0.3-0.8-0.5-1.3-0.8c-0.3-0.2-0.3-0.2-0.2-0.6c0.1,0,0.2,0.1,0.3,0.1
			c0.7,0.5,1.4,0.9,2.1,1.4C41,21.4,41,21.6,40.9,22"/>
		<path class="st1" d="M38.3,17.8c0.4,0.3,0.8,0.5,1.1,0.7c0.4,0.3,0.8,0.6,1.3,0.8c0.3,0.2,0.3,0.3,0.2,0.7
			c-0.3-0.2-0.6-0.4-0.9-0.6c-0.5-0.3-1-0.7-1.5-1C38.3,18.3,38.2,18.2,38.3,17.8"/>
		<path class="st1" d="M26.2,30.3c0.2,0,0.4-0.1,0.5,0c0.9,0.5,1.7,1.1,2.6,1.8c-0.2,0-0.4,0.2-0.5,0.1c-0.9-0.5-1.8-1.1-2.6-1.7
			C26.2,30.5,26.2,30.4,26.2,30.3"/>
		<path class="st1" d="M47.3,28.5c0.1,0.1,0.2,0.1,0.3,0.2c0.7,0.5,1.4,0.9,2.1,1.4c0.1,0.1,0.2,0.3,0.3,0.5c0,0-0.1,0.1-0.1,0.1
			c0,0-0.1,0-0.1,0c-0.8-0.5-1.6-1-2.4-1.6c-0.1-0.1-0.2-0.3-0.2-0.5C47.2,28.6,47.2,28.6,47.3,28.5"/>
		<path class="st1" d="M26.2,33.1c-0.3-0.1-0.6-0.1-0.8-0.3c-0.7-0.4-1.4-0.9-2.1-1.4c0,0,0-0.1,0-0.1c0.2,0,0.5,0,0.6,0.1
			c0.8,0.5,1.5,1,2.3,1.5c0,0,0,0.1,0.1,0.1C26.2,33,26.2,33.1,26.2,33.1"/>
		<path class="st1" d="M21.8,15c0.2,0,0.5,0,0.6,0.1c0.8,0.5,1.6,1,2.4,1.5l0,0.1c-0.2,0-0.4,0.1-0.6,0c-0.8-0.5-1.6-1.1-2.5-1.6
			C21.8,15.1,21.8,15,21.8,15"/>
		<path class="st1" d="M38.9,31.2c0.4-0.1,0.7,0,1,0.2c0.5,0.4,1.1,0.7,1.7,1.1c0.1,0.1,0.2,0.1,0.3,0.2c0,0,0,0.1,0,0.1
			c-0.2,0-0.5,0-0.7-0.1c-0.8-0.5-1.5-0.9-2.2-1.4C38.9,31.3,38.9,31.2,38.9,31.2"/>
		<path class="st1" d="M40.4,32.9c-0.3-0.1-0.6-0.1-0.9-0.3c-0.6-0.4-1.2-0.8-1.8-1.1c-0.1-0.1-0.2-0.2-0.3-0.2c0,0,0-0.1,0.1-0.1
			c0.3,0.1,0.6,0.1,0.9,0.3c0.6,0.4,1.2,0.8,1.8,1.2c0.1,0.1,0.2,0.1,0.3,0.2C40.4,32.8,40.4,32.8,40.4,32.9"/>
		<path class="st1" d="M43.4,31.1c0.3,0.1,0.6,0.1,0.9,0.2c0.6,0.4,1.2,0.8,1.8,1.2c0.1,0.1,0.2,0.1,0.3,0.2c0,0,0,0.1,0,0.1
			c-0.2,0-0.5,0-0.7-0.1c-0.8-0.5-1.5-1-2.2-1.4c0,0,0-0.1-0.1-0.1C43.3,31.1,43.3,31.1,43.4,31.1"/>
		<path class="st1" d="M46.2,31.2c0.4-0.1,0.7,0,1,0.2c0.6,0.5,1.3,0.9,2,1.3c0,0,0,0.1,0,0.1c-0.2,0-0.5,0-0.7-0.1
			c-0.7-0.4-1.4-0.9-2.1-1.4C46.3,31.3,46.3,31.2,46.2,31.2"/>
		<path class="st1" d="M36,31c0.3,0.1,0.6,0.2,0.9,0.3c0.6,0.3,1.2,0.7,1.7,1.1c0.1,0.1,0.2,0.1,0.3,0.2c0,0,0,0.1,0,0.1
			c-0.2,0-0.5,0-0.7-0.1c-0.7-0.4-1.4-0.9-2.1-1.4c0,0-0.1-0.1-0.1-0.1C36,31.2,36,31.1,36,31"/>
		<path class="st1" d="M43.3,32.8c-0.2,0-0.5,0-0.7-0.1c-0.7-0.4-1.4-0.9-2.1-1.4c0,0-0.1,0-0.1-0.1c0-0.1,0.1-0.1,0.1-0.2
			c0.3,0.1,0.6,0.1,0.8,0.2c0.7,0.4,1.4,0.9,2.2,1.4C43.4,32.7,43.4,32.8,43.3,32.8"/>
		<path class="st1" d="M47.7,32.9c-0.3-0.1-0.6-0.1-0.9-0.3c-0.6-0.4-1.3-0.8-1.9-1.2c-0.1-0.1-0.2-0.1-0.2-0.2c0,0,0-0.1,0-0.1
			c0.3,0.1,0.6,0.1,0.8,0.2c0.7,0.4,1.4,0.9,2.2,1.4L47.7,32.9z"/>
		<path class="st1" d="M24.8,33.2c-0.3-0.1-0.7-0.2-1-0.4c-0.7-0.4-1.3-0.8-1.9-1.2c0,0,0-0.1,0-0.1c0.2,0,0.5,0,0.7,0.1
			c0.8,0.5,1.5,1,2.2,1.4c0,0,0,0.1,0.1,0.1C24.9,33.1,24.9,33.2,24.8,33.2"/>
		<path class="st1" d="M31.4,26.2c-0.7-0.5-1.5-1-2.2-1.4c-0.3-0.2-0.3-0.2-0.3-0.7c0.3,0.2,0.5,0.3,0.7,0.5
			c0.5,0.3,0.9,0.6,1.4,0.9c0.2,0.2,0.4,0.5,0.6,0.7C31.5,26.1,31.4,26.2,31.4,26.2"/>
		<path class="st1" d="M41.9,31.1c0.3,0.1,0.6,0.1,0.8,0.3c0.6,0.4,1.2,0.8,1.8,1.2c0.1,0.1,0.2,0.1,0.3,0.2c0,0,0,0.1,0,0.1
			c-0.2,0-0.5,0-0.7-0.1c-0.8-0.5-1.5-1-2.3-1.5C41.9,31.2,41.9,31.1,41.9,31.1"/>
		<path class="st1" d="M40.9,14.3c-0.8-0.5-1.7-1.1-2.5-1.6c-0.1-0.1-0.1-0.3-0.2-0.4c0,0,0.1-0.1,0.1-0.1c0.3,0.2,0.6,0.4,0.8,0.6
			c0.5,0.3,1,0.7,1.6,1c0.1,0.1,0.2,0.3,0.3,0.5C41,14.2,40.9,14.3,40.9,14.3"/>
		<path class="st1" d="M30.7,15.2c-0.9-0.6-1.8-1.2-2.7-1.8c-0.1,0-0.1-0.2-0.1-0.3c0,0,0.1,0,0.1-0.1c0.3,0.2,0.7,0.4,1,0.6
			c0.5,0.3,1,0.7,1.6,1C30.8,14.8,30.9,15,30.7,15.2"/>
		<path class="st1" d="M23.2,32.9c-1.2,0-2-0.9-2.9-1.5C21.5,31.4,22.2,32.4,23.2,32.9"/>
		<path class="st1" d="M19.9,17.2c1,0.7,1.9,1.2,2.7,1.9C21.7,19.1,20.1,18,19.9,17.2"/>
		<path class="st1" d="M23.3,15.1c1.3,0.1,2,0.9,3,1.4C25.7,16.8,25,16.4,23.3,15.1"/>
		<path class="st1" d="M38.4,25.5c0.8,0.5,1.6,1,2.3,1.5c0,0.1,0,0.1,0,0.2c-0.3-0.1-0.6-0.1-0.8-0.2c-0.5-0.3-0.9-0.6-1.3-0.9
			c-0.1-0.1-0.2-0.3-0.3-0.5C38.2,25.6,38.3,25.6,38.4,25.5"/>
		<path class="st1" d="M42.6,44.7c0.1-0.2,0.2-0.4,0.4-0.2c0.7,0.5,1.5,0.9,2.3,1.5c-0.1,0-0.3,0.2-0.4,0.1
			C44.1,45.6,43.4,45.1,42.6,44.7"/>
		<path class="st1" d="M43,44c0.1,0,0.3-0.1,0.4-0.1c0.8,0.5,1.5,0.9,2.3,1.4c0,0,0,0.1,0,0.1c-0.1,0-0.3,0.1-0.4,0.1
			c-0.8-0.5-1.5-0.9-2.3-1.4C43,44.1,43,44,43,44"/>
		<path class="st1" d="M44.7,41.8c0.1,0,0.3-0.1,0.4-0.1c0.8,0.5,1.5,0.9,2.3,1.4c0,0,0,0.1,0,0.1c-0.1,0-0.3,0.1-0.4,0.1
			c-0.8-0.4-1.5-0.9-2.3-1.4C44.7,41.9,44.7,41.9,44.7,41.8"/>
		<path class="st1" d="M37.9,50.4c0.1,0,0.3-0.1,0.4-0.1c0.8,0.5,1.5,0.9,2.3,1.4c0,0,0,0.1,0,0.1c-0.1,0-0.3,0.1-0.4,0.1
			c-0.8-0.5-1.5-0.9-2.3-1.4C37.9,50.4,37.9,50.4,37.9,50.4"/>
		<path class="st1" d="M50.1,39.5c-0.1,0-0.3,0.1-0.4,0.1c-0.8-0.4-1.5-0.9-2.3-1.4c0.1-0.1,0.1-0.2,0.2-0.3c0.8,0.5,1.6,1,2.4,1.5
			C50.1,39.4,50.1,39.5,50.1,39.5"/>
		<path class="st1" d="M46.1,44.9c-0.1,0-0.3,0.1-0.4,0.1c-0.8-0.5-1.5-0.9-2.3-1.4c0.1-0.3,0.2-0.3,0.4-0.2
			c0.7,0.5,1.5,0.9,2.2,1.4C46.1,44.8,46.1,44.9,46.1,44.9"/>
		<path class="st1" d="M46.9,43.8c-0.1,0-0.3,0.1-0.4,0.1c-0.8-0.4-1.5-0.9-2.3-1.5c0.1,0,0.3-0.1,0.4-0.1c0.8,0.5,1.5,0.9,2.3,1.4
			C46.9,43.7,46.9,43.8,46.9,43.8"/>
		<path class="st1" d="M47.7,42.8c-0.1,0-0.3,0.1-0.4,0.1c-0.8-0.4-1.5-0.9-2.3-1.5c0.1,0,0.3-0.2,0.4-0.1c0.8,0.5,1.5,0.9,2.3,1.4
			C47.7,42.7,47.7,42.7,47.7,42.8"/>
		<path class="st1" d="M46.7,39.1c0.1,0,0.3-0.1,0.4,0c0.8,0.4,1.5,0.9,2.2,1.4c-0.1,0.2-0.1,0.4-0.4,0.2c-0.7-0.5-1.5-0.9-2.2-1.4
			L46.7,39.1z"/>
		<path class="st1" d="M45.5,40.7c0.1,0,0.3-0.1,0.4-0.1c0.8,0.4,1.5,0.9,2.2,1.4c-0.1,0.2-0.1,0.4-0.4,0.2
			c-0.7-0.5-1.5-0.9-2.2-1.4C45.5,40.8,45.5,40.8,45.5,40.7"/>
		<path class="st1" d="M46.1,40c0.8,0.5,1.6,1,2.4,1.5c-0.1,0.2-0.1,0.4-0.4,0.2c-0.7-0.5-1.5-0.9-2.3-1.4
			C45.9,40.2,46,40.1,46.1,40"/>
		<path class="st1" d="M41.4,50.7c-0.1,0-0.3,0.1-0.4,0.1c-0.8-0.4-1.5-0.9-2.3-1.5c0.1,0,0.3-0.1,0.4-0.1c0.8,0.4,1.5,0.9,2.2,1.4
			C41.4,50.6,41.4,50.7,41.4,50.7"/>
		<path class="st1" d="M39.8,52.7c-0.1,0.1-0.1,0.2-0.2,0.3c-0.8-0.5-1.6-1-2.4-1.5c0,0,0-0.1,0-0.1c0.1,0,0.3-0.1,0.4-0.1
			C38.3,51.8,39,52.3,39.8,52.7"/>
		<path class="st1" d="M46.5,39.5c0.8,0.5,1.6,1,2.4,1.5c-0.1,0.3-0.2,0.4-0.4,0.2c-0.7-0.5-1.4-0.9-2.2-1.4
			C46.3,39.7,46.4,39.6,46.5,39.5"/>
		<path class="st1" d="M47.1,38.6c0.1,0,0.3-0.1,0.4,0c0.8,0.4,1.5,0.9,2.2,1.4c-0.1,0.2-0.1,0.4-0.4,0.2c-0.7-0.5-1.5-0.9-2.2-1.4
			C47.1,38.7,47.1,38.6,47.1,38.6"/>
		<path class="st1" d="M40.2,52.3c-0.1,0-0.3,0.1-0.4,0.1c-0.8-0.4-1.5-0.9-2.3-1.4c0.1-0.2,0.2-0.4,0.4-0.2
			c0.7,0.5,1.5,0.9,2.2,1.4C40.2,52.2,40.2,52.3,40.2,52.3"/>
		<path class="st1" d="M36.3,52.5c0.1,0,0.3-0.1,0.4-0.1c0.7,0.4,1.5,0.9,2.2,1.4c-0.1,0.2-0.1,0.4-0.4,0.2
			c-0.7-0.5-1.5-0.9-2.2-1.4C36.3,52.6,36.3,52.5,36.3,52.5"/>
		<path class="st1" d="M39.3,53.4c-0.1,0-0.3,0.1-0.4,0.1c-0.8-0.4-1.5-0.9-2.2-1.4c0,0,0-0.1,0-0.1c0.1,0,0.3-0.1,0.4-0.1
			c0.8,0.4,1.5,0.9,2.2,1.4C39.3,53.3,39.3,53.3,39.3,53.4"/>
		<path class="st1" d="M32,40.8c-0.7-0.4-1.4-0.9-2.2-1.3c-0.1-0.1-0.1-0.3-0.2-0.4c0,0,0.1-0.1,0.1-0.1c0.3,0.2,0.6,0.4,1,0.6
			c0.4,0.2,0.8,0.5,1.1,0.7c0.1,0.1,0.2,0.3,0.3,0.4C32.1,40.7,32.1,40.7,32,40.8"/>
		<path class="st1" d="M32,40c-0.7-0.4-1.4-0.9-2.1-1.3c-0.1-0.1-0.1-0.3-0.2-0.4c0,0,0.1-0.1,0.1-0.1c0.3,0.2,0.7,0.4,1,0.6
			c0.4,0.2,0.7,0.4,1.1,0.7c0.1,0.1,0.2,0.3,0.3,0.4C32.1,39.9,32.1,39.9,32,40"/>
		<path class="st1" d="M24.4,42.7c0.7,0.5,1.5,0.9,2.2,1.4c0.1,0.1,0.1,0.3,0.1,0.4c0,0-0.1,0-0.1,0.1c-0.2-0.1-0.4-0.2-0.5-0.3
			c-0.5-0.3-1.1-0.7-1.6-1c-0.1-0.1-0.2-0.3-0.3-0.4C24.3,42.8,24.4,42.8,24.4,42.7"/>
		<path class="st1" d="M44.8,46.4c-0.1,0.3-0.2,0.3-0.4,0.2c-0.6-0.4-1.2-0.8-1.8-1.1c-0.1,0-0.2-0.1-0.2-0.2c0-0.1,0-0.2,0-0.3
			c0.1,0,0.2,0,0.2,0C43.3,45.4,44.1,45.9,44.8,46.4"/>
		<path class="st1" d="M26.6,54.1c-0.7-0.5-1.5-0.9-2.2-1.4c-0.1-0.1-0.1-0.3-0.2-0.4l0.1-0.1c0.2,0.1,0.5,0.3,0.7,0.4
			c0.5,0.3,0.9,0.6,1.4,0.9c0.1,0.1,0.2,0.3,0.3,0.4C26.7,54,26.7,54,26.6,54.1"/>
		<path class="st1" d="M29.8,39.7c0.7,0.5,1.5,0.9,2.2,1.4c0.1,0,0.1,0.2,0.1,0.3c-0.1,0-0.2,0.1-0.3,0c-0.7-0.4-1.3-0.8-2-1.2
			c-0.1-0.1-0.1-0.3-0.1-0.4C29.7,39.8,29.8,39.7,29.8,39.7"/>
		<path class="st1" d="M35.8,53.1c0.1-0.1,0.2-0.2,0.3-0.3c0.8,0.5,1.6,1,2.4,1.5c0,0,0,0.1,0,0.1c-0.2,0-0.4,0-0.6-0.1
			C37.2,54,36.5,53.6,35.8,53.1"/>
		<path class="st1" d="M24.4,45.9c0.7,0.5,1.4,0.9,2.1,1.4c0.1,0.1,0.1,0.3,0.2,0.4c0,0-0.1,0-0.1,0.1c-0.1,0-0.2-0.1-0.3-0.1
			c-0.6-0.4-1.2-0.8-1.8-1.1C24.4,46.3,24.2,46.2,24.4,45.9"/>
		<path class="st1" d="M24.4,45.1c0.7,0.5,1.5,0.9,2.2,1.4c0.1,0.1,0.1,0.2,0.2,0.4c0,0-0.1,0-0.1,0.1c-0.1,0-0.2-0.1-0.3-0.1
			c-0.6-0.4-1.2-0.8-1.8-1.1C24.4,45.5,24.2,45.4,24.4,45.1"/>
		<path class="st1" d="M24.4,43.5c0.3,0.2,0.7,0.4,1,0.6c0.4,0.2,0.8,0.5,1.1,0.7c0.1,0.1,0.2,0.3,0.3,0.4c0,0-0.1,0.1-0.1,0.1
			c-0.1-0.1-0.2-0.1-0.3-0.2c-0.6-0.4-1.2-0.7-1.8-1.1C24.4,43.9,24.2,43.8,24.4,43.5"/>
		<path class="st1" d="M26.6,50.1c-0.7-0.5-1.4-0.9-2.1-1.4c-0.1-0.1-0.1-0.3-0.2-0.4c0,0,0.1,0,0.1-0.1c0.1,0,0.2,0,0.2,0.1
			c0.6,0.4,1.3,0.8,1.9,1.2c0.1,0.1,0.2,0.3,0.3,0.4L26.6,50.1z"/>
		<path class="st1" d="M39.2,48.9c0.1-0.3,0.2-0.3,0.4-0.2c0.6,0.4,1.2,0.7,1.8,1.1c0.1,0.1,0.2,0.1,0.3,0.2c0,0.1,0,0.2,0,0.2
			c0,0-0.2,0.1-0.2,0C40.7,49.8,40,49.4,39.2,48.9"/>
		<path class="st1" d="M24.4,41.1c0.7,0.5,1.5,0.9,2.2,1.4c0.1,0.1,0.1,0.3,0.1,0.4c0,0-0.1,0-0.1,0.1c-0.5-0.3-1-0.6-1.5-0.9
			c-0.2-0.1-0.4-0.2-0.6-0.4c-0.1-0.1-0.2-0.3-0.3-0.4C24.3,41.2,24.4,41.2,24.4,41.1"/>
		<path class="st1" d="M26.6,42.2c-0.7-0.5-1.5-0.9-2.2-1.4c-0.1-0.1-0.1-0.3-0.1-0.4c0,0,0.1,0,0.1-0.1c0.5,0.3,1.1,0.7,1.6,1
			c0.2,0.1,0.3,0.2,0.5,0.3c0.1,0.1,0.2,0.3,0.2,0.4C26.7,42.1,26.7,42.2,26.6,42.2"/>
		<path class="st1" d="M26.6,50.9c-0.7-0.5-1.5-0.9-2.2-1.4c-0.1-0.1-0.1-0.3-0.1-0.4c0,0,0.1,0,0.1-0.1c0.5,0.3,0.9,0.6,1.4,0.9
			c0.2,0.2,0.5,0.3,0.7,0.5c0.1,0.1,0.2,0.3,0.2,0.4L26.6,50.9z"/>
		<path class="st1" d="M38.4,49.8c0.1,0,0.3-0.1,0.4,0c0.7,0.4,1.5,0.9,2.2,1.4c0,0,0,0.1,0,0.1c-0.1,0-0.3,0.1-0.4,0.1
			c-0.8-0.4-1.5-0.9-2.2-1.4C38.4,49.9,38.4,49.8,38.4,49.8"/>
		<path class="st1" d="M26.6,52.5c-0.7-0.5-1.5-0.9-2.2-1.4c-0.1-0.1-0.1-0.3-0.1-0.4c0,0,0.1,0,0.1-0.1c0.4,0.2,0.7,0.5,1.1,0.7
			c0.3,0.2,0.7,0.4,1,0.6c0.1,0.1,0.2,0.3,0.2,0.4C26.7,52.4,26.7,52.5,26.6,52.5"/>
		<path class="st1" d="M24.4,51.4c0.3,0.2,0.6,0.4,0.9,0.5c0.4,0.2,0.8,0.5,1.2,0.7c0.1,0.1,0.2,0.3,0.3,0.4c0,0-0.1,0.1-0.1,0.1
			c-0.2-0.1-0.4-0.2-0.5-0.3c-0.5-0.3-1-0.6-1.6-1C24.4,51.9,24.3,51.7,24.4,51.4"/>
		<path class="st1" d="M24.4,41.9c0.5,0.3,1.1,0.7,1.6,1c0.2,0.1,0.4,0.2,0.5,0.3c0.1,0.1,0.2,0.3,0.2,0.4c0,0-0.1,0.1-0.1,0.1
			c-0.1-0.1-0.3-0.1-0.4-0.2c-0.6-0.4-1.1-0.7-1.7-1.1C24.4,42.4,24.2,42.2,24.4,41.9"/>
		<path class="st1" d="M46.5,44.4c-0.1,0-0.3,0.1-0.4,0.1c-0.8-0.5-1.5-0.9-2.3-1.4v-0.1c0.1,0,0.3-0.1,0.4,0
			c0.8,0.4,1.5,0.9,2.2,1.4C46.5,44.3,46.5,44.3,46.5,44.4"/>
		<path class="st1" d="M26.6,46.2c-0.4-0.2-0.7-0.5-1.1-0.7c-0.3-0.2-0.7-0.4-1-0.6c-0.1-0.1-0.2-0.3-0.2-0.4c0,0,0.1-0.1,0.1-0.1
			c0.2,0.1,0.3,0.2,0.5,0.3c0.5,0.3,1.1,0.7,1.6,1C26.7,45.7,26.8,45.9,26.6,46.2"/>
		<path class="st1" d="M24.4,49.9c0.7,0.5,1.5,0.9,2.2,1.4c0.1,0.1,0.1,0.3,0.1,0.4c0,0-0.1,0-0.1,0.1c-0.7-0.5-1.5-0.9-2.2-1.4
			c-0.1-0.1-0.1-0.3-0.2-0.4C24.3,49.9,24.4,49.9,24.4,49.9"/>
		<path class="st1" d="M26.6,49.3c-0.5-0.3-1.1-0.7-1.6-1c-0.2-0.1-0.4-0.2-0.5-0.3c-0.1-0.1-0.2-0.3-0.2-0.4c0,0,0.1-0.1,0.1-0.1
			c0.2,0.1,0.4,0.2,0.5,0.3c0.5,0.3,1,0.7,1.5,1C26.7,48.9,26.8,49,26.6,49.3"/>
		<path class="st1" d="M26.6,48.5c-0.7-0.4-1.4-0.9-2.1-1.4c-0.1-0.1-0.1-0.3-0.2-0.4c0,0,0.1-0.1,0.1-0.1c0.7,0.5,1.5,0.9,2.2,1.4
			c0.1,0.1,0.1,0.2,0.1,0.4C26.7,48.5,26.7,48.5,26.6,48.5"/>
		<path class="st1" d="M50.5,39.1c-0.1,0-0.3,0.1-0.4,0c-0.7-0.4-1.5-0.9-2.4-1.5c0.2-0.1,0.4-0.2,0.4-0.1c0.8,0.5,1.5,0.9,2.3,1.4
			C50.5,38.9,50.5,39,50.5,39.1"/>
		<path class="st1" d="M26.5,54.4c-0.2,0-0.4,0.1-0.5,0c-0.7-0.4-1.4-0.8-2.1-1.3c0,0,0-0.1,0-0.1c0.2,0,0.4,0,0.6,0
			C25.2,53.5,25.8,53.9,26.5,54.4L26.5,54.4z"/>
		<path class="st1" d="M35.9,54.5c-0.3-0.1-0.5-0.1-0.8-0.2c-0.6-0.3-1.2-0.7-1.8-1.1c0,0,0-0.1,0-0.1c0.2,0,0.4,0,0.6,0
			c0.7,0.4,1.3,0.8,2,1.2C35.9,54.4,35.9,54.4,35.9,54.5"/>
		<path class="st1" d="M47.4,53c0.2,0,0.4,0,0.6,0.1c0.7,0.4,1.3,0.8,1.9,1.2c0,0,0,0.1,0.1,0.2c-0.2,0-0.5,0-0.6-0.1
			c-0.7-0.4-1.3-0.8-2-1.2C47.4,53.1,47.4,53.1,47.4,53"/>
		<path class="st1" d="M37.2,54.5c-0.2-0.1-0.5-0.1-0.7-0.2c-0.6-0.4-1.2-0.8-1.8-1.1c0,0,0-0.1,0-0.1c0.2,0,0.4,0,0.6,0.1
			c0.7,0.4,1.3,0.8,2,1.2C37.2,54.4,37.2,54.4,37.2,54.5"/>
		<path class="st1" d="M28.6,40c0.3,0.1,0.5,0.1,0.8,0.2c0.6,0.3,1.2,0.7,1.8,1.1c0,0,0,0.1,0,0.1c-0.2,0-0.4,0-0.6,0
			c-0.7-0.4-1.3-0.8-2-1.2C28.5,40.1,28.6,40.1,28.6,40"/>
		<path class="st1" d="M24.7,40.1c0.2,0,0.4,0,0.6,0.1c0.7,0.4,1.3,0.8,2,1.2c0,0,0,0.1,0,0.1c-0.2,0-0.4,0-0.6-0.1
			c-0.7-0.4-1.3-0.8-2-1.2C24.7,40.2,24.7,40.1,24.7,40.1"/>
		<path class="st1" d="M26,40.1c0.2,0,0.4,0,0.5,0c0.7,0.4,1.3,0.8,2,1.2l0,0.1c-0.2,0-0.4,0-0.6-0.1c-0.7-0.4-1.3-0.8-2-1.2
			C26,40.2,26,40.1,26,40.1"/>
		<path class="st1" d="M46.1,53c0.2,0,0.5,0,0.6,0.1c0.6,0.4,1.2,0.7,1.8,1.1c0,0,0.1,0.1,0.2,0.2c-0.3,0-0.5,0-0.7-0.1
			c-0.7-0.4-1.4-0.8-2-1.2C46.1,53.1,46.1,53.1,46.1,53"/>
		<path class="st1" d="M29.8,41.5c-0.2,0-0.4,0-0.6-0.1c-0.7-0.4-1.3-0.8-1.9-1.2c0,0,0-0.1,0-0.1c0.2,0,0.4,0,0.6,0.1
			c0.7,0.4,1.3,0.8,1.9,1.2C29.8,41.4,29.8,41.4,29.8,41.5"/>
		<path class="st1" d="M29.8,37.5c0.7,0.5,1.5,0.9,2.2,1.4c0.1,0.1,0.1,0.2,0.2,0.3c0,0-0.1,0.1-0.1,0.1c-0.2-0.1-0.3-0.2-0.5-0.3
			c-0.5-0.3-1-0.6-1.5-1c-0.1-0.1-0.2-0.3-0.3-0.4C29.7,37.5,29.8,37.5,29.8,37.5"/>
		<path class="st1" d="M25.2,54.5c-0.2,0-0.4,0-0.5-0.1c-0.7-0.4-1.3-0.8-2-1.2c0,0,0-0.1,0-0.1c0.2,0,0.4,0,0.5,0
			c0.7,0.4,1.3,0.8,2,1.2C25.3,54.4,25.2,54.4,25.2,54.5"/>
		<path class="st1" d="M18.4,40c0.2,0,0.5,0,0.7,0.2c0.5,0.3,0.9,0.6,1.4,0.9c0.1,0.1,0.1,0.2,0.2,0.3c-0.1,0-0.3,0.1-0.4,0
			c-0.6-0.4-1.3-0.8-1.9-1.2C18.4,40.1,18.4,40.1,18.4,40"/>
		<path class="st1" d="M21.7,53.1c0.2,0,0.3-0.1,0.5,0c0.7,0.4,1.4,0.8,2,1.2l0,0.1c-0.2,0-0.4,0-0.5-0.1C23,54,22.4,53.6,21.7,53.1
			C21.7,53.1,21.7,53.1,21.7,53.1"/>
		<path class="st1" d="M45,53c1,0.2,1.6,0.9,2.4,1.3c0,0,0,0.1,0,0.1c-0.2,0-0.4,0-0.5-0.1c-0.7-0.4-1.3-0.8-2-1.2
			C44.9,53.1,45,53.1,45,53"/>
		<path class="st1" d="M17.3,40c0.9,0.2,1.6,0.9,2.4,1.3c0,0,0,0.1,0,0.1c-0.2,0-0.4,0-0.5-0.1c-0.7-0.4-1.3-0.8-1.9-1.2
			C17.2,40.1,17.2,40.1,17.3,40"/>
		<path class="st1" d="M40.3,41.6c-0.7-0.5-1.6-0.7-2-1.6C39,40.5,39.9,40.7,40.3,41.6"/>
		<path class="st1" d="M37.3,38.5c0.7,0.5,1.6,0.7,2,1.6C38.6,39.7,37.6,39.5,37.3,38.5"/>
		<path class="st1" d="M18.6,41.5c-0.9-0.2-1.5-0.9-2.4-1.3c0,0,0-0.1,0-0.1c0.2,0,0.4,0,0.5,0.1c0.6,0.4,1.3,0.8,1.9,1.2
			C18.6,41.4,18.6,41.4,18.6,41.5"/>
		<path class="st1" d="M50.1,54c-0.7-0.5-1.6-0.7-2-1.6C48.8,52.9,49.7,53.1,50.1,54"/>
		<path class="st1" d="M46.9,50.9c0.7,0.5,1.6,0.7,2,1.6C48.1,52,47.3,51.7,46.9,50.9"/>
		<path class="st1" d="M26.9,16c0.6,0.4,1.3,0.9,1.9,1.3c0,0,0,0.1-0.1,0.1c-0.6-0.3-1.2-0.6-1.9-0.9C26.7,16.4,26.8,16.2,26.9,16"
			/>
		<path class="st1" d="M47.7,50.9c-0.7-0.5-1.6-0.7-2-1.6C46.4,49.8,47.2,50.1,47.7,50.9"/>
		<path class="st1" d="M46.4,49.3c-0.7-0.5-1.6-0.7-2-1.6C45.1,48.2,46,48.5,46.4,49.3"/>
		<path class="st1" d="M45.2,47.8c-0.7-0.5-1.6-0.8-2-1.6C43.9,46.7,44.8,46.9,45.2,47.8"/>
		<path class="st1" d="M18.4,30.9c0.6,0.1,1.6,0.7,2.2,1.3c-0.7-0.4-1.5-0.8-2.2-1.2C18.4,31,18.4,31,18.4,30.9"/>
		<path class="st1" d="M28.4,23c0.7,0.5,1.3,1,1.9,1.4C29.8,24.4,28.5,23.4,28.4,23"/>
		<path class="st1" d="M40.8,49.1c-0.4-0.2-0.7-0.5-1.1-0.7c0.1-0.3,0.2-0.4,0.4-0.2c0.3,0.2,0.5,0.5,0.8,0.8
			C40.8,49,40.8,49,40.8,49.1"/>
		<path class="st1" d="M19.6,40.2c0.7-0.2,1.1,0.1,1,0.6C20.3,40.6,19.9,40.4,19.6,40.2"/>
		<path class="st1" d="M38.3,26.5c0.3,0.2,0.6,0.4,1,0.6c-0.4,0.1-0.7,0.1-0.9-0.1c-0.1-0.1-0.1-0.3-0.1-0.5
			C38.3,26.5,38.3,26.5,38.3,26.5"/>
		<path class="st1" d="M39.3,41.4c0.3,0.2,0.7,0.4,1.1,0.6c-0.1,0.1-0.3,0.3-0.3,0.2c-0.3-0.2-0.6-0.5-0.9-0.7
			C39.3,41.5,39.3,41.4,39.3,41.4"/>
	</g>
</g>
</svg>
